<?xml version="1.0" encoding="utf-8"?>
<!-- Generator: Adobe Illustrator 22.1.0, SVG Export Plug-In . SVG Version: 6.00 Build 0)  -->
<svg version="1.1" id="Layer_1" xmlns="http://www.w3.org/2000/svg" xmlns:xlink="http://www.w3.org/1999/xlink" x="0px" y="0px"
	 viewBox="0 0 24 24" style="enable-background:new 0 0 24 24;" xml:space="preserve">
<title>analytics-graph-bar</title>
<g>
	<path d="M0.749,24c-0.414,0-0.75-0.336-0.75-0.75s0.336-0.75,0.75-0.75h0.75v-3.25c0-0.689,0.561-1.25,1.25-1.25H5.5
		c0.689,0,1.25,0.561,1.25,1.25v3.25h2.249V10.25C8.999,9.561,9.56,9,10.249,9H13c0.689,0,1.25,0.561,1.25,1.25V22.5h2.25v-7.75
		c0-0.688,0.56-1.249,1.248-1.25H20.5c0.689,0,1.25,0.561,1.25,1.25v7.75h0.749c0.414,0,0.75,0.336,0.75,0.75S22.913,24,22.499,24
		H0.749z M20.25,22.5V15H18v7.5H20.25z M12.75,22.5v-12h-2.251v12H12.75z M5.25,22.5v-3H2.999v3H5.25z"/>
	<path d="M2.249,12.751c-1.241,0-2.25-1.009-2.25-2.25s1.009-2.25,2.25-2.25c0.134,0,0.269,0.012,0.403,0.037l3.385-3.382
		c-0.025-0.135-0.038-0.27-0.038-0.406c0-1.241,1.009-2.25,2.25-2.25s2.25,1.009,2.25,2.25c0,0.009,0,0.019,0,0.028l3.421,0.915
		C14.339,4.855,15.016,4.5,15.75,4.5c0.364,0,0.718,0.087,1.038,0.255L19.53,2.61c-0.02-0.12-0.03-0.241-0.03-0.36
		C19.5,1.009,20.51,0,21.75,0S24,1.009,24,2.25S22.991,4.5,21.75,4.5c-0.552,0-1.077-0.201-1.485-0.561l-2.451,1.918
		C17.936,6.138,18,6.442,18,6.75C18,7.991,16.991,9,15.75,9c-1.195,0-2.176-0.937-2.246-2.114l-3.53-0.944
		C9.549,6.453,8.922,6.751,8.249,6.751c-0.524,0-1.026-0.183-1.425-0.511L3.987,9.074c0.329,0.4,0.512,0.902,0.512,1.427
		C4.499,11.742,3.49,12.751,2.249,12.751z M2.249,9.751c-0.414,0-0.75,0.336-0.75,0.75s0.336,0.75,0.75,0.75s0.75-0.336,0.75-0.75
		S2.663,9.751,2.249,9.751z M15.75,6C15.337,6,15,6.336,15,6.75s0.336,0.75,0.75,0.75s0.75-0.336,0.75-0.75S16.164,6,15.75,6z
		 M8.249,3.751c-0.414,0-0.75,0.336-0.75,0.75s0.336,0.75,0.75,0.75s0.75-0.336,0.75-0.75S8.663,3.751,8.249,3.751z M21.75,1.5
		C21.337,1.5,21,1.836,21,2.25S21.337,3,21.75,3s0.75-0.336,0.75-0.75S22.164,1.5,21.75,1.5z"/>
</g>
</svg>
