<?xml version="1.0" encoding="utf-8"?>
<!-- Generator: Adobe Illustrator 22.1.0, SVG Export Plug-In . SVG Version: 6.00 Build 0)  -->
<svg version="1.1" id="Layer_1" xmlns="http://www.w3.org/2000/svg" xmlns:xlink="http://www.w3.org/1999/xlink" x="0px" y="0px"
	 viewBox="0 0 24 24" style="enable-background:new 0 0 24 24;" xml:space="preserve">
<title>baby-trolley</title>
<g>
	<path d="M10.5,12c0-2.481-2.019-4.5-4.5-4.5s-4.5,2.019-4.496,4.417l-0.75,6.75c-0.023,0.212,0.044,0.424,0.187,0.583
		C1.083,19.409,1.287,19.5,1.5,19.5h1.615l0.646,3.873C3.82,23.735,4.133,24,4.5,24h3c0.367,0,0.68-0.265,0.74-0.627l0.75-4.5
		c0.068-0.408-0.208-0.795-0.616-0.863c-0.409-0.066-0.795,0.208-0.863,0.617L6.865,22.5H5.135L4.49,18.627
		C4.43,18.265,4.117,18,3.75,18H2.337L3,12c0-1.654,1.346-3,3-3s3,1.346,3,3c0,0.414,0.336,0.75,0.75,0.75S10.5,12.414,10.5,12z"/>
	<path d="M8.723,6.313C9.156,7.376,9.934,8.25,11.25,8.25C11.664,8.25,12,7.914,12,7.5s-0.336-0.75-0.75-0.75
		c-1.45,0-1.5-2.971-1.5-3.001c0,0,0-0.001,0-0.001C9.749,1.681,8.067,0,6,0S2.251,1.681,2.25,3.748c0,0,0,0.001,0,0.001
		c0,0.03-0.05,3.001-1.5,3.001C0.336,6.75,0,7.086,0,7.5s0.336,0.75,0.75,0.75c1.316,0,2.094-0.874,2.527-1.937
		C3.962,7.04,4.925,7.5,6,7.5S8.038,7.04,8.723,6.313z M6,6C4.759,6,3.75,4.991,3.75,3.75S4.759,1.5,6,1.5s2.25,1.009,2.25,2.25
		S7.241,6,6,6z"/>
	<path d="M22.892,12.271c-0.93-1.306-2.312-2.172-3.888-2.437c-0.894-0.152-1.754,0.564-1.754,1.478v2.938h-6
		c-0.827,0-1.5,0.673-1.5,1.5v0.75c0,2.895,2.355,5.25,5.25,5.25h3c0.001,0,0.001,0,0.002,0c2.94,0,5.429-2.104,5.917-5.003
		C24.186,15.167,23.82,13.577,22.892,12.271z M22.44,16.497c-0.366,2.175-2.232,3.753-4.438,3.753c-0.001,0-0.001,0-0.002,0h-3
		c-2.068,0-3.75-1.683-3.75-3.75v-0.75H18c0.414,0,0.75-0.336,0.75-0.75v-3.687c1.186,0.199,2.222,0.849,2.919,1.828
		C22.366,14.12,22.64,15.312,22.44,16.497z"/>
	<circle cx="20.625" cy="22.875" r="1.125"/>
	<circle cx="13.125" cy="22.875" r="1.125"/>
</g>
</svg>
