<?xml version="1.0" encoding="utf-8"?>
<!-- Generator: Adobe Illustrator 22.1.0, SVG Export Plug-In . SVG Version: 6.00 Build 0)  -->
<svg version="1.1" id="Layer_1" xmlns="http://www.w3.org/2000/svg" xmlns:xlink="http://www.w3.org/1999/xlink" x="0px" y="0px"
	 viewBox="0 0 24 24" style="enable-background:new 0 0 24 24;" xml:space="preserve">
<title>baggage</title>
<g>
	<path d="M3.749,22.5c-2.068,0-3.75-1.682-3.75-3.75v-9c0-2.068,1.682-3.75,3.75-3.75h3.75V3.75c0-1.241,1.009-2.25,2.25-2.25h4.5
		c1.241,0,2.25,1.009,2.25,2.25V6h3.75c2.068,0,3.75,1.682,3.75,3.75v9c0,2.068-1.682,3.75-3.75,3.75H3.749z M20.249,21
		c1.241,0,2.25-1.009,2.25-2.25v-9c0-1.241-1.009-2.25-2.25-2.25h-2.25V21H20.249z M16.499,21V7.5h-9V21H16.499z M3.749,7.5
		c-1.241,0-2.25,1.009-2.25,2.25v9c0,1.241,1.009,2.25,2.25,2.25h2.25V7.5H3.749z M14.999,6V3.75c0-0.414-0.336-0.75-0.75-0.75h-4.5
		c-0.414,0-0.75,0.336-0.75,0.75V6H14.999z"/>
</g>
</svg>
