<?xml version="1.0" encoding="utf-8"?>
<!-- Generator: Adobe Illustrator 22.1.0, SVG Export Plug-In . SVG Version: 6.00 Build 0)  -->
<svg version="1.1" id="Layer_1" xmlns="http://www.w3.org/2000/svg" xmlns:xlink="http://www.w3.org/1999/xlink" x="0px" y="0px"
	 viewBox="0 0 24 24" style="enable-background:new 0 0 24 24;" xml:space="preserve">
<title>beach-parasol-water-1</title>
<g>
	<path d="M21.909,24.001c-0.052,0-0.104-0.002-0.156-0.007c-0.46-0.041-0.876-0.259-1.172-0.614l-0.943-1.131
		c-0.008-0.009-0.018-0.019-0.029-0.028c-0.051-0.043-0.107-0.052-0.145-0.052c-0.068,0-0.132,0.03-0.176,0.081l-0.942,1.13
		c-0.067,0.079-0.139,0.151-0.216,0.216c-0.311,0.26-0.705,0.403-1.11,0.403c-0.514,0-0.997-0.225-1.326-0.618l-0.952-1.129
		c-0.01-0.011-0.019-0.021-0.029-0.029c-0.054-0.045-0.11-0.054-0.147-0.054c-0.068,0-0.132,0.03-0.175,0.081l-0.942,1.13
		c-0.067,0.079-0.139,0.151-0.216,0.216c-0.311,0.26-0.705,0.403-1.11,0.403c-0.514,0-0.997-0.225-1.326-0.618l-0.944-1.132
		c-0.008-0.01-0.018-0.019-0.027-0.027c-0.052-0.044-0.108-0.053-0.146-0.053c-0.068,0-0.132,0.03-0.175,0.082l-0.941,1.13
		c-0.068,0.08-0.14,0.153-0.217,0.218C8.037,23.857,7.644,24,7.241,24c-0.052,0-0.104-0.002-0.156-0.007
		c-0.459-0.041-0.876-0.258-1.172-0.612L4.968,22.25c-0.008-0.01-0.017-0.019-0.027-0.027c-0.053-0.045-0.109-0.054-0.147-0.054
		c-0.068,0-0.132,0.03-0.175,0.082l-0.942,1.13c-0.066,0.079-0.139,0.152-0.217,0.217C3.149,23.857,2.756,24,2.353,24
		c-0.052,0-0.104-0.002-0.156-0.007c-0.459-0.041-0.875-0.258-1.172-0.612l-0.872-1.144c-0.251-0.329-0.187-0.801,0.142-1.051
		c0.132-0.1,0.289-0.154,0.454-0.154c0.236,0,0.454,0.108,0.597,0.296l0.851,1.117c0.013,0.015,0.064,0.048,0.133,0.054
		c0.002,0,0.004,0,0.006,0c0.072,0,0.12-0.018,0.16-0.052c0.011-0.009,0.02-0.019,0.029-0.028l0.942-1.131
		c0.33-0.394,0.814-0.619,1.328-0.619c0.404,0,0.798,0.143,1.107,0.402c0.078,0.065,0.151,0.138,0.216,0.216l0.946,1.132
		c0.039,0.047,0.093,0.075,0.154,0.08c0.002,0,0.004,0,0.006,0c0.072,0,0.12-0.018,0.16-0.052c0.011-0.009,0.021-0.019,0.029-0.029
		l0.94-1.129c0.33-0.394,0.814-0.619,1.328-0.619c0.404,0,0.797,0.143,1.107,0.402c0.077,0.064,0.15,0.137,0.215,0.215l0.945,1.133
		c0.043,0.051,0.106,0.081,0.174,0.081c0.038,0,0.094-0.009,0.146-0.053c0.01-0.009,0.021-0.019,0.03-0.03l0.941-1.129
		c0.33-0.394,0.813-0.619,1.327-0.619c0.404,0,0.798,0.143,1.108,0.402c0.079,0.066,0.152,0.139,0.217,0.217l0.951,1.128
		c0.041,0.049,0.095,0.077,0.156,0.083l0.026,0.001c0.051,0,0.098-0.018,0.14-0.053c0.011-0.009,0.021-0.019,0.03-0.03l0.941-1.129
		c0.329-0.394,0.813-0.619,1.327-0.619c0.405,0,0.798,0.143,1.108,0.402c0.078,0.065,0.15,0.137,0.215,0.215l0.945,1.134
		c0.039,0.047,0.092,0.074,0.154,0.08c0.002,0,0.004,0,0.007,0c0.071,0,0.119-0.018,0.159-0.052c0.011-0.01,0.021-0.02,0.03-0.03
		l0.584-0.699c0.143-0.171,0.353-0.269,0.576-0.269c0.175,0,0.346,0.062,0.481,0.175c0.317,0.265,0.36,0.739,0.094,1.056l-0.585,0.7
		c-0.067,0.08-0.141,0.154-0.22,0.219C22.703,23.858,22.311,24.001,21.909,24.001z"/>
	<path d="M11.022,19.721c-0.23,0-0.444-0.103-0.587-0.283c-0.125-0.156-0.181-0.352-0.159-0.551
		c0.022-0.199,0.121-0.377,0.278-0.502c1.449-1.155,3.262-1.822,5.114-1.883l-1.934-5.558L6.6,13.426
		c-0.184,0.063-0.375,0.095-0.567,0.095C5.563,13.52,5.13,13.338,4.805,13.01c-0.325-0.327-0.503-0.762-0.501-1.224
		C4.32,8.589,5.761,5.611,8.255,3.614C8.997,3.021,9.81,2.532,10.677,2.16l-0.405-1.164c-0.066-0.189-0.054-0.393,0.033-0.573
		c0.087-0.18,0.24-0.316,0.429-0.382C10.813,0.014,10.896,0,10.981,0c0.319,0,0.603,0.202,0.708,0.504l0.406,1.168
		c0.891-0.239,1.81-0.36,2.738-0.36c3.225,0,6.225,1.438,8.232,3.945c0.124,0.154,0.22,0.328,0.285,0.516
		c0.151,0.436,0.123,0.904-0.078,1.319s-0.552,0.727-0.988,0.878l-7.133,2.482l2.105,6.049h5.994c0.414,0,0.75,0.336,0.75,0.75
		S23.663,18,23.249,18h-7.5c-1.533,0.039-3.049,0.592-4.26,1.557C11.357,19.663,11.191,19.721,11.022,19.721z M11.85,3.312
		c-0.96,0.335-1.855,0.831-2.657,1.473c-2.14,1.713-3.375,4.267-3.39,7.008c0,0.061,0.023,0.117,0.066,0.161
		c0.044,0.044,0.1,0.067,0.162,0.068c0.001,0,0.002,0,0.002,0c0.028,0,0.043-0.002,0.075-0.013l15.683-5.458
		c0.059-0.021,0.104-0.06,0.131-0.115c0.027-0.056,0.031-0.116,0.01-0.174c-0.009-0.025-0.021-0.047-0.037-0.067
		c-1.723-2.154-4.298-3.388-7.066-3.388c-1.005,0-1.994,0.165-2.94,0.491C11.881,3.302,11.855,3.311,11.85,3.312z"/>
</g>
</svg>
