<?xml version="1.0" encoding="utf-8"?>
<!-- Generator: Adobe Illustrator 22.1.0, SVG Export Plug-In . SVG Version: 6.00 Build 0)  -->
<svg version="1.1" id="Layer_1" xmlns="http://www.w3.org/2000/svg" xmlns:xlink="http://www.w3.org/1999/xlink" x="0px" y="0px"
	 viewBox="0 0 24 24" style="enable-background:new 0 0 24 24;" xml:space="preserve">
<title>biking-person</title>
<g>
	<path d="M14.999,6.75c-1.654,0-3-1.346-3-3s1.346-3,3-3s3,1.346,3,3S16.653,6.75,14.999,6.75z M14.999,2.25
		c-0.827,0-1.5,0.673-1.5,1.5s0.673,1.5,1.5,1.5s1.5-0.673,1.5-1.5S15.826,2.25,14.999,2.25z"/>
	<path d="M4.499,23.25c-2.481,0-4.5-2.019-4.5-4.5s2.019-4.5,4.5-4.5s4.5,2.019,4.5,4.5S6.98,23.25,4.499,23.25z M4.499,15.75
		c-1.654,0-3,1.346-3,3s1.346,3,3,3s3-1.346,3-3S6.153,15.75,4.499,15.75z"/>
	<path d="M19.499,23.25c-2.481,0-4.5-2.019-4.5-4.5s2.019-4.5,4.5-4.5s4.5,2.019,4.5,4.5S21.98,23.25,19.499,23.25z M19.499,15.75
		c-1.654,0-3,1.346-3,3s1.346,3,3,3s3-1.346,3-3S21.153,15.75,19.499,15.75z"/>
	<path d="M12,21c-1.241,0-2.25-1.009-2.25-2.25c0.004-1.971-1.081-3.757-2.83-4.662c-1.102-0.575-1.53-1.938-0.956-3.037
		c0.115-0.22,0.264-0.418,0.445-0.59l4.042-3.842C10.871,6.22,11.416,6,11.985,6c0.025,0,0.05,0,0.076,0.001
		c0.598,0.015,1.157,0.263,1.571,0.699c0.153,0.161,0.282,0.344,0.382,0.543C14.018,7.252,14.969,9,16.5,9
		c1.241,0,2.25,1.009,2.25,2.25c0,1.241-1.009,2.25-2.25,2.25c-1.759-0.031-3.462-0.727-4.735-1.921l-0.331,0.315
		c1.798,1.815,2.82,4.292,2.816,6.858C14.25,19.991,13.241,21,12,21z M12,7.5c-0.193,0-0.376,0.073-0.516,0.206l-4.042,3.842
		c-0.06,0.057-0.11,0.123-0.148,0.196c-0.192,0.367-0.049,0.821,0.318,1.013c2.249,1.162,3.644,3.459,3.639,5.994
		c0,0.412,0.336,0.749,0.75,0.749s0.75-0.336,0.75-0.75c0.004-2.422-1.052-4.711-2.898-6.278c-0.162-0.138-0.258-0.339-0.264-0.551
		c-0.006-0.212,0.079-0.418,0.233-0.564l1.453-1.381c0.14-0.133,0.323-0.206,0.516-0.206c0.007,0,0.035,0.001,0.042,0.001
		c0.204,0.011,0.398,0.107,0.531,0.264c1.036,1.221,2.549,1.938,4.15,1.966c0.403,0,0.737-0.336,0.737-0.75s-0.336-0.75-0.75-0.75
		c-2.423,0-3.763-2.463-3.819-2.567c-0.042-0.083-0.084-0.144-0.137-0.199C12.406,7.588,12.22,7.505,12.02,7.5L12,7.5z"/>
</g>
</svg>
