<?xml version="1.0" encoding="utf-8"?>
<!-- Generator: Adobe Illustrator 22.1.0, SVG Export Plug-In . SVG Version: 6.00 Build 0)  -->
<svg version="1.1" id="Layer_1" xmlns="http://www.w3.org/2000/svg" xmlns:xlink="http://www.w3.org/1999/xlink" x="0px" y="0px"
	 viewBox="0 0 24 24" style="enable-background:new 0 0 24 24;" xml:space="preserve">
<title>bin-2</title>
<g>
	<path d="M9.749,17.25c-0.414,0-0.75-0.336-0.75-0.75v-6c0-0.414,0.336-0.75,0.75-0.75s0.75,0.336,0.75,0.75v6
		C10.499,16.914,10.163,17.25,9.749,17.25z"/>
	<path d="M14.249,17.25c-0.414,0-0.75-0.336-0.75-0.75v-6c0-0.414,0.336-0.75,0.75-0.75s0.75,0.336,0.75,0.75v6
		C14.999,16.914,14.663,17.25,14.249,17.25z"/>
	<path d="M6.749,21.75c-1.241,0-2.25-1.009-2.25-2.25V6.75h-2.25c-0.414,0-0.75-0.336-0.75-0.75s0.336-0.75,0.75-0.75h5.25V4.5
		c0-1.241,1.009-2.25,2.25-2.25h4.5c1.241,0,2.25,1.009,2.25,2.25v0.75h5.25c0.414,0,0.75,0.336,0.75,0.75s-0.336,0.75-0.75,0.75
		h-2.25V19.5c0,1.241-1.009,2.25-2.25,2.25H6.749z M5.999,19.5c0,0.414,0.336,0.75,0.75,0.75h10.5c0.414,0,0.75-0.336,0.75-0.75
		V6.75h-12V19.5z M14.999,5.25V4.5c0-0.414-0.336-0.75-0.75-0.75h-4.5c-0.414,0-0.75,0.336-0.75,0.75v0.75H14.999z"/>
</g>
</svg>
