<?xml version="1.0" encoding="utf-8"?>
<!-- Generator: Adobe Illustrator 22.1.0, SVG Export Plug-In . SVG Version: 6.00 Build 0)  -->
<svg version="1.1" id="Layer_1" xmlns="http://www.w3.org/2000/svg" xmlns:xlink="http://www.w3.org/1999/xlink" x="0px" y="0px"
	 viewBox="0 0 24 24" style="enable-background:new 0 0 24 24;" xml:space="preserve">
<title>binocular</title>
<g>
	<path d="M18.749,23.25c-2.895,0-5.25-2.355-5.25-5.25v-5.25h-3V18c0,2.895-2.355,5.25-5.25,5.25s-5.25-2.355-5.25-5.25
		c0-0.432,0.058-0.875,0.174-1.317c0.004-0.028,0.009-0.052,0.015-0.076L3.87,3.226c0.402-1.46,1.74-2.48,3.254-2.48
		c1.866,0.003,3.378,1.519,3.375,3.38V8.25h3V4.125c-0.003-1.86,1.509-3.376,3.37-3.379c1.519,0,2.857,1.02,3.259,2.48l3.683,13.377
		c0.01,0.036,0.017,0.072,0.021,0.107c0.111,0.434,0.167,0.868,0.167,1.291C23.999,20.895,21.644,23.25,18.749,23.25z M18.749,14.25
		c-2.068,0-3.75,1.682-3.75,3.75s1.682,3.75,3.75,3.75s3.75-1.682,3.75-3.75S20.817,14.25,18.749,14.25z M5.249,14.25
		c-2.068,0-3.75,1.682-3.75,3.75s1.682,3.75,3.75,3.75s3.75-1.682,3.75-3.75S7.317,14.25,5.249,14.25z M16.871,2.246
		c-0.5,0.001-0.97,0.197-1.324,0.552s-0.549,0.826-0.548,1.326v10.209c0.978-1.006,2.317-1.583,3.75-1.583
		c0.936,0,1.846,0.251,2.644,0.721l-2.711-9.847c-0.223-0.811-0.967-1.378-1.808-1.378l-0.003-0.375L16.871,2.246z M5.249,12.75
		c1.433,0,2.772,0.577,3.75,1.583V4.125C9,3.624,8.805,3.153,8.451,2.798S7.627,2.247,7.127,2.246c-0.844,0-1.587,0.567-1.81,1.378
		l-2.709,9.846C3.405,13.001,4.313,12.75,5.249,12.75z M13.499,11.25v-1.5h-3v1.5H13.499z"/>
</g>
</svg>
