<?xml version="1.0" encoding="utf-8"?>
<!-- Generator: Adobe Illustrator 22.1.0, SVG Export Plug-In . SVG Version: 6.00 Build 0)  -->
<svg version="1.1" id="Layer_1" xmlns="http://www.w3.org/2000/svg" xmlns:xlink="http://www.w3.org/1999/xlink" x="0px" y="0px"
	 viewBox="0 0 24 24" style="enable-background:new 0 0 24 24;" xml:space="preserve">
<title>bomb-grenade</title>
<g>
	<path d="M8.818,23.625c-0.735,0-1.419-0.367-1.829-0.982c-1.448-2.163-2.18-4.683-2.115-7.286
		c-0.065-2.573,0.667-5.087,2.117-7.251C7.4,7.492,8.088,7.125,8.832,7.125l0.542,0V4.124H6.669
		c-0.882,0.869-4.045,4.463-4.045,11.25c0,0.414-0.336,0.75-0.75,0.75s-0.75-0.336-0.75-0.75c0-8.503,4.575-12.414,4.77-12.576
		c0.135-0.112,0.305-0.174,0.48-0.174h10.599c0.338-1.303,1.532-2.249,2.901-2.249c1.654,0,3,1.346,3,3s-1.346,3-3,3
		c-1.37,0-2.564-0.947-2.902-2.251h-1.598v3.001l0.564,0c0.732,0,1.413,0.367,1.823,0.983c1.449,2.163,2.18,4.683,2.116,7.286
		c0.065,2.573-0.667,5.086-2.117,7.251c-0.409,0.614-1.094,0.981-1.834,0.981H8.818z M6.925,19.125
		c0.312,0.948,0.753,1.849,1.312,2.684c0.132,0.198,0.346,0.316,0.572,0.316c0.004,0,7.117,0,7.117,0
		c0.236,0,0.456-0.117,0.587-0.314c0.56-0.837,1.001-1.738,1.313-2.686H6.925z M18.208,17.625c0.131-0.732,0.188-1.482,0.169-2.231
		c0.019-0.774-0.038-1.531-0.17-2.269H6.543c-0.131,0.732-0.188,1.481-0.169,2.231c-0.019,0.774,0.039,1.532,0.17,2.269H18.208z
		 M17.826,11.625c-0.312-0.948-0.753-1.849-1.312-2.685c-0.13-0.195-0.349-0.316-0.571-0.316c-0.004,0-7.121,0-7.121,0
		c-0.237,0-0.45,0.115-0.583,0.314c-0.56,0.837-1.001,1.738-1.314,2.686H17.826z M13.874,7.125v-3h-3v3H13.874z M19.874,1.875
		c-0.827,0-1.5,0.673-1.5,1.5s0.673,1.5,1.5,1.5s1.5-0.673,1.5-1.5S20.701,1.875,19.874,1.875z"/>
</g>
</svg>
