<?xml version="1.0" encoding="utf-8"?>
<!-- Generator: Adobe Illustrator 22.1.0, SVG Export Plug-In . SVG Version: 6.00 Build 0)  -->
<svg version="1.1" id="Layer_1" xmlns="http://www.w3.org/2000/svg" xmlns:xlink="http://www.w3.org/1999/xlink" x="0px" y="0px"
	 viewBox="0 0 24 24" style="enable-background:new 0 0 24 24;" xml:space="preserve">
<title>building-modern-1</title>
<g>
	<path d="M23.249,24c-0.414,0-0.75-0.336-0.75-0.75V19.5h-7.5v3.75c0,0.414-0.336,0.75-0.75,0.75s-0.75-0.336-0.75-0.75v-12
		c0-1.086,0.771-2.006,1.821-2.208l2.805-4.208c0.135-0.203,0.368-0.324,0.624-0.324s0.489,0.121,0.624,0.324l2.805,4.208
		c1.05,0.202,1.821,1.122,1.821,2.208v12C23.999,23.664,23.663,24,23.249,24z M22.499,18v-3h-7.5v3H22.499z M22.499,13.5v-2.25
		c0-0.414-0.336-0.75-0.75-0.75h-6c-0.414,0-0.75,0.336-0.75,0.75v2.25H22.499z M20.348,9l-1.599-2.398L17.15,9H20.348z"/>
	<path d="M11.227,23.999c-0.048-0.001-0.094-0.007-0.14-0.017c-0.014-0.003-0.04-0.01-0.053-0.015
		c-0.024-0.007-0.055-0.017-0.085-0.03c-0.011-0.004-0.021-0.009-0.031-0.013l-9.42-4.71v4.036c0,0.414-0.336,0.75-0.75,0.75
		s-0.75-0.336-0.75-0.75v-18c0-0.219,0.096-0.427,0.262-0.57l5.25-4.5C5.647,0.064,5.82,0,5.999,0s0.352,0.064,0.488,0.181l5.25,4.5
		c0.166,0.142,0.262,0.35,0.262,0.569v18c0,0.011-0.001,0.025-0.002,0.038c-0.001,0.02-0.003,0.04-0.006,0.061
		c-0.005,0.033-0.008,0.053-0.013,0.073c-0.005,0.02-0.011,0.042-0.019,0.063c-0.008,0.025-0.016,0.044-0.023,0.062
		c-0.005,0.013-0.011,0.027-0.016,0.038c-0.007,0.014-0.016,0.029-0.026,0.043c-0.022,0.038-0.049,0.076-0.08,0.111
		c-0.006,0.007-0.024,0.028-0.03,0.034c-0.035,0.037-0.083,0.076-0.135,0.109c-0.01,0.006-0.031,0.018-0.042,0.024
		c-0.037,0.021-0.083,0.041-0.131,0.056c-0.007,0.002-0.036,0.011-0.042,0.013C11.37,23.992,11.309,24,11.249,24
		C11.242,24,11.234,24,11.227,23.999z M10.499,22.037v-8.073L2.426,18L10.499,22.037z M1.499,16.787l8.073-4.036L1.499,8.714V16.787
		z M10.499,11.537V6.75h-9v0.286L10.499,11.537z M10.097,5.25L5.999,1.738L1.901,5.25H10.097z"/>
</g>
</svg>
