<?xml version="1.0" encoding="utf-8"?>
<!-- Generator: Adobe Illustrator 22.1.0, SVG Export Plug-In . SVG Version: 6.00 Build 0)  -->
<svg version="1.1" id="Layer_1" xmlns="http://www.w3.org/2000/svg" xmlns:xlink="http://www.w3.org/1999/xlink" x="0px" y="0px"
	 viewBox="0 0 24 24" style="enable-background:new 0 0 24 24;" xml:space="preserve">
<title>camera-flash</title>
<g>
	<path d="M19.5,12h-1.036l-0.878-1.756c-0.244-0.489-0.654-0.84-1.135-1.045L17.11,6h0.139c0.827,0,1.5-0.673,1.5-1.5v-3
		c0-0.827-0.673-1.5-1.5-1.5h-7.5c-0.827,0-1.5,0.673-1.5,1.5v3c0,0.827,0.673,1.5,1.5,1.5h0.139l0.659,3.2
		c-0.479,0.205-0.889,0.556-1.133,1.044L8.537,12H6.749v-0.75c0-0.414-0.336-0.75-0.75-0.75s-0.75,0.336-0.75,0.75V12H4.5
		c-1.241,0-2.25,1.01-2.25,2.25v7.5C2.25,22.99,3.259,24,4.5,24h15c1.24,0,2.25-1.01,2.25-2.25v-7.5C21.75,13.01,20.74,12,19.5,12z
		 M9.748,1.5l0.001-0.75L9.748,1.5C9.749,1.5,9.749,1.5,9.748,1.5z M9.75,1.5h7.5v3h-0.75h-6h-0.75L9.75,1.5z M15.579,6l-0.618,3
		h-2.924l-0.618-3H15.579z M20.25,21.75c0,0.413-0.337,0.75-0.75,0.75h-15c-0.414,0-0.75-0.337-0.75-0.75v-7.5
		c0-0.413,0.336-0.75,0.75-0.75H9c0.284,0,0.544-0.16,0.671-0.415l1.085-2.17c0.128-0.256,0.384-0.415,0.67-0.415h4.146h0.001
		c0.286,0,0.543,0.159,0.671,0.415l1.085,2.17C17.456,13.34,17.716,13.5,18,13.5h1.5c0.413,0,0.75,0.337,0.75,0.75V21.75z"/>
	<path d="M6.375,15C6.375,15,6.374,15,6.375,15c-0.622,0.001-1.126,0.505-1.125,1.126c0.001,0.621,0.505,1.125,1.126,1.124
		C6.997,17.249,7.5,16.746,7.5,16.125C7.5,15.504,6.996,15,6.375,15z"/>
	<path d="M13.499,13.5c-2.068,0-3.75,1.683-3.75,3.75S11.431,21,13.499,21c2.067,0,3.75-1.683,3.75-3.75S15.566,13.5,13.499,13.5z
		 M13.499,19.5c-1.241,0-2.25-1.01-2.25-2.25S12.258,15,13.499,15c1.24,0,2.25,1.01,2.25,2.25S14.739,19.5,13.499,19.5z"/>
</g>
</svg>
