<?xml version="1.0" encoding="utf-8"?>
<!-- Generator: Adobe Illustrator 22.1.0, SVG Export Plug-In . SVG Version: 6.00 Build 0)  -->
<svg version="1.1" id="Layer_1" xmlns="http://www.w3.org/2000/svg" xmlns:xlink="http://www.w3.org/1999/xlink" x="0px" y="0px"
	 viewBox="0 0 24 24" style="enable-background:new 0 0 24 24;" xml:space="preserve">
<title>coffee-machine</title>
<g>
	<path d="M21.749,19.638V7.475c0.846-0.123,1.5-0.845,1.5-1.725v-4c0-0.965-0.785-1.75-1.75-1.75h-19c-0.965,0-1.75,0.785-1.75,1.75
		v4c0,0.879,0.654,1.602,1.5,1.725v12.164C1.378,19.95,0.75,20.774,0.75,21.75C0.75,22.99,1.759,24,3,24h18
		c1.24,0,2.25-1.01,2.25-2.25C23.25,20.774,22.62,19.948,21.749,19.638z M9.24,15.62C9.19,15.402,9.144,15.193,9.094,15h5.896
		c-0.062,2.173-0.491,3.75-2.991,3.75C10.088,18.75,9.666,17.511,9.24,15.62z M16.484,15.2c0.454,0.258,0.765,0.741,0.766,1.3
		c0,0.414,0.336,0.749,0.75,0.749c0,0,0,0,0.001,0c0.414,0,0.749-0.336,0.749-0.751c-0.001-1.653-1.347-2.998-2.999-2.998
		c-0.001,0-0.001,0-0.002,0h-0.001H9.094c-0.126,0-0.251,0.016-0.371,0.047c-0.389,0.099-0.715,0.344-0.92,0.689
		c-0.205,0.345-0.262,0.748-0.163,1.137c0.046,0.181,0.09,0.374,0.136,0.576c0.243,1.077,0.599,2.635,1.781,3.551H3.749v-12h4.5
		v2.25c0,0.414,0.336,0.75,0.75,0.75h0.75v0.75c0,0.414,0.336,0.75,0.75,0.75s0.75-0.336,0.75-0.75V10.5h1.5v0.75
		c0,0.414,0.336,0.75,0.75,0.75s0.75-0.336,0.75-0.75V10.5h0.75c0.414,0,0.75-0.336,0.75-0.75V7.5h4.5v12h-5.536
		C16.145,18.483,16.43,16.632,16.484,15.2z M9.749,9V7.5h4.5V9H9.749z M2.249,1.75c0-0.138,0.112-0.25,0.25-0.25h19
		c0.138,0,0.25,0.112,0.25,0.25v4c0,0.138-0.112,0.25-0.25,0.25h-0.5h-6h-6h-6h-0.5c-0.138,0-0.25-0.112-0.25-0.25V1.75z M21,22.5H3
		c-0.414,0-0.75-0.337-0.75-0.75S2.586,21,3,21h17.999H21c0.413,0,0.75,0.337,0.75,0.75S21.413,22.5,21,22.5z"/>
	<circle cx="19.124" cy="3.375" r="1.125"/>
	<path d="M15.376,4.5C15.997,4.499,16.5,3.996,16.5,3.375c0-0.621-0.504-1.125-1.125-1.125c0,0-0.001,0-0.001,0
		c-0.621,0.001-1.125,0.505-1.124,1.126C14.251,3.997,14.755,4.501,15.376,4.5z"/>
</g>
</svg>
