<?xml version="1.0" encoding="utf-8"?>
<!-- Generator: Adobe Illustrator 22.1.0, SVG Export Plug-In . SVG Version: 6.00 Build 0)  -->
<svg version="1.1" id="Layer_1" xmlns="http://www.w3.org/2000/svg" xmlns:xlink="http://www.w3.org/1999/xlink" x="0px" y="0px"
	 viewBox="0 0 24 24" style="enable-background:new 0 0 24 24;" xml:space="preserve">
<title>coffee-cold</title>
<g>
	<path d="M8.249,23.81c-0.368,0-0.679-0.263-0.74-0.626L5.364,10.31H3.749c-0.414,0-0.75-0.336-0.75-0.75s0.336-0.75,0.75-0.75
		h1.543c0.376-3.392,3.256-6,6.708-6c0.331,0,0.661,0.024,0.986,0.072l0.178-0.911c0.234-1.052,1.139-1.78,2.202-1.78
		c0.163,0,0.327,0.018,0.488,0.054c0.045,0.01,0.089,0.021,0.134,0.034l3.719,1.06c0.193,0.055,0.353,0.182,0.45,0.357
		s0.121,0.378,0.066,0.57c-0.091,0.32-0.387,0.545-0.721,0.545c-0.07,0-0.14-0.01-0.207-0.029l-3.719-1.06
		c-0.016-0.005-0.032-0.009-0.048-0.012c-0.054-0.012-0.109-0.018-0.164-0.018c-0.347,0-0.654,0.247-0.73,0.587l-0.193,0.99
		c2.324,0.906,3.99,3.07,4.269,5.542h1.542c0.414,0,0.75,0.336,0.75,0.75s-0.336,0.75-0.75,0.75H18.67l-1.426,12.833
		c-0.043,0.38-0.363,0.667-0.746,0.667H8.249z M15.828,22.31l0.667-6h-8.61l1,6H15.828z M16.661,14.81l0.5-4.5h-4.097l-0.878,4.5
		H16.661z M10.658,14.81l0.878-4.5H6.884l0.75,4.5H10.658z M17.195,8.81c-0.255-1.78-1.406-3.304-3.049-4.04l-0.788,4.04H17.195z
		 M11.829,8.81l0.869-4.454C12.467,4.326,12.234,4.31,12,4.31c-2.62,0-4.828,1.946-5.195,4.5H11.829z"/>
</g>
</svg>
