<?xml version="1.0" encoding="utf-8"?>
<!-- Generator: Adobe Illustrator 22.1.0, SVG Export Plug-In . SVG Version: 6.00 Build 0)  -->
<svg version="1.1" id="Layer_1" xmlns="http://www.w3.org/2000/svg" xmlns:xlink="http://www.w3.org/1999/xlink" x="0px" y="0px"
	 viewBox="0 0 24 24" style="enable-background:new 0 0 24 24;" xml:space="preserve">
<title>cog</title>
<g>
	<path d="M8.149,23.994c-0.671,0-1.315-0.247-1.812-0.696c-0.608-0.55-0.933-1.333-0.891-2.151l0.072-1.4
		c0.016-0.322-0.094-0.631-0.31-0.87c-0.217-0.24-0.513-0.38-0.835-0.396C4.35,18.479,4.33,18.478,4.31,18.478s-0.04,0-0.06,0.002
		l-1.401,0.072c-0.046,0.002-0.091,0.003-0.136,0.003c-1.445,0-2.634-1.131-2.706-2.574c-0.041-0.817,0.284-1.599,0.891-2.146
		l1.041-0.94c0.495-0.447,0.534-1.213,0.087-1.707c-0.028-0.031-0.057-0.06-0.088-0.088l-1.041-0.939
		C-0.209,9.154-0.29,7.437,0.715,6.332c0.512-0.563,1.242-0.886,2.002-0.886c0.042,0,0.084,0.001,0.126,0.003l1.404,0.072
		C4.27,5.522,4.293,5.523,4.315,5.523c0.296,0,0.582-0.111,0.804-0.312c0.24-0.217,0.381-0.514,0.398-0.836
		c0.002-0.043,0.002-0.085,0-0.128L5.445,2.847C5.371,1.354,6.524,0.079,8.016,0.005c0.046-0.002,0.093-0.004,0.139-0.004
		c0.763,0,1.494,0.326,2.007,0.894l0.939,1.037C11.33,2.187,11.658,2.332,12,2.332c0.3,0,0.588-0.11,0.81-0.311
		c0.029-0.027,0.059-0.056,0.087-0.088l0.939-1.041c0.513-0.565,1.245-0.889,2.009-0.889c0.675,0,1.321,0.249,1.82,0.702
		c0.602,0.547,0.924,1.326,0.885,2.138l-0.072,1.402c-0.016,0.322,0.094,0.632,0.311,0.872c0.217,0.24,0.514,0.381,0.837,0.397
		c0.021,0.001,0.041,0.001,0.061,0.001c0.02,0,0.04,0,0.06-0.001l1.4-0.072c0.048-0.002,0.095-0.004,0.143-0.004
		c1.44,0,2.628,1.127,2.705,2.565c0.043,0.821-0.282,1.608-0.893,2.157l-1.042,0.939c-0.24,0.216-0.381,0.513-0.397,0.835
		s0.094,0.632,0.31,0.872c0.028,0.031,0.057,0.06,0.087,0.087l1.042,0.94c0.537,0.485,0.854,1.149,0.891,1.872
		c0.037,0.723-0.209,1.417-0.694,1.954c-0.513,0.569-1.242,0.895-2,0.895l0,0c-0.051,0-0.102-0.001-0.153-0.004l-1.398-0.072
		c-0.025-0.001-0.048-0.002-0.071-0.002c-0.639,0-1.166,0.505-1.198,1.149c-0.002,0.041-0.002,0.082,0,0.123l0.072,1.399
		c0.073,1.493-1.082,2.767-2.574,2.84c-0.046,0.002-0.092,0.003-0.138,0.003c-0.76,0-1.49-0.325-2.003-0.891l-0.941-1.043
		c-0.228-0.253-0.555-0.398-0.897-0.398c-0.3,0-0.588,0.11-0.81,0.311c-0.031,0.028-0.06,0.058-0.088,0.088L10.162,23.1
		C9.65,23.668,8.916,23.994,8.149,23.994L8.149,23.994z M4.31,16.978c0.046,0,0.092,0.001,0.137,0.004
		c0.722,0.036,1.387,0.352,1.872,0.888c0.485,0.537,0.732,1.23,0.696,1.952l-0.072,1.401c-0.019,0.365,0.126,0.715,0.398,0.96
		c0.222,0.2,0.509,0.31,0.809,0.31c0.343,0,0.67-0.145,0.899-0.399l0.94-1.042c0.062-0.069,0.127-0.133,0.194-0.194
		c0.499-0.451,1.144-0.698,1.816-0.698c0.766,0,1.5,0.325,2.012,0.893l0.94,1.042c0.231,0.256,0.551,0.396,0.901,0.396l0.056-0.001
		c0.664-0.032,1.179-0.601,1.147-1.266l-0.072-1.398c-0.005-0.092-0.005-0.184,0-0.277c0.037-0.722,0.353-1.387,0.89-1.873
		c0.499-0.45,1.146-0.698,1.822-0.698c0.043,0,0.087,0.001,0.131,0.003l1.402,0.072c0.023,0.001,0.045,0.002,0.067,0.002
		c0.344,0,0.661-0.142,0.893-0.4c0.216-0.24,0.326-0.549,0.31-0.872s-0.158-0.619-0.397-0.835l-1.042-0.941
		c-0.068-0.061-0.133-0.126-0.196-0.196c-0.485-0.537-0.731-1.23-0.694-1.953c0.037-0.723,0.353-1.388,0.89-1.873l1.042-0.94
		c0.273-0.246,0.418-0.597,0.399-0.964c-0.034-0.642-0.561-1.145-1.199-1.145c-0.023,0-0.047,0.001-0.071,0.002l-1.403,0.072
		c-0.045,0.002-0.091,0.004-0.137,0.004s-0.092-0.001-0.138-0.004c-0.722-0.036-1.387-0.352-1.873-0.889
		c-0.486-0.537-0.733-1.231-0.697-1.954l0.072-1.401c0.018-0.361-0.126-0.709-0.395-0.953c-0.222-0.202-0.51-0.313-0.812-0.313
		c-0.341,0-0.668,0.144-0.896,0.396l-0.938,1.04c-0.063,0.069-0.127,0.134-0.195,0.195c-0.499,0.451-1.143,0.699-1.812,0.699
		c-0.047,0-0.094-0.001-0.142-0.004c-0.723-0.037-1.387-0.353-1.872-0.89l-0.94-1.038c-0.23-0.254-0.557-0.4-0.899-0.4
		c-0.02,0-0.04,0-0.06,0.001C7.769,1.519,7.472,1.66,7.255,1.9C7.038,2.14,6.927,2.449,6.943,2.771L7.015,4.17
		c0.005,0.094,0.005,0.188,0,0.282C6.941,5.894,5.752,7.023,4.308,7.023c-0.046,0-0.092-0.001-0.138-0.004l-1.4-0.072l-0.05-0.001
		c-0.34,0-0.667,0.144-0.895,0.395C1.376,7.835,1.412,8.601,1.905,9.049l1.039,0.938c0.069,0.062,0.134,0.127,0.196,0.196
		c0.484,0.536,0.731,1.23,0.694,1.953c-0.037,0.723-0.353,1.388-0.89,1.873l-1.041,0.94c-0.271,0.245-0.416,0.594-0.398,0.958
		c0.032,0.644,0.566,1.148,1.214,1.148l0.056-0.001l1.397-0.072C4.218,16.98,4.264,16.978,4.31,16.978z"/>
	<path d="M11.999,17.248c-2.895,0-5.25-2.355-5.25-5.25s2.355-5.25,5.25-5.25s5.25,2.355,5.25,5.25S14.894,17.248,11.999,17.248z
		 M11.999,8.248c-2.068,0-3.75,1.682-3.75,3.75s1.682,3.75,3.75,3.75s3.75-1.682,3.75-3.75S14.067,8.248,11.999,8.248z"/>
</g>
</svg>
