<?xml version="1.0" encoding="utf-8"?>
<!-- Generator: Adobe Illustrator 22.1.0, SVG Export Plug-In . SVG Version: 6.00 Build 0)  -->
<svg version="1.1" id="Layer_1" xmlns="http://www.w3.org/2000/svg" xmlns:xlink="http://www.w3.org/1999/xlink" x="0px" y="0px"
	 viewBox="0 0 24 24" style="enable-background:new 0 0 24 24;" xml:space="preserve">
<title>content-typing-machine</title>
<g>
	<path d="M23.249,12h-0.75v-0.75c0-1.241-1.01-2.25-2.25-2.25H19.5V1.5C19.5,0.673,18.827,0,18,0H5.999c-0.827,0-1.5,0.673-1.5,1.5
		V9h-0.75c-1.241,0-2.25,1.009-2.25,2.25V12h-0.75c-0.414,0-0.75,0.336-0.75,0.75s0.336,0.75,0.75,0.75h0.75v0.75
		c0,1.24,1.009,2.25,2.25,2.25h0.213c-0.25,0.647-0.538,1.427-0.888,2.378l-0.772,2.089c-0.431,1.164,0.164,2.461,1.325,2.893
		C3.878,23.952,4.142,24,4.412,24h15.174c1.239,0,2.25-1.009,2.251-2.249c0-0.266-0.047-0.528-0.141-0.784l-0.77-2.081
		c-0.352-0.955-0.64-1.737-0.891-2.386h0.213c1.24,0,2.25-1.01,2.25-2.25V13.5h0.75c0.414,0,0.75-0.336,0.75-0.75
		S23.663,12,23.249,12z M5.999,1.5H18V9H5.999V1.5z M20.337,21.75C20.336,22.164,20,22.5,19.586,22.5H4.412
		c-0.09,0-0.178-0.016-0.262-0.047c-0.387-0.144-0.585-0.577-0.442-0.965l0.773-2.092C6.101,15,6.15,15,6.619,15h2.475
		c0.334,1.293,1.51,2.25,2.905,2.25s2.571-0.957,2.905-2.25h2.475c0.469,0,0.519,0,2.141,4.404l0.77,2.081
		C20.32,21.572,20.337,21.662,20.337,21.75z M20.999,14.25c0,0.413-0.337,0.75-0.75,0.75h-0.841c-0.62-1.302-1.062-1.5-2.029-1.5
		h-3.13c-0.414,0-0.75,0.336-0.75,0.75c0,0.827-0.673,1.5-1.5,1.5s-1.5-0.673-1.5-1.5c0-0.414-0.336-0.75-0.75-0.75h-3.13
		c-0.968,0-1.409,0.198-2.029,1.5H3.749c-0.414,0-0.75-0.337-0.75-0.75v-3c0-0.414,0.336-0.75,0.75-0.75h1.5H18.75h1.499
		c0.413,0,0.75,0.336,0.75,0.75V14.25z"/>
	<circle cx="15.749" cy="19.875" r="1.125"/>
	<circle cx="8.249" cy="19.875" r="1.125"/>
	<circle cx="12" cy="19.875" r="1.125"/>
	<path d="M14.999,6h-6c-0.414,0-0.75,0.336-0.75,0.75S8.585,7.5,8.999,7.5h6c0.414,0,0.75-0.336,0.75-0.75S15.413,6,14.999,6z"/>
	<path d="M8.999,4.5h3.75c0.414,0,0.75-0.336,0.75-0.75S13.163,3,12.749,3h-3.75c-0.414,0-0.75,0.336-0.75,0.75S8.585,4.5,8.999,4.5
		z"/>
</g>
</svg>
