<?xml version="1.0" encoding="utf-8"?>
<!-- Generator: Adobe Illustrator 22.1.0, SVG Export Plug-In . SVG Version: 6.00 Build 0)  -->
<svg version="1.1" id="Layer_1" xmlns="http://www.w3.org/2000/svg" xmlns:xlink="http://www.w3.org/1999/xlink" x="0px" y="0px"
	 viewBox="0 0 24 24" style="enable-background:new 0 0 24 24;" xml:space="preserve">
<title>content-ink-pen-write</title>
<g>
	<path d="M20.598,6.584c0.438,0.438,1.015,0.657,1.591,0.657s1.152-0.219,1.591-0.657c0.293-0.293,0.293-0.768,0-1.061
		c-0.292-0.292-0.767-0.293-1.061,0c-0.293,0.293-0.768,0.292-1.061,0l-3.182-3.182c-0.142-0.142-0.22-0.33-0.22-0.53
		s0.078-0.389,0.22-0.53c0.293-0.293,0.293-0.768,0-1.061s-0.768-0.293-1.061,0c-0.425,0.425-0.659,0.99-0.659,1.591
		s0.234,1.166,0.659,1.591L20.598,6.584z"/>
	<path d="M11.172,13.541c0.192,0.009,0.552,0.022,1.014,0.022c1.702,0,4.794-0.18,6.021-1.407c0.004-0.003,0.007-0.007,0.011-0.011
		c1.688-1.759,1.633-4.567-0.104-6.238c-1.691-1.759-4.498-1.817-6.271-0.116c-1.562,1.562-1.428,6.135-1.386,7.036
		C10.476,13.214,10.785,13.522,11.172,13.541z M12.894,6.863c1.163-1.119,3.022-1.08,4.16,0.106c1.16,1.116,1.198,2.968,0.088,4.132
		c-0.723,0.712-3.253,0.974-5.204,0.96C11.922,10.123,12.185,7.571,12.894,6.863z"/>
	<circle cx="15.221" cy="8.8" r="1.125"/>
	<path d="M21,18H6c-0.827,0-1.5-0.673-1.5-1.5S5.173,15,6,15h2.25C8.664,15,9,14.664,9,14.25S8.664,13.5,8.25,13.5H6
		c-1.654,0-3,1.346-3,3s1.346,3,3,3h15c0.827,0,1.5,0.673,1.5,1.5s-0.673,1.5-1.5,1.5H0.749c-0.414,0-0.75,0.336-0.75,0.75
		S0.335,24,0.749,24H21c1.654,0,3-1.346,3-3S22.654,18,21,18z"/>
</g>
</svg>
