<?xml version="1.0" encoding="utf-8"?>
<!-- Generator: Adobe Illustrator 22.1.0, SVG Export Plug-In . SVG Version: 6.00 Build 0)  -->
<svg version="1.1" id="Layer_1" xmlns="http://www.w3.org/2000/svg" xmlns:xlink="http://www.w3.org/1999/xlink" x="0px" y="0px"
	 viewBox="0 0 24 24" style="enable-background:new 0 0 24 24;" xml:space="preserve">
<title>content-pen-3</title>
<g>
	<path d="M0.742,24.003c-0.2,0-0.389-0.078-0.53-0.22c-0.218-0.218-0.281-0.542-0.159-0.825l3.162-7.377
		c0.031-0.072,0.069-0.133,0.12-0.193c0.013-0.019,0.028-0.036,0.042-0.051L16.994,1.72c-0.297-0.141-0.622-0.214-0.959-0.214
		c-0.596,0-1.156,0.231-1.576,0.651l-3.165,3.165c-0.142,0.142-0.33,0.22-0.53,0.22s-0.389-0.078-0.53-0.22
		c-0.142-0.141-0.22-0.33-0.22-0.53s0.078-0.389,0.22-0.53l3.165-3.165c0.704-0.704,1.642-1.091,2.64-1.091
		c0.761,0,1.505,0.233,2.125,0.661c0.623-0.408,1.363-0.63,2.111-0.63c0.757,0,1.492,0.221,2.124,0.641
		c1.695,1.202,2.096,3.542,0.904,5.221c-0.121,0.17-0.257,0.331-0.405,0.479L8.657,20.618c-0.013,0.013-0.029,0.026-0.045,0.038
		c-0.061,0.053-0.123,0.093-0.19,0.121l-7.385,3.165C0.943,23.982,0.844,24.003,0.742,24.003z M2.17,21.824l4.643-1.99L4.16,17.182
		L2.17,21.824z M8.127,19.027l9.489-9.488l-3.159-3.16l-9.489,9.489L8.127,19.027z M18.676,8.478l3.162-3.162
		c0.089-0.089,0.17-0.185,0.242-0.287c0.345-0.486,0.48-1.078,0.38-1.667s-0.423-1.104-0.909-1.449
		c-0.371-0.246-0.816-0.38-1.275-0.38c-0.638,0-1.258,0.264-1.7,0.725l-3.06,3.06L18.676,8.478z"/>
</g>
</svg>
