<?xml version="1.0" encoding="utf-8"?>
<!-- Generator: Adobe Illustrator 22.1.0, SVG Export Plug-In . SVG Version: 6.00 Build 0)  -->
<svg version="1.1" id="Layer_1" xmlns="http://www.w3.org/2000/svg" xmlns:xlink="http://www.w3.org/1999/xlink" x="0px" y="0px"
	 viewBox="0 0 24 24" style="enable-background:new 0 0 24 24;" xml:space="preserve">
<title>couple-man-woman</title>
<g>
	<path d="M5.249,18c-2.068,0-3.75-1.682-3.75-3.75c0-2.068,1.682-3.75,3.75-3.75s3.75,1.682,3.75,3.75
		C8.999,16.318,7.317,18,5.249,18z M5.249,12c-1.241,0-2.25,1.009-2.25,2.25c0,1.241,1.009,2.25,2.25,2.25s2.25-1.009,2.25-2.25
		C7.499,13.009,6.49,12,5.249,12z"/>
	<path d="M9.749,24c-0.414,0-0.75-0.336-0.75-0.75c0-2.068-1.682-3.75-3.75-3.75s-3.75,1.682-3.75,3.75
		c0,0.414-0.336,0.75-0.75,0.75s-0.75-0.336-0.75-0.75c0-2.895,2.355-5.25,5.25-5.25s5.25,2.355,5.25,5.25
		C10.499,23.663,10.163,24,9.749,24z"/>
	<path d="M22.5,24c-0.414,0-0.75-0.336-0.75-0.75c0-2.068-1.682-3.75-3.75-3.75s-3.75,1.682-3.75,3.75c0,0.414-0.336,0.75-0.75,0.75
		s-0.75-0.336-0.75-0.75c0-2.895,2.355-5.25,5.25-5.25s5.25,2.355,5.25,5.25C23.25,23.663,22.914,24,22.5,24z"/>
	<path d="M23.249,18.75c-0.674,0-1.847-0.264-2.52-1.934C20.027,17.568,19.049,18,17.999,18c-1.05,0-2.027-0.432-2.729-1.183
		c-0.675,1.668-1.847,1.933-2.521,1.933c-0.414,0-0.75-0.336-0.75-0.75s0.336-0.75,0.75-0.75c1.397,0,1.496-2.789,1.5-2.98
		c0-0.007,0-0.015,0-0.02c0-2.068,1.682-3.75,3.75-3.75c2.049,0,3.727,1.663,3.749,3.71c0.001,0.014,0.002,0.029,0.002,0.04
		c0,0.029,0.056,3,1.499,3c0.414,0,0.75,0.336,0.75,0.75S23.663,18.75,23.249,18.75z M15.75,14.25
		c0.008,1.247,1.017,2.25,2.249,2.25c1.241,0,2.25-1.009,2.25-2.25c0-1.24-1.009-2.25-2.25-2.25c-1.232,0-2.238,0.998-2.25,2.229
		C15.75,14.236,15.75,14.243,15.75,14.25z"/>
	<path d="M11.213,10.752c-0.396-0.009-0.767-0.172-1.042-0.46L5.688,5.656C4.435,4.344,4.434,2.292,5.685,0.982
		c0.034-0.036,0.07-0.072,0.107-0.107C6.385,0.31,7.163-0.001,7.984-0.001c0.879,0,1.697,0.349,2.302,0.984l0.964,0.998l0.967-1.001
		c0.03-0.032,0.067-0.069,0.105-0.105c0.593-0.566,1.37-0.877,2.188-0.877l0.081,0.001c0.848,0.02,1.638,0.37,2.224,0.984
		c1.25,1.309,1.25,3.361,0,4.671l-4.525,4.677c-0.289,0.276-0.654,0.423-1.039,0.423L11.213,10.752z M7.984,1.498
		c-0.433,0-0.845,0.164-1.157,0.463C6.807,1.979,6.788,1.998,6.77,2.017c-0.696,0.729-0.696,1.871-0.001,2.6l4.479,4.631
		l4.483-4.635c0.693-0.726,0.692-1.867-0.003-2.595c-0.31-0.325-0.727-0.51-1.175-0.52l-0.036,0c-0.436,0-0.849,0.165-1.162,0.463
		c-0.019,0.018-0.038,0.036-0.055,0.055l-1.512,1.565c-0.14,0.145-0.337,0.229-0.539,0.229c-0.202,0-0.399-0.083-0.539-0.229
		l-1.506-1.56C8.881,1.683,8.449,1.498,7.984,1.498z"/>
</g>
</svg>
