<?xml version="1.0" encoding="utf-8"?>
<!-- Generator: Adobe Illustrator 22.1.0, SVG Export Plug-In . SVG Version: 6.00 Build 0)  -->
<svg version="1.1" id="Layer_1" xmlns="http://www.w3.org/2000/svg" xmlns:xlink="http://www.w3.org/1999/xlink" x="0px" y="0px"
	 viewBox="0 0 24 24" style="enable-background:new 0 0 24 24;" xml:space="preserve">
<title>coupon-cut</title>
<g>
	<path d="M4.499,24c-2.481,0-4.5-2.019-4.5-4.5c0-1.703,0.946-3.237,2.47-4.011C2.477,15.484,8.216,12,8.216,12L2.492,8.525
		c-0.006-0.003-0.013-0.008-0.02-0.013C0.945,7.738-0.001,6.204-0.001,4.5c0-2.481,2.019-4.5,4.5-4.5s4.5,2.019,4.5,4.5
		c0,1.998-1.331,3.723-3.172,4.295l3.834,2.327L22.86,3.109C22.977,3.038,23.112,3,23.249,3c0.265,0,0.504,0.135,0.642,0.361
		c0.215,0.354,0.102,0.816-0.252,1.03L11.106,12l2.278,1.383c0.354,0.215,0.467,0.677,0.252,1.03
		c-0.137,0.226-0.377,0.361-0.641,0.361c-0.137,0-0.271-0.038-0.389-0.109l-2.945-1.788l-3.834,2.328
		c1.841,0.572,3.172,2.297,3.172,4.295C8.999,21.981,6.98,24,4.499,24z M4.499,16.5c-1.654,0-3,1.346-3,3s1.346,3,3,3s3-1.346,3-3
		S6.153,16.5,4.499,16.5z M4.499,1.5c-1.654,0-3,1.346-3,3s1.346,3,3,3s3-1.346,3-3S6.153,1.5,4.499,1.5z"/>
	<path d="M21.749,18c-0.414,0-0.75-0.336-0.75-0.75s0.336-0.75,0.75-0.75h1.5c0.414,0,0.75,0.336,0.75,0.75S23.663,18,23.249,18
		H21.749z"/>
	<path d="M17.249,18c-0.414,0-0.75-0.336-0.75-0.75s0.336-0.75,0.75-0.75h1.5c0.414,0,0.75,0.336,0.75,0.75S19.163,18,18.749,18
		H17.249z"/>
	<path d="M12.749,18c-0.414,0-0.75-0.336-0.75-0.75s0.336-0.75,0.75-0.75h1.5c0.414,0,0.75,0.336,0.75,0.75S14.663,18,14.249,18
		H12.749z"/>
</g>
</svg>
