<?xml version="1.0" encoding="utf-8"?>
<!-- Generator: Adobe Illustrator 22.1.0, SVG Export Plug-In . SVG Version: 6.00 Build 0)  -->
<svg version="1.1" id="Layer_1" xmlns="http://www.w3.org/2000/svg" xmlns:xlink="http://www.w3.org/1999/xlink" x="0px" y="0px"
	 viewBox="0 0 24 24" style="enable-background:new 0 0 24 24;" xml:space="preserve">
<title>crypto-currency-bitcoin-imac</title>
<g>
	<path d="M8.249,24c-0.414,0-0.75-0.336-0.75-0.75s0.336-0.75,0.75-0.75h3v-3h-7.5c-2.068,0-3.75-1.682-3.75-3.75v-12
		c0-2.068,1.682-3.75,3.75-3.75H6c0.414,0,0.75,0.336,0.75,0.75S6.414,1.5,6,1.5H3.749c-1.241,0-2.25,1.009-2.25,2.25v12
		c0,1.241,1.009,2.25,2.25,2.25H20.25c1.241,0,2.25-1.009,2.25-2.25v-12c0-1.241-1.009-2.25-2.25-2.25H18
		c-0.414,0-0.75-0.336-0.75-0.75S17.587,0,18,0h2.25C22.318,0,24,1.682,24,3.75v12c0,2.068-1.682,3.75-3.75,3.75h-7.501v3h3
		c0.414,0,0.75,0.336,0.75,0.75S16.163,24,15.749,24H8.249z"/>
	<path d="M13.499,15.75c-0.414,0-0.75-0.336-0.75-0.75v-1.5h-1.5V15c0,0.414-0.336,0.75-0.75,0.75s-0.75-0.336-0.75-0.75v-1.5H9
		c-0.414,0-0.75-0.336-0.75-0.75V8.276C8.25,8.267,8.249,8.258,8.249,8.25c0-0.009,0-0.019,0.001-0.03l0-4.47
		C8.25,3.336,8.587,3,9,3h0.749V1.5c0-0.414,0.336-0.75,0.75-0.75s0.75,0.336,0.75,0.75V3h1.5V1.5c0-0.414,0.336-0.75,0.75-0.75
		s0.75,0.336,0.75,0.75v1.598C15.553,3.435,16.5,4.63,16.5,6c0,0.863-0.38,1.685-1.019,2.25C16.12,8.815,16.5,9.637,16.5,10.5
		c0,1.37-0.947,2.565-2.251,2.902V15C14.249,15.414,13.913,15.75,13.499,15.75z M13.5,12c0.827,0,1.5-0.673,1.5-1.5S14.327,9,13.5,9
		H9.75v3H13.5z M13.499,7.5C14.327,7.5,15,6.827,15,6s-0.673-1.5-1.5-1.5H9.75v3H13.499z"/>
</g>
</svg>
