<?xml version="1.0" encoding="utf-8"?>
<!-- Generator: Adobe Illustrator 22.1.0, SVG Export Plug-In . SVG Version: 6.00 Build 0)  -->
<svg version="1.1" id="Layer_1" xmlns="http://www.w3.org/2000/svg" xmlns:xlink="http://www.w3.org/1999/xlink" x="0px" y="0px"
	 viewBox="0 0 24 24" style="enable-background:new 0 0 24 24;" xml:space="preserve">
<title>dating-smartphone-man</title>
<g>
	<path d="M8.251,14.248c-2.068,0-3.75-1.682-3.75-3.75c0-2.068,1.682-3.75,3.75-3.75s3.75,1.682,3.75,3.75
		C12.001,12.566,10.318,14.248,8.251,14.248z M8.251,8.248c-1.241,0-2.25,1.009-2.25,2.25s1.009,2.25,2.25,2.25
		s2.25-1.009,2.25-2.25S9.491,8.248,8.251,8.248z"/>
	<path d="M12.75,20.248c-0.414,0-0.75-0.336-0.75-0.75c0-2.068-1.682-3.75-3.75-3.75s-3.75,1.682-3.75,3.75
		c0,0.414-0.336,0.75-0.75,0.75s-0.75-0.336-0.75-0.75c0-2.895,2.355-5.25,5.25-5.25c2.895,0,5.25,2.355,5.25,5.25
		C13.5,19.912,13.164,20.248,12.75,20.248z"/>
	<path d="M3,23.998c-1.653,0-2.999-1.345-2.999-2.999V4.498c0-1.654,1.346-3,3-3h3.751c0.414,0,0.75,0.336,0.75,0.75
		s-0.336,0.75-0.75,0.75h-3.75c-0.828,0-1.501,0.673-1.501,1.5v16.5c0,0.827,0.673,1.5,1.5,1.5h10.5c0.827,0,1.5-0.673,1.5-1.5
		v-6.75c0-0.414,0.336-0.75,0.75-0.75c0.414,0,0.75,0.336,0.75,0.75v6.75c0,1.654-1.346,3-3,3H3z"/>
	<path d="M17.25,11.998c-0.203,0-0.4-0.084-0.541-0.231l-5.113-5.335c-1.143-1.142-1.425-2.891-0.696-4.347
		c0.451-0.902,1.226-1.574,2.182-1.893c0.389-0.13,0.792-0.196,1.197-0.196c0.587,0,1.154,0.135,1.685,0.4
		c0.364,0.182,0.694,0.42,0.981,0.708L17.25,1.41l0.305-0.305c0.712-0.712,1.66-1.104,2.67-1.104c1.01,0,1.958,0.392,2.67,1.104
		c0.287,0.287,0.525,0.617,0.707,0.981c0.728,1.456,0.444,3.207-0.708,4.358l-5.103,5.323C17.651,11.914,17.454,11.998,17.25,11.998
		z M14.279,1.498c-0.244,0-0.487,0.04-0.722,0.118c-0.577,0.192-1.044,0.597-1.315,1.141c-0.439,0.877-0.268,1.933,0.426,2.626
		l4.583,4.782l4.573-4.77c0.703-0.703,0.876-1.76,0.438-2.638c-0.11-0.219-0.253-0.418-0.426-0.591
		c-0.429-0.429-1-0.665-1.609-0.665c-0.609,0-1.18,0.236-1.609,0.665l-0.835,0.835c-0.14,0.14-0.333,0.22-0.53,0.22
		s-0.391-0.08-0.53-0.22l-0.835-0.835c-0.174-0.173-0.373-0.317-0.592-0.426C14.973,1.579,14.632,1.498,14.279,1.498z"/>
</g>
</svg>
