<?xml version="1.0" encoding="utf-8"?>
<!-- Generator: Adobe Illustrator 22.1.0, SVG Export Plug-In . SVG Version: 6.00 Build 0)  -->
<svg version="1.1" id="Layer_1" xmlns="http://www.w3.org/2000/svg" xmlns:xlink="http://www.w3.org/1999/xlink" x="0px" y="0px"
	 viewBox="0 0 24 24" style="enable-background:new 0 0 24 24;" xml:space="preserve">
<title>dating-rose</title>
<g>
	<path d="M14.891,23.183c-0.72,0-1.361-0.458-1.594-1.139c-0.113-0.33-0.119-0.694-0.02-1.027c0.211-1.1,0.726-2.115,1.489-2.936
		c0.012-0.013,0.026-0.027,0.039-0.039c0.82-0.762,1.834-1.276,2.934-1.488c0.157-0.047,0.32-0.071,0.484-0.071
		c0.721,0,1.362,0.458,1.594,1.14c0.112,0.33,0.119,0.693,0.019,1.027c-0.211,1.099-0.725,2.114-1.488,2.934
		c-0.01,0.011-0.022,0.023-0.034,0.034c-0.825,0.767-1.839,1.282-2.939,1.493C15.218,23.159,15.055,23.183,14.891,23.183z
		 M15.846,19.123c-0.569,0.62-0.95,1.385-1.102,2.213c-0.007,0.036-0.016,0.07-0.026,0.102c-0.014,0.042-0.014,0.085-0.001,0.123
		c0.025,0.073,0.095,0.123,0.173,0.123c0.02,0,0.039-0.003,0.059-0.01c0.036-0.012,0.071-0.021,0.107-0.028
		c0.829-0.152,1.594-0.533,2.214-1.102c0.569-0.619,0.949-1.384,1.101-2.211c0.007-0.037,0.016-0.072,0.028-0.106
		c0.013-0.038,0.013-0.082,0-0.119c-0.029-0.085-0.108-0.124-0.174-0.124c-0.02,0-0.04,0.003-0.059,0.01
		c-0.034,0.012-0.069,0.021-0.103,0.027C17.23,18.173,16.466,18.554,15.846,19.123z"/>
	<path d="M10.857,24c-0.414,0-0.75-0.336-0.75-0.75v-6.792c-1.353-0.149-2.609-0.697-3.652-1.597
		c-0.037-0.027-0.073-0.058-0.106-0.092c-1.425-1.281-2.242-3.11-2.242-5.019v-3c0-1.34,0.394-2.636,1.139-3.748
		c0.021-0.036,0.044-0.068,0.068-0.099C6.58,1.085,8.65,0,10.857,0c3.722,0,6.75,3.028,6.75,6.75v3c0,3.451-2.608,6.332-6,6.708
		v6.792C11.607,23.664,11.27,24,10.857,24z M10.103,14.945C10.352,14.981,10.604,15,10.857,15c2.895,0,5.25-2.355,5.25-5.25v-3
		c0-2.895-2.355-5.25-5.25-5.25c-1.581,0-3.091,0.728-4.086,1.958C7.22,4.28,7.867,4.947,8.669,5.415
		c0.223-1.111,1.061-2.025,2.187-2.318C11.1,3.033,11.352,3.001,11.604,3c1.652,0.004,2.998,1.349,3.002,2.998V9.75
		C14.6,12.385,12.639,14.576,10.103,14.945z M9.357,13.5c2.061-0.006,3.744-1.689,3.75-3.752V7.635
		c-0.403,0.049-0.803,0.074-1.195,0.074c-0.908,0-1.779-0.132-2.589-0.393c-0.087-0.012-0.17-0.04-0.246-0.08
		C7.785,6.772,6.711,5.98,5.933,4.928C5.716,5.509,5.607,6.119,5.607,6.75v3c0,1.406,0.574,2.764,1.581,3.75H9.357z M10.106,6.002
		c0.544,0.14,1.127,0.211,1.738,0.211c0.409,0,0.832-0.032,1.262-0.095V6c-0.002-0.824-0.676-1.497-1.501-1.5
		c-0.124,0-0.25,0.017-0.372,0.049C10.56,4.724,10.107,5.326,10.106,6.002z"/>
</g>
</svg>
