<?xml version="1.0" encoding="utf-8"?>
<!-- Generator: Adobe Illustrator 22.1.0, SVG Export Plug-In . SVG Version: 6.00 Build 0)  -->
<svg version="1.1" id="Layer_1" xmlns="http://www.w3.org/2000/svg" xmlns:xlink="http://www.w3.org/1999/xlink" x="0px" y="0px"
	 viewBox="0 0 24 24" style="enable-background:new 0 0 24 24;" xml:space="preserve">
<title>design-tool-quill-2</title>
<g>
	<path d="M0.775,22.972c-0.399,0-0.728-0.312-0.749-0.711c-0.084-1.6,0.022-3.203,0.314-4.766c0.004-0.024,0.007-0.044,0.012-0.062
		C2.094,8.274,9.813,1.537,19.127,1.049c0.349-0.018,0.703-0.027,1.053-0.027c1.067,0,2.139,0.085,3.188,0.253
		c0.195,0.031,0.374,0.141,0.49,0.301c0.116,0.16,0.164,0.365,0.132,0.56c-0.45,2.769-1.53,5.453-3.123,7.762
		c-0.139,0.203-0.37,0.324-0.617,0.324h-3.346c0.247,0.559,0.585,1.328,0.999,2.279c0.129,0.295,0.055,0.638-0.183,0.854
		c-3.723,3.386-8.529,5.25-13.533,5.25c-0.826,0-1.66-0.051-2.486-0.153c-0.182,1.228-0.242,2.481-0.176,3.73
		c0.01,0.2-0.058,0.392-0.192,0.541c-0.134,0.149-0.318,0.237-0.518,0.247C0.808,22.971,0.781,22.972,0.775,22.972z M1.981,16.976
		c0.732,0.086,1.471,0.13,2.203,0.13c4.445,0,8.74-1.598,12.125-4.506c-0.74-1.694-1.189-2.698-1.24-2.81
		c-0.109-0.243-0.089-0.51,0.05-0.725c0.139-0.215,0.375-0.343,0.63-0.343h4.101c1.204-1.834,2.07-3.921,2.519-6.072
		c-0.725-0.085-1.459-0.129-2.188-0.129c-0.324,0-0.652,0.009-0.975,0.026C10.887,2.983,3.861,8.893,1.981,16.976z"/>
</g>
</svg>
