<?xml version="1.0" encoding="utf-8"?>
<!-- Generator: Adobe Illustrator 22.1.0, SVG Export Plug-In . SVG Version: 6.00 Build 0)  -->
<svg version="1.1" id="Layer_1" xmlns="http://www.w3.org/2000/svg" xmlns:xlink="http://www.w3.org/1999/xlink" x="0px" y="0px"
	 viewBox="0 0 24 24" style="enable-background:new 0 0 24 24;" xml:space="preserve">
<title>desktop-monitor-download</title>
<g>
	<path d="M8.249,24c-0.414,0-0.75-0.336-0.75-0.75s0.336-0.75,0.75-0.75h3v-2.25h-7.5c-1.241,0-2.25-1.009-2.25-2.25V8.25
		C1.499,7.009,2.508,6,3.749,6h3c0.414,0,0.75,0.336,0.75,0.75S7.163,7.5,6.749,7.5h-3c-0.414,0-0.75,0.336-0.75,0.75v7.5h18v-7.5
		c0-0.414-0.336-0.75-0.75-0.75h-3c-0.414,0-0.75-0.336-0.75-0.75S16.835,6,17.249,6h3c1.241,0,2.25,1.009,2.25,2.25V18
		c0,1.241-1.009,2.25-2.25,2.25h-7.5v2.25h3c0.414,0,0.75,0.336,0.75,0.75S16.163,24,15.749,24H8.249z M2.999,18
		c0,0.414,0.336,0.75,0.75,0.75h16.5c0.414,0,0.75-0.336,0.75-0.75v-0.75h-18V18z"/>
	<path d="M11.999,13.5c-0.088,0-0.175-0.016-0.26-0.047c-0.008-0.003-0.015-0.005-0.022-0.008c-0.096-0.039-0.179-0.094-0.249-0.165
		L8.469,10.28c-0.142-0.141-0.22-0.33-0.22-0.53s0.078-0.389,0.22-0.53C8.61,9.078,8.799,9,8.999,9s0.389,0.078,0.53,0.22l1.72,1.72
		V0.75c0-0.414,0.336-0.75,0.75-0.75s0.75,0.336,0.75,0.75v10.189l1.72-1.72C14.61,9.078,14.799,9,14.999,9s0.389,0.078,0.53,0.22
		c0.142,0.141,0.22,0.33,0.22,0.53s-0.078,0.389-0.22,0.53l-3,3c-0.07,0.07-0.153,0.125-0.246,0.164
		c-0.008,0.003-0.017,0.007-0.026,0.01C12.172,13.485,12.086,13.5,11.999,13.5z"/>
</g>
</svg>
