<?xml version="1.0" encoding="utf-8"?>
<!-- Generator: Adobe Illustrator 22.1.0, SVG Export Plug-In . SVG Version: 6.00 Build 0)  -->
<svg version="1.1" id="Layer_1" xmlns="http://www.w3.org/2000/svg" xmlns:xlink="http://www.w3.org/1999/xlink" x="0px" y="0px"
	 viewBox="0 0 24 24" style="enable-background:new 0 0 24 24;" xml:space="preserve">
<title>diet-waist-1</title>
<g>
	<path d="M21.78,14.924c-0.013-0.032-0.02-0.066-0.036-0.096c-0.485-1.159-1.134-2.088-1.745-2.952c-1.073-1.517-2-2.828-2-5.126
		c0-4.005,1.248-5.433,1.288-5.478c0.285-0.293,0.282-0.762-0.008-1.052c-0.293-0.293-0.768-0.293-1.061,0
		c-0.176,0.176-1.72,1.854-1.72,6.53c0,2.776,1.156,4.411,2.275,5.993c0.394,0.557,0.776,1.106,1.114,1.702H4.109
		C4.446,13.85,4.83,13.3,5.224,12.743c1.118-1.582,2.275-3.217,2.275-5.993c0-4.676-1.543-6.354-1.72-6.53
		C5.49-0.069,5.028-0.069,4.732,0.215C4.438,0.5,4.431,0.972,4.71,1.271C4.723,1.285,5.999,2.7,5.999,6.75
		c0,2.299-0.927,3.609-2,5.126c-0.613,0.866-1.263,1.798-1.749,2.957c-0.01,0.018-0.014,0.04-0.023,0.059
		C1.797,15.938,1.5,17.166,1.5,18.715c-0.087,1.825,0.507,3.605,1.671,5.014C3.319,23.907,3.534,24,3.75,24
		c0.168,0,0.338-0.057,0.478-0.172c0.319-0.265,0.364-0.737,0.1-1.057c-0.926-1.118-1.398-2.534-1.328-4.021
		c0-1.032,0.144-1.886,0.377-2.638c3.04,0.997,6.818,3.722,7.873,4.51v2.628c0,0.414,0.336,0.75,0.75,0.75s0.75-0.336,0.75-0.75
		v-2.626c1.052-0.786,4.829-3.512,7.871-4.51c0.235,0.759,0.38,1.624,0.38,2.673c0.069,1.45-0.402,2.866-1.329,3.985
		c-0.264,0.319-0.219,0.792,0.1,1.057C19.911,23.943,20.08,24,20.249,24c0.216,0,0.43-0.093,0.578-0.271
		c1.165-1.408,1.758-3.189,1.672-4.979C22.499,17.197,22.206,15.969,21.78,14.924z M12,19.31c-0.906-0.672-3.01-2.173-5.279-3.365
		h10.556C15.01,17.137,12.905,18.638,12,19.31z"/>
	<path d="M4.189,6.749c0-0.4-0.157-0.777-0.439-1.059l-2.47-2.47c-0.293-0.293-0.768-0.293-1.061,0s-0.293,0.768,0,1.061l2.47,2.469
		l-2.47,2.47c-0.293,0.293-0.293,0.768,0,1.061c0.146,0.146,0.338,0.22,0.53,0.22s0.384-0.073,0.53-0.22L3.75,7.809
		C4.033,7.526,4.189,7.149,4.189,6.749z"/>
	<path d="M23.779,3.22c-0.294-0.294-0.769-0.293-1.061,0l-2.468,2.469c-0.284,0.283-0.44,0.66-0.44,1.061
		c0,0.4,0.156,0.777,0.439,1.061l2.469,2.47l1.061-1.061L21.311,6.75l2.469-2.47C24.072,3.987,24.072,3.512,23.779,3.22z"/>
	<path d="M11.998,11.625c0.621,0.001,1.125-0.503,1.126-1.124c0,0,0-0.001,0-0.001c0-0.621-0.503-1.124-1.124-1.125
		c-0.621-0.001-1.125,0.503-1.126,1.124C10.873,11.12,11.377,11.624,11.998,11.625z"/>
</g>
</svg>
