<?xml version="1.0" encoding="utf-8"?>
<!-- Generator: Adobe Illustrator 22.1.0, SVG Export Plug-In . SVG Version: 6.00 Build 0)  -->
<svg version="1.1" id="Layer_1" xmlns="http://www.w3.org/2000/svg" xmlns:xlink="http://www.w3.org/1999/xlink" x="0px" y="0px"
	 viewBox="0 0 24 24" style="enable-background:new 0 0 24 24;" xml:space="preserve">
<title>e-learning-monitor</title>
<g>
	<path d="M5.999,24c-0.414,0-0.75-0.336-0.75-0.75s0.336-0.75,0.75-0.75h1.615l0.5-3H2.249c-1.241,0-2.25-1.009-2.25-2.25v-15
		c0-1.241,1.009-2.25,2.25-2.25h19.5c1.241,0,2.25,1.009,2.25,2.25v15c0,1.241-1.009,2.25-2.25,2.25h-5.865l0.5,3h1.615
		c0.414,0,0.75,0.336,0.75,0.75S18.413,24,17.999,24H5.999z M14.864,22.5l-0.5-3H9.634l-0.5,3H14.864z M2.249,1.5
		c-0.414,0-0.75,0.336-0.75,0.75v15c0,0.414,0.336,0.75,0.75,0.75h19.5c0.414,0,0.75-0.336,0.75-0.75v-15
		c0-0.414-0.336-0.75-0.75-0.75H2.249z"/>
	<path d="M12.006,15c-1.585-0.031-3.099-0.634-4.263-1.696c-0.155-0.142-0.244-0.344-0.244-0.554V9.321L4.944,8.185
		C4.674,8.065,4.499,7.796,4.499,7.5s0.175-0.565,0.445-0.685l6.75-3c0.096-0.043,0.199-0.065,0.305-0.065s0.208,0.022,0.305,0.065
		l6.743,2.997c0.011,0.005,0.023,0.011,0.036,0.018c0.048,0.024,0.092,0.053,0.134,0.086c0.005,0.004,0.029,0.024,0.034,0.028
		c0.05,0.045,0.091,0.093,0.124,0.142c0.006,0.009,0.012,0.02,0.018,0.031c0.026,0.043,0.047,0.09,0.065,0.143
		c0.003,0.01,0.013,0.043,0.016,0.053c0.017,0.062,0.025,0.125,0.025,0.188v2.25c0,0.414-0.336,0.75-0.75,0.75
		s-0.75-0.336-0.75-0.75V8.654l-1.5,0.667v3.429c0,0.209-0.088,0.411-0.242,0.552c-1.158,1.065-2.662,1.668-4.236,1.698
		c-0.002,0-0.005,0-0.007,0C12.011,15,12.009,15,12.006,15z M8.999,12.405c0.856,0.686,1.923,1.073,3.023,1.095
		c1.073-0.021,2.128-0.407,2.977-1.093V9.987l-2.695,1.198c-0.096,0.043-0.199,0.065-0.305,0.065s-0.208-0.022-0.305-0.065
		L8.999,9.987V12.405z M11.999,9.679L16.902,7.5l-4.903-2.179L7.096,7.5L11.999,9.679z"/>
</g>
</svg>
