<?xml version="1.0" encoding="utf-8"?>
<!-- Generator: Adobe Illustrator 22.1.0, SVG Export Plug-In . SVG Version: 6.00 Build 0)  -->
<svg version="1.1" id="Layer_1" xmlns="http://www.w3.org/2000/svg" xmlns:xlink="http://www.w3.org/1999/xlink" x="0px" y="0px"
	 viewBox="0 0 24 24" style="enable-background:new 0 0 24 24;" xml:space="preserve">
<title>email-action-receive</title>
<g>
	<path d="M11.999,11.25c-0.073,0-0.146-0.012-0.223-0.036c-0.005-0.002-0.029-0.009-0.034-0.011
		c-0.064-0.024-0.122-0.054-0.176-0.092c-0.013-0.008-0.025-0.017-0.036-0.026l-3.75-3C7.458,7.827,7.405,7.354,7.663,7.031
		C7.807,6.853,8.021,6.75,8.25,6.75c0.169,0,0.336,0.058,0.468,0.164l2.532,2.025V0.75c0-0.414,0.336-0.75,0.75-0.75
		s0.75,0.336,0.75,0.75v8.189l2.531-2.025c0.134-0.106,0.3-0.164,0.469-0.164c0.229,0,0.443,0.103,0.586,0.282
		c0.258,0.323,0.206,0.795-0.117,1.054l-3.75,3c-0.011,0.009-0.023,0.017-0.035,0.025c-0.052,0.037-0.111,0.069-0.174,0.092
		c-0.008,0.003-0.029,0.01-0.037,0.012C12.145,11.238,12.072,11.25,11.999,11.25z"/>
	<path d="M11.999,24c-0.065,0-0.129-0.008-0.192-0.025c-0.021-0.005-0.059-0.02-0.078-0.029c-0.029-0.009-0.066-0.025-0.103-0.045
		l-10.5-6c-0.233-0.134-0.378-0.383-0.378-0.651c0,0,0-9.01,0-9.01C0.75,8.198,0.755,8.168,0.761,8.138
		C0.764,8.111,0.77,8.076,0.779,8.042c0.008-0.029,0.019-0.054,0.031-0.08C0.827,7.92,0.841,7.89,0.859,7.861
		c0.014-0.023,0.031-0.046,0.05-0.069c0.028-0.036,0.05-0.062,0.075-0.085c0.019-0.018,0.042-0.036,0.065-0.053
		c0.023-0.019,0.047-0.037,0.074-0.053C1.129,7.598,1.16,7.581,1.168,7.577l7.495-3.748C8.767,3.777,8.883,3.75,8.999,3.75
		c0.286,0,0.543,0.159,0.671,0.414c0.185,0.37,0.034,0.822-0.335,1.007L3.088,8.294l8.911,5.092l8.911-5.092l-6.252-3.126
		c-0.37-0.185-0.52-0.636-0.335-1.006c0.128-0.256,0.385-0.414,0.671-0.414c0.115,0,0.23,0.027,0.334,0.078l7.506,3.754
		c0.007,0.004,0.039,0.021,0.047,0.026c0.021,0.012,0.045,0.03,0.068,0.05c0.022,0.016,0.045,0.034,0.067,0.054
		c0.023,0.022,0.044,0.047,0.064,0.072c0.028,0.034,0.045,0.058,0.061,0.084c0.016,0.026,0.03,0.056,0.043,0.087
		c0.015,0.034,0.026,0.061,0.034,0.089c0.01,0.037,0.016,0.073,0.021,0.11c0.004,0.018,0.009,0.049,0.01,0.081
		c0,0.002,0,9.018,0,9.018c0,0.268-0.145,0.518-0.378,0.651L12.374,23.9c-0.038,0.022-0.076,0.037-0.114,0.051
		c-0.013,0.007-0.037,0.016-0.061,0.023C12.128,23.992,12.064,24,11.999,24z M12.749,21.958l9-5.143V9.542l-9,5.143V21.958z
		 M11.249,21.958v-7.272l-9-5.143v7.272L11.249,21.958z"/>
</g>
</svg>
