<?xml version="1.0" encoding="utf-8"?>
<!-- Generator: Adobe Illustrator 22.1.0, SVG Export Plug-In . SVG Version: 6.00 Build 0)  -->
<svg version="1.1" id="Layer_1" xmlns="http://www.w3.org/2000/svg" xmlns:xlink="http://www.w3.org/1999/xlink" x="0px" y="0px"
	 viewBox="0 0 24 24" style="enable-background:new 0 0 24 24;" xml:space="preserve">
<title>filter-picture</title>
<g>
	<path d="M21.749,0h-16.5c-1.241,0-2.25,1.009-2.25,2.25v16.5c0,1.24,1.009,2.25,2.25,2.25h16.5c1.24,0,2.25-1.01,2.25-2.25V2.25
		C23.999,1.009,22.989,0,21.749,0z M22.499,18.75c0,0.413-0.337,0.75-0.75,0.75h-16.5c-0.414,0-0.75-0.337-0.75-0.75V2.25
		c0-0.414,0.336-0.75,0.75-0.75h16.5c0.413,0,0.75,0.336,0.75,0.75V18.75z"/>
	<path d="M20.249,22.5h-18c-0.414,0-0.75-0.337-0.75-0.75v-18C1.499,3.336,1.163,3,0.749,3s-0.75,0.336-0.75,0.75v18
		c0,1.24,1.009,2.25,2.25,2.25h18c0.414,0,0.75-0.336,0.75-0.75S20.663,22.5,20.249,22.5z"/>
	<circle cx="8.623" cy="7.125" r="1.125"/>
	<path d="M17.004,9.498c-0.222-0.333-0.561-0.561-0.954-0.639c-0.392-0.079-0.793,0-1.127,0.223
		c-0.155,0.104-0.289,0.235-0.396,0.388l-1.536,2.195l-0.61-0.488c-0.644-0.519-1.589-0.415-2.113,0.236
		c-0.012,0.015-0.063,0.086-0.074,0.102l-2.546,3.819c-0.153,0.23-0.168,0.526-0.037,0.77C7.74,16.348,7.995,16.5,8.271,16.5h11.978
		c0.276,0,0.53-0.152,0.661-0.396c0.13-0.243,0.116-0.539-0.036-0.769L17.004,9.498z M9.672,15l1.77-2.653l1.236,0.989
		c0.162,0.128,0.369,0.183,0.575,0.156c0.205-0.029,0.39-0.143,0.508-0.312l1.994-2.852L18.853,15H9.672z"/>
</g>
</svg>
