<?xml version="1.0" encoding="utf-8"?>
<!-- Generator: Adobe Illustrator 22.1.0, SVG Export Plug-In . SVG Version: 6.00 Build 0)  -->
<svg version="1.1" id="Layer_1" xmlns="http://www.w3.org/2000/svg" xmlns:xlink="http://www.w3.org/1999/xlink" x="0px" y="0px"
	 viewBox="0 0 24 24" style="enable-background:new 0 0 24 24;" xml:space="preserve">
<title>flag</title>
<g>
	<path d="M0.749,24c-0.414,0-0.75-0.336-0.75-0.75V0.75c0-0.414,0.336-0.75,0.75-0.75s0.75,0.336,0.75,0.75V1.5h11.25
		c1.241,0,2.25,1.009,2.25,2.25V6H22.5c0.828,0.001,1.5,0.675,1.499,1.502c-0.001,0.369-0.136,0.723-0.381,0.998l-3.999,4.503
		c-0.253,0.285-0.254,0.713-0.001,0.998l4,4.5c0.549,0.619,0.493,1.569-0.125,2.118c-0.274,0.243-0.627,0.378-0.994,0.378h-12.7
		C9.787,20.999,9.768,21,9.749,21c-0.012,0-0.032-0.001-0.049-0.003H9c-1.241,0-2.25-1.009-2.25-2.25V16.5H1.499v6.75
		C1.499,23.664,1.163,24,0.749,24z M22.498,19.497l-4-4.5c-0.759-0.852-0.759-2.138,0-2.991l4-4.504L14.999,7.5v8.25
		c0,0.414-0.336,0.75-0.75,0.75c-1.779,0-3.318,1.287-3.672,2.997H22.498z M8.25,18.747c0,0.414,0.336,0.75,0.75,0.75h0.058
		c0.166-1.14,0.71-2.195,1.529-2.997H8.25V18.747z M13.499,15V3.75c0-0.414-0.336-0.75-0.75-0.75H1.499v12H7.45
		c0.012-0.001,0.031-0.003,0.05-0.003c0.012,0,0.032,0.001,0.049,0.003H13.499z"/>
</g>
</svg>
