<?xml version="1.0" encoding="utf-8"?>
<!-- Generator: Adobe Illustrator 22.1.0, SVG Export Plug-In . SVG Version: 6.00 Build 0)  -->
<svg version="1.1" id="Layer_1" xmlns="http://www.w3.org/2000/svg" xmlns:xlink="http://www.w3.org/1999/xlink" x="0px" y="0px"
	 viewBox="0 0 24 24" style="enable-background:new 0 0 24 24;" xml:space="preserve">
<title>footwear-heels-ankle</title>
<g>
	<path d="M12.883,21.75c-1.261,0-2.427-0.624-3.124-1.67l-3.909-5.871l-0.471,5.687c-0.082,0.92-0.773,1.668-1.68,1.822
		c-0.111,0.019-0.226,0.029-0.339,0.029c-0.991,0-1.831-0.71-1.997-1.687L0.04,12.123c-0.003-0.017-0.006-0.052-0.006-0.069
		C0.032,12.047,0.03,12.024,0.03,12c0-7.679,2.319-9.448,2.584-9.624C2.737,2.293,2.881,2.25,3.03,2.25
		c0.2,0,0.388,0.078,0.53,0.219l2.472,2.468c0.554,0.555,1.29,0.86,2.072,0.86c0.53,0,1.051-0.145,1.507-0.419
		c0.349-0.21,0.748-0.32,1.155-0.32c0.788,0,1.528,0.418,1.932,1.092l0.267,0.445c2.184,3.643,5.382,6.498,9.248,8.256
		c0.729,0.331,1.286,0.927,1.567,1.677c0.281,0.75,0.254,1.565-0.078,2.294c-0.014,0.032-0.031,0.068-0.049,0.103
		c-0.87,1.741-2.621,2.824-4.569,2.824C19.083,21.75,12.883,21.75,12.883,21.75z M11.007,19.248
		c0.418,0.627,1.118,1.001,1.872,1.001h6.204c1.376-0.001,2.614-0.766,3.229-1.997l0.024-0.05c0.166-0.365,0.18-0.773,0.039-1.148
		c-0.141-0.375-0.419-0.672-0.783-0.838c-0.101-0.046-0.201-0.093-0.301-0.141c-1.071,1.571-2.81,2.562-4.717,2.673
		c0,0-0.001,0-0.001,0c-2.001,0-3.357-1.303-4.793-2.683c-1.326-1.274-2.809-2.699-4.995-3.159L11.007,19.248z M2.841,19.811
		c0.043,0.252,0.261,0.436,0.519,0.436c0.029,0,0.059-0.002,0.089-0.007c0.234-0.04,0.413-0.234,0.435-0.472l0.581-7.017h-2.8
		L2.841,19.811z M5.28,11.25c3.653,0,5.717,1.983,7.537,3.733c1.266,1.216,2.359,2.267,3.713,2.267c1.344-0.079,2.6-0.77,3.414-1.87
		c-3.404-1.899-6.256-4.662-8.265-8.014l-0.267-0.445c-0.135-0.224-0.382-0.364-0.645-0.364c-0.135,0-0.268,0.037-0.384,0.107
		c-0.69,0.414-1.478,0.633-2.279,0.633c-1.182,0-2.294-0.462-3.132-1.299L3.067,4.097c-0.52,0.799-1.435,2.81-1.529,7.153H5.28z"/>
</g>
</svg>
