<?xml version="1.0" encoding="utf-8"?>
<!-- Generator: Adobe Illustrator 22.1.0, SVG Export Plug-In . SVG Version: 6.00 Build 0)  -->
<svg version="1.1" id="Layer_1" xmlns="http://www.w3.org/2000/svg" xmlns:xlink="http://www.w3.org/1999/xlink" x="0px" y="0px"
	 viewBox="0 0 24 24" style="enable-background:new 0 0 24 24;" xml:space="preserve">
<title>gauge-dashboard-1</title>
<g>
	<path d="M4.874,12.75C5.495,12.751,5.999,12.247,6,11.626c0,0,0-0.001,0-0.001c0-0.621-0.503-1.124-1.124-1.125
		c-0.621-0.001-1.125,0.503-1.126,1.124C3.749,12.245,4.253,12.749,4.874,12.75z"/>
	<path d="M6.374,9C6.995,9.001,7.499,8.497,7.5,7.876c0,0,0-0.001,0-0.001c0-0.621-0.503-1.124-1.124-1.125
		C5.755,6.749,5.251,7.253,5.25,7.874C5.249,8.495,5.753,8.999,6.374,9z"/>
	<circle cx="19.126" cy="11.625" r="1.125"/>
	<circle cx="17.626" cy="7.875" r="1.125"/>
	<path d="M9.374,6c0.621,0.001,1.125-0.503,1.126-1.124c0,0,0-0.001,0-0.001c0-0.621-0.503-1.124-1.124-1.125
		C8.755,3.749,8.251,4.253,8.25,4.874C8.249,5.495,8.753,5.999,9.374,6z"/>
	<path d="M22.065,18.51c1.218-1.877,1.934-4.11,1.934-6.51c0-6.617-5.383-12-12-12c-6.617,0-12,5.383-12,12
		c0,2.398,0.715,4.629,1.931,6.506c0.015,0.025,0.019,0.054,0.037,0.078c0.006,0.008,0.015,0.01,0.021,0.018
		C4.138,21.85,7.82,24,11.999,24c4.178,0,7.86-2.149,10.01-5.397c0.006-0.008,0.016-0.011,0.022-0.019
		C22.047,18.561,22.051,18.534,22.065,18.51z M11.999,1.5c5.79,0,10.5,4.71,10.5,10.5c0,1.836-0.476,3.561-1.307,5.064
		c-1.691-1.133-3.546-1.925-5.472-2.365c-0.129-1.586-1.238-2.887-2.728-3.298l1.971-5.913c0.131-0.393-0.082-0.818-0.475-0.949
		c-0.397-0.134-0.817,0.082-0.949,0.474l-2.097,6.294c-1.702,0.257-3.019,1.654-3.161,3.391c-1.927,0.44-3.783,1.232-5.474,2.366
		C1.975,15.561,1.499,13.836,1.499,12C1.499,6.21,6.209,1.5,11.999,1.5z M12,12.75c1.041,0,1.911,0.714,2.166,1.676
		c-1.438-0.188-2.895-0.188-4.333,0C10.09,13.464,10.959,12.75,12,12.75z M11.999,22.5c-3.418,0-6.45-1.649-8.369-4.185
		c5.031-3.378,11.708-3.377,16.737,0C18.449,20.851,15.417,22.5,11.999,22.5z"/>
</g>
</svg>
