<?xml version="1.0" encoding="utf-8"?>
<!-- Generator: Adobe Illustrator 22.1.0, SVG Export Plug-In . SVG Version: 6.00 Build 0)  -->
<svg version="1.1" id="Layer_1" xmlns="http://www.w3.org/2000/svg" xmlns:xlink="http://www.w3.org/1999/xlink" x="0px" y="0px"
	 viewBox="0 0 24 24" style="enable-background:new 0 0 24 24;" xml:space="preserve">
<title>golf-hole</title>
<g>
	<path d="M11.249,20.25c-0.414,0-0.75-0.336-0.75-0.75V0.75c0-0.414,0.336-0.75,0.75-0.75s0.75,0.336,0.75,0.75V1.5H22.5
		C23.327,1.5,24,2.173,24,3c0,0.35-0.124,0.691-0.348,0.96c-0.031,0.036-0.064,0.07-0.101,0.099l-3.278,2.69l3.278,2.69
		c0.037,0.03,0.07,0.063,0.101,0.1c0.256,0.307,0.377,0.697,0.341,1.096c-0.037,0.399-0.226,0.76-0.534,1.017
		C23.191,11.876,22.85,12,22.501,12H11.999v7.5C11.999,19.914,11.663,20.25,11.249,20.25z M22.479,10.5l-3.278-2.69
		c-0.036-0.029-0.069-0.062-0.1-0.099c-0.466-0.557-0.466-1.365,0-1.922c0.031-0.037,0.064-0.07,0.101-0.1L22.48,3l-10.48,0v7.5
		H22.479z"/>
	<path d="M11.249,24c-6.414,0-11.25-1.935-11.25-4.5c0-2.098,3.042-3.751,7.94-4.315c0.029-0.003,0.058-0.005,0.087-0.005
		c0.381,0,0.701,0.286,0.744,0.665c0.047,0.411-0.249,0.783-0.659,0.831c-4.139,0.476-6.612,1.81-6.612,2.825
		c0,1.542,4.738,3,9.75,3s9.75-1.458,9.75-3c0-1.047-2.558-2.401-6.839-2.854c-0.199-0.021-0.378-0.118-0.504-0.274
		c-0.126-0.156-0.184-0.352-0.162-0.551c0.04-0.382,0.36-0.671,0.744-0.671c0.027,0,0.054,0.001,0.081,0.004
		c5.045,0.534,8.18,2.2,8.18,4.346C22.499,22.065,17.663,24,11.249,24z"/>
</g>
</svg>
