<?xml version="1.0" encoding="utf-8"?>
<!-- Generator: Adobe Illustrator 22.1.0, SVG Export Plug-In . SVG Version: 6.00 Build 0)  -->
<svg version="1.1" id="Layer_1" xmlns="http://www.w3.org/2000/svg" xmlns:xlink="http://www.w3.org/1999/xlink" x="0px" y="0px"
	 viewBox="0 0 24 24" style="enable-background:new 0 0 24 24;" xml:space="preserve">
<title>graph-stats-circle</title>
<g>
	<path d="M11.999,24c-6.617,0-12-5.383-12-12c0-6.617,5.383-12,12-12c6.617,0,12,5.383,12,12C23.999,18.617,18.616,24,11.999,24z
		 M11.999,1.5c-5.79,0-10.5,4.71-10.5,10.5c0,5.79,4.71,10.5,10.5,10.5c5.79,0,10.5-4.71,10.5-10.5
		C22.499,6.21,17.789,1.5,11.999,1.5z"/>
	<path d="M14.408,17.705c-0.635,0-1.203-0.401-1.416-0.999L9.702,7.378l-2.256,5.651C7.331,13.315,7.058,13.5,6.749,13.5h-3
		c-0.414,0-0.75-0.336-0.75-0.75S3.335,12,3.749,12h2.492l2.072-5.179C8.465,6.447,8.752,6.156,9.121,6
		c0.187-0.078,0.382-0.118,0.582-0.118c0.194,0,0.384,0.037,0.566,0.111c0.393,0.16,0.701,0.48,0.845,0.879l3.293,9.333l2.187-3.828
		C16.727,12.145,16.977,12,17.245,12h3c0.414,0,0.75,0.336,0.75,0.75s-0.336,0.75-0.75,0.75H17.68l-1.971,3.449
		c-0.179,0.312-0.463,0.549-0.801,0.669C14.747,17.676,14.578,17.705,14.408,17.705z"/>
</g>
</svg>
