<?xml version="1.0" encoding="utf-8"?>
<!-- Generator: Adobe Illustrator 22.1.0, SVG Export Plug-In . SVG Version: 6.00 Build 0)  -->
<svg version="1.1" id="Layer_1" xmlns="http://www.w3.org/2000/svg" xmlns:xlink="http://www.w3.org/1999/xlink" x="0px" y="0px"
	 viewBox="0 0 24 24" style="enable-background:new 0 0 24 24;" xml:space="preserve">
<title>hammer-1</title>
<g>
	<path d="M3.543,24.064c-0.734,0-1.436-0.312-1.927-0.856c-0.956-1.062-0.87-2.703,0.192-3.659l7.697-7.698
		c-0.11-0.437-0.154-0.884-0.129-1.333L7.494,8.635l-0.52,0.52c-0.142,0.142-0.33,0.22-0.53,0.22s-0.389-0.078-0.53-0.22
		L3.288,6.529c-0.142-0.141-0.22-0.33-0.22-0.53s0.078-0.389,0.22-0.53l5.25-5.25c0.142-0.142,0.33-0.22,0.53-0.22
		s0.389,0.078,0.53,0.22l2.625,2.625c0.142,0.141,0.22,0.33,0.22,0.53s-0.078,0.389-0.22,0.53l-0.52,0.52l1.871,1.871
		c0.084-0.005,0.169-0.007,0.253-0.007c1.164,0,2.269,0.452,3.113,1.273l4.733,4.733c0.843,0.843,1.307,1.963,1.307,3.155
		c0,1.192-0.464,2.312-1.307,3.155c-0.14,0.14-0.333,0.22-0.531,0.22c-0.198,0-0.391-0.08-0.531-0.219l-2.1-2.1
		c-0.559-0.49-1.307-0.768-2.088-0.768c-0.79,0-1.549,0.285-2.138,0.802c-0.135,0.12-0.312,0.187-0.494,0.187
		c-0.2,0-0.389-0.078-0.531-0.22l-0.544-0.544L5.44,23.237c-0.029,0.035-0.094,0.1-0.163,0.162
		C4.8,23.828,4.185,24.064,3.543,24.064L3.543,24.064z M2.84,20.637c-0.469,0.424-0.512,1.121-0.109,1.568
		c0.206,0.229,0.502,0.36,0.812,0.36c0.27,0,0.529-0.099,0.729-0.28c0.027-0.025,0.055-0.052,0.081-0.081l7.306-7.304l-1.021-1.021
		c-0.172-0.177-0.329-0.367-0.469-0.57L2.84,20.637z M16.418,14.239c1.152,0,2.26,0.416,3.12,1.172l1.538,1.536
		c0.266-0.45,0.405-0.961,0.405-1.498c0-0.791-0.308-1.535-0.868-2.094l-4.726-4.726c-0.555-0.54-1.288-0.84-2.058-0.84
		c-0.772,0-1.507,0.301-2.068,0.848c-0.567,0.552-0.885,1.292-0.896,2.083c-0.011,0.791,0.287,1.538,0.838,2.105l1.516,1.515
		c0.011,0.009,0.022,0.019,0.032,0.028c0.01,0.01,0.02,0.021,0.03,0.034l0.583,0.583C14.624,14.496,15.5,14.239,16.418,14.239z
		 M9.807,8.828c0.226-0.471,0.534-0.902,0.908-1.266c0.35-0.341,0.745-0.617,1.179-0.826l-1.25-1.25L8.554,7.574L9.807,8.828z
		 M6.444,7.564l0.499-0.499c0.006-0.007,0.013-0.015,0.02-0.021C6.969,7.036,6.976,7.03,6.983,7.024l3.11-3.11
		C10.1,3.907,10.106,3.9,10.112,3.893c0.008-0.008,0.016-0.015,0.025-0.022l0.496-0.497L9.068,1.809l-4.19,4.19L6.444,7.564z"/>
</g>
</svg>
