<?xml version="1.0" encoding="utf-8"?>
<!-- Generator: Adobe Illustrator 22.1.0, SVG Export Plug-In . SVG Version: 6.00 Build 0)  -->
<svg version="1.1" id="Layer_1" xmlns="http://www.w3.org/2000/svg" xmlns:xlink="http://www.w3.org/1999/xlink" x="0px" y="0px"
	 viewBox="0 0 24 24" style="enable-background:new 0 0 24 24;" xml:space="preserve">
<title>headphones-human</title>
<g>
	<path d="M15.456,24c-0.414,0-0.75-0.336-0.75-0.75v-2.24c0-0.221,0.096-0.429,0.265-0.572c0.136-0.115,0.308-0.178,0.485-0.178
		c0.041,0,0.083,0.003,0.124,0.01l1.007,0.168c0.124,0.021,0.25,0.031,0.374,0.031c0.469,0,0.919-0.145,1.303-0.419
		c0.489-0.349,0.813-0.868,0.912-1.461c0.02-0.122,0.031-0.246,0.031-0.37V15.76c0-0.345,0.234-0.645,0.569-0.728L20.71,14.8
		c0.401-0.1,0.646-0.509,0.545-0.91c-0.021-0.084-0.056-0.163-0.104-0.234l-1.82-2.729c-0.083-0.124-0.126-0.268-0.126-0.416V9.76
		c0-2.864-2.09-5.359-5.25-6.334v4.473c0.956,0.855,1.5,2.067,1.5,3.351c0,2.481-2.019,4.5-4.5,4.5c-2.481,0-4.5-2.019-4.5-4.5
		c0-1.285,0.544-2.496,1.5-3.351V3.575c-3.859,1.493-6.041,5.663-5,9.726c0.548,2.138,1.96,3.996,3.874,5.097
		c0.232,0.133,0.376,0.382,0.376,0.65v4.2c0,0.414-0.336,0.75-0.75,0.75s-0.75-0.336-0.75-0.75V19.47
		c-2.068-1.32-3.594-3.421-4.203-5.797C0.212,8.637,3.038,3.561,7.956,1.987V1.5c0-0.827,0.673-1.5,1.5-1.5h3
		c0.827,0,1.5,0.673,1.5,1.5v0.366c3.99,1.051,6.75,4.26,6.75,7.894v0.523l1.693,2.54c0.143,0.214,0.248,0.451,0.311,0.703
		c0.301,1.204-0.434,2.428-1.637,2.729l-0.367,0.091v1.873c0,0.206-0.017,0.413-0.051,0.616c-0.165,0.988-0.704,1.853-1.519,2.435
		c-0.641,0.458-1.392,0.699-2.173,0.699l0,0c-0.208,0-0.417-0.017-0.624-0.052l-0.134-0.022v1.354
		C16.206,23.664,15.869,24,15.456,24z M10.956,8.25c-1.654,0-3,1.346-3,3c0,1.654,1.346,3,3,3c1.654,0,3-1.346,3-3
		C13.956,9.596,12.61,8.25,10.956,8.25z M10.956,6.75c0.516,0,1.019,0.087,1.5,0.26V1.5h-3v5.51
		C9.937,6.837,10.439,6.75,10.956,6.75z"/>
</g>
</svg>
