<?xml version="1.0" encoding="utf-8"?>
<!-- Generator: Adobe Illustrator 22.1.0, SVG Export Plug-In . SVG Version: 6.00 Build 0)  -->
<svg version="1.1" id="Layer_1" xmlns="http://www.w3.org/2000/svg" xmlns:xlink="http://www.w3.org/1999/xlink" x="0px" y="0px"
	 viewBox="0 0 24 24" style="enable-background:new 0 0 24 24;" xml:space="preserve">
<title>human-resources-search-employees</title>
<g>
	<path d="M0.747,23.993c-0.415-0.001-0.75-0.339-0.749-0.752c0.004-1.18,0.243-2.327,0.713-3.41c0.585-1.15,2.321-1.775,4.722-2.64
		l0.521-0.188c0.007-0.015,0.014-0.036,0.022-0.063c0.115-0.375,0.039-0.907-0.012-1.056c-1.05-1.131-1.574-2.659-1.442-4.205
		c-0.128-2.047,1.356-3.87,3.391-4.157c0.035-0.005,0.07-0.007,0.105-0.007c0.371,0,0.69,0.277,0.743,0.645
		c0.028,0.199-0.023,0.396-0.143,0.556S8.322,8.98,8.123,9.008c-1.28,0.181-2.202,1.331-2.1,2.62
		c0.004,0.043,0.003,0.087-0.001,0.131c-0.112,1.155,0.28,2.3,1.077,3.143c0.476,0.513,0.509,1.687,0.351,2.338
		c-0.18,0.741-0.589,1.031-0.901,1.144l-0.605,0.219c-1.76,0.634-3.58,1.289-3.876,1.868c-0.371,0.859-0.566,1.8-0.569,2.775
		c-0.001,0.412-0.338,0.748-0.75,0.748H0.747z"/>
	<path d="M16.05,23.993c-0.409,0-0.746-0.333-0.75-0.742c-0.011-0.977-0.214-1.927-0.604-2.823c-0.275-0.537-2.092-1.191-3.85-1.824
		l-0.611-0.22c-0.312-0.114-0.721-0.405-0.9-1.147c-0.157-0.651-0.126-1.823,0.344-2.329c0.532-0.537,0.868-1.2,0.979-1.926
		c0.056-0.369,0.368-0.636,0.742-0.636c0.037,0,0.074,0.003,0.111,0.008c0.199,0.03,0.374,0.135,0.492,0.297
		c0.119,0.161,0.168,0.36,0.137,0.558c-0.156,1.02-0.615,1.948-1.331,2.688c-0.049,0.164-0.113,0.679-0.001,1.044
		c0.008,0.027,0.016,0.048,0.023,0.064l0.522,0.188c2.4,0.865,4.134,1.489,4.699,2.596c0.487,1.115,0.735,2.267,0.748,3.447
		c0.004,0.414-0.328,0.754-0.742,0.758c-0.001,0-0.003,0-0.004,0H16.05z"/>
	<path d="M19.366,23.993c-0.414,0-0.75-0.336-0.75-0.75s0.336-0.75,0.75-0.75h1.618v-0.067c0-2.137-1.208-2.569-3.035-3.223
		c-0.16-0.057-0.32-0.115-0.481-0.174c-0.309-0.115-0.714-0.406-0.894-1.146c-0.161-0.662-0.133-1.854,0.338-2.371
		c0.566-0.585,0.922-1.338,1.009-2.128c0.042-0.381,0.363-0.668,0.745-0.668c0.027,0,0.054,0.001,0.081,0.004
		c0.413,0.046,0.71,0.417,0.665,0.828c-0.121,1.097-0.604,2.139-1.36,2.942c-0.05,0.168-0.119,0.719-0.005,1.093
		c0.009,0.03,0.018,0.052,0.025,0.069c0.113,0.041,0.383,0.138,0.383,0.138c1.889,0.676,4.03,1.441,4.03,4.635v0.817
		c0,0.414-0.336,0.75-0.75,0.75H19.366z"/>
	<path d="M23.248,14.257c-0.2,0-0.389-0.078-0.53-0.22l-3.293-3.293c-1.051,0.817-2.343,1.263-3.676,1.263c-3.308,0-6-2.692-6-6
		s2.692-6,6-6s6,2.692,6,6c0,1.334-0.446,2.626-1.263,3.677l3.293,3.293c0.292,0.292,0.292,0.768,0,1.061
		C23.637,14.179,23.449,14.257,23.248,14.257z M15.748,1.507c-2.481,0-4.5,2.019-4.5,4.5s2.019,4.5,4.5,4.5s4.5-2.019,4.5-4.5
		S18.23,1.507,15.748,1.507z"/>
</g>
</svg>
