<?xml version="1.0" encoding="utf-8"?>
<!-- Generator: Adobe Illustrator 22.1.0, SVG Export Plug-In . SVG Version: 6.00 Build 0)  -->
<svg version="1.1" id="Layer_1" xmlns="http://www.w3.org/2000/svg" xmlns:xlink="http://www.w3.org/1999/xlink" x="0px" y="0px"
	 viewBox="0 0 24 24" style="enable-background:new 0 0 24 24;" xml:space="preserve">
<title>insurance-card</title>
<g>
	<path d="M2.249,21.75c-1.241,0-2.25-1.009-2.25-2.25v-15c0-1.241,1.009-2.25,2.25-2.25h19.5c1.241,0,2.25,1.009,2.25,2.25v15
		c0,1.241-1.009,2.25-2.25,2.25H2.249z M1.499,19.5c0,0.414,0.336,0.75,0.75,0.75h19.5c0.414,0,0.75-0.336,0.75-0.75V8.25h-21V19.5z
		 M22.499,6.75V4.5c0-0.414-0.336-0.75-0.75-0.75h-19.5c-0.414,0-0.75,0.336-0.75,0.75v2.25H22.499z"/>
	<path d="M14.249,12.75c-0.414,0-0.75-0.336-0.75-0.75s0.336-0.75,0.75-0.75h6c0.414,0,0.75,0.336,0.75,0.75s-0.336,0.75-0.75,0.75
		H14.249z"/>
	<path d="M14.249,17.25c-0.414,0-0.75-0.336-0.75-0.75s0.336-0.75,0.75-0.75h3c0.414,0,0.75,0.336,0.75,0.75s-0.336,0.75-0.75,0.75
		H14.249z"/>
	<path d="M7.499,18c-0.414,0-0.75-0.336-0.75-0.75V15h-2.25c-0.414,0-0.75-0.336-0.75-0.75s0.336-0.75,0.75-0.75h2.25v-2.25
		c0-0.414,0.336-0.75,0.75-0.75s0.75,0.336,0.75,0.75v2.25h2.25c0.414,0,0.75,0.336,0.75,0.75S10.913,15,10.499,15h-2.25v2.25
		C8.249,17.664,7.913,18,7.499,18z"/>
</g>
</svg>
