<?xml version="1.0" encoding="utf-8"?>
<!-- Generator: Adobe Illustrator 22.1.0, SVG Export Plug-In . SVG Version: 6.00 Build 0)  -->
<svg version="1.1" id="Layer_1" xmlns="http://www.w3.org/2000/svg" xmlns:xlink="http://www.w3.org/1999/xlink" x="0px" y="0px"
	 viewBox="0 0 24 24" style="enable-background:new 0 0 24 24;" xml:space="preserve">
<title>lab-flask-experiment</title>
<g>
	<path d="M23.116,18.206L16.499,8.028V1.5h0.75c0.414,0,0.75-0.336,0.75-0.75S17.663,0,17.249,0h-1.5h-7.5h-1.5
		c-0.414,0-0.75,0.336-0.75,0.75S6.335,1.5,6.749,1.5h0.75v6.528L0.883,18.206c-0.546,0.84-0.732,1.842-0.524,2.822
		c0.208,0.979,0.785,1.82,1.625,2.366C2.593,23.791,3.3,24,4.028,24h15.943c2.068,0,3.751-1.682,3.751-3.749
		C23.722,19.522,23.513,18.815,23.116,18.206z M8.878,8.659C8.957,8.537,8.999,8.395,8.999,8.25V1.5h6V3h-2.25
		c-0.414,0-0.75,0.336-0.75,0.75s0.336,0.75,0.75,0.75h2.25V6h-2.25c-0.414,0-0.75,0.336-0.75,0.75s0.336,0.75,0.75,0.75h2.25v0.75
		c0,0.145,0.042,0.287,0.121,0.409L17.292,12H6.706L8.878,8.659z M19.971,22.5H4.028c-0.437,0-0.861-0.126-1.227-0.363
		c-0.504-0.327-0.85-0.832-0.975-1.42s-0.013-1.189,0.315-1.692l3.59-5.524h12.536l3.591,5.524c0.237,0.365,0.363,0.789,0.363,1.227
		C22.222,21.491,21.212,22.5,19.971,22.5z"/>
	<path d="M17.249,16.5h-0.75v-0.75c0-0.414-0.336-0.75-0.75-0.75s-0.75,0.336-0.75,0.75v0.75h-0.75c-0.414,0-0.75,0.336-0.75,0.75
		S13.835,18,14.249,18h0.75v0.75c0,0.414,0.336,0.75,0.75,0.75s0.75-0.336,0.75-0.75V18h0.75c0.414,0,0.75-0.336,0.75-0.75
		S17.663,16.5,17.249,16.5z"/>
	<circle cx="6.749" cy="19.5" r="1.125"/>
	<circle cx="9.749" cy="16.5" r="1.125"/>
</g>
</svg>
