<?xml version="1.0" encoding="utf-8"?>
<!-- Generator: Adobe Illustrator 22.1.0, SVG Export Plug-In . SVG Version: 6.00 Build 0)  -->
<svg version="1.1" id="Layer_1" xmlns="http://www.w3.org/2000/svg" xmlns:xlink="http://www.w3.org/1999/xlink" x="0px" y="0px"
	 viewBox="0 0 24 24" style="enable-background:new 0 0 24 24;" xml:space="preserve">
<title>landmark-japan-shrine</title>
<g>
	<path d="M15.746,23.25c-0.827,0-1.5-0.673-1.5-1.5v-9h-4.5v9c0,0.827-0.673,1.5-1.5,1.5H6.824c-0.827,0-1.5-0.673-1.5-1.5
		c0-0.051,0.002-0.101,0.008-0.152l0.885-8.848H4.495c-0.414,0-0.75-0.336-0.75-0.75s0.336-0.75,0.75-0.75h1.872l0.3-3H4.785
		c-0.931-0.003-1.776-0.589-2.102-1.46L0.794,1.764c-0.101-0.27-0.042-0.568,0.156-0.777C1.091,0.836,1.29,0.75,1.496,0.75
		c0.074,0,0.148,0.011,0.219,0.033C5.06,1.807,8.517,2.326,11.989,2.326s6.929-0.519,10.273-1.543
		c0.07-0.021,0.143-0.032,0.218-0.032c0.248,0,0.487,0.123,0.625,0.322c0.143,0.207,0.178,0.465,0.093,0.691l-1.886,5.027
		c-0.326,0.87-1.17,1.457-2.1,1.46h-1.888l0.3,3h1.871c0.414,0,0.75,0.336,0.75,0.75s-0.336,0.75-0.75,0.75h-1.721l0.885,8.85
		c0.005,0.053,0.008,0.104,0.008,0.156c0,0.396-0.156,0.772-0.44,1.055c-0.283,0.283-0.659,0.438-1.06,0.438H15.746z M15.746,21.75
		h1.42l-1.349-13.5h-0.071V21.75z M6.824,21.75l1.422,0v-9.724C8.245,12.017,8.245,12.008,8.245,12c0-0.009,0-0.019,0.001-0.03
		l0-3.72H8.175L6.824,21.75z M14.246,11.25v-3h-1.501v3H14.246z M11.245,11.25v-3H9.746v3H11.245z M4.087,6.263
		c0.109,0.291,0.39,0.486,0.7,0.487H19.21c0.308-0.001,0.589-0.196,0.698-0.486l1.366-3.641c-3.039,0.798-6.159,1.203-9.285,1.203
		c-3.12,0-6.234-0.403-9.268-1.198L4.087,6.263z"/>
</g>
</svg>
