<?xml version="1.0" encoding="utf-8"?>
<!-- Generator: Adobe Illustrator 22.1.0, SVG Export Plug-In . SVG Version: 6.00 Build 0)  -->
<svg version="1.1" id="Layer_1" xmlns="http://www.w3.org/2000/svg" xmlns:xlink="http://www.w3.org/1999/xlink" x="0px" y="0px"
	 viewBox="0 0 24 24" style="enable-background:new 0 0 24 24;" xml:space="preserve">
<title>laptop-smiley-1</title>
<g>
	<path d="M11.999,14.235c-1.571,0-3.082-0.588-4.255-1.657c-0.306-0.279-0.328-0.754-0.049-1.059
		c0.142-0.156,0.344-0.245,0.555-0.245c0.187,0,0.366,0.069,0.505,0.195c0.896,0.816,2.048,1.265,3.245,1.265
		c1.197,0,2.35-0.449,3.245-1.265c0.138-0.126,0.317-0.196,0.505-0.196c0.211,0,0.413,0.089,0.554,0.245
		c0.135,0.148,0.204,0.34,0.195,0.54s-0.096,0.385-0.244,0.52C15.082,13.647,13.571,14.235,11.999,14.235z"/>
	<path d="M9.749,9.75c-0.414,0-0.75-0.336-0.75-0.75V7.5c0-0.414,0.336-0.75,0.75-0.75s0.75,0.336,0.75,0.75V9
		C10.499,9.414,10.163,9.75,9.749,9.75z"/>
	<path d="M14.249,9.75c-0.414,0-0.75-0.336-0.75-0.75V7.5c0-0.414,0.336-0.75,0.75-0.75s0.75,0.336,0.75,0.75V9
		C14.999,9.414,14.663,9.75,14.249,9.75z"/>
	<path d="M21,14.25c-0.414,0-0.75-0.336-0.75-0.75V5.25c0-0.414-0.336-0.75-0.75-0.75h-15c-0.414,0-0.75,0.336-0.75,0.75v8.25
		c0,0.414-0.336,0.75-0.75,0.75s-0.75-0.336-0.75-0.75V5.25C2.25,4.009,3.26,3,4.5,3h15c1.241,0,2.25,1.009,2.25,2.25v8.25
		C21.75,13.914,21.414,14.25,21,14.25z"/>
	<path d="M4.5,21c-2.482,0-4.501-2.019-4.501-4.5c0-0.414,0.336-0.75,0.75-0.75H23.25c0.414,0,0.75,0.336,0.75,0.75
		c0,2.481-2.019,4.5-4.5,4.5H4.5z M1.594,17.25c0.335,1.308,1.518,2.25,2.906,2.25H19.5c1.388,0,2.571-0.942,2.906-2.25H1.594z"/>
</g>
</svg>
