<?xml version="1.0" encoding="utf-8"?>
<!-- Generator: Adobe Illustrator 22.1.0, SVG Export Plug-In . SVG Version: 6.00 Build 0)  -->
<svg version="1.1" id="Layer_1" xmlns="http://www.w3.org/2000/svg" xmlns:xlink="http://www.w3.org/1999/xlink" x="0px" y="0px"
	 viewBox="0 0 24 24" style="enable-background:new 0 0 24 24;" xml:space="preserve">
<title>lighter</title>
<path d="M21.749,13.5h-2.25v-2.25c0-0.264-0.144-0.485-0.35-0.618c0.667-0.726,1.085-1.676,1.099-2.728
	c0.268-3.124-1.74-5.966-4.773-6.758C15.158,1.06,14.824,1.194,14.65,1.47c-0.175,0.276-0.15,0.633,0.059,0.883
	c0.688,0.821,0.875,1.946,0.522,2.933c-0.13-0.089-0.223-0.229-0.247-0.395c-0.036-0.243-0.188-0.453-0.407-0.562
	c-0.221-0.11-0.479-0.104-0.694,0.012c-1.281,0.699-2.048,2.091-1.955,3.499c0,1.017,0.381,1.937,0.99,2.66h-0.169
	c-0.414,0-0.75,0.336-0.75,0.75v2.25h-3V0.75C8.999,0.336,8.663,0,8.249,0h-4.5c-1.241,0-2.25,1.009-2.25,2.25v10.5
	c0,1.24,1.009,2.25,2.25,2.25h3.75v6.75c0,1.24,1.009,2.25,2.25,2.25h10.5c1.24,0,2.25-1.01,2.25-2.25v-7.5
	C22.499,13.836,22.163,13.5,21.749,13.5z M13.427,7.791c-0.039-0.604,0.168-1.189,0.553-1.632c0.421,0.489,1.067,0.779,1.742,0.723
	c0.247-0.019,0.469-0.16,0.592-0.375c0.543-0.947,0.707-2.04,0.513-3.071C18.138,4.432,18.9,6.061,18.75,7.83
	c-0.02,1.478-1.193,2.651-2.661,2.67C14.622,10.5,13.429,9.307,13.427,7.791z M13.499,12h4.5v1.5h-4.5V12z M2.999,12.75V2.25
	c0-0.414,0.336-0.75,0.75-0.75h3.75v12h-3.75C3.335,13.5,2.999,13.163,2.999,12.75z M20.999,21.75c0,0.413-0.337,0.75-0.75,0.75
	h-10.5c-0.414,0-0.75-0.337-0.75-0.75V15h3.75h6h2.25V21.75z"/>
</svg>
