<?xml version="1.0" encoding="utf-8"?>
<!-- Generator: Adobe Illustrator 22.1.0, SVG Export Plug-In . SVG Version: 6.00 Build 0)  -->
<svg version="1.1" id="Layer_1" xmlns="http://www.w3.org/2000/svg" xmlns:xlink="http://www.w3.org/1999/xlink" x="0px" y="0px"
	 viewBox="0 0 24 24" style="enable-background:new 0 0 24 24;" xml:space="preserve">
<title>like-1</title>
<g>
	<path d="M12.088,24c-0.627,0-1.251-0.088-1.853-0.26l-3.634-1.038c-0.197-0.056-0.398-0.101-0.602-0.134v0.682
		c0,0.414-0.336,0.75-0.75,0.75h-4.5c-0.414,0-0.75-0.336-0.75-0.75V9.75c0-0.414,0.336-0.75,0.75-0.75h4.5
		c0.414,0,0.75,0.336,0.75,0.75v1.513c3.397-0.373,6.003-3.247,6.003-6.709V3c0-1.654,1.346-3,3-3s3,1.346,3,3v3.382
		c0,0.345,0.233,0.645,0.568,0.729l1.433,0.313c2.443,0.612,4.116,2.867,3.989,5.365l-0.301,5.106
		C23.342,21.382,20.454,24,16.973,24H12.088z M5.999,21.053c0.343,0.043,0.683,0.112,1.014,0.207l3.634,1.038
		c0.468,0.134,0.953,0.202,1.441,0.202h4.885c2.707,0,4.953-2.031,5.224-4.725l0.298-5.069c0.09-1.779-1.101-3.388-2.834-3.823
		l-1.433-0.313c-1.021-0.255-1.726-1.154-1.726-2.189V3c0-0.827-0.673-1.5-1.5-1.5s-1.5,0.673-1.5,1.5v1.554
		c0,4.293-3.266,7.836-7.5,8.216L5.999,21.053z M4.499,22.5v-12h-3v12H4.499z"/>
</g>
</svg>
