<?xml version="1.0" encoding="utf-8"?>
<!-- Generator: Adobe Illustrator 22.1.0, SVG Export Plug-In . SVG Version: 6.00 Build 0)  -->
<svg version="1.1" id="Layer_1" xmlns="http://www.w3.org/2000/svg" xmlns:xlink="http://www.w3.org/1999/xlink" x="0px" y="0px"
	 viewBox="0 0 24 24" style="enable-background:new 0 0 24 24;" xml:space="preserve">
<title>login-2</title>
<g>
	<path d="M9.104,13.125c0.621-0.001,1.123-0.504,1.123-1.125c0-0.621-0.504-1.125-1.125-1.125c-0.001,0-0.001,0-0.002,0
		c-0.621,0.001-1.124,0.506-1.123,1.127C7.978,12.623,8.483,13.126,9.104,13.125z"/>
	<path d="M20.249,2.25h-4.5c-0.414,0-0.75,0.336-0.75,0.75s0.336,0.75,0.75,0.75h4.5c0.413,0,0.75,0.336,0.75,0.75v15
		c0,0.413-0.337,0.75-0.75,0.75h-4.5c-0.414,0-0.75,0.336-0.75,0.75s0.336,0.75,0.75,0.75h4.5c1.24,0,2.25-1.01,2.25-2.25v-15
		C22.499,3.259,21.489,2.25,20.249,2.25z"/>
	<path d="M11.662,0.039L2.686,2.254C1.998,2.401,1.499,3.018,1.499,3.721v17.493c0,0.742,0.554,1.381,1.288,1.485l9,1.285
		c0,0,0.001,0,0.001,0c0.062,0.009,0.126,0.014,0.21,0.016c0.826,0,1.5-0.673,1.5-1.5v-21c0-0.102-0.011-0.206-0.033-0.314
		C13.292,0.377,12.49-0.138,11.662,0.039z M11.995,22.499l-8.996-1.285L3.021,3.716L11.999,1.5L11.995,22.499z"/>
</g>
</svg>
