<?xml version="1.0" encoding="utf-8"?>
<!-- Generator: Adobe Illustrator 22.1.0, SVG Export Plug-In . SVG Version: 6.00 Build 0)  -->
<svg version="1.1" id="Layer_1" xmlns="http://www.w3.org/2000/svg" xmlns:xlink="http://www.w3.org/1999/xlink" x="0px" y="0px"
	 viewBox="0 0 24 24" style="enable-background:new 0 0 24 24;" xml:space="preserve">
<title>love-boat</title>
<g>
	<path d="M23.249,23.999c-0.414,0-0.75-0.336-0.75-0.75v-3h-21v3c0,0.414-0.336,0.75-0.75,0.75s-0.75-0.336-0.75-0.75v-12.75
		c0-0.414,0.336-0.75,0.75-0.75s0.75,0.336,0.75,0.75v8.25h21v-4.5c0-0.414,0.336-0.75,0.75-0.75s0.75,0.336,0.75,0.75v9
		C23.999,23.663,23.663,23.999,23.249,23.999z"/>
	<path d="M5.999,17.249c-1.654,0-3-1.346-3-3c0-1.654,1.346-3,3-3s3,1.346,3,3C8.999,15.904,7.653,17.249,5.999,17.249z
		 M5.999,12.75c-0.827,0-1.5,0.673-1.5,1.5c0,0.827,0.673,1.5,1.5,1.5s1.5-0.673,1.5-1.5C7.499,13.422,6.826,12.75,5.999,12.75z"/>
	<path d="M11.249,17.249c-0.414,0-0.75-0.336-0.75-0.75v-3.539c0-0.401,0.156-0.777,0.439-1.061c0.283-0.283,0.66-0.44,1.06-0.44
		c0.12,0.004,0.235,0.012,0.364,0.045l5.885,1.467c1.622,0.406,2.753,1.857,2.751,3.529c0,0.413-0.337,0.749-0.75,0.749H11.249z
		 M19.365,15.749c-0.241-0.65-0.788-1.149-1.481-1.323l-5.884-1.467l0,2.789H19.365z"/>
	<path d="M16.744,10.878c-0.616,0-1.147-0.417-1.292-1.015l-1.218-4.895c-0.354-1.466,0.501-2.943,1.945-3.363
		c0.042-0.012,0.083-0.023,0.125-0.033c0.204-0.049,0.414-0.074,0.622-0.074c0.485,0,0.963,0.135,1.38,0.391
		c0.604,0.37,1.027,0.952,1.192,1.641l0.22,0.887l0.885-0.252c0.035-0.01,0.078-0.022,0.121-0.032
		c0.204-0.049,0.414-0.074,0.622-0.074c0.485,0,0.962,0.135,1.38,0.391c0.604,0.37,1.027,0.953,1.192,1.641
		c0.35,1.46-0.505,2.933-1.945,3.354l-4.902,1.393C16.955,10.866,16.849,10.878,16.744,10.878z M16.922,2.998
		c-0.09,0-0.18,0.011-0.268,0.032c-0.021,0.005-0.038,0.01-0.056,0.015c-0.672,0.196-1.071,0.884-0.906,1.566l1.176,4.726
		l4.692-1.334c0.668-0.195,1.065-0.882,0.902-1.562c-0.072-0.299-0.255-0.552-0.517-0.712c-0.182-0.111-0.388-0.17-0.598-0.17
		c-0.091,0-0.182,0.011-0.271,0.032c-0.018,0.004-0.035,0.009-0.052,0.014l-1.639,0.466c-0.068,0.019-0.136,0.028-0.205,0.028
		c-0.132,0-0.262-0.035-0.376-0.101c-0.174-0.101-0.302-0.271-0.352-0.467l-0.409-1.646C17.916,3.362,17.455,2.998,16.922,2.998z"/>
	<path d="M7.881,9.202c-0.256,0-0.506-0.074-0.722-0.214L2.911,6.264C1.647,5.442,1.254,3.783,2.015,2.485
		C2.036,2.448,2.06,2.411,2.084,2.374c0.49-0.751,1.321-1.2,2.222-1.2c0.514,0,1.013,0.148,1.444,0.429l0.77,0.494l0.47-0.791
		C7.007,1.275,7.031,1.237,7.055,1.2c0.386-0.592,0.98-0.999,1.673-1.145c0.182-0.038,0.367-0.057,0.55-0.057
		c0.512,0,1.011,0.149,1.443,0.431c1.261,0.819,1.653,2.478,0.892,3.776L9.007,8.583C8.753,8.975,8.335,9.202,7.881,9.202
		L7.881,9.202z M4.304,2.674c-0.392,0-0.752,0.195-0.965,0.521C3.328,3.213,3.318,3.228,3.309,3.244
		C2.954,3.848,3.137,4.622,3.725,5.003l4.102,2.631l2.495-4.193c0.353-0.602,0.17-1.374-0.418-1.755c0,0-0.003-0.002-0.004-0.003
		C9.712,1.562,9.497,1.498,9.276,1.498c-0.08,0-0.16,0.008-0.24,0.025c-0.3,0.063-0.558,0.24-0.726,0.497
		C8.3,2.036,8.291,2.052,8.281,2.068l-0.87,1.463c-0.103,0.173-0.275,0.3-0.472,0.347c-0.058,0.013-0.115,0.02-0.172,0.02
		c-0.144,0-0.285-0.041-0.406-0.119L4.935,2.862C4.745,2.739,4.527,2.674,4.304,2.674z"/>
</g>
</svg>
