<?xml version="1.0" encoding="utf-8"?>
<!-- Generator: Adobe Illustrator 22.1.0, SVG Export Plug-In . SVG Version: 6.00 Build 0)  -->
<svg version="1.1" id="Layer_1" xmlns="http://www.w3.org/2000/svg" xmlns:xlink="http://www.w3.org/1999/xlink" x="0px" y="0px"
	 viewBox="0 0 24 24" style="enable-background:new 0 0 24 24;" xml:space="preserve">
<title>maps-pin</title>
<g>
	<path d="M13.124,5.251C13.124,5.251,13.124,5.25,13.124,5.251c0-0.622-0.503-1.125-1.124-1.126
		c-0.621-0.001-1.125,0.503-1.126,1.124c-0.001,0.621,0.503,1.125,1.124,1.126C12.619,6.376,13.123,5.872,13.124,5.251z"/>
	<path d="M11.076,13.108c0.267,0.208,0.588,0.318,0.921,0.318c0.062,0,0.124-0.004,0.186-0.012c0.397-0.049,0.752-0.249,0.999-0.565
		c1.856-2.374,4.068-5.619,4.068-7.6C17.25,2.355,14.895,0,12,0C9.105,0,6.75,2.355,6.75,5.25c0,1.984,2.212,5.228,4.069,7.602
		C10.894,12.946,10.98,13.032,11.076,13.108z M12,1.5c2.067,0,3.75,1.682,3.75,3.75c0,1.16-1.437,3.718-3.75,6.676
		C9.687,8.97,8.25,6.412,8.25,5.25C8.25,3.182,9.932,1.5,12,1.5z"/>
	<path d="M23.257,21.018l-3.449-10.515c-0.261-0.742-0.902-1.301-1.675-1.458c-0.406-0.08-0.803,0.179-0.885,0.585
		c-0.082,0.406,0.18,0.802,0.586,0.884c0.258,0.052,0.472,0.238,0.553,0.47l0.825,2.515h-4.213c-0.021,0-0.039,0.01-0.06,0.012
		c-0.021,0.002-0.041-0.006-0.063-0.002c-0.031,0.005-0.055,0.023-0.084,0.032c-0.048,0.014-0.093,0.029-0.137,0.052
		c-0.044,0.023-0.081,0.05-0.119,0.08c-0.037,0.03-0.071,0.06-0.101,0.096c-0.032,0.037-0.057,0.077-0.08,0.119
		c-0.023,0.041-0.043,0.082-0.058,0.127c-0.016,0.048-0.024,0.097-0.03,0.149c-0.003,0.029-0.017,0.055-0.017,0.085
		c0,0.021,0.01,0.039,0.012,0.059c0.002,0.022-0.006,0.042-0.002,0.064L14.863,18H9.134l0.605-3.627
		c0.004-0.021-0.004-0.041-0.002-0.062c0.002-0.021,0.012-0.039,0.012-0.061c0-0.03-0.014-0.056-0.017-0.086
		c-0.006-0.051-0.014-0.1-0.03-0.148c-0.015-0.045-0.035-0.086-0.058-0.127c-0.024-0.043-0.049-0.082-0.08-0.119
		c-0.031-0.036-0.064-0.066-0.101-0.096c-0.038-0.031-0.076-0.058-0.12-0.081c-0.043-0.023-0.088-0.038-0.136-0.052
		c-0.029-0.009-0.053-0.027-0.084-0.032c-0.022-0.004-0.042,0.004-0.064,0.002C9.038,13.51,9.02,13.5,8.999,13.5H4.784L5.604,11
		c0.086-0.246,0.299-0.432,0.555-0.485c0.406-0.084,0.666-0.482,0.581-0.887C6.654,9.221,6.253,8.958,5.852,9.047
		c-0.766,0.16-1.403,0.718-1.668,1.471L0.748,21.001c-0.414,1.169,0.201,2.457,1.372,2.871c0.242,0.086,0.494,0.129,0.75,0.129
		h18.26c1.239,0,2.249-1.009,2.251-2.249C23.38,21.497,23.337,21.244,23.257,21.018z M15.885,15h3.819l0.984,3h-4.303L15.885,15z
		 M15.113,19.5l0.5,3.001h-7.23l0.5-3.001H15.113z M8.114,15l-0.5,3H3.31l0.983-3H8.114z M2.62,22.458
		c-0.39-0.138-0.595-0.567-0.452-0.974l0.65-1.984h4.545l-0.5,3.001H2.869C2.784,22.501,2.7,22.486,2.62,22.458z M21.129,22.501
		h-3.994l-0.5-3.001h4.545l0.656,2c0.029,0.082,0.044,0.167,0.044,0.251C21.88,22.165,21.543,22.501,21.129,22.501z"/>
</g>
</svg>
