<?xml version="1.0" encoding="utf-8"?>
<!-- Generator: Adobe Illustrator 22.1.0, SVG Export Plug-In . SVG Version: 6.00 Build 0)  -->
<svg version="1.1" id="Layer_1" xmlns="http://www.w3.org/2000/svg" xmlns:xlink="http://www.w3.org/1999/xlink" x="0px" y="0px"
	 viewBox="0 0 24 24" style="enable-background:new 0 0 24 24;" xml:space="preserve">
<title>medical-personnel-doctor</title>
<g>
	<path d="M12.249,24c-0.965,0-1.75-0.785-1.75-1.75v-7c0-0.965,0.785-1.75,1.75-1.75h2.001v-1.25c0-0.965,0.785-1.75,1.75-1.75h2.5
		c0.965,0,1.75,0.785,1.75,1.75v1.25h1.999c0.965,0,1.75,0.785,1.75,1.75v7c0,0.965-0.785,1.75-1.75,1.75H12.249z M12.249,15
		c-0.138,0-0.25,0.112-0.25,0.25v7c0,0.138,0.112,0.25,0.25,0.25h10c0.138,0,0.25-0.112,0.25-0.25v-7c0-0.138-0.112-0.25-0.25-0.25
		H12.249z M18.75,13.5v-1.25c0-0.138-0.112-0.25-0.25-0.25H16c-0.138,0-0.25,0.112-0.25,0.25v1.25H18.75z"/>
	<path d="M17.249,21c-0.414,0-0.75-0.336-0.75-0.75V19.5h-0.75c-0.414,0-0.75-0.336-0.75-0.75S15.335,18,15.749,18h0.75v-0.75
		c0-0.414,0.336-0.75,0.75-0.75s0.75,0.336,0.75,0.75V18h0.75c0.414,0,0.75,0.336,0.75,0.75s-0.336,0.75-0.75,0.75h-0.75v0.75
		C17.999,20.664,17.663,21,17.249,21z"/>
	<path d="M7.499,18c-0.414,0-0.75-0.336-0.75-0.75V11.3c-2.972,0.373-5.247,2.914-5.25,5.95c0,0.413-0.337,0.75-0.75,0.75
		c-0.414,0-0.75-0.337-0.75-0.751c0.004-4.108,3.343-7.467,7.449-7.496C7.46,9.751,7.479,9.75,7.499,9.75
		c0.011,0,0.029,0.001,0.045,0.003c1.002,0.005,1.978,0.207,2.899,0.599c0.184,0.078,0.327,0.224,0.402,0.41
		c0.075,0.186,0.073,0.39-0.006,0.574c-0.118,0.277-0.389,0.456-0.69,0.456l0,0c-0.102,0-0.201-0.02-0.294-0.06
		c-0.514-0.219-1.053-0.364-1.606-0.433v5.951C8.249,17.664,7.913,18,7.499,18z"/>
	<path d="M7.499,9.75c-2.688,0-4.875-2.187-4.875-4.875c0-0.839,0.221-1.67,0.639-2.404C3.28,2.436,3.298,2.41,3.309,2.395
		C4.184,0.919,5.79,0,7.499,0c2.384,0,4.448,1.774,4.812,4.13c0.015,0.056,0.023,0.112,0.025,0.167
		c0.025,0.212,0.038,0.401,0.038,0.578C12.374,7.563,10.187,9.75,7.499,9.75z M4.229,4.037C4.159,4.31,4.124,4.59,4.124,4.875
		c0,1.861,1.514,3.375,3.375,3.375c1.694,0,3.1-1.255,3.339-2.883c-0.635,0.17-1.287,0.257-1.945,0.258c-0.006,0-0.029,0-0.035,0
		C7.179,5.622,5.556,5.062,4.229,4.037z M4.938,2.683c1.094,0.92,2.51,1.442,3.936,1.442c0.002,0,0.004,0,0.006,0
		c0.626,0,1.24-0.095,1.831-0.282C10.267,2.468,8.966,1.5,7.499,1.5C6.512,1.5,5.577,1.937,4.938,2.683z"/>
</g>
</svg>
