<?xml version="1.0" encoding="utf-8"?>
<!-- Generator: Adobe Illustrator 22.1.0, SVG Export Plug-In . SVG Version: 6.00 Build 0)  -->
<svg version="1.1" id="Layer_1" xmlns="http://www.w3.org/2000/svg" xmlns:xlink="http://www.w3.org/1999/xlink" x="0px" y="0px"
	 viewBox="0 0 24 24" style="enable-background:new 0 0 24 24;" xml:space="preserve">
<title>megaphone-1</title>
<g>
	<path d="M23.249,23.25c-0.414,0-0.75-0.336-0.75-0.75v-0.959l-5.159-1.719c-1.355,1.486-3.265,2.367-5.28,2.429
		c-0.077,0.002-0.154,0.004-0.231,0.004c-3.845,0-7.056-2.942-7.42-6.743l-2.91-0.97V15c0,0.414-0.336,0.75-0.75,0.75
		s-0.75-0.336-0.75-0.75V9c0-0.414,0.336-0.75,0.75-0.75S1.499,8.586,1.499,9v0.459l21-7V1.5c0-0.414,0.336-0.75,0.75-0.75
		s0.75,0.336,0.75,0.75v21C23.999,22.914,23.663,23.25,23.249,23.25z M6.004,16.042c0.575,2.724,2.982,4.712,5.825,4.712
		c0.061,0,0.123-0.001,0.185-0.003c1.391-0.043,2.695-0.558,3.729-1.462L6.004,16.042z M22.499,19.959V4.041l-21,7v1.919
		l15.814,5.271C17.322,18.233,22.499,19.959,22.499,19.959z"/>
</g>
</svg>
