<?xml version="1.0" encoding="utf-8"?>
<!-- Generator: Adobe Illustrator 22.1.0, SVG Export Plug-In . SVG Version: 6.00 Build 0)  -->
<svg version="1.1" id="Layer_1" xmlns="http://www.w3.org/2000/svg" xmlns:xlink="http://www.w3.org/1999/xlink" x="0px" y="0px"
	 viewBox="0 0 24 24" style="enable-background:new 0 0 24 24;" xml:space="preserve">
<title>messages-people-person-bubble-oval</title>
<g>
	<path d="M21.749,0h-12c-1.241,0-2.25,1.009-2.25,2.25v4.5c0,0.414,0.336,0.75,0.75,0.75s0.75-0.336,0.75-0.75v-4.5
		c0-0.414,0.336-0.75,0.75-0.75h12c0.413,0,0.75,0.336,0.75,0.75v11.994c0,0.417-0.339,0.756-0.756,0.756h-1.494
		c-0.199,0-0.39,0.079-0.53,0.22l-3.22,3.22V15.75c0-0.414-0.336-0.75-0.75-0.75h-3c-0.414,0-0.75,0.336-0.75,0.75
		s0.336,0.75,0.75,0.75h2.25v3.75c0,0.304,0.183,0.577,0.463,0.693C15.555,20.981,15.652,21,15.749,21
		c0.195,0,0.387-0.076,0.53-0.22l4.28-4.28h1.184c1.244,0,2.256-1.012,2.256-2.256V2.25C23.999,1.009,22.989,0,21.749,0z"/>
	<path d="M21,8.25c0-0.621-0.504-1.125-1.125-1.125h-0.001c-0.621,0.001-1.125,0.505-1.124,1.126
		c0.001,0.621,0.505,1.125,1.126,1.124C20.497,9.374,21,8.871,21,8.25z"/>
	<path d="M12.376,9.375C12.997,9.374,13.5,8.871,13.5,8.25c0-0.621-0.504-1.125-1.125-1.125h-0.001
		c-0.621,0.001-1.125,0.505-1.124,1.126C11.251,8.872,11.755,9.376,12.376,9.375z"/>
	<circle cx="16.124" cy="8.25" r="1.125"/>
	<path d="M6.749,17.25c2.274,0,4.125-1.851,4.125-4.125S9.023,9,6.749,9s-4.125,1.851-4.125,4.125S4.475,17.25,6.749,17.25z
		 M6.749,10.5c1.447,0,2.625,1.178,2.625,2.625S8.196,15.75,6.749,15.75s-2.625-1.178-2.625-2.625S5.302,10.5,6.749,10.5z"/>
	<path d="M5.842,17.313c-3.029,0.407-5.429,2.807-5.836,5.837c-0.055,0.41,0.233,0.788,0.643,0.843
		c0.414,0.061,0.788-0.232,0.843-0.644c0.317-2.361,2.188-4.232,4.55-4.55c2.896-0.389,5.574,1.652,5.963,4.55
		c0.05,0.377,0.373,0.65,0.742,0.65c0.033,0,0.067-0.002,0.101-0.007c0.411-0.055,0.699-0.433,0.643-0.843
		C12.992,19.433,9.562,16.814,5.842,17.313z"/>
</g>
</svg>
