<?xml version="1.0" encoding="utf-8"?>
<!-- Generator: Adobe Illustrator 22.1.0, SVG Export Plug-In . SVG Version: 6.00 Build 0)  -->
<svg version="1.1" id="Layer_1" xmlns="http://www.w3.org/2000/svg" xmlns:xlink="http://www.w3.org/1999/xlink" x="0px" y="0px"
	 viewBox="0 0 24 24" style="enable-background:new 0 0 24 24;" xml:space="preserve">
<title>modern-tv-3d-glasses</title>
<g>
	<path d="M5.249,18.001c-2.895,0-5.25-2.355-5.25-5.25v-3c0-0.444,0.13-0.874,0.375-1.243l3.02-5.335
		C4.24,1.245,6.143,0.001,8.249,0.001c0.414,0,0.75,0.336,0.75,0.75s-0.336,0.75-0.75,0.75c-1.522,0-2.893,0.904-3.493,2.303
		c-0.01,0.025-0.023,0.05-0.037,0.075L2.668,7.501H21.33l-2.052-3.623c-0.014-0.025-0.025-0.047-0.035-0.07
		c-0.601-1.402-1.972-2.306-3.494-2.306c-0.414,0-0.75-0.336-0.75-0.75s0.336-0.75,0.75-0.75c2.106,0,4.009,1.244,4.854,3.172
		l3.043,5.373c0.227,0.346,0.353,0.77,0.353,1.205v3c0,0.784-0.179,1.572-0.518,2.278c-0.124,0.258-0.389,0.425-0.676,0.425l0,0
		c-0.113,0-0.222-0.025-0.325-0.074c-0.181-0.087-0.317-0.239-0.383-0.428c-0.066-0.189-0.055-0.393,0.032-0.573
		c0.242-0.504,0.37-1.067,0.37-1.627v-3c0-0.125-0.034-0.248-0.1-0.365c-0.003-0.005-0.041-0.071-0.041-0.071
		c-0.141-0.197-0.368-0.315-0.609-0.315h-19.5c-0.239,0-0.465,0.116-0.607,0.312L1.61,9.37C1.605,9.378,1.6,9.386,1.595,9.394
		C1.531,9.509,1.499,9.629,1.499,9.751v3c0,2.068,1.682,3.75,3.75,3.75h3.129c0.165,0,0.33-0.057,0.461-0.158l1.174-2.206
		c0.211-0.397,0.532-0.718,0.929-0.929c0.324-0.172,0.688-0.263,1.054-0.263c0.835,0,1.598,0.457,1.989,1.192l0.133,0.248
		c0.195,0.365,0.058,0.82-0.307,1.015c-0.108,0.058-0.231,0.089-0.354,0.089c-0.277,0-0.53-0.152-0.661-0.396l-0.134-0.25
		c-0.131-0.247-0.386-0.399-0.665-0.399c-0.123,0-0.241,0.03-0.351,0.088c-0.132,0.071-0.239,0.177-0.31,0.309l-1.236,2.323
		c-0.035,0.066-0.08,0.126-0.132,0.178c-0.424,0.424-0.989,0.658-1.59,0.658H5.249z"/>
	<path d="M15.7,24.001c-1.008,0-1.899-0.678-2.168-1.65c-0.11-0.399,0.125-0.813,0.523-0.923c0.066-0.018,0.132-0.027,0.199-0.027
		c0.337,0,0.635,0.226,0.724,0.55c0.089,0.323,0.386,0.55,0.722,0.55c0.201,0,0.389-0.078,0.531-0.22
		c0.142-0.142,0.22-0.33,0.219-0.53c0-0.201-0.078-0.389-0.22-0.531c-0.142-0.142-0.33-0.219-0.531-0.219
		c-0.413,0-0.75-0.336-0.75-0.749c0-0.2,0.078-0.389,0.219-0.531c0.141-0.142,0.33-0.22,0.53-0.22c0.338,0,0.636-0.229,0.723-0.556
		c0.107-0.4-0.131-0.812-0.53-0.918C15.828,18.009,15.762,18,15.697,18c-0.338,0-0.636,0.229-0.723,0.556
		c-0.088,0.327-0.386,0.556-0.725,0.556c-0.064,0-0.129-0.008-0.192-0.025c-0.401-0.107-0.639-0.52-0.532-0.919
		c0.263-0.982,1.157-1.668,2.174-1.668c0.196,0,0.391,0.026,0.582,0.077c1.198,0.321,1.912,1.557,1.592,2.756
		c-0.091,0.34-0.262,0.654-0.496,0.916c0.372,0.414,0.575,0.942,0.575,1.502c0,0.601-0.233,1.166-0.658,1.591
		c-0.425,0.425-0.99,0.659-1.591,0.66H15.7z"/>
	<path d="M20.48,24.014c-0.117,0-0.237-0.006-0.354-0.017c-0.386-0.038-0.677-0.359-0.677-0.747v-6c0-0.387,0.291-0.708,0.677-0.747
		c0.118-0.011,0.238-0.018,0.355-0.018c1.758,0,3.246,1.321,3.462,3.073c0.004,0.029,0.006,0.06,0.006,0.092v1.2
		c0,0.031-0.002,0.063-0.006,0.094C23.728,22.694,22.239,24.014,20.48,24.014z M20.95,22.458c0.778-0.189,1.381-0.835,1.5-1.657
		v-1.1c-0.119-0.822-0.722-1.469-1.5-1.657V22.458z"/>
</g>
</svg>
