<?xml version="1.0" encoding="utf-8"?>
<!-- Generator: Adobe Illustrator 22.1.0, SVG Export Plug-In . SVG Version: 6.00 Build 0)  -->
<svg version="1.1" id="Layer_1" xmlns="http://www.w3.org/2000/svg" xmlns:xlink="http://www.w3.org/1999/xlink" x="0px" y="0px"
	 viewBox="0 0 24 24" style="enable-background:new 0 0 24 24;" xml:space="preserve">
<title>money-wallet-open</title>
<g>
	<path d="M18.749,1.125l-13.85,0C3.962,1.152,3.12,1.55,2.507,2.17C2.434,2.226,2.37,2.294,2.321,2.375
		C1.792,3.002,1.48,3.814,1.5,4.688V16.15c0.04,1.917,1.296,3.588,3.153,4.165l9.041,2.463c0.248,0.07,0.503,0.105,0.761,0.105
		c0.088,0,0.177-0.004,0.265-0.012c1.538-0.146,2.672-1.515,2.53-2.982v-2.265h1.393c0.012,0,0.023,0,0.034,0
		c1.009,0,1.959-0.389,2.68-1.097c0.729-0.716,1.135-1.673,1.144-2.7V4.875C22.499,2.807,20.816,1.125,18.749,1.125z M18.749,2.625
		c1.24,0,2.25,1.009,2.25,2.25v3.75h-3.83c-0.302-1.597-1.453-2.94-3.057-3.467L5.196,2.625H18.749z M14.579,21.378
		c-0.161,0.015-0.321,0.001-0.482-0.045l-9.024-2.457C3.859,18.498,3.026,17.391,3,16.135V4.671C2.991,4.295,3.088,3.94,3.262,3.635
		l10.411,2.958c1.215,0.399,2.049,1.526,2.076,2.788l0.002,7.45c-0.001,0.015-0.001,0.029-0.001,0.045s0,0.03,0.001,0.046
		l0.001,3.039C15.819,20.675,15.293,21.311,14.579,21.378z M18.659,16.125c-0.007,0-0.014,0-0.021,0h-1.39v-6h3.75v3.696
		C20.988,15.096,19.947,16.125,18.659,16.125z"/>
	<path d="M12.375,12.375L12.375,12.375c-0.622,0.001-1.126,0.505-1.125,1.126c0.001,0.621,0.505,1.125,1.126,1.124
		c0.621-0.001,1.124-0.504,1.124-1.125C13.5,12.879,12.996,12.375,12.375,12.375z"/>
</g>
</svg>
