<?xml version="1.0" encoding="utf-8"?>
<!-- Generator: Adobe Illustrator 22.1.0, SVG Export Plug-In . SVG Version: 6.00 Build 0)  -->
<svg version="1.1" id="Regular" xmlns="http://www.w3.org/2000/svg" xmlns:xlink="http://www.w3.org/1999/xlink" x="0px" y="0px"
	 viewBox="0 0 24 24" style="enable-background:new 0 0 24 24;" xml:space="preserve">
<title>monkey-2</title>
<g>
	<path d="M9.083,9.316c0.09,0.038,0.189,0.059,0.292,0.059s0.202-0.021,0.292-0.059c0.38-0.105,0.669-0.394,0.774-0.774
		C10.479,8.452,10.5,8.354,10.5,8.25s-0.021-0.202-0.059-0.292c-0.105-0.38-0.394-0.669-0.774-0.774
		c-0.09-0.038-0.189-0.059-0.292-0.059S9.173,7.146,9.083,7.184c-0.38,0.105-0.669,0.394-0.774,0.774
		C8.271,8.048,8.25,8.146,8.25,8.25s0.021,0.202,0.059,0.292C8.414,8.922,8.703,9.211,9.083,9.316z"/>
	<path d="M14.333,9.316c0.09,0.038,0.189,0.059,0.292,0.059s0.202-0.021,0.292-0.059c0.38-0.105,0.669-0.394,0.774-0.774
		c0.038-0.09,0.059-0.189,0.059-0.292s-0.021-0.202-0.059-0.292c-0.105-0.38-0.394-0.669-0.774-0.774
		c-0.09-0.038-0.189-0.059-0.292-0.059s-0.202,0.021-0.292,0.059c-0.38,0.105-0.669,0.394-0.774,0.774
		C13.521,8.048,13.5,8.146,13.5,8.25s0.021,0.202,0.059,0.292C13.664,8.922,13.953,9.211,14.333,9.316z"/>
	<path d="M19.801,17.358c-0.013-0.022-0.034-0.035-0.049-0.056c-0.558-1.363-1.548-2.526-2.853-3.274
		c-0.201-1.571-1.625-2.729-3.229-2.613c-0.614-0.001-1.162,0.149-1.669,0.432c-0.503-0.283-1.062-0.413-1.586-0.428
		c-1.633-0.179-3.104,0.988-3.313,2.609c-1.298,0.744-2.285,1.899-2.844,3.264C4.24,17.317,4.215,17.332,4.2,17.358
		c-0.059,0.103-0.085,0.214-0.092,0.325C3.912,18.261,3.785,18.869,3.75,19.5c0,2.859,3.007,4.5,8.25,4.5s8.25-1.641,8.249-4.541
		c-0.034-0.619-0.16-1.218-0.355-1.789C19.885,17.563,19.858,17.457,19.801,17.358z M8.183,15.155
		c0.303-0.146,0.473-0.475,0.415-0.807c-0.008-0.045-0.013-0.09-0.012-0.1c0.084-0.771,0.736-1.343,1.561-1.343
		c0.062,0,0.125,0.003,0.189,0.01c0.002,0,0.005,0,0.008,0c0.43,0,0.851,0.148,1.186,0.418c0.275,0.221,0.666,0.221,0.941,0
		c0.334-0.27,0.756-0.418,1.186-0.418c0.003,0,0.005,0,0.008,0c0.02,0,0.121-0.008,0.14-0.01c0.854-0.045,1.555,0.567,1.614,1.306
		c-0.002,0.045-0.008,0.089-0.016,0.133c-0.061,0.332,0.109,0.664,0.414,0.811c1.024,0.49,1.832,1.295,2.342,2.257
		c-1.896,0.957-4.005,1.415-6.188,1.339c-2.126,0.079-4.229-0.381-6.125-1.337C6.356,16.447,7.162,15.645,8.183,15.155z M12,22.5
		c-2.029,0-6.75-0.292-6.751-2.959c0.013-0.237,0.042-0.47,0.087-0.7c2.074,1.016,4.354,1.503,6.635,1.408
		c0.185,0.008,0.369,0.012,0.554,0.012c2.133,0,4.23-0.488,6.142-1.422c0.042,0.217,0.07,0.438,0.083,0.662
		C18.75,22.208,14.029,22.5,12,22.5z"/>
	<path d="M23.399,6.554c-0.552-0.835-1.397-1.405-2.379-1.604c-0.65-0.132-1.303-0.076-1.914,0.126
		c-0.998-2.971-3.803-5.12-7.106-5.12c-3.303,0-6.109,2.149-7.107,5.121C3.329,4.563,1.552,5.116,0.6,6.554
		C0.047,7.389-0.147,8.39,0.052,9.372c0.2,0.982,0.77,1.827,1.605,2.38c0.622,0.412,1.346,0.619,2.072,0.619
		c0.659,0,1.318-0.171,1.902-0.516c0.357-0.21,0.476-0.67,0.265-1.027c-0.209-0.357-0.669-0.476-1.027-0.265
		c-0.737,0.433-1.672,0.409-2.384-0.062c-0.501-0.332-0.843-0.839-0.963-1.428s-0.003-1.189,0.329-1.69
		C2.183,6.881,2.689,6.54,3.279,6.419c0.437-0.086,0.879-0.045,1.284,0.117C4.525,6.839,4.5,7.144,4.5,7.456
		c0,0.414,0.336,0.75,0.75,0.75S6,7.87,6,7.456c0-0.409,0.042-0.808,0.12-1.194c0,0,0-0.001,0-0.001
		C6.676,3.523,9.101,1.456,12,1.456c2.899,0,5.324,2.067,5.88,4.804c0,0,0,0.001,0,0.002C17.958,6.648,18,7.047,18,7.456
		c0,0.414,0.336,0.75,0.75,0.75s0.75-0.336,0.75-0.75c0-0.312-0.025-0.618-0.062-0.92c0.403-0.162,0.845-0.205,1.284-0.117
		c0.589,0.12,1.096,0.462,1.428,0.963s0.448,1.102,0.329,1.69c-0.12,0.589-0.462,1.096-0.963,1.428
		c-0.711,0.471-1.647,0.497-2.385,0.062c-0.357-0.213-0.816-0.092-1.027,0.265c-0.21,0.357-0.091,0.816,0.266,1.027
		c0.584,0.344,1.243,0.516,1.902,0.516c0.726,0,1.45-0.208,2.072-0.619c0.835-0.553,1.404-1.398,1.604-2.38
		C24.147,8.39,23.953,7.389,23.399,6.554z"/>
</g>
</svg>
