<?xml version="1.0" encoding="utf-8"?>
<!-- Generator: Adobe Illustrator 22.1.0, SVG Export Plug-In . SVG Version: 6.00 Build 0)  -->
<svg version="1.1" id="Layer_1" xmlns="http://www.w3.org/2000/svg" xmlns:xlink="http://www.w3.org/1999/xlink" x="0px" y="0px"
	 viewBox="0 0 24 24" style="enable-background:new 0 0 24 24;" xml:space="preserve">
<title>mood-happy</title>
<g>
	<path d="M18.708,1.696C16.923,0.586,14.869,0,12.768,0c-0.013,0-0.023,0-0.034,0C6.546,0,1.508,5.029,1.499,11.219
		c-0.003,1.968,0.509,3.894,1.483,5.597l-2.911,6.112c-0.136,0.286-0.078,0.628,0.147,0.853C0.363,23.924,0.555,24,0.749,24
		c0.109,0,0.219-0.023,0.322-0.073l6.113-2.91c5.221,2.985,11.936,1.323,15.138-3.827C25.598,11.922,23.977,4.971,18.708,1.696z
		 M21.049,16.397c-2.84,4.565-8.863,5.97-13.429,3.133c-0.217-0.135-0.488-0.149-0.718-0.04l-4.567,2.174l2.174-4.566
		c0.11-0.23,0.095-0.502-0.041-0.719c-0.964-1.549-1.473-3.333-1.47-5.158C3.007,5.857,7.372,1.5,12.734,1.5
		c0.004,0,0.009,0,0.014,0c0.004,0.001,0.013,0,0.02,0c1.821,0,3.602,0.508,5.148,1.47C22.481,5.809,23.887,11.832,21.049,16.397z"
		/>
	<path d="M15.749,12.75h-6c-0.414,0-0.75,0.336-0.75,0.75c0,2.067,1.682,3.75,3.75,3.75c2.067,0,3.75-1.683,3.75-3.75
		C16.499,13.086,16.163,12.75,15.749,12.75z M12.749,15.75c-0.978,0-1.812-0.627-2.122-1.5h4.243
		C14.561,15.123,13.727,15.75,12.749,15.75z"/>
	<circle cx="8.124" cy="9.875" r="1"/>
	<circle cx="17.124" cy="9.875" r="1"/>
</g>
</svg>
