<?xml version="1.0" encoding="utf-8"?>
<!-- Generator: Adobe Illustrator 22.1.0, SVG Export Plug-In . SVG Version: 6.00 Build 0)  -->
<svg version="1.1" id="Layer_1" xmlns="http://www.w3.org/2000/svg" xmlns:xlink="http://www.w3.org/1999/xlink" x="0px" y="0px"
	 viewBox="0 0 24 24" style="enable-background:new 0 0 24 24;" xml:space="preserve">
<title>mouse</title>
<g>
	<path d="M6.749,24c-3.722,0-6.75-3.028-6.75-6.75v-6c0-3.474,2.634-6.363,6.053-6.714C6.404,1.968,8.627,0,11.249,0
		c2.895,0,5.25,2.355,5.25,5.25V7.5c0,1.654,1.346,3,3,3s3-1.346,3-3V0.75c0-0.414,0.336-0.75,0.75-0.75s0.75,0.336,0.75,0.75V7.5
		c0,2.481-2.019,4.5-4.5,4.5s-4.5-2.019-4.5-4.5V5.25c0-2.068-1.682-3.75-3.75-3.75c-1.8,0-3.35,1.313-3.682,3.051
		c3.357,0.407,5.932,3.275,5.932,6.699v6C13.499,20.972,10.471,24,6.749,24z M1.499,17.25c0,2.895,2.355,5.25,5.25,5.25
		s5.25-2.355,5.25-5.25V13.5h-10.5V17.25z M11.999,12v-0.75c0-2.62-1.946-4.828-4.5-5.195V12H11.999z M5.999,12V6.055
		c-2.554,0.367-4.5,2.576-4.5,5.195V12H5.999z"/>
</g>
</svg>
