<?xml version="1.0" encoding="utf-8"?>
<!-- Generator: Adobe Illustrator 22.1.0, SVG Export Plug-In . SVG Version: 6.00 Build 0)  -->
<svg version="1.1" id="Layer_1" xmlns="http://www.w3.org/2000/svg" xmlns:xlink="http://www.w3.org/1999/xlink" x="0px" y="0px"
	 viewBox="0 0 24 24" style="enable-background:new 0 0 24 24;" xml:space="preserve">
<title>nautic-sports-sailing-person</title>
<g>
	<path d="M3.749,11.658c-1.861,0-3.375-1.514-3.375-3.375s1.514-3.375,3.375-3.375s3.375,1.514,3.375,3.375
		S5.61,11.658,3.749,11.658z M3.749,6.408c-1.034,0-1.875,0.841-1.875,1.875s0.841,1.875,1.875,1.875s1.875-0.841,1.875-1.875
		S4.783,6.408,3.749,6.408z"/>
	<path d="M7.6,19.908c-1.308-0.003-2.54-0.7-3.215-1.819L2.57,15.067c-0.638-1.065-0.291-2.449,0.773-3.087
		c0.221-0.133,0.462-0.226,0.715-0.276l1.795-0.359c0.62-0.125,1.163-0.508,1.489-1.051L8.57,8.25
		c0.301-0.513,0.788-0.88,1.37-1.032c0.067-0.018,0.135-0.032,0.204-0.043L9.94,6.825C9.922,6.799,9.907,6.771,9.892,6.743
		L7.493,2.631C7.356,2.395,7.286,2.126,7.289,1.855C7.295,1.454,7.457,1.08,7.744,0.801c0.281-0.273,0.658-0.424,1.061-0.424
		C17.722,0.5,21.913,7.525,23.307,10.555c0.015,0.028,0.029,0.057,0.04,0.088c0.129,0.285,0.247,0.562,0.351,0.823
		c0.293,0.721-0.011,1.536-0.709,1.892c-1.817,0.836-3.238,2.377-3.912,4.234c-0.115,0.33-0.349,0.613-0.657,0.793
		c-0.23,0.134-0.49,0.205-0.754,0.205c-0.129,0-0.258-0.017-0.384-0.05c-0.387-0.102-0.712-0.348-0.914-0.695l-3.803-6.519
		c-0.017-0.025-0.031-0.052-0.045-0.079l-0.246-0.421l-1.071,1.786c-0.747,1.243-1.872,2.21-3.2,2.761l0.021,0.035H9
		c1.515,0.004,3.002,0.523,4.189,1.462c0.324,0.257,0.379,0.729,0.123,1.054c-0.143,0.181-0.357,0.285-0.589,0.285
		c-0.168,0-0.333-0.057-0.465-0.162c-0.924-0.731-2.082-1.135-3.261-1.138H7.599c-0.262,0-0.508-0.139-0.643-0.364l-0.722-1.2
		c-0.122-0.203-0.141-0.454-0.051-0.673c0.09-0.218,0.28-0.383,0.51-0.441c1.357-0.343,2.502-1.192,3.223-2.391l1.216-2.027
		c0.01-0.019,0.02-0.036,0.03-0.05c0.198-0.355,0.077-0.806-0.275-1.012c-0.115-0.068-0.246-0.104-0.377-0.104
		c-0.064,0-0.128,0.008-0.191,0.025C10.124,8.72,9.961,8.843,9.86,9.016l-1.232,2.05c-0.543,0.903-1.447,1.541-2.48,1.749
		l-1.796,0.359c-0.085,0.017-0.165,0.048-0.238,0.092c-0.172,0.103-0.293,0.267-0.342,0.461c-0.049,0.195-0.019,0.396,0.084,0.568
		l1.814,3.021c0.405,0.672,1.146,1.091,1.932,1.093H9c0.414,0,0.75,0.336,0.75,0.75s-0.336,0.75-0.75,0.75H7.6z M17.663,17.089
		c0.808-2.228,2.498-4.072,4.641-5.067c-0.044-0.112-0.094-0.233-0.149-0.363h-7.659L17.663,17.089z M21.435,10.158
		c-0.576-1.079-1.243-2.086-1.989-3H11.87l1.75,3H21.435z M18.059,5.658c-2.58-2.461-5.694-3.732-9.27-3.782l0-0.375l0,0.375
		l2.207,3.782H18.059z"/>
	<path d="M15.76,23.629c-0.277,0-0.557-0.021-0.833-0.064c-1.123-0.173-2.127-0.672-2.928-1.451
		c-0.175,0.169-0.362,0.326-0.558,0.47c-0.933,0.684-2.033,1.045-3.18,1.045c-0.277,0-0.558-0.021-0.834-0.064
		c-1.124-0.173-2.129-0.673-2.93-1.452c-1.004,0.964-2.348,1.512-3.746,1.514c-0.414,0-0.75-0.336-0.751-0.749
		c0-0.2,0.077-0.389,0.219-0.531s0.33-0.22,0.53-0.22c1.237-0.002,2.414-0.598,3.147-1.594c0.141-0.191,0.367-0.306,0.604-0.306
		c0.238,0,0.464,0.115,0.605,0.307c0.616,0.84,1.522,1.39,2.551,1.549c0.2,0.031,0.403,0.046,0.603,0.046
		c0.828,0,1.622-0.261,2.296-0.755c0.322-0.236,0.605-0.519,0.841-0.841c0.141-0.192,0.367-0.307,0.605-0.307
		s0.464,0.115,0.605,0.307c0.615,0.84,1.521,1.39,2.551,1.549c0.199,0.031,0.402,0.046,0.602,0.046c0.829,0,1.623-0.261,2.297-0.755
		c0.322-0.236,0.605-0.519,0.841-0.841c0.141-0.192,0.366-0.306,0.604-0.307c0.238,0,0.464,0.114,0.605,0.305
		c0.734,0.997,1.91,1.593,3.148,1.595c0.414,0.001,0.75,0.338,0.749,0.752c-0.001,0.413-0.337,0.748-0.75,0.748
		c-1.4-0.003-2.744-0.55-3.748-1.515c-0.176,0.17-0.364,0.328-0.561,0.472C18.007,23.267,16.907,23.629,15.76,23.629z"/>
</g>
</svg>
