<?xml version="1.0" encoding="utf-8"?>
<!-- Generator: Adobe Illustrator 22.1.0, SVG Export Plug-In . SVG Version: 6.00 Build 0)  -->
<svg version="1.1" id="Layer_1" xmlns="http://www.w3.org/2000/svg" xmlns:xlink="http://www.w3.org/1999/xlink" x="0px" y="0px"
	 viewBox="0 0 24 24" style="enable-background:new 0 0 24 24;" xml:space="preserve">
<title>office-work-wireless</title>
<g>
	<path d="M20.249,15h-8.39c0.085-0.237,0.14-0.49,0.14-0.756c0-1.24-1.009-2.25-2.25-2.25H8.11c-0.001,0-0.002,0-0.003,0
		c-0.445,0-0.875-0.13-1.244-0.374l-1.116-0.745C5.378,10.63,4.949,10.501,4.504,10.5c1.652-0.003,2.995-1.347,2.995-3
		c0-1.654-1.346-3-3-3s-3,1.346-3,3c0,1.652,1.342,2.995,2.992,2.999C3.254,10.504,2.25,11.512,2.25,12.75v6
		c0,0.264,0.054,0.514,0.138,0.75H1.499c-0.414,0-0.75,0.336-0.75,0.75S1.085,21,1.499,21h1.5v2.25c0,0.414,0.336,0.75,0.75,0.75
		s0.75-0.336,0.75-0.75V21c0,0,0,0,0,0c0,0,0,0,0.001,0h1.9c0.284,0,0.539,0.158,0.666,0.414l0.67,1.342
		C8.12,23.523,8.891,24,9.749,24c0.001,0,0.002,0,0.004,0l-0.001-0.75L9.756,24c0.346,0,0.693-0.082,1.005-0.237
		c1.109-0.556,1.561-1.91,1.006-3.02l-0.67-1.339c-0.839-1.692-2.484-2.777-4.347-2.894v-0.151c0.448,0.092,0.891,0.138,1.362,0.135
		H9.72c0.01,0,0.019,0.006,0.029,0.006h4.5v6.75c0,0.414,0.336,0.75,0.75,0.75s0.75-0.336,0.75-0.75V16.5h4.5
		c0.414,0,0.75-0.336,0.75-0.75S20.663,15,20.249,15z M2.999,7.5c0-0.827,0.673-1.5,1.5-1.5s1.5,0.673,1.5,1.5S5.326,9,4.499,9
		S2.999,8.327,2.999,7.5z M8.109,14.994c-0.612-0.017-1.252-0.109-1.847-0.331c-0.23-0.085-0.488-0.053-0.69,0.087
		c-0.202,0.141-0.322,0.37-0.322,0.616v1.884C5.25,17.664,5.586,18,6,18h0.402c1.406,0.001,2.715,0.789,3.352,2.073l0.671,1.341
		c0.185,0.37,0.034,0.822-0.335,1.007C9.986,22.473,9.871,22.5,9.756,22.5H9.751c-0.001,0-0.001,0-0.002,0
		c-0.286,0-0.542-0.159-0.67-0.414l-0.669-1.34C8.028,19.978,7.258,19.5,6.4,19.5H4.5c-0.414,0-0.75-0.337-0.75-0.75v-6
		c0-0.414,0.336-0.75,0.749-0.751c0.149,0,0.293,0.043,0.417,0.125l1.117,0.745c0.617,0.409,1.334,0.625,2.073,0.625
		c0.002,0,0.004,0,0.006,0h1.637c0.414,0,0.75,0.337,0.75,0.75s-0.336,0.75-0.75,0.75H8.109z"/>
	<path d="M22.795,6.811c-0.383-0.164-0.822,0.013-0.985,0.394L19.755,12h-5.506c-0.414,0-0.75,0.336-0.75,0.75s0.336,0.75,0.75,0.75
		h6c0.3,0,0.571-0.179,0.689-0.454l2.25-5.25C23.352,7.415,23.175,6.974,22.795,6.811z"/>
	<circle cx="14.249" cy="7.625" r="1"/>
	<path d="M16.9,5.598c0.192,0,0.385-0.073,0.531-0.22c0.292-0.293,0.292-0.768-0.001-1.061c-1.754-1.751-4.607-1.751-6.36,0
		c-0.293,0.293-0.293,0.768-0.001,1.061c0.293,0.294,0.769,0.293,1.061,0.001c1.169-1.167,3.072-1.167,4.24,0
		C16.517,5.525,16.709,5.598,16.9,5.598z"/>
	<path d="M10.006,3.257C11.14,2.124,12.646,1.5,14.249,1.5c1.603,0,3.109,0.624,4.242,1.757c0.146,0.146,0.338,0.22,0.53,0.22
		s0.384-0.073,0.53-0.22c0.293-0.293,0.293-0.768,0-1.061C18.136,0.78,16.252,0,14.249,0c-2.003,0-3.887,0.78-5.303,2.197
		c-0.293,0.293-0.293,0.768,0,1.061S9.713,3.55,10.006,3.257z"/>
</g>
</svg>
