<?xml version="1.0" encoding="utf-8"?>
<!-- Generator: Adobe Illustrator 22.1.0, SVG Export Plug-In . SVG Version: 6.00 Build 0)  -->
<svg version="1.1" id="Layer_1" xmlns="http://www.w3.org/2000/svg" xmlns:xlink="http://www.w3.org/1999/xlink" x="0px" y="0px"
	 viewBox="0 0 24 24" style="enable-background:new 0 0 24 24;" xml:space="preserve">
<title>optimization-timer-1</title>
<g>
	<path d="M21,21c-0.414,0-0.75-0.336-0.75-0.75S20.587,19.5,21,19.5h0.75c0.414,0,0.75-0.336,0.75-0.75V6H1.499v12.635
		C1.501,19.11,1.89,19.499,2.367,19.5H3c0.414,0,0.75,0.336,0.75,0.75S3.414,21,3,21H2.365c-1.301-0.003-2.362-1.063-2.366-2.363
		V2.357C0.003,1.061,1.059,0.004,2.354,0h19.28C22.935,0.003,23.996,1.063,24,2.363V18.75c0,1.241-1.009,2.25-2.25,2.25H21z
		 M22.5,4.5V2.365C22.499,1.89,22.109,1.501,21.632,1.5H2.356C1.885,1.502,1.501,1.887,1.499,2.359V4.5H22.5z"/>
	<path d="M11.999,24c-3.722,0-6.75-3.028-6.75-6.75c0-1.671,0.606-3.252,1.715-4.491L5.986,11.78c-0.142-0.141-0.22-0.33-0.22-0.53
		s0.078-0.389,0.22-0.53c0.141-0.142,0.33-0.22,0.53-0.22s0.389,0.078,0.53,0.22l1.037,1.037c0.939-0.672,2.022-1.087,3.166-1.214V9
		h-0.75c-0.414,0-0.75-0.336-0.75-0.75s0.336-0.75,0.75-0.75h3c0.414,0,0.75,0.336,0.75,0.75S13.913,9,13.499,9h-0.75v1.542
		c1.07,0.119,2.092,0.492,2.989,1.091l0.915-0.914c0.142-0.142,0.33-0.219,0.53-0.219c0.201,0,0.389,0.078,0.531,0.22
		c0.292,0.292,0.292,0.768,0,1.06l-0.824,0.823c1.186,1.25,1.86,2.922,1.86,4.646C18.749,20.972,15.721,24,11.999,24z M11.999,12
		c-2.895,0-5.25,2.355-5.25,5.25s2.355,5.25,5.25,5.25s5.25-2.355,5.25-5.25S14.894,12,11.999,12z"/>
	<path d="M11.999,18c-0.189,0-0.37-0.071-0.509-0.199c-0.304-0.281-0.322-0.756-0.042-1.06l2.081-2.25
		c0.142-0.153,0.343-0.241,0.551-0.241c0.189,0,0.37,0.071,0.509,0.199c0.147,0.136,0.233,0.322,0.241,0.522
		s-0.063,0.391-0.199,0.539l-2.081,2.25C12.408,17.912,12.208,18,11.999,18z"/>
</g>
</svg>
