<?xml version="1.0" encoding="utf-8"?>
<!-- Generator: Adobe Illustrator 22.1.0, SVG Export Plug-In . SVG Version: 6.00 Build 0)  -->
<svg version="1.1" id="Layer_1" xmlns="http://www.w3.org/2000/svg" xmlns:xlink="http://www.w3.org/1999/xlink" x="0px" y="0px"
	 viewBox="0 0 24 24" style="enable-background:new 0 0 24 24;" xml:space="preserve">
<title>outdoors-tree-valley</title>
<g>
	<path d="M16.45,24c-0.251,0-0.484-0.124-0.624-0.333c-2.375-3.549-6.344-5.668-10.616-5.668c-1.426,0-2.835,0.239-4.187,0.708
		c-0.08,0.028-0.163,0.042-0.247,0.042c-0.319,0-0.604-0.203-0.708-0.504c-0.135-0.39,0.072-0.818,0.462-0.954
		c1.51-0.525,3.084-0.791,4.678-0.791c0.253,0,0.509,0.007,0.763,0.021v-3.021H2.223c-0.26,0-0.517-0.068-0.744-0.198
		c-0.348-0.199-0.598-0.521-0.703-0.908c-0.105-0.386-0.054-0.791,0.145-1.139c0.011-0.02,0.024-0.04,0.038-0.06l2.07-2.946H2.222
		c-0.27,0-0.521-0.146-0.653-0.381C1.436,7.633,1.44,7.343,1.58,7.112l3.876-6.417C5.582,0.503,5.722,0.363,5.89,0.25
		c0.247-0.165,0.534-0.252,0.83-0.252c0.099,0,0.198,0.01,0.296,0.029C7.409,0.106,7.748,0.333,7.97,0.666
		c0.003,0.005,3.894,6.446,3.894,6.446c0.14,0.231,0.144,0.521,0.011,0.756c-0.133,0.235-0.383,0.381-0.653,0.381h-0.806
		l2.072,2.947c0.014,0.02,0.025,0.038,0.037,0.057c0.13,0.228,0.198,0.485,0.198,0.746c0,0.4-0.156,0.777-0.439,1.06
		c-0.284,0.284-0.66,0.44-1.06,0.44H7.472v3.184c1.142,0.183,2.257,0.505,3.322,0.957c2.051-1.819,4.522-3.096,7.179-3.712v-2.679
		h-3.141c-0.238,0-0.472-0.062-0.678-0.181c-0.316-0.181-0.542-0.474-0.637-0.826c-0.095-0.351-0.048-0.719,0.133-1.035
		c0.011-0.02,0.026-0.042,0.041-0.064l1.726-2.394h-0.376c-0.274,0-0.526-0.149-0.658-0.389c-0.132-0.241-0.122-0.533,0.025-0.764
		l3.172-4.978c0.107-0.161,0.235-0.29,0.385-0.39c0.225-0.15,0.486-0.23,0.754-0.23c0.09,0,0.181,0.009,0.27,0.027
		c0.356,0.071,0.665,0.277,0.867,0.579l3.18,4.992c0.147,0.23,0.157,0.523,0.025,0.763c-0.132,0.241-0.384,0.39-0.658,0.39h-0.379
		l1.719,2.394c0.016,0.023,0.029,0.043,0.042,0.065c0.118,0.207,0.181,0.442,0.18,0.681c-0.001,0.364-0.143,0.706-0.401,0.963
		c-0.257,0.256-0.598,0.397-0.961,0.397h-3.131v2.404c0.748-0.102,1.496-0.154,2.229-0.154c0.583,0.003,1.102,0.027,1.591,0.073
		c0.199,0.019,0.38,0.114,0.507,0.269c0.127,0.154,0.188,0.349,0.168,0.549c-0.036,0.381-0.364,0.679-0.746,0.679c0,0,0,0,0,0
		c-0.024,0-0.048-0.001-0.072-0.003c-0.467-0.044-0.923-0.067-1.354-0.067l-0.092,0c-0.944,0-1.888,0.089-2.807,0.263
		c-0.021,0.005-0.043,0.009-0.065,0.012c-2.394,0.463-4.661,1.528-6.573,3.088c1.926,1.093,3.583,2.63,4.815,4.471
		c0.23,0.344,0.137,0.811-0.206,1.04C16.743,23.957,16.599,24,16.45,24z M4.472,6.749c0.281,0,0.536,0.155,0.666,0.404
		c0.13,0.249,0.11,0.547-0.052,0.777L2.227,12l4.469,0c0.009-0.001,0.018-0.001,0.026-0.001s0.017,0,0.026,0.001h4.471l-2.86-4.069
		c-0.162-0.23-0.182-0.528-0.052-0.777c0.129-0.249,0.385-0.404,0.666-0.404h0.921l-3.17-5.248L3.551,6.749H4.472z M22.333,9.748
		l-2.379-3.312c-0.165-0.23-0.187-0.528-0.058-0.78c0.129-0.251,0.385-0.408,0.667-0.408h0.474l-2.314-3.634l-2.315,3.634h0.474
		c0.283,0,0.539,0.156,0.668,0.409c0.129,0.251,0.106,0.55-0.059,0.78l-2.387,3.311H22.333z"/>
</g>
</svg>
