<?xml version="1.0" encoding="utf-8"?>
<!-- Generator: Adobe Illustrator 22.1.0, SVG Export Plug-In . SVG Version: 6.00 Build 0)  -->
<svg version="1.1" id="Layer_1" xmlns="http://www.w3.org/2000/svg" xmlns:xlink="http://www.w3.org/1999/xlink" x="0px" y="0px"
	 viewBox="0 0 24 24" style="enable-background:new 0 0 24 24;" xml:space="preserve">
<title>pencil-2</title>
<g>
	<path d="M0.749,23.997c-0.198,0-0.391-0.08-0.531-0.22c-0.187-0.187-0.262-0.463-0.195-0.72l1.82-6.94
		c0.004-0.014,0.009-0.031,0.016-0.047c0.004-0.016,0.011-0.036,0.02-0.056c0.007-0.016,0.022-0.045,0.031-0.06
		c0.003-0.007,0.012-0.024,0.023-0.041c0.024-0.038,0.051-0.074,0.08-0.107c0.008-0.01,0.035-0.038,0.039-0.042L16.528,1.291
		c0.823-0.827,1.921-1.284,3.091-1.287c1.177,0,2.275,0.453,3.101,1.275c0.004,0.004,0.016,0.016,0.019,0.019
		c0.826,0.846,1.273,1.955,1.26,3.125c-0.014,1.169-0.482,2.263-1.319,3.08L8.222,21.958c-0.016,0.016-0.05,0.044-0.069,0.057
		c-0.007,0.007-0.026,0.021-0.047,0.035c-0.069,0.048-0.145,0.083-0.224,0.104L0.94,23.972C0.878,23.988,0.814,23.997,0.749,23.997z
		 M1.8,22.196l4.864-1.274l-1.076-2.511l-2.514-1.073L1.8,22.196z M7.949,20.11L18.593,9.468l-1.501-1.5L7.049,18.009L7.949,20.11z
		 M5.987,16.95L16.031,6.908l-1.5-1.499L3.885,16.052L5.987,16.95z M19.654,8.408l1.028-1.028l-4.062-4.06l-1.028,1.028
		L19.654,8.408z M21.741,6.317c0.482-0.526,0.75-1.198,0.758-1.912c0.009-0.769-0.282-1.495-0.819-2.045
		c-0.004-0.004-0.015-0.016-0.017-0.018c-0.544-0.541-1.266-0.839-2.032-0.839l-0.008-0.375l0.001,0.375
		c-0.726,0.002-1.409,0.27-1.94,0.757L21.741,6.317z"/>
</g>
</svg>
