<?xml version="1.0" encoding="utf-8"?>
<!-- Generator: Adobe Illustrator 22.1.0, SVG Export Plug-In . SVG Version: 6.00 Build 0)  -->
<svg version="1.1" id="Layer_1" xmlns="http://www.w3.org/2000/svg" xmlns:xlink="http://www.w3.org/1999/xlink" x="0px" y="0px"
	 viewBox="0 0 24 24" style="enable-background:new 0 0 24 24;" xml:space="preserve">
<title>people-woman-glasses-1</title>
<g>
	<path d="M11.999,16.497c-0.578,0-1.154-0.084-1.712-0.251c-3.17-0.946-4.98-4.294-4.035-7.465C6.343,8.474,6.62,8.259,6.94,8.246
		c3.048-0.123,4.352-3.243,4.365-3.274c0.114-0.286,0.387-0.471,0.696-0.471c0.309,0,0.583,0.186,0.697,0.473
		c0.011,0.028,1.328,3.148,4.365,3.273c0.32,0.013,0.596,0.228,0.688,0.535c0.335,1.122,0.335,2.308,0,3.43
		C16.999,14.734,14.633,16.497,11.999,16.497z M7.573,9.696c-0.408,2.241,0.932,4.453,3.142,5.113
		c0.418,0.125,0.85,0.188,1.283,0.188c1.976,0,3.751-1.322,4.316-3.214c0.202-0.678,0.241-1.394,0.116-2.087
		c-2.253-0.302-3.66-1.768-4.428-2.901C11.234,7.928,9.827,9.396,7.573,9.696z"/>
	<path d="M2.525,24.001c-0.112,0-0.22-0.025-0.322-0.073c-0.18-0.085-0.317-0.236-0.384-0.425c-0.067-0.189-0.057-0.392,0.028-0.573
		c0.626-1.323,1.522-2.526,2.614-3.517c-0.68-0.19-1.345-0.425-1.985-0.703c-1.121-0.504-1.636-1.825-1.152-2.947l1.374-3.208
		c0.201-0.47,0.303-0.968,0.303-1.479V9.001C2.998,7.031,3.654,5.1,4.853,3.536c-0.479-0.917-0.599-1.99-0.325-2.984
		c0.089-0.324,0.387-0.551,0.723-0.551h13.5c0.337,0,0.634,0.227,0.723,0.551c0.273,0.994,0.154,2.067-0.325,2.983
		C20.347,5.1,21.003,7.031,21,9.002v2.075c0,0.511,0.102,1.008,0.303,1.479l1.376,3.208c0.484,1.12-0.029,2.44-1.144,2.941
		c-0.646,0.28-1.313,0.516-1.993,0.706c1.097,0.989,1.973,2.169,2.611,3.518c0.086,0.181,0.096,0.385,0.028,0.574
		s-0.205,0.34-0.385,0.425c-0.1,0.048-0.208,0.072-0.32,0.072c-0.289,0-0.555-0.169-0.678-0.429
		c-0.887-1.875-2.307-3.378-4.122-4.366l-1.73,4.324c-0.114,0.286-0.388,0.471-0.696,0.471c-0.096,0-0.189-0.018-0.278-0.053
		c-0.384-0.154-0.572-0.591-0.418-0.975l1.754-4.385c-1.07-0.388-2.187-0.584-3.324-0.584c-1.128,0-2.234,0.195-3.294,0.579
		l1.756,4.391c0.074,0.186,0.072,0.39-0.007,0.574s-0.225,0.326-0.411,0.401c-0.089,0.036-0.182,0.054-0.278,0.054
		c-0.309,0-0.582-0.185-0.697-0.472l-1.731-4.328c-1.792,0.984-3.246,2.523-4.12,4.37C3.079,23.833,2.813,24.001,2.525,24.001z
		 M16.684,17.531c0.451,0.207,0.889,0.443,1.304,0.704c1.018-0.193,2.008-0.496,2.943-0.901c0.364-0.164,0.533-0.603,0.372-0.977
		l-1.377-3.211c-0.282-0.658-0.425-1.355-0.425-2.069V9.001c0.002-1.513-0.465-3.006-1.321-4.25
		c-0.171,0.147-0.353,0.279-0.543,0.393c-0.058,0.035-0.12,0.061-0.184,0.079c-0.413,0.116-0.828,0.175-1.233,0.175
		c-0.735,0-1.434-0.198-2.021-0.571c-1.006-0.641-1.698-1.759-2.06-3.326h-0.278c-0.362,1.567-1.054,2.685-2.06,3.326
		C9.215,5.201,8.516,5.398,7.781,5.398c-0.405,0-0.82-0.059-1.234-0.176C6.483,5.204,6.421,5.178,6.364,5.143
		c-0.19-0.114-0.371-0.245-0.542-0.392C4.965,5.995,4.498,7.488,4.501,9v2.077c0,0.715-0.143,1.411-0.425,2.069l-1.375,3.209
		c-0.162,0.375,0.009,0.815,0.38,0.982c0.925,0.401,1.911,0.703,2.928,0.896c0.385-0.243,0.784-0.463,1.188-0.654
		c0.038-0.018,0.076-0.035,0.115-0.051l0.048-0.021c0.025-0.014,0.05-0.027,0.077-0.038c0.01-0.004,0.024-0.009,0.038-0.013
		c1.433-0.632,2.951-0.952,4.51-0.952c1.556,0,3.071,0.316,4.503,0.94c0.026,0.007,0.052,0.015,0.077,0.025
		C16.605,17.486,16.645,17.507,16.684,17.531z M13.683,1.501c0.281,0.978,0.733,1.686,1.322,2.061
		c0.353,0.225,0.758,0.339,1.204,0.339c0.238,0,0.486-0.032,0.738-0.095c0.768-0.503,1.212-1.396,1.168-2.304H13.683z M7.053,3.805
		c0.253,0.063,0.501,0.095,0.739,0.095c0.446,0,0.851-0.114,1.204-0.339c0.589-0.375,1.041-1.083,1.322-2.061H5.885
		C5.841,2.409,6.286,3.302,7.053,3.805z"/>
</g>
</svg>
