<?xml version="1.0" encoding="utf-8"?>
<!-- Generator: Adobe Illustrator 22.1.0, SVG Export Plug-In . SVG Version: 6.00 Build 0)  -->
<svg version="1.1" id="Layer_1" xmlns="http://www.w3.org/2000/svg" xmlns:xlink="http://www.w3.org/1999/xlink" x="0px" y="0px"
	 viewBox="0 0 24 24" style="enable-background:new 0 0 24 24;" xml:space="preserve">
<title>people-man-graduate</title>
<g>
	<path d="M21.749,24c-0.414,0-0.75-0.336-0.75-0.75c0-3.007-1.48-5.776-3.974-7.459l-4.566,3.551
		c-0.131,0.102-0.295,0.158-0.46,0.158s-0.329-0.056-0.461-0.158l-4.566-3.551c-2.493,1.683-3.974,4.452-3.974,7.459
		c0,0.414-0.336,0.75-0.75,0.75s-0.75-0.336-0.75-0.75c0-3.649,1.945-7.091,5.077-8.988c0.037-0.027,0.077-0.05,0.119-0.07
		c1.607-0.944,3.44-1.443,5.304-1.443c1.864,0,3.697,0.499,5.303,1.443c0.042,0.02,0.082,0.043,0.119,0.069
		c3.132,1.897,5.077,5.339,5.077,8.988C22.499,23.664,22.163,24,21.749,24z M11.999,17.8l3.597-2.797
		c-1.136-0.5-2.343-0.752-3.597-0.752s-2.461,0.253-3.597,0.752L11.999,17.8z"/>
	<path d="M11.999,12c-3.308,0-6-2.692-6-6V1.5h-3v6.75C2.999,8.664,2.663,9,2.249,9s-0.75-0.336-0.75-0.75V1.5h-0.75
		c-0.414,0-0.75-0.336-0.75-0.75S0.335,0,0.749,0h22.5c0.414,0,0.75,0.336,0.75,0.75s-0.336,0.75-0.75,0.75h-5.25V6
		C17.999,9.308,15.307,12,11.999,12z M7.499,6c0,2.481,2.019,4.5,4.5,4.5c2.481,0,4.5-2.019,4.5-4.5H7.499z M16.499,4.5v-3h-9v3
		H16.499z"/>
</g>
</svg>
