<?xml version="1.0" encoding="utf-8"?>
<!-- Generator: Adobe Illustrator 22.1.0, SVG Export Plug-In . SVG Version: 6.00 Build 0)  -->
<svg version="1.1" id="Layer_1" xmlns="http://www.w3.org/2000/svg" xmlns:xlink="http://www.w3.org/1999/xlink" x="0px" y="0px"
	 viewBox="0 0 24 24" style="enable-background:new 0 0 24 24;" xml:space="preserve">
<title>phone-actions-ring</title>
<g>
	<path d="M14.786,24.02c-0.997,0-1.975-0.287-2.827-0.83c-0.003-0.002-0.024-0.015-0.027-0.017c-4.4-2.973-8.138-6.711-11.111-11.11
		c-0.005-0.007-0.022-0.035-0.028-0.045c-1.324-2.078-1.027-4.761,0.727-6.515l0.63-0.629C2.574,4.45,3.139,4.217,3.74,4.217
		c0.602,0,1.167,0.234,1.591,0.658l2.647,2.646c0.431,0.431,0.665,0.996,0.664,1.597c0,0.601-0.234,1.166-0.66,1.591
		c-0.292,0.292-0.292,0.768,0,1.06l4.244,4.242c0.142,0.142,0.33,0.22,0.531,0.22c0.201,0,0.389-0.078,0.53-0.22
		c0.425-0.425,0.99-0.658,1.591-0.658c0.602,0,1.167,0.234,1.591,0.658l2.652,2.652c0.424,0.425,0.658,0.99,0.658,1.591
		s-0.234,1.167-0.658,1.591l-0.63,0.63C17.495,23.471,16.179,24.02,14.786,24.02z M3.74,5.716c-0.201,0-0.389,0.078-0.53,0.219
		L2.58,6.565c-1.253,1.253-1.463,3.172-0.511,4.667c2.858,4.228,6.458,7.828,10.694,10.693c0.607,0.386,1.311,0.593,2.026,0.593
		c0.993,0,1.931-0.392,2.643-1.104l0.63-0.63c0.292-0.292,0.292-0.768,0-1.061l-2.652-2.652c-0.141-0.141-0.33-0.219-0.53-0.219
		s-0.389,0.078-0.53,0.219c-0.424,0.425-0.989,0.659-1.59,0.659c-0.602,0-1.167-0.234-1.591-0.659l-4.245-4.243
		c-0.877-0.877-0.877-2.305,0-3.182c0.142-0.142,0.22-0.33,0.22-0.531c0-0.199-0.077-0.386-0.217-0.528L4.27,5.935
		C4.129,5.794,3.941,5.716,3.74,5.716z"/>
	<path d="M15.732,13.512c-0.414,0-0.75-0.336-0.75-0.75c0-2.068-1.682-3.75-3.75-3.75c-0.414,0-0.75-0.336-0.75-0.75
		s0.336-0.75,0.75-0.75c2.895,0,5.25,2.355,5.25,5.25C16.482,13.175,16.145,13.512,15.732,13.512z"/>
	<path d="M19.482,13.512c-0.414,0-0.75-0.336-0.75-0.75c0-4.135-3.365-7.5-7.5-7.5c-0.414,0-0.75-0.336-0.75-0.75
		s0.336-0.75,0.75-0.75c4.963,0,9,4.037,9,9C20.232,13.175,19.895,13.512,19.482,13.512z"/>
	<path d="M23.232,13.512c-0.414,0-0.75-0.336-0.75-0.75c0-6.203-5.047-11.25-11.25-11.25c-0.414,0-0.75-0.336-0.75-0.75
		s0.336-0.75,0.75-0.75c7.03,0,12.75,5.72,12.75,12.75C23.982,13.175,23.645,13.512,23.232,13.512z"/>
</g>
</svg>
