<?xml version="1.0" encoding="utf-8"?>
<!-- Generator: Adobe Illustrator 22.1.0, SVG Export Plug-In . SVG Version: 6.00 Build 0)  -->
<svg version="1.1" id="Layer_1" xmlns="http://www.w3.org/2000/svg" xmlns:xlink="http://www.w3.org/1999/xlink" x="0px" y="0px"
	 viewBox="0 0 24 24" style="enable-background:new 0 0 24 24;" xml:space="preserve">
<title>pin-monitor</title>
<g>
	<path d="M21.749,14.25c-0.414,0-0.75,0.336-0.75,0.75H14.56l-7.5-7.5l3-3h1.189c0.414,0,0.75-0.336,0.75-0.75S11.663,3,11.249,3h-9
		c-1.241,0-2.25,1.009-2.25,2.25v10.5v3c0,1.24,1.009,2.25,2.25,2.25h8.25v1.5h-4.5c-0.414,0-0.75,0.336-0.75,0.75
		S5.585,24,5.999,24h9.75c0.414,0,0.75-0.336,0.75-0.75s-0.336-0.75-0.75-0.75h-3.75V21h8.25c1.24,0,2.25-1.01,2.25-2.25v-3V15
		C22.499,14.586,22.163,14.25,21.749,14.25z M12.438,15H1.499v-1.939l4.5-4.5L12.438,15z M2.249,4.5h5.689l-6.439,6.439V5.25
		C1.499,4.836,1.835,4.5,2.249,4.5z M20.249,19.5h-18c-0.414,0-0.75-0.337-0.75-0.75V16.5h19.5v2.25
		C20.999,19.163,20.662,19.5,20.249,19.5z"/>
	<circle cx="18.749" cy="5.25" r="1.125"/>
	<path d="M17.825,13.107c0.266,0.209,0.588,0.319,0.921,0.319c0.062,0,0.123-0.004,0.186-0.012c0.397-0.049,0.753-0.249,0.999-0.565
		c1.856-2.374,4.068-5.619,4.068-7.6c0-2.895-2.355-5.25-5.25-5.25s-5.25,2.355-5.25,5.25c0,1.982,2.213,5.227,4.066,7.598
		C17.64,12.943,17.727,13.03,17.825,13.107z M18.749,1.5c2.067,0,3.75,1.682,3.75,3.75c0,1.16-1.437,3.718-3.75,6.676
		c-2.313-2.958-3.75-5.516-3.75-6.676C14.999,3.182,16.682,1.5,18.749,1.5z"/>
	<circle cx="11.249" cy="18" r="1.125"/>
</g>
</svg>
