<?xml version="1.0" encoding="utf-8"?>
<!-- Generator: Adobe Illustrator 22.1.0, SVG Export Plug-In . SVG Version: 6.00 Build 0)  -->
<svg version="1.1" id="Layer_1" xmlns="http://www.w3.org/2000/svg" xmlns:xlink="http://www.w3.org/1999/xlink" x="0px" y="0px"
	 viewBox="0 0 24 24" style="enable-background:new 0 0 24 24;" xml:space="preserve">
<title>pin</title>
<g>
	<path d="M0.75,24.001c-0.2,0-0.389-0.078-0.53-0.22C0.078,23.64,0,23.451,0,23.251s0.078-0.389,0.22-0.53l7.474-7.474l-3.575-3.575
		c-0.135-0.135-0.254-0.288-0.351-0.454c-0.304-0.518-0.388-1.124-0.237-1.706c0.151-0.582,0.52-1.069,1.039-1.374
		C4.576,8.134,4.584,8.13,4.591,8.126v0C5.864,7.395,7.284,7.015,8.72,7.015c0.472,0,0.946,0.041,1.413,0.122l3.877-6.093
		c0.087-0.138,0.191-0.267,0.307-0.383c0.424-0.425,0.989-0.659,1.591-0.659c0.601,0,1.166,0.234,1.591,0.658l5.841,5.841
		c0.116,0.115,0.22,0.245,0.309,0.385c0.323,0.506,0.428,1.109,0.298,1.695c-0.13,0.587-0.481,1.088-0.988,1.41l-6.094,3.878
		c0.331,1.912-0.021,3.877-1,5.562c-0.098,0.167-0.217,0.321-0.353,0.457c-0.425,0.424-0.99,0.657-1.589,0.657
		c-0.604-0.001-1.169-0.236-1.593-0.661l-3.577-3.577L1.28,23.782C1.138,23.923,0.95,24.001,0.75,24.001z M8.72,8.515
		c-1.187,0-2.36,0.318-3.394,0.919c-0.171,0.1-0.294,0.263-0.344,0.457c-0.051,0.194-0.022,0.396,0.079,0.568
		c0.033,0.056,0.072,0.106,0.117,0.151l8.214,8.214c0.142,0.142,0.331,0.22,0.532,0.22c0.2,0,0.388-0.077,0.529-0.218
		c0.045-0.045,0.085-0.096,0.117-0.152c0.879-1.512,1.138-3.282,0.728-4.985c-0.075-0.311,0.056-0.636,0.326-0.808l6.53-4.155
		c0.169-0.107,0.286-0.274,0.329-0.47c0.044-0.196,0.008-0.397-0.099-0.565c-0.03-0.047-0.064-0.09-0.103-0.128l-5.843-5.843
		c-0.141-0.141-0.33-0.219-0.53-0.219c-0.201,0-0.389,0.078-0.531,0.219c-0.038,0.038-0.073,0.081-0.102,0.127l-4.156,6.53
		c-0.139,0.218-0.375,0.347-0.633,0.347c-0.059,0-0.117-0.007-0.175-0.021C9.79,8.579,9.254,8.515,8.72,8.515z"/>
</g>
</svg>
