<?xml version="1.0" encoding="utf-8"?>
<!-- Generator: Adobe Illustrator 22.1.0, SVG Export Plug-In . SVG Version: 6.00 Build 0)  -->
<svg version="1.1" id="Layer_1" xmlns="http://www.w3.org/2000/svg" xmlns:xlink="http://www.w3.org/1999/xlink" x="0px" y="0px"
	 viewBox="0 0 24 24" style="enable-background:new 0 0 24 24;" xml:space="preserve">
<title>plane-trip-international</title>
<g>
	<path d="M15.424,23.995c-0.07,0-0.14-0.005-0.209-0.015c-0.396-0.055-0.747-0.262-0.988-0.582c-0.241-0.32-0.344-0.715-0.288-1.111
		l0.362-2.579l-1.467,0.493c-0.233,0.079-0.476,0.118-0.721,0.118c-0.64,0-1.252-0.274-1.678-0.753l-2.386-2.672
		c-0.136-0.153-0.238-0.328-0.303-0.522c-0.128-0.38-0.1-0.786,0.079-1.145c0.178-0.359,0.486-0.626,0.865-0.754l1.766-0.593
		c0.076-0.026,0.157-0.039,0.239-0.039c0.2,0,0.387,0.078,0.529,0.219l0.861,0.856l1.254-0.422l-0.657-0.654
		c-0.164-0.164-0.289-0.365-0.362-0.583c-0.128-0.379-0.101-0.786,0.077-1.146c0.178-0.36,0.485-0.628,0.864-0.757l1.339-0.449
		c0.153-0.052,0.313-0.078,0.476-0.078c0.307,0,0.601,0.091,0.852,0.264l2.471,1.701l2.081-0.7c0.016-0.006,0.032-0.013,0.049-0.018
		c0.268-0.09,0.549-0.137,0.834-0.137c1.128,0,2.129,0.718,2.49,1.785c0.463,1.372-0.276,2.865-1.647,3.328l-2.156,0.726
		l-1.867,4.804c-0.16,0.416-0.496,0.737-0.921,0.879l-1.359,0.457C15.748,23.968,15.587,23.995,15.424,23.995z M15.212,17.86
		c0.174,0,0.344,0.061,0.479,0.173c0.202,0.167,0.3,0.422,0.264,0.682l-0.53,3.781l1.361-0.457l1.994-5.133
		c0.081-0.208,0.249-0.368,0.46-0.439l2.488-0.837c0.587-0.198,0.904-0.838,0.706-1.427c-0.155-0.458-0.584-0.765-1.068-0.765
		c-0.108,0-0.216,0.016-0.321,0.047c-0.011,0.004-0.021,0.008-0.032,0.012l-8.887,2.988c-0.078,0.026-0.158,0.039-0.239,0.039
		c-0.2,0-0.388-0.077-0.529-0.218l-0.861-0.856l-1.327,0.446l2.387,2.673c0.143,0.16,0.346,0.252,0.56,0.252
		c0.082,0,0.163-0.013,0.241-0.04l2.617-0.88C15.05,17.873,15.13,17.86,15.212,17.86z M13.74,12.775l1.189,1.184l1.693-0.569
		l-1.545-1.063L13.74,12.775z"/>
	<path d="M5.995,18.678c-0.108,0-0.213-0.023-0.312-0.068c-2.368-1.085-4.171-3.027-5.078-5.468C-0.303,10.7-0.205,8.052,0.88,5.684
		c1.085-2.368,3.027-4.171,5.468-5.078c1.099-0.408,2.243-0.615,3.401-0.615c1.401,0,2.766,0.3,4.057,0.891
		c0.959,0.44,1.843,1.039,2.627,1.781c0.051,0.037,0.096,0.08,0.135,0.128c1.86,1.83,2.926,4.363,2.926,6.954
		c0,0.414-0.336,0.75-0.75,0.75s-0.75-0.336-0.75-0.75c0-1.881-0.645-3.694-1.826-5.163l-0.975,1.943
		c-0.089,0.178-0.103,0.381-0.04,0.572l0.554,1.661c0.131,0.392-0.082,0.818-0.474,0.949c-0.076,0.026-0.156,0.039-0.237,0.039
		c-0.323,0-0.609-0.206-0.711-0.513L13.73,7.572c-0.19-0.57-0.147-1.18,0.122-1.717l1.209-2.41c-0.575-0.488-1.207-0.891-1.88-1.199
		c-1.084-0.497-2.235-0.749-3.421-0.749c-1.464,0-2.881,0.381-4.139,1.109l3.945,1.494c1.037,0.389,1.632,1.461,1.414,2.549
		l-0.314,1.564c-0.169,0.848-0.821,1.531-1.66,1.741L7.299,10.38l-1.007,2.528c-0.283,0.708-0.768,1.306-1.401,1.729l-1.136,0.78
		c0.726,0.77,1.583,1.385,2.553,1.829c0.182,0.083,0.321,0.233,0.391,0.42c0.07,0.188,0.062,0.392-0.021,0.574
		C6.555,18.506,6.287,18.678,5.995,18.678z M4.175,3.662C3.356,4.408,2.707,5.298,2.244,6.309c-1.173,2.56-0.944,5.562,0.584,7.925
		l1.222-0.839c0.387-0.259,0.679-0.618,0.849-1.042l1.149-2.884c0.089-0.224,0.282-0.392,0.515-0.45l2.079-0.52
		c0.28-0.07,0.497-0.298,0.553-0.581l0.314-1.565c0.073-0.363-0.126-0.72-0.472-0.85L4.175,3.662z"/>
</g>
</svg>
