<?xml version="1.0" encoding="utf-8"?>
<!-- Generator: Adobe Illustrator 22.1.0, SVG Export Plug-In . SVG Version: 6.00 Build 0)  -->
<svg version="1.1" id="Layer_1" xmlns="http://www.w3.org/2000/svg" xmlns:xlink="http://www.w3.org/1999/xlink" x="0px" y="0px"
	 viewBox="0 0 24 24" style="enable-background:new 0 0 24 24;" xml:space="preserve">
<title>presentation-board-graph</title>
<g>
	<path d="M14.999,24c-0.2,0-0.389-0.078-0.53-0.22l-2.47-2.47l-2.47,2.47C9.388,23.922,9.199,24,8.999,24s-0.389-0.078-0.53-0.22
		c-0.142-0.142-0.22-0.33-0.22-0.53s0.078-0.389,0.22-0.53l2.78-2.78V18h-8.25c-1.241,0-2.25-1.009-2.25-2.25V2.25
		C0.749,1.009,1.758,0,2.999,0h18c1.241,0,2.25,1.009,2.25,2.25v13.5c0,1.241-1.009,2.25-2.25,2.25h-8.25v1.939l2.78,2.78
		c0.142,0.142,0.22,0.33,0.22,0.53s-0.078,0.389-0.22,0.53S15.199,24,14.999,24z M2.999,1.5c-0.414,0-0.75,0.336-0.75,0.75v13.5
		c0,0.414,0.336,0.75,0.75,0.75h18c0.414,0,0.75-0.336,0.75-0.75V2.25c0-0.414-0.336-0.75-0.75-0.75H2.999z"/>
	<path d="M11.995,12.75c-0.269-0.003-0.516-0.148-0.647-0.378L9.043,8.339L8.17,10.085C8.042,10.341,7.785,10.5,7.499,10.5h-3
		c-0.414,0-0.75-0.336-0.75-0.75S4.085,9,4.499,9h2.536l1.293-2.585C8.452,6.167,8.701,6.008,8.978,6c0,0,0.001,0,0.001,0
		c0.29,0,0.538,0.145,0.671,0.378l2.365,4.138l1.591-2.652c0.105-0.175,0.28-0.301,0.479-0.346c0.055-0.012,0.11-0.018,0.165-0.018
		c0.148,0,0.292,0.044,0.416,0.126l1.678,1.119l2.571-3.213c0.143-0.179,0.356-0.281,0.585-0.281c0.169,0,0.335,0.058,0.468,0.164
		c0.323,0.259,0.376,0.732,0.117,1.055l-3,3.75c-0.143,0.179-0.356,0.281-0.585,0.281c0,0,0,0,0,0c-0.148,0-0.292-0.044-0.416-0.126
		L14.487,9.31l-1.845,3.076c-0.135,0.225-0.381,0.364-0.643,0.364H11.995z"/>
</g>
</svg>
