<?xml version="1.0" encoding="utf-8"?>
<!-- Generator: Adobe Illustrator 22.1.0, SVG Export Plug-In . SVG Version: 6.00 Build 0)  -->
<svg version="1.1" id="Layer_1" xmlns="http://www.w3.org/2000/svg" xmlns:xlink="http://www.w3.org/1999/xlink" x="0px" y="0px"
	 viewBox="0 0 24 24" style="enable-background:new 0 0 24 24;" xml:space="preserve">
<title>print-text</title>
<g>
	<path d="M5.249,24c-0.414,0-0.75-0.336-0.75-0.75V18h-2.25c-1.241,0-2.25-1.009-2.25-2.25v-7.5c0-1.241,1.009-2.25,2.25-2.25h2.25
		V2.25C4.499,1.009,5.508,0,6.749,0h10.5c1.241,0,2.25,1.009,2.25,2.25V6h2.25c1.241,0,2.25,1.009,2.25,2.25v7.5
		c0,1.241-1.009,2.25-2.25,2.25h-2.25v5.25c0,0.414-0.336,0.75-0.75,0.75H5.249z M17.999,22.5v-9h-12v9H17.999z M21.749,16.5
		c0.414,0,0.75-0.336,0.75-0.75v-7.5c0-0.414-0.336-0.75-0.75-0.75h-19.5c-0.414,0-0.75,0.336-0.75,0.75v7.5
		c0,0.414,0.336,0.75,0.75,0.75h2.25v-3.75c0-0.414,0.336-0.75,0.75-0.75h13.5c0.414,0,0.75,0.336,0.75,0.75v3.75H21.749z M17.999,6
		V2.25c0-0.414-0.336-0.75-0.75-0.75h-10.5c-0.414,0-0.75,0.336-0.75,0.75V6H17.999z"/>
	<path d="M3.749,10.5c-0.414,0-0.75-0.336-0.75-0.75S3.335,9,3.749,9h1.5c0.414,0,0.75,0.336,0.75,0.75s-0.336,0.75-0.75,0.75H3.749
		z"/>
	<path d="M8.249,16.5c-0.414,0-0.75-0.336-0.75-0.75S7.835,15,8.249,15h7.5c0.414,0,0.75,0.336,0.75,0.75s-0.336,0.75-0.75,0.75
		H8.249z"/>
	<path d="M8.249,19.5c-0.414,0-0.75-0.336-0.75-0.75S7.835,18,8.249,18h5.25c0.414,0,0.75,0.336,0.75,0.75s-0.336,0.75-0.75,0.75
		H8.249z"/>
</g>
</svg>
