<?xml version="1.0" encoding="utf-8"?>
<!-- Generator: Adobe Illustrator 22.1.0, SVG Export Plug-In . SVG Version: 6.00 Build 0)  -->
<svg version="1.1" id="Layer_1" xmlns="http://www.w3.org/2000/svg" xmlns:xlink="http://www.w3.org/1999/xlink" x="0px" y="0px"
	 viewBox="0 0 24 24" style="enable-background:new 0 0 24 24;" xml:space="preserve">
<title>programming-flag</title>
<g>
	<path d="M0.749,24c-0.414,0-0.75-0.336-0.75-0.75L-0.004,3.157c0-0.015,0.001-0.034,0.004-0.051L-0.001,0.75
		c0-0.414,0.336-0.75,0.75-0.75s0.75,0.336,0.75,0.75v1.391L3.68,1.47c0.988-0.304,2.014-0.458,3.048-0.458
		c1.919,0,3.797,0.531,5.431,1.536c1.396,0.859,3.004,1.313,4.651,1.313c0.823,0,1.64-0.114,2.428-0.339l2.369-0.677
		c0.165-0.047,0.336-0.071,0.509-0.071c0.498,0,0.984,0.2,1.332,0.548c0.354,0.355,0.549,0.826,0.549,1.326v12.873
		c0,0.832-0.559,1.574-1.359,1.803l-2.988,0.853c-0.922,0.263-1.877,0.397-2.84,0.397c-1.925,0-3.805-0.531-5.437-1.536
		c-1.397-0.859-3.004-1.313-4.646-1.313c-0.884,0-1.761,0.132-2.606,0.391l-2.621,0.807v4.326C1.499,23.664,1.163,24,0.749,24z
		 M6.727,16.225c1.919,0,3.798,0.531,5.431,1.536c1.396,0.859,3.004,1.313,4.65,1.313c0.823,0,1.64-0.114,2.429-0.339l2.987-0.853
		c0.16-0.046,0.272-0.195,0.272-0.361V4.648c0-0.102-0.038-0.193-0.11-0.265c-0.069-0.069-0.167-0.109-0.268-0.109
		c-0.034,0-0.068,0.005-0.1,0.014l-2.369,0.677c-0.922,0.263-1.878,0.397-2.84,0.397c-1.925,0-3.805-0.531-5.437-1.535
		c-1.397-0.86-3.004-1.314-4.645-1.314c-0.884,0-1.761,0.132-2.606,0.392L1.499,3.71v13.645l2.18-0.671
		C4.668,16.379,5.693,16.225,6.727,16.225z"/>
	<path d="M15.423,14.217c-0.2,0-0.389-0.078-0.53-0.22s-0.22-0.33-0.22-0.53c0-0.201,0.078-0.389,0.22-0.531l2.405-2.404
		l-2.405-2.405c-0.142-0.141-0.22-0.33-0.22-0.53c0-0.2,0.078-0.389,0.22-0.53c0.142-0.142,0.33-0.22,0.53-0.22
		s0.389,0.078,0.53,0.22l2.935,2.935c0.142,0.142,0.22,0.33,0.22,0.53s-0.078,0.389-0.22,0.53l-2.935,2.934
		C15.812,14.139,15.623,14.217,15.423,14.217z"/>
	<path d="M8.575,14.217c-0.2,0-0.389-0.078-0.53-0.22l-2.934-2.934c-0.142-0.141-0.22-0.33-0.22-0.53s0.078-0.389,0.219-0.53
		l2.934-2.935c0.142-0.142,0.33-0.22,0.53-0.22s0.389,0.078,0.53,0.219c0.293,0.293,0.293,0.768,0,1.061l-2.404,2.405l2.404,2.404
		c0.142,0.142,0.22,0.33,0.22,0.53s-0.078,0.389-0.22,0.53C8.964,14.139,8.775,14.217,8.575,14.217z"/>
	<path d="M11.021,14.217c-0.081,0-0.161-0.013-0.238-0.039c-0.189-0.063-0.343-0.197-0.433-0.376s-0.104-0.383-0.041-0.573
		l1.956-5.869c0.102-0.307,0.387-0.513,0.71-0.513c0.081,0,0.161,0.013,0.239,0.039c0.392,0.131,0.604,0.556,0.474,0.948
		l-1.956,5.869C11.63,14.011,11.344,14.217,11.021,14.217z"/>
</g>
</svg>
