<?xml version="1.0" encoding="utf-8"?>
<!-- Generator: Adobe Illustrator 22.1.0, SVG Export Plug-In . SVG Version: 6.00 Build 0)  -->
<svg version="1.1" id="Layer_1" xmlns="http://www.w3.org/2000/svg" xmlns:xlink="http://www.w3.org/1999/xlink" x="0px" y="0px"
	 viewBox="0 0 24 24" style="enable-background:new 0 0 24 24;" xml:space="preserve">
<title>rat</title>
<g>
	<path d="M15.662,20.928c-0.957,0.986-2.291,1.558-3.662,1.572c-1.372-0.014-2.706-0.586-3.662-1.572
		c-0.289-0.297-0.764-0.306-1.061-0.016C6.98,21.2,6.973,21.675,7.261,21.973c1.235,1.272,2.959,2.012,4.732,2.027
		c0.002,0,0.004,0,0.006,0s0.004,0,0.006,0c1.772-0.016,3.498-0.754,4.732-2.027c0.289-0.298,0.281-0.772-0.016-1.061
		C16.427,20.625,15.95,20.631,15.662,20.928z"/>
	<path d="M12.749,21c0.414,0,0.75-0.336,0.75-0.75s-0.336-0.75-0.75-0.75h-1.5c-0.414,0-0.75,0.336-0.75,0.75S10.835,21,11.249,21
		H12.749z"/>
	<path d="M22.027,16.554l-2.12-0.848c0.229-1.223,0.348-2.467,0.342-3.71c-0.003-0.556-0.073-1.104-0.21-1.639
		C22.35,9.793,24.028,7.705,24,5.25C24,2.355,21.645,0,18.75,0c-2.69,0-4.915,2.035-5.216,4.646c-0.505-0.08-1.022-0.128-1.56-0.146
		c-0.501,0.017-1.003,0.065-1.5,0.144C10.214,2.079,8.066,0.048,5.425,0H5.264C2.433-0.019,0.052,2.225,0,5.075v0.167
		c-0.028,2.463,1.65,4.552,3.96,5.116c-0.137,0.534-0.207,1.082-0.21,1.639c-0.006,1.243,0.113,2.486,0.341,3.709l-2.121,0.848
		c-0.385,0.153-0.572,0.59-0.418,0.975C1.67,17.822,1.952,18,2.249,18c0.093,0,0.187-0.018,0.278-0.054l3.75-1.5
		c0.385-0.153,0.572-0.59,0.418-0.975c-0.153-0.386-0.59-0.569-0.975-0.418l-0.188,0.075c-0.175-1.034-0.288-2.078-0.283-3.125
		c0.004-0.679,0.136-1.342,0.394-1.97c0.092-0.224,0.07-0.479-0.059-0.685c-0.129-0.205-0.35-0.335-0.592-0.349
		C3.012,8.887,1.477,7.243,1.5,5.236V5.102C1.537,3.079,3.22,1.438,5.264,1.5h0.134C7.421,1.537,9.037,3.213,9,5.25v0.3
		c0,0.229,0.104,0.446,0.284,0.588C9.463,6.279,9.697,6.332,9.921,6.28c0.689-0.162,1.397-0.256,2.053-0.28
		c0.707,0.024,1.414,0.119,2.104,0.28c0.223,0.051,0.457,0,0.638-0.142C14.896,5.996,15,5.779,15,5.55v-0.3
		c0-2.068,1.683-3.75,3.75-3.75s3.75,1.682,3.75,3.759c0.022,1.984-1.512,3.628-3.493,3.743c-0.242,0.014-0.463,0.144-0.592,0.349
		s-0.151,0.46-0.06,0.685c0.259,0.629,0.391,1.292,0.395,1.969c0.005,1.048-0.108,2.092-0.284,3.126l-0.189-0.076
		c-0.382-0.152-0.821,0.034-0.975,0.418c-0.154,0.385,0.033,0.821,0.418,0.975l3.75,1.5C21.562,17.982,21.656,18,21.749,18
		c0.298,0,0.579-0.179,0.696-0.472C22.6,17.144,22.412,16.707,22.027,16.554z"/>
	<path d="M17.779,17.47c-0.293-0.293-0.768-0.293-1.061,0s-0.293,0.768,0,1.061l2.25,2.25c0.146,0.146,0.338,0.22,0.53,0.22
		s0.384-0.073,0.53-0.22c0.293-0.293,0.293-0.768,0-1.061L17.779,17.47z"/>
	<path d="M7.279,17.47c-0.293-0.293-0.768-0.293-1.061,0l-2.25,2.25c-0.293,0.293-0.293,0.768,0,1.061
		C4.115,20.927,4.307,21,4.499,21s0.384-0.073,0.53-0.22l2.25-2.25C7.572,18.237,7.572,17.763,7.279,17.47z"/>
	<circle cx="8.549" cy="11.7" r="1.2"/>
	<circle cx="15.3" cy="11.7" r="1.2"/>
</g>
</svg>
