<?xml version="1.0" encoding="utf-8"?>
<!-- Generator: Adobe Illustrator 22.1.0, SVG Export Plug-In . SVG Version: 6.00 Build 0)  -->
<svg version="1.1" id="Layer_1" xmlns="http://www.w3.org/2000/svg" xmlns:xlink="http://www.w3.org/1999/xlink" x="0px" y="0px"
	 viewBox="0 0 24 24" style="enable-background:new 0 0 24 24;" xml:space="preserve">
<title>rooster</title>
<g>
	<path d="M20.442,15.539l1.125-0.643c0.279-0.161,0.504-0.413,0.631-0.709c0.157-0.368,0.163-0.775,0.015-1.147
		c-0.149-0.373-0.434-0.665-0.802-0.822l-3.698-1.585c-0.363-1.365-1.065-2.591-2.014-3.582c0.326-0.506,1.551-2.501,1.549-3.995
		c0.116-1.567-1.063-2.937-2.63-3.054C14.478-0.008,14.334-0.009,14.249,0C13.349,0,12.55,0.407,12,1.037
		C11.45,0.407,10.65,0,9.75,0C8.856,0,8.053,0.393,7.502,1.015C6.959,0.394,6.17,0.002,5.308,0.002c-0.001,0-0.002,0-0.004,0
		C3.739-0.119,2.368,1.067,2.252,2.633C2.242,2.774,2.242,2.916,2.25,3c0,1.545,1.224,3.544,1.55,4.049
		c-1.422,1.483-2.301,3.49-2.301,5.701v8.625C1.499,22.822,2.677,24,4.124,24c0.734,0,1.398-0.303,1.875-0.79
		C6.476,23.697,7.14,24,7.874,24s1.398-0.303,1.875-0.79C10.226,23.697,10.89,24,11.624,24s1.398-0.303,1.875-0.79
		c0.477,0.487,1.142,0.79,1.875,0.79c1.134,0,2.094-0.727,2.46-1.737c0.432,0.176,0.9,0.27,1.374,0.27
		c0.474,0,0.953-0.091,1.407-0.278c1.18-0.489,1.884-1.519,1.884-2.755C22.499,17.599,21.199,16.196,20.442,15.539z M20.82,13.596
		l-2.821,1.612V12.75c0-0.125-0.013-0.247-0.019-0.371L20.82,13.596z M3.748,2.745C3.803,2.002,4.449,1.452,5.25,1.5
		c0.827,0,1.5,0.673,1.5,1.5c0,0.414,0.336,0.75,0.75,0.75S8.25,3.414,8.25,3c0-0.827,0.673-1.5,1.5-1.5s1.5,0.673,1.5,1.5
		c0,0.414,0.336,0.75,0.75,0.75S12.75,3.414,12.75,3c0-0.827,0.673-1.5,1.555-1.502c0.068-0.005,0.135-0.005,0.201,0
		C15.248,1.553,15.808,2.202,15.75,3c0,0.905-0.751,2.324-1.198,3.056C13.197,5.081,11.542,4.5,9.749,4.5
		c-1.792,0-3.447,0.581-4.802,1.555C4.5,5.322,3.75,3.898,3.748,2.943C3.743,2.877,3.743,2.812,3.748,2.745z M16.499,21.375
		c0,0.62-0.505,1.125-1.125,1.125s-1.125-0.505-1.125-1.125c0-0.414-0.336-0.75-0.75-0.75s-0.75,0.336-0.75,0.75
		c0,0.62-0.505,1.125-1.125,1.125s-1.125-0.505-1.125-1.125c0-0.414-0.336-0.75-0.75-0.75s-0.75,0.336-0.75,0.75
		c0,0.62-0.505,1.125-1.125,1.125s-1.125-0.505-1.125-1.125c0-0.414-0.336-0.75-0.75-0.75s-0.75,0.336-0.75,0.75
		c0,0.62-0.505,1.125-1.125,1.125s-1.125-0.505-1.125-1.125V12.75C2.999,9.028,6.027,6,9.749,6c3.722,0,6.75,3.028,6.75,6.75V21.375
		z M20.041,20.868c-0.687,0.286-1.48,0.172-2.042-0.241v-3.692l1.037-0.593l0.045,0.03c0.02,0.013,1.918,1.315,1.918,3.127
		C20.999,20.346,20.398,20.721,20.041,20.868z"/>
	<path d="M13.875,10.5C13.875,10.5,13.874,10.5,13.875,10.5c-0.622,0.001-1.126,0.505-1.125,1.126
		c0.001,0.621,0.505,1.125,1.126,1.124C14.497,12.749,15,12.246,15,11.625C15,11.004,14.496,10.5,13.875,10.5z"/>
</g>
</svg>
