<?xml version="1.0" encoding="utf-8"?>
<!-- Generator: Adobe Illustrator 22.1.0, SVG Export Plug-In . SVG Version: 6.00 Build 0)  -->
<svg version="1.1" id="Layer_1" xmlns="http://www.w3.org/2000/svg" xmlns:xlink="http://www.w3.org/1999/xlink" x="0px" y="0px"
	 viewBox="0 0 24 24" style="enable-background:new 0 0 24 24;" xml:space="preserve">
<title>science-dna</title>
<g>
	<path d="M9.348,23.887c-0.2,0-0.389-0.078-0.53-0.22c-0.142-0.142-0.22-0.33-0.22-0.531s0.078-0.389,0.22-0.53l-7.424-7.425
		l-0.001,0.001c-0.142,0.142-0.33,0.22-0.53,0.22s-0.389-0.078-0.53-0.22c-0.292-0.292-0.292-0.768,0-1.061l2.652-2.652
		c1.275-1.275,2.97-1.977,4.773-1.977c0.735,0,1.449,0.115,2.131,0.342C9.498,8.675,9.431,7.421,9.703,6.22
		C9.7,6.084,9.735,5.95,9.804,5.831c0.306-1.053,0.875-2.029,1.647-2.827c0.006-0.007,0.012-0.013,0.018-0.02
		c0.005-0.005,2.652-2.652,2.652-2.652c0.142-0.142,0.33-0.22,0.53-0.22s0.388,0.078,0.53,0.219c0.293,0.293,0.293,0.768,0,1.061
		l7.424,7.425c0.142-0.142,0.33-0.22,0.53-0.22s0.389,0.078,0.53,0.22c0.142,0.141,0.22,0.33,0.22,0.53c0,0.2-0.078,0.389-0.22,0.53
		l-0.515,0.516c-0.01,0.011-0.02,0.021-0.031,0.031l-2.105,2.105c-1.271,1.237-2.944,1.916-4.715,1.916
		c-0.727,0-1.454-0.12-2.144-0.35c0.422,1.261,0.464,2.627,0.109,3.928c-0.001,0.003-0.003,0.012-0.004,0.013
		c-0.308,1.124-0.907,2.153-1.73,2.977l-2.653,2.652C9.736,23.809,9.548,23.887,9.348,23.887z M9.878,21.546l1.061-1.061
		l-7.425-7.425l-1.06,1.061L9.878,21.546z M11.958,19.383c0.318-0.423,0.567-0.885,0.743-1.379l-3.883-3.882
		c-0.292-0.292-0.292-0.768,0-1.061c0.142-0.142,0.33-0.22,0.531-0.22c0.2,0,0.389,0.078,0.53,0.22L13,16.182
		c-0.01-1.371-0.548-2.67-1.53-3.652c-0.992-0.991-2.31-1.537-3.712-1.537v-0.375l0,0.375c-1.135,0-2.235,0.37-3.14,1.049
		L11.958,19.383z M11.045,7.863c0.039,1.3,0.562,2.542,1.492,3.498c0.978,1.005,2.289,1.569,3.691,1.588l0.038,0
		c1.142,0,2.208-0.344,3.107-1l-7.325-7.325c-0.317,0.431-0.561,0.896-0.731,1.39l3.864,3.864c0.142,0.141,0.22,0.33,0.22,0.53
		s-0.078,0.389-0.22,0.53s-0.33,0.22-0.53,0.22s-0.389-0.078-0.53-0.22L11.045,7.863z M20.485,10.939l1.061-1.061l-7.424-7.425
		l-1.061,1.062L20.485,10.939z"/>
</g>
</svg>
