<?xml version="1.0" encoding="utf-8"?>
<!-- Generator: Adobe Illustrator 22.1.0, SVG Export Plug-In . SVG Version: 6.00 Build 0)  -->
<svg version="1.1" id="Layer_1" xmlns="http://www.w3.org/2000/svg" xmlns:xlink="http://www.w3.org/1999/xlink" x="0px" y="0px"
	 viewBox="0 0 24 24" style="enable-background:new 0 0 24 24;" xml:space="preserve">
<title>screen-1</title>
<g>
	<path d="M5.999,24c-0.414,0-0.75-0.336-0.75-0.75s0.336-0.75,0.75-0.75h1.615l0.5-3H3.749c-2.068,0-3.75-1.682-3.75-3.75v-12
		c0-2.068,1.682-3.75,3.75-3.75h16.5c2.068,0,3.75,1.682,3.75,3.75v12c0,2.068-1.682,3.75-3.75,3.75h-4.365l0.5,3h1.615
		c0.414,0,0.75,0.336,0.75,0.75S18.413,24,17.999,24H5.999z M14.864,22.5l-0.5-3H9.634l-0.5,3H14.864z M1.631,16.5
		C1.944,17.379,2.789,18,3.749,18h16.5c0.96,0,1.805-0.621,2.118-1.5H1.631z M22.499,15V3.75c0-1.241-1.009-2.25-2.25-2.25h-16.5
		c-1.241,0-2.25,1.009-2.25,2.25V15H22.499z"/>
</g>
</svg>
