<?xml version="1.0" encoding="utf-8"?>
<!-- Generator: Adobe Illustrator 22.1.0, SVG Export Plug-In . SVG Version: 6.00 Build 0)  -->
<svg version="1.1" id="Layer_1" xmlns="http://www.w3.org/2000/svg" xmlns:xlink="http://www.w3.org/1999/xlink" x="0px" y="0px"
	 viewBox="0 0 24 24" style="enable-background:new 0 0 24 24;" xml:space="preserve">
<title>send-email-2</title>
<g>
	<path d="M17.647,24c-0.149,0-0.299-0.014-0.447-0.042c-0.594-0.112-1.121-0.44-1.484-0.923l-1.504-2.005l-2.589,1.765
		c-0.402,0.274-0.872,0.419-1.359,0.419c-0.645,0-1.251-0.251-1.706-0.707c-0.456-0.456-0.707-1.062-0.707-1.706V16.38H2.758
		c-1.331,0-2.414-1.083-2.414-2.414c0-0.838,0.424-1.603,1.135-2.047L19.962,0.365c0.383-0.24,0.825-0.367,1.276-0.367
		c0.839,0,1.605,0.423,2.049,1.132c0.323,0.517,0.439,1.131,0.325,1.73l-3.594,19.171C19.804,23.173,18.806,24,17.647,24z
		 M16.915,22.135c0.137,0.183,0.337,0.307,0.562,0.349c0.054,0.01,0.111,0.015,0.167,0.015c0.44,0,0.819-0.313,0.901-0.745
		l3.594-19.172c0.017-0.089,0.021-0.178,0.012-0.265L12.039,15.632L16.915,22.135z M9.35,20.801c0,0.244,0.095,0.473,0.267,0.646
		c0.172,0.172,0.402,0.267,0.645,0.267c0.184,0,0.362-0.055,0.515-0.159l2.53-1.725l-2.583-3.451H9.35V20.801z M20.757,1.637
		L2.274,13.191c-0.269,0.168-0.429,0.458-0.429,0.775c0,0.504,0.41,0.914,0.914,0.914h7.968L20.804,1.609
		C20.789,1.618,20.773,1.627,20.757,1.637z"/>
</g>
</svg>
