<?xml version="1.0" encoding="utf-8"?>
<!-- Generator: Adobe Illustrator 22.1.0, SVG Export Plug-In . SVG Version: 6.00 Build 0)  -->
<svg version="1.1" id="Layer_1" xmlns="http://www.w3.org/2000/svg" xmlns:xlink="http://www.w3.org/1999/xlink" x="0px" y="0px"
	 viewBox="0 0 24 24" style="enable-background:new 0 0 24 24;" xml:space="preserve">
<title>shipment-upload</title>
<g>
	<path d="M11.999,24c-0.074,0-0.148-0.012-0.225-0.037c-0.019-0.005-0.037-0.01-0.054-0.017l-11.25-4.5
		c-0.286-0.115-0.471-0.388-0.471-0.696V5.25c0-0.067,0.01-0.134,0.03-0.205c0.004-0.014,0.016-0.048,0.022-0.062
		c0.017-0.044,0.037-0.085,0.061-0.125c0.012-0.019,0.026-0.04,0.042-0.06C0.18,4.763,0.21,4.73,0.243,4.7
		C0.257,4.687,0.27,4.675,0.284,4.664c0.014-0.013,0.032-0.026,0.045-0.035C0.356,4.61,0.386,4.594,0.416,4.58
		c0.015-0.009,0.032-0.018,0.053-0.026l11.251-4.5C11.809,0.018,11.903,0,11.999,0s0.19,0.018,0.279,0.054l11.249,4.5
		c0.016,0.006,0.034,0.016,0.052,0.025c0.033,0.016,0.062,0.031,0.089,0.049c0.014,0.009,0.031,0.023,0.046,0.036
		c0.011,0.009,0.023,0.02,0.036,0.031c0.039,0.036,0.068,0.067,0.094,0.102c0.015,0.02,0.028,0.039,0.041,0.059
		c0.027,0.044,0.046,0.084,0.062,0.126c0.009,0.021,0.016,0.04,0.022,0.06c0.021,0.075,0.031,0.142,0.031,0.208v13.5
		c0,0.309-0.185,0.582-0.472,0.697l-11.25,4.5c-0.016,0.007-0.034,0.012-0.053,0.017C12.15,23.987,12.074,24,11.999,24z
		 M12.749,22.142l9.75-3.9V6.358l-9.75,3.9V22.142z M11.249,22.142V10.258l-9.75-3.9v11.885L11.249,22.142z M11.999,8.942
		l4.168-1.667l-9.23-3.692L2.769,5.25L11.999,8.942z M18.187,6.467l3.043-1.217l-9.23-3.692L8.956,2.775L18.187,6.467z"/>
	<path d="M18.749,18c-0.309,0-0.582-0.185-0.696-0.472c-0.074-0.186-0.072-0.39,0.007-0.574c0.079-0.184,0.225-0.327,0.411-0.401
		l1.875-0.75c0.089-0.036,0.182-0.054,0.278-0.054c0.309,0,0.582,0.185,0.697,0.472c0.074,0.186,0.072,0.39-0.007,0.574
		c-0.079,0.184-0.225,0.327-0.411,0.401l-1.875,0.75C18.939,17.982,18.845,18,18.749,18z"/>
</g>
</svg>
