<?xml version="1.0" encoding="utf-8"?>
<!-- Generator: Adobe Illustrator 22.1.0, SVG Export Plug-In . SVG Version: 6.00 Build 0)  -->
<svg version="1.1" id="Layer_1" xmlns="http://www.w3.org/2000/svg" xmlns:xlink="http://www.w3.org/1999/xlink" x="0px" y="0px"
	 viewBox="0 0 24 24" style="enable-background:new 0 0 24 24;" xml:space="preserve">
<title>shopping-bag-tag-1</title>
<g>
	<path d="M2.55,24c-0.089-0.004-0.154-0.01-0.218-0.02c-0.604-0.085-1.14-0.399-1.507-0.886s-0.522-1.088-0.438-1.692L2.385,9.576
		c0.087-1.138,1.009-2.029,2.152-2.075c0,0,12.671,0,12.677,0c1.139,0.048,2.06,0.938,2.147,2.075l1.994,11.805
		c0.012,0.089,0.019,0.155,0.022,0.221c0.032,0.606-0.174,1.19-0.582,1.644c-0.407,0.453-0.967,0.721-1.576,0.753L2.569,24
		C2.562,24,2.556,24,2.55,24z M4.576,9C4.2,9.019,3.901,9.321,3.879,9.706C3.878,9.733,3.875,9.761,3.87,9.789l-2,11.842
		c-0.026,0.19,0.027,0.392,0.153,0.56c0.126,0.167,0.309,0.275,0.516,0.304c0.022,0.003,0.045,0.005,0.068,0.006L19.18,22.5
		c0.173-0.01,0.363-0.104,0.5-0.257c0.139-0.155,0.21-0.355,0.199-0.564c-0.001-0.025-0.004-0.048-0.007-0.07l-1.997-11.82
		c-0.004-0.028-0.007-0.052-0.009-0.077C17.845,9.322,17.539,9.018,17.154,9L4.576,9z"/>
	<path d="M14.559,6.057c-0.359,0-0.668-0.256-0.736-0.609C13.552,4.034,12.311,3.005,10.871,3C9.443,3.005,8.204,4.028,7.927,5.433
		C7.858,5.783,7.549,6.038,7.192,6.038c0,0,0,0,0,0c-0.048,0-0.096-0.005-0.145-0.014C6.85,5.985,6.68,5.872,6.569,5.706
		C6.457,5.54,6.417,5.34,6.456,5.143C6.87,3.039,8.727,1.507,10.871,1.5c2.159,0.007,4.019,1.549,4.425,3.666
		c0.077,0.406-0.19,0.8-0.596,0.878C14.654,6.053,14.606,6.057,14.559,6.057z"/>
	<path d="M18.373,6c-0.414,0-0.75-0.336-0.75-0.75V3c0-0.2,0.078-0.389,0.22-0.53l2.25-2.25C20.235,0.078,20.423,0,20.623,0
		s0.389,0.078,0.53,0.22l2.25,2.25c0.142,0.141,0.22,0.33,0.22,0.53s-0.078,0.389-0.22,0.53l-2.25,2.25
		C21.014,5.92,20.821,6,20.623,6H18.373z M20.313,4.5l1.5-1.5l-1.189-1.189l-1.5,1.5V4.5H20.313z"/>
</g>
</svg>
