<?xml version="1.0" encoding="utf-8"?>
<!-- Generator: Adobe Illustrator 22.1.0, SVG Export Plug-In . SVG Version: 6.00 Build 0)  -->
<svg version="1.1" id="Layer_1" xmlns="http://www.w3.org/2000/svg" xmlns:xlink="http://www.w3.org/1999/xlink" x="0px" y="0px"
	 viewBox="0 0 24 24" style="enable-background:new 0 0 24 24;" xml:space="preserve">
<title>shopping-cart-download</title>
<g>
	<path d="M0.749,18c-0.414,0-0.75-0.336-0.75-0.75s0.336-0.75,0.75-0.75H16.67c0.367,0,0.678-0.263,0.739-0.625L20.05,1.861
		C20.231,0.786,21.164,0,22.266,0h0.983c0.414,0,0.75,0.336,0.75,0.75s-0.336,0.75-0.75,0.75h-0.983
		c-0.367,0-0.678,0.263-0.739,0.625l-2.641,14.014C18.705,17.214,17.772,18,16.67,18H0.749z"/>
	<path d="M4.874,24c-1.447,0-2.625-1.177-2.625-2.625s1.178-2.625,2.625-2.625s2.625,1.177,2.625,2.625S6.321,24,4.874,24z
		 M4.874,20.25c-0.62,0-1.125,0.505-1.125,1.125S4.254,22.5,4.874,22.5s1.125-0.505,1.125-1.125S5.494,20.25,4.874,20.25z"/>
	<path d="M14.624,24c-1.448,0-2.625-1.177-2.625-2.625s1.177-2.625,2.625-2.625s2.625,1.177,2.625,2.625S16.072,24,14.624,24z
		 M14.624,20.25c-0.62,0-1.125,0.505-1.125,1.125s0.505,1.125,1.125,1.125s1.125-0.505,1.125-1.125S15.244,20.25,14.624,20.25z"/>
	<path d="M9.749,13.5c-0.088,0-0.175-0.016-0.26-0.047c-0.008-0.003-0.015-0.005-0.022-0.008c-0.096-0.039-0.179-0.094-0.249-0.165
		L5.469,9.53C5.327,9.389,5.249,9.2,5.249,9s0.078-0.389,0.22-0.53c0.141-0.142,0.33-0.22,0.53-0.22s0.389,0.078,0.53,0.22
		l2.47,2.47V2.75C8.999,2.336,9.335,2,9.749,2s0.75,0.336,0.75,0.75v8.189l2.47-2.47c0.142-0.142,0.33-0.22,0.53-0.22
		s0.389,0.078,0.53,0.22c0.142,0.141,0.22,0.33,0.22,0.53s-0.078,0.389-0.22,0.53l-3.75,3.75c-0.07,0.07-0.153,0.125-0.246,0.164
		c-0.008,0.003-0.017,0.007-0.026,0.01C9.922,13.485,9.836,13.5,9.749,13.5z"/>
</g>
</svg>
