<?xml version="1.0" encoding="utf-8"?>
<!-- Generator: Adobe Illustrator 22.1.0, SVG Export Plug-In . SVG Version: 6.00 Build 0)  -->
<svg version="1.1" id="Layer_1" xmlns="http://www.w3.org/2000/svg" xmlns:xlink="http://www.w3.org/1999/xlink" x="0px" y="0px"
	 viewBox="0 0 24 24" style="enable-background:new 0 0 24 24;" xml:space="preserve">
<title>shopping-bag-heart</title>
<g>
	<path d="M2.862,24.003c-0.036,0-0.076-0.001-0.116-0.003c-0.562-0.031-1.078-0.278-1.454-0.697
		c-0.376-0.419-0.566-0.958-0.535-1.521c0.001-0.02,0.003-0.043,0.006-0.066l2-13.916c0.184-1.049,1.072-1.802,2.115-1.802
		c0.032,0,0.064,0.001,0.097,0.002L19.048,6c0.013-0.001,0.041-0.001,0.069-0.001c1.031,0,1.939,0.766,2.113,1.782l2.003,13.936
		c0.003,0.018,0.005,0.039,0.006,0.06c0.005,0.087,0.005,0.168,0,0.25c-0.068,1.108-0.99,1.976-2.099,1.976l0,0
		c-0.043,0-0.087-0.001-0.131-0.004L2.957,24C2.93,24.002,2.897,24.003,2.862,24.003z M21.131,22.503
		c0.156,0,0.294-0.051,0.407-0.152c0.121-0.107,0.193-0.255,0.203-0.416c0.001-0.014,0.001-0.029,0.001-0.043L19.749,8.014
		c-0.05-0.289-0.321-0.515-0.629-0.515c0,0-0.058,0.001-0.064,0.001H4.943L4.895,7.499c-0.322,0-0.596,0.226-0.65,0.537
		L2.254,21.891c-0.002,0.152,0.053,0.297,0.155,0.41c0.108,0.121,0.256,0.192,0.418,0.2l0.037,0.001l0.033-0.001L21.055,22.5
		C21.063,22.5,21.114,22.503,21.131,22.503z"/>
	<path d="M15.669,4.557c-0.358,0-0.668-0.256-0.736-0.608C14.662,2.535,13.42,1.505,11.981,1.5
		c-1.429,0.004-2.669,1.027-2.945,2.432C8.967,4.283,8.658,4.538,8.301,4.538l0,0c-0.048,0-0.097-0.005-0.147-0.015
		C7.959,4.485,7.789,4.373,7.678,4.206S7.526,3.84,7.564,3.644C7.978,1.538,9.835,0.006,11.981,0C14.14,0.007,16,1.549,16.406,3.666
		c0.078,0.406-0.189,0.8-0.595,0.878C15.763,4.553,15.715,4.557,15.669,4.557z"/>
	<path d="M11.965,20.25c-0.352-0.008-0.683-0.155-0.927-0.412L7.53,16.212c-1.041-1.091-1.042-2.796-0.003-3.885
		c0.031-0.032,0.061-0.062,0.091-0.09c0.494-0.471,1.141-0.731,1.82-0.731l0.072,0.001c0.707,0.017,1.365,0.309,1.854,0.821
		L12,12.985l0.639-0.662c0.025-0.027,0.056-0.058,0.089-0.088c0.493-0.47,1.142-0.73,1.826-0.73l0.063,0.001
		c0.708,0.017,1.366,0.308,1.854,0.821c1.038,1.088,1.038,2.793,0,3.881l-3.544,3.664c-0.26,0.248-0.585,0.379-0.928,0.379
		C11.996,20.251,11.969,20.25,11.965,20.25z M9.444,13.006c-0.296,0-0.578,0.113-0.792,0.318c-0.015,0.014-0.029,0.028-0.042,0.042
		c-0.482,0.505-0.482,1.3,0.002,1.807L12,18.675l3.39-3.507c0.482-0.504,0.481-1.298-0.003-1.805
		c-0.212-0.223-0.498-0.35-0.805-0.357l-0.03,0c-0.295,0-0.576,0.113-0.791,0.318c-0.016,0.015-0.028,0.028-0.04,0.04l-1.181,1.222
		c-0.14,0.145-0.337,0.229-0.539,0.229s-0.399-0.083-0.539-0.229l-1.18-1.219c-0.215-0.226-0.502-0.353-0.809-0.36L9.444,13.006z"/>
</g>
</svg>
