<?xml version="1.0" encoding="utf-8"?>
<!-- Generator: Adobe Illustrator 22.1.0, SVG Export Plug-In . SVG Version: 6.00 Build 0)  -->
<svg version="1.1" id="Layer_1" xmlns="http://www.w3.org/2000/svg" xmlns:xlink="http://www.w3.org/1999/xlink" x="0px" y="0px"
	 viewBox="0 0 24 24" style="enable-background:new 0 0 24 24;" xml:space="preserve">
<title>shop-cashier-woman</title>
<g>
	<path d="M5.249,16.5c-0.06,0-0.12-0.007-0.178-0.021c-0.403-0.099-0.649-0.506-0.55-0.908c0.548-2.229,2.055-4.063,4.135-5.033
		c0.101-0.047,0.207-0.07,0.317-0.07c0.229,0,0.443,0.103,0.586,0.281L12,13.799l2.441-3.051c0.144-0.179,0.357-0.281,0.586-0.281
		c0.11,0,0.216,0.024,0.316,0.07c2.08,0.971,3.587,2.806,4.135,5.034c0.098,0.402-0.148,0.809-0.549,0.907
		c-0.06,0.015-0.119,0.022-0.179,0.022c-0.346,0-0.646-0.235-0.729-0.571c-0.39-1.583-1.401-2.938-2.795-3.761l-2.64,3.3
		c-0.139,0.174-0.352,0.274-0.585,0.274c-0.233,0-0.446-0.1-0.586-0.274l-2.641-3.3c-1.395,0.822-2.407,2.177-2.796,3.761
		C5.894,16.265,5.595,16.5,5.249,16.5z"/>
	<path d="M16.982,9.993c-0.264,0-0.504-0.135-0.641-0.36c-0.295-0.484-0.525-1-0.687-1.541c-0.914,1.045-2.223,1.652-3.637,1.658
		c-1.437,0-2.755-0.607-3.674-1.657c-0.162,0.54-0.392,1.056-0.688,1.54c-0.135,0.222-0.381,0.36-0.641,0.36
		c-0.138,0-0.272-0.038-0.39-0.11C6.273,9.668,6.16,9.206,6.376,8.853C6.901,7.991,7.16,7.003,7.126,5.995c0,0,0-1.038,0-1.045
		C7.125,4.928,7.124,4.911,7.124,4.895C7.114,2.206,9.292,0.011,11.98,0c2.689,0,4.884,2.179,4.894,4.856
		c0,0.025-0.001,0.048-0.003,0.071c0,0,0.002,0.028,0.002,0.043v1c-0.034,1.029,0.225,2.022,0.75,2.883
		c0.215,0.353,0.103,0.816-0.25,1.031C17.254,9.955,17.12,9.993,16.982,9.993z M8.776,5.868c0.43,1.401,1.727,2.382,3.223,2.382
		c1.502-0.006,2.795-0.986,3.224-2.382C14.024,5.687,12.903,5.162,12,4.356C11.096,5.162,9.975,5.688,8.776,5.868z M12,1.5
		c-1.702,0.007-3.092,1.234-3.335,2.867c1.076-0.186,2.046-0.733,2.767-1.568C11.572,2.638,11.778,2.545,12,2.545
		c0.222,0,0.428,0.092,0.568,0.254c0.72,0.834,1.69,1.381,2.765,1.568C15.084,2.751,13.672,1.5,12,1.5z"/>
	<path d="M21.749,24c-0.414,0-0.75-0.336-0.75-0.75v-3c0-0.414-0.336-0.75-0.75-0.75h-16.5c-0.414,0-0.75,0.336-0.75,0.75v3
		c0,0.414-0.336,0.75-0.75,0.75s-0.75-0.336-0.75-0.75v-3c0-1.241,1.009-2.25,2.25-2.25h16.5c1.241,0,2.25,1.009,2.25,2.25v3
		C22.499,23.664,22.163,24,21.749,24z"/>
</g>
</svg>
