<?xml version="1.0" encoding="utf-8"?>
<!-- Generator: Adobe Illustrator 22.1.0, SVG Export Plug-In . SVG Version: 6.00 Build 0)  -->
<svg version="1.1" id="Layer_1" xmlns="http://www.w3.org/2000/svg" xmlns:xlink="http://www.w3.org/1999/xlink" x="0px" y="0px"
	 viewBox="0 0 24 24" style="enable-background:new 0 0 24 24;" xml:space="preserve">
<title>shop-cashier-man</title>
<g>
	<path d="M11.999,9.75c-2.688,0-4.875-2.187-4.875-4.875c0-0.839,0.221-1.67,0.639-2.404C7.78,2.436,7.798,2.41,7.809,2.395
		C8.684,0.919,10.29,0,11.999,0c2.384,0,4.449,1.774,4.812,4.13c0.015,0.056,0.023,0.112,0.025,0.166
		c0.025,0.212,0.038,0.401,0.038,0.579C16.874,7.563,14.687,9.75,11.999,9.75z M8.729,4.037C8.659,4.31,8.624,4.59,8.624,4.875
		c0,1.861,1.514,3.375,3.375,3.375c1.694,0,3.101-1.254,3.339-2.883c-0.64,0.172-1.296,0.258-1.96,0.258
		C11.69,5.625,10.06,5.065,8.729,4.037z M13.397,4.125c0.609,0,1.222-0.095,1.814-0.282C14.767,2.468,13.466,1.5,11.999,1.5
		c-0.987,0-1.922,0.437-2.561,1.183c1.092,0.918,2.505,1.44,3.929,1.442c0.003,0,0.006,0,0.009,0
		C13.382,4.125,13.39,4.125,13.397,4.125z"/>
	<path d="M11.999,16.5c-0.414,0-0.75-0.336-0.75-0.75v-4.456c-0.263,0.032-0.523,0.081-0.779,0.146
		c-2.211,0.561-3.933,2.283-4.494,4.495C5.891,16.268,5.593,16.5,5.249,16.5c-0.062,0-0.124-0.008-0.184-0.023
		c-0.401-0.102-0.645-0.511-0.543-0.912c0.697-2.745,2.835-4.883,5.579-5.579c0.628-0.159,1.271-0.24,1.911-0.24
		c1.377,0,2.736,0.376,3.932,1.088c1.771,1.054,3.025,2.734,3.532,4.731c0.101,0.401-0.142,0.81-0.542,0.912
		c-0.061,0.015-0.123,0.023-0.185,0.023c-0.343,0-0.642-0.232-0.727-0.565c-0.408-1.609-1.418-2.963-2.845-3.812
		c-0.744-0.443-1.576-0.727-2.428-0.831v4.458C12.749,16.164,12.413,16.5,11.999,16.5z"/>
	<path d="M21.749,24c-0.414,0-0.75-0.336-0.75-0.75v-3c0-0.414-0.336-0.75-0.75-0.75h-16.5c-0.414,0-0.75,0.336-0.75,0.75v3
		c0,0.414-0.336,0.75-0.75,0.75s-0.75-0.336-0.75-0.75v-3c0-1.241,1.009-2.25,2.25-2.25h16.5c1.241,0,2.25,1.009,2.25,2.25v3
		C22.499,23.664,22.163,24,21.749,24z"/>
</g>
</svg>
