<?xml version="1.0" encoding="utf-8"?>
<!-- Generator: Adobe Illustrator 22.1.0, SVG Export Plug-In . SVG Version: 6.00 Build 0)  -->
<svg version="1.1" id="Layer_1" xmlns="http://www.w3.org/2000/svg" xmlns:xlink="http://www.w3.org/1999/xlink" x="0px" y="0px"
	 viewBox="0 0 24 24" style="enable-background:new 0 0 24 24;" xml:space="preserve">
<title>show-hat-magician-1</title>
<g>
	<path d="M8.999,12c-0.238,0-0.464-0.114-0.604-0.305c-0.119-0.161-0.168-0.359-0.138-0.557s0.135-0.373,0.297-0.491l14.25-10.5
		C22.934,0.051,23.088,0,23.249,0c0.237,0,0.463,0.114,0.604,0.305c0.246,0.333,0.174,0.804-0.159,1.049l-14.25,10.5
		C9.314,11.949,9.16,12,8.999,12z"/>
	<path d="M8.249,4.5c-0.414,0-0.75-0.336-0.75-0.75V3h-0.75c-0.414,0-0.75-0.336-0.75-0.75S6.335,1.5,6.749,1.5h0.75V0.75
		C7.499,0.336,7.835,0,8.249,0s0.75,0.336,0.75,0.75V1.5h0.75c0.414,0,0.75,0.336,0.75,0.75S10.163,3,9.749,3h-0.75v0.75
		C8.999,4.164,8.663,4.5,8.249,4.5z"/>
	<path d="M3.749,11.25c-0.414,0-0.75-0.336-0.75-0.75V9h-1.5c-0.414,0-0.75-0.336-0.75-0.75S1.085,7.5,1.499,7.5h1.5V6
		c0-0.414,0.336-0.75,0.75-0.75S4.499,5.586,4.499,6v1.5h1.5c0.414,0,0.75,0.336,0.75,0.75S6.413,9,5.999,9h-1.5v1.5
		C4.499,10.914,4.163,11.25,3.749,11.25z"/>
	<path d="M18.651,24c-0.37,0-0.688-0.276-0.742-0.642c-0.234-1.604-0.408-3.331-0.518-5.139c-1.651,0.348-3.505,0.531-5.392,0.531
		c-1.888,0-3.743-0.183-5.395-0.531c-0.11,1.815-0.283,3.542-0.515,5.139C6.036,23.724,5.717,24,5.348,24
		c-0.036,0-0.072-0.002-0.109-0.008c-0.198-0.029-0.373-0.133-0.493-0.294c-0.12-0.161-0.17-0.358-0.141-0.556
		c0.239-1.646,0.414-3.426,0.52-5.295c-3.262-0.964-5.125-2.54-5.125-4.347C0,13.137,0.073,12.785,0.216,12.453
		C0.335,12.178,0.605,12,0.905,12c0.102,0,0.202,0.021,0.296,0.061c0.381,0.164,0.557,0.606,0.393,0.986
		c-0.062,0.145-0.094,0.298-0.095,0.456c0,0.915,1.39,2.207,4.496,3.033c0.071,0.008,0.139,0.026,0.204,0.054
		c1.711,0.432,3.715,0.661,5.8,0.661c2.086,0,4.09-0.229,5.801-0.661c0.065-0.027,0.133-0.045,0.203-0.053
		c3.106-0.826,4.497-2.118,4.497-3.036c0-1.258-2.172-2.563-5.405-3.247c-0.404-0.085-0.664-0.484-0.579-0.889
		c0.073-0.345,0.381-0.595,0.733-0.595c0.053,0,0.107,0.006,0.159,0.017c4.127,0.873,6.593,2.635,6.593,4.714
		c0,1.808-1.863,3.384-5.125,4.347c0.106,1.875,0.281,3.655,0.52,5.295c0.029,0.198-0.021,0.396-0.141,0.556
		c-0.12,0.161-0.295,0.265-0.493,0.294C18.723,23.998,18.687,24,18.651,24z"/>
	<path d="M11.999,15.75c-1.759,0-7.5-0.162-7.5-2.25c0-0.414,0.336-0.75,0.75-0.75c0.365,0,0.67,0.262,0.737,0.609
		c0.375,0.287,2.454,0.891,6.013,0.891c3.029,0,4.983-0.438,5.73-0.747c-0.663-0.274-2.274-0.677-4.999-0.744
		c-0.413-0.01-0.741-0.355-0.731-0.768c0.01-0.411,0.334-0.732,0.737-0.732c0.007,0,0.037,0.001,0.044,0.001
		c2.501,0.061,6.718,0.434,6.718,2.24C19.499,15.588,13.759,15.75,11.999,15.75z"/>
</g>
</svg>
