<?xml version="1.0" encoding="utf-8"?>
<!-- Generator: Adobe Illustrator 22.1.0, SVG Export Plug-In . SVG Version: 6.00 Build 0)  -->
<svg version="1.1" id="Layer_1" xmlns="http://www.w3.org/2000/svg" xmlns:xlink="http://www.w3.org/1999/xlink" x="0px" y="0px"
	 viewBox="0 0 24 24" style="enable-background:new 0 0 24 24;" xml:space="preserve">
<title>skunk</title>
<g>
	<path d="M19.064,8.625c0,0-0.001,0-0.002,0c-0.894-0.042-1.718,0.233-2.394,0.71c-0.135-0.103-0.249-0.23-0.307-0.394
		c-0.08-0.224-0.067-0.466,0.056-0.724l-0.668-0.342L15.04,7.617c-0.273,0.578-0.306,1.227-0.091,1.829
		c0.139,0.389,0.379,0.721,0.678,0.984c-0.36,0.566-0.595,1.225-0.628,1.949c0.002,0.375,0.064,0.748,0.183,1.101
		c-1.692,0.087-2.91-0.191-3.181-0.428c0.016-0.307,0.135-0.508,0.383-0.9c0.471-0.744,1.115-1.763,1.115-4.278
		c0-1.803-0.702-3.498-1.977-4.773c-1.275-1.274-2.97-1.977-4.772-1.977c0,0,0,0-0.001,0c-3.722,0-6.75,3.028-6.75,6.75
		c0,1.527,0.526,3.025,1.48,4.218c0.195,0.244,0.522,0.341,0.822,0.242c0.298-0.099,0.502-0.374,0.513-0.688
		c0.021-0.647,0.297-2.511,1.3-3.353c0.468-0.393,1.05-0.532,1.779-0.428C6.609,7.97,7.127,8.301,7.477,8.88
		c1.347,2.23-0.037,7.428-0.684,9.243c0,0,0,0.001,0,0.001c-0.457,1.278-0.723,2.611-0.792,3.963
		C5.98,22.5,6.298,22.853,6.712,22.874c0.013,0.001,0.026,0.001,0.039,0.001c0.397,0,0.728-0.312,0.749-0.712
		c0.043-0.852,0.18-1.695,0.397-2.519c0.92,0.491,2.59,0.981,5.604,0.981c1.241,0,2.303-0.204,3.204-0.588l0.567,2.269
		c0.085,0.341,0.391,0.568,0.727,0.568c0.061,0,0.122-0.007,0.183-0.022c0.402-0.101,0.646-0.508,0.546-0.909l-0.682-2.728
		c0.919-0.769,1.566-1.839,1.906-3.239c1.994-0.608,4.049-3.282,4.049-4.351C23.999,9.677,21.44,8.625,19.064,8.625z M19.248,14.596
		c-0.334,0.032-0.606,0.281-0.667,0.61c-0.494,2.674-2.109,3.919-5.081,3.919c-3.39,0-4.71-0.642-5.146-0.938
		c0.524-1.622,2.133-7.221,0.407-10.081c-0.215-0.356-0.483-0.64-0.778-0.89c0.424,0.009,0.848,0.048,1.265,0.138
		c0.402,0.087,0.804-0.17,0.892-0.575c0.087-0.405-0.17-0.804-0.575-0.892C7.75,5.498,5.831,5.735,4.167,6.561
		C4.152,6.568,4.143,6.582,4.129,6.59C3.778,6.725,3.444,6.899,3.146,7.15c-0.716,0.604-1.153,1.454-1.419,2.25
		C1.577,8.909,1.499,8.395,1.499,7.875c0-2.895,2.355-5.25,5.25-5.25c0,0,0,0,0.001,0c1.402,0,2.72,0.546,3.712,1.538
		c0.992,0.991,1.538,2.31,1.538,3.712c0,2.08-0.469,2.821-0.883,3.476c-0.303,0.479-0.617,0.976-0.617,1.774
		c0,0.275,0.087,0.681,0.501,1.042c0.99,0.863,3.463,0.973,5.472,0.696c0.268-0.037,0.495-0.215,0.596-0.466
		c0.1-0.251,0.057-0.537-0.113-0.747c-0.29-0.362-0.452-0.816-0.456-1.24c0.062-1.318,1.194-2.342,2.532-2.285
		c1.589,0,3.435,0.643,3.469,1.477C22.367,12.191,20.554,14.473,19.248,14.596z"/>
	<circle cx="19.124" cy="12" r="1.125"/>
</g>
</svg>
