<?xml version="1.0" encoding="utf-8"?>
<!-- Generator: Adobe Illustrator 22.1.0, SVG Export Plug-In . SVG Version: 6.00 Build 0)  -->
<svg version="1.1" id="Layer_1" xmlns="http://www.w3.org/2000/svg" xmlns:xlink="http://www.w3.org/1999/xlink" x="0px" y="0px"
	 viewBox="0 0 24 24" style="enable-background:new 0 0 24 24;" xml:space="preserve">
<title>stamps-famous</title>
<g>
	<path d="M22.544,17.824c-0.49-0.262-0.795-0.769-0.794-1.323c0-0.001,0-0.001,0-0.002c-0.001-0.457,0.204-0.883,0.562-1.17
		c1.073-0.862,1.688-2.146,1.688-3.52c0-1.227-0.601-2.377-1.606-3.078c-0.679-0.472-0.848-1.409-0.376-2.088
		c0.136-0.195,0.317-0.356,0.528-0.468c0.896-0.479,1.453-1.409,1.453-2.425c0-2.068-1.683-3.75-3.751-3.75
		c-1.016,0-1.944,0.558-2.423,1.455c-0.262,0.49-0.77,0.794-1.326,0.795c0,0,0,0-0.001,0c-0.457,0-0.882-0.205-1.168-0.562
		C14.469,0.615,13.187,0,11.81,0c0,0-0.001,0-0.002,0C10.582,0,9.431,0.601,8.73,1.607C8.259,2.286,7.321,2.454,6.642,1.981
		C6.448,1.846,6.286,1.665,6.175,1.455C5.696,0.558,4.766,0,3.749,0c-2.068,0-3.75,1.682-3.75,3.75c0,1.017,0.558,1.947,1.456,2.426
		C1.808,6.365,2.067,6.68,2.184,7.063s0.077,0.79-0.112,1.144C1.977,8.387,1.847,8.543,1.688,8.67
		c-1.074,0.861-1.689,2.145-1.689,3.521c0,1.226,0.601,2.376,1.607,3.078c0.679,0.474,0.846,1.411,0.374,2.09
		c-0.135,0.193-0.317,0.354-0.525,0.466c-0.897,0.479-1.455,1.409-1.455,2.426c0,2.067,1.682,3.75,3.75,3.75
		c1.017,0,1.946-0.558,2.426-1.455c0.188-0.354,0.503-0.613,0.886-0.73c0.383-0.116,0.789-0.077,1.143,0.111
		c0.181,0.096,0.337,0.226,0.466,0.387C9.532,23.385,10.815,24,12.19,24c1.226,0,2.376-0.601,3.078-1.606
		c0.473-0.679,1.407-0.848,2.089-0.375c0.195,0.136,0.357,0.318,0.469,0.527C18.305,23.442,19.233,24,20.249,24
		c2.067,0,3.75-1.683,3.75-3.75C23.999,19.233,23.441,18.305,22.544,17.824z M20.249,22.5c-0.461,0-0.883-0.253-1.101-0.66
		c-0.222-0.417-0.545-0.78-0.935-1.052c-0.51-0.354-1.102-0.539-1.708-0.539c-0.178,0-0.357,0.016-0.536,0.048
		c-0.789,0.142-1.476,0.582-1.933,1.239C13.616,22.14,12.926,22.5,12.19,22.5c-0.918,0-1.775-0.411-2.35-1.126
		c-0.256-0.32-0.57-0.58-0.931-0.772c-0.707-0.376-1.518-0.454-2.285-0.222c-0.767,0.234-1.396,0.753-1.772,1.459
		C4.634,22.247,4.211,22.5,3.749,22.5c-1.241,0-2.25-1.01-2.25-2.25c0-0.462,0.253-0.885,0.662-1.103
		c0.417-0.223,0.779-0.545,1.049-0.932c0.946-1.357,0.611-3.231-0.746-4.178c-0.604-0.421-0.965-1.112-0.965-1.848
		c0-0.918,0.411-1.775,1.127-2.35c0.319-0.256,0.578-0.569,0.77-0.929c0.377-0.708,0.457-1.519,0.223-2.286S2.867,5.229,2.16,4.853
		C1.752,4.635,1.499,4.212,1.499,3.75c0-1.241,1.009-2.25,2.25-2.25c0.462,0,0.885,0.253,1.102,0.66
		c0.222,0.418,0.545,0.782,0.935,1.053c1.357,0.944,3.231,0.608,4.176-0.749C10.382,1.86,11.072,1.5,11.809,1.5c0,0,0,0,0.001,0
		c0.919,0,1.776,0.411,2.35,1.125c0.57,0.715,1.423,1.125,2.339,1.125c0.001,0,0.002,0,0.002,0c1.11,0,2.125-0.609,2.647-1.588
		C19.365,1.754,19.788,1.5,20.249,1.5c1.24,0,2.25,1.009,2.25,2.25c0,0.462-0.253,0.885-0.658,1.102
		c-0.419,0.222-0.783,0.546-1.055,0.936c-0.943,1.358-0.607,3.231,0.75,4.175c0.604,0.42,0.964,1.111,0.964,1.847
		c0.001,0.918-0.41,1.774-1.126,2.349c-0.716,0.573-1.125,1.427-1.124,2.342c-0.001,1.11,0.607,2.125,1.588,2.647
		c0.408,0.219,0.661,0.641,0.661,1.103C22.499,21.49,21.489,22.5,20.249,22.5z"/>
	<path d="M17.249,6h-10.5c-0.414,0-0.75,0.336-0.75,0.75v10.5c0,0.414,0.336,0.75,0.75,0.75h10.5c0.414,0,0.75-0.336,0.75-0.75V6.75
		C17.999,6.336,17.663,6,17.249,6z M7.499,7.5h3.286l-2.457,4.915c-0.116,0.232-0.104,0.509,0.033,0.73
		C8.498,13.365,8.739,13.5,8.999,13.5h3v3h-4.5V7.5z M16.499,16.5h-3v-3.75c0-0.414-0.336-0.75-0.75-0.75h-2.537l2.25-4.5h4.036
		V16.5z"/>
	<circle cx="14.249" cy="9.75" r="1.125"/>
</g>
</svg>
