<?xml version="1.0" encoding="utf-8"?>
<!-- Generator: Adobe Illustrator 22.1.0, SVG Export Plug-In . SVG Version: 6.00 Build 0)  -->
<svg version="1.1" id="Layer_1" xmlns="http://www.w3.org/2000/svg" xmlns:xlink="http://www.w3.org/1999/xlink" x="0px" y="0px"
	 viewBox="0 0 24 24" style="enable-background:new 0 0 24 24;" xml:space="preserve">
<title>target-center-2</title>
<g>
	<path d="M11.012,12.609c-0.2,0-0.389-0.078-0.53-0.22c-0.142-0.142-0.22-0.33-0.22-0.53s0.078-0.389,0.22-0.53l3.992-3.992
		l0.531-3.506c0.024-0.16,0.101-0.31,0.216-0.423l3.248-3.192C18.611,0.076,18.797,0,18.995,0c0.076,0,0.152,0.012,0.224,0.034
		c0.264,0.082,0.46,0.302,0.513,0.574l0.406,2.124l2.124,0.406c0.272,0.052,0.492,0.249,0.575,0.513
		c0.083,0.264,0.013,0.552-0.181,0.749l-3.192,3.248C19.35,7.765,19.2,7.841,19.041,7.865l-3.506,0.531l-3.993,3.993
		C11.401,12.531,11.213,12.609,11.012,12.609z M16.073,6.798L18.57,6.42l2.035-2.071L19.356,4.11
		c-0.303-0.058-0.537-0.292-0.595-0.595l-0.239-1.248l-2.07,2.035L16.073,6.798z"/>
	<path d="M17.762,24c-0.345,0-0.644-0.234-0.727-0.568l-0.534-2.135c-0.7,0.368-1.438,0.655-2.199,0.856
		c-0.876,0.231-1.777,0.349-2.676,0.349c-1.597,0-3.189-0.374-4.632-1.084L6.49,23.432C6.406,23.766,6.107,24,5.762,24
		c-0.061,0-0.122-0.008-0.182-0.022c-0.195-0.049-0.359-0.17-0.462-0.342c-0.103-0.172-0.133-0.374-0.084-0.568l0.611-2.443
		C3.587,19.2,2.11,17.098,1.471,14.678c-0.716-2.712-0.332-5.54,1.08-7.963c1.412-2.423,3.683-4.152,6.394-4.867
		C9.819,1.617,10.719,1.5,11.619,1.5c0.354,0,0.713,0.018,1.067,0.054c0.412,0.042,0.712,0.411,0.67,0.822
		c-0.038,0.378-0.365,0.674-0.744,0.674c-0.027,0-0.054-0.001-0.082-0.005c-0.3-0.031-0.608-0.046-0.912-0.046
		c-0.771,0-1.541,0.1-2.291,0.298C7.004,3.911,5.057,5.392,3.847,7.47c-1.21,2.077-1.539,4.501-0.926,6.826
		c0.568,2.154,1.901,4.005,3.756,5.223c0.005,0.001,0.011,0.002,0.016,0.004c0.16,0.04,0.299,0.129,0.401,0.255
		c1.377,0.802,2.938,1.227,4.513,1.227c0.775,0,1.552-0.102,2.311-0.302c2.321-0.612,4.266-2.095,5.477-4.175
		c1.211-2.08,1.542-4.503,0.929-6.823c-0.051-0.194-0.024-0.396,0.077-0.569s0.263-0.297,0.457-0.348
		c0.061-0.016,0.126-0.025,0.192-0.025c0.34,0,0.638,0.23,0.725,0.559c1.097,4.157-0.484,8.6-3.938,11.142l0.651,2.604
		c0.1,0.401-0.144,0.809-0.545,0.91C17.884,23.992,17.823,24,17.762,24z"/>
	<path d="M11.61,18.004c-1.082,0-2.149-0.299-3.086-0.863c-1.373-0.827-2.342-2.14-2.727-3.696
		c-0.386-1.556-0.143-3.169,0.685-4.542c0.827-1.373,2.14-2.342,3.695-2.728C10.648,6.059,11.133,6,11.618,6
		c0.414,0,0.75,0.336,0.751,0.75c0,0.414-0.336,0.75-0.75,0.75c-0.364,0-0.727,0.045-1.081,0.132
		C9.371,7.922,8.387,8.648,7.766,9.678c-0.62,1.03-0.803,2.24-0.513,3.406c0.289,1.167,1.016,2.151,2.046,2.772
		c0.703,0.424,1.504,0.648,2.314,0.648c0.365,0,0.733-0.045,1.092-0.134c2.409-0.597,3.883-3.043,3.285-5.452
		c-0.099-0.401,0.146-0.809,0.547-0.908c0.06-0.015,0.121-0.022,0.181-0.022c0.345,0,0.645,0.234,0.728,0.569
		c0.796,3.211-1.168,6.472-4.38,7.269c-0.478,0.118-0.968,0.178-1.455,0.178H11.61z"/>
</g>
</svg>
