<?xml version="1.0" encoding="utf-8"?>
<!-- Generator: Adobe Illustrator 22.1.0, SVG Export Plug-In . SVG Version: 6.00 Build 0)  -->
<svg version="1.1" id="Layer_1" xmlns="http://www.w3.org/2000/svg" xmlns:xlink="http://www.w3.org/1999/xlink" x="0px" y="0px"
	 viewBox="0 0 24 24" style="enable-background:new 0 0 24 24;" xml:space="preserve">
<title>video-game-gamasutra</title>
<g>
	<path d="M11.249,24c-0.827,0-1.5-0.673-1.5-1.5V21c0-0.827,0.673-1.5,1.5-1.5h1.5c0.827,0,1.5,0.673,1.5,1.5v1.5
		c0,0.827-0.673,1.5-1.5,1.5H11.249z M11.249,22.5h1.5V21h-1.5V22.5z"/>
	<path d="M21,24c-0.827,0-1.5-0.673-1.5-1.5V21H18c-0.827,0-1.5-0.673-1.5-1.5V18h-9v1.5C7.5,20.327,6.827,21,6,21H4.5v1.5
		C4.5,23.327,3.827,24,3,24H1.499c-0.827,0-1.5-0.673-1.5-1.5L0,21c0-0.827,0.673-1.5,1.5-1.5H3V18H1.5C0.673,18,0,17.327,0,16.5v-9
		C0,6.673,0.673,6,1.5,6H3V4.5C3,3.673,3.673,3,4.5,3H6V1.5C6,0.673,6.673,0,7.5,0h9C17.327,0,18,0.673,18,1.5V3h1.5
		C20.327,3,21,3.673,21,4.5V6h1.5C23.327,6,24,6.673,24,7.5v9c0,0.827-0.673,1.5-1.5,1.5H21v1.5h1.5c0.827,0,1.5,0.673,1.5,1.5v1.5
		c0,0.827-0.673,1.5-1.5,1.5H21z M1.499,22.5L3,22.5V21H1.5L1.499,22.5z M21,22.5h1.5V21H21V22.5z M16.5,16.5
		c0.827,0,1.5,0.673,1.5,1.5v1.5h1.5V18c0-0.827,0.673-1.5,1.5-1.5h1.5v-9H21c-0.827,0-1.5-0.673-1.5-1.5V4.5H18
		c-0.827,0-1.5-0.673-1.5-1.5V1.5h-9V3c0,0.827-0.673,1.5-1.5,1.5H4.5V6c0,0.827-0.673,1.5-1.5,1.5H1.5v9H3
		c0.827,0,1.5,0.673,1.5,1.5v1.5H6V18c0-0.827,0.673-1.5,1.5-1.5H16.5z"/>
	<path d="M4.5,13.5C3.673,13.5,3,12.827,3,12v-1.5C3,9.673,3.673,9,4.5,9H9c0.827,0,1.5,0.673,1.5,1.5V12c0,0.827-0.673,1.5-1.5,1.5
		H4.5z M4.5,12H9v-1.5H4.5V12z"/>
	<path d="M15,13.5c-0.827,0-1.5-0.673-1.5-1.5v-1.5C13.5,9.673,14.173,9,15,9h4.5c0.827,0,1.5,0.673,1.5,1.5l-0.001,1.501
		c0,0.827-0.673,1.499-1.5,1.499H15z M15,10.5l0,1.5h4.499l0.001-1.501L15,10.5z"/>
</g>
</svg>
