<?xml version="1.0" encoding="utf-8"?>
<!-- Generator: Adobe Illustrator 22.1.0, SVG Export Plug-In . SVG Version: 6.00 Build 0)  -->
<svg version="1.1" id="Layer_1" xmlns="http://www.w3.org/2000/svg" xmlns:xlink="http://www.w3.org/1999/xlink" x="0px" y="0px"
	 viewBox="0 0 24 24" style="enable-background:new 0 0 24 24;" xml:space="preserve">
<title>video-player-cloud</title>
<g>
	<path d="M5.139,23.997c-0.766,0-1.389-0.623-1.389-1.389V11.136c0-0.766,0.623-1.389,1.389-1.389h11.472
		c0.766,0,1.389,0.623,1.389,1.389v11.472c0,0.766-0.623,1.389-1.389,1.389H5.139z M16.5,22.497v-11.25H5.25v11.25H16.5z"/>
	<path d="M20.46,14.856c-0.367,0-0.678-0.263-0.739-0.626c-0.068-0.408,0.208-0.795,0.615-0.864c1.3-0.219,2.231-1.376,2.165-2.693
		c-0.003-0.224-0.024-0.42-0.066-0.614c-0.286-1.33-1.48-2.295-2.84-2.295c-0.204,0-0.41,0.022-0.611,0.065
		c-0.052,0.011-0.105,0.017-0.158,0.017c-0.161,0-0.321-0.053-0.449-0.15c-0.174-0.13-0.282-0.328-0.299-0.545
		c-0.161-2.164-1.474-4.097-3.426-5.044c-0.842-0.408-1.737-0.615-2.66-0.615c-0.68,0-1.355,0.115-2.007,0.341
		C8.445,2.369,7.204,3.472,6.492,4.94C6.368,5.197,6.102,5.363,5.814,5.363c-0.004,0-0.022,0-0.026,0
		C5.735,5.36,5.686,5.359,5.637,5.358l-0.032,0c-2.244,0-4.084,1.826-4.101,4.07c-0.02,0.775,0.183,1.524,0.587,2.172
		c0.106,0.17,0.139,0.371,0.094,0.566c-0.045,0.195-0.164,0.361-0.334,0.467c-0.119,0.074-0.256,0.113-0.396,0.113
		c-0.261,0-0.499-0.132-0.637-0.354c-0.559-0.898-0.84-1.932-0.813-2.99c0.011-1.485,0.604-2.884,1.67-3.934
		c0.997-0.982,2.299-1.547,3.689-1.606c0.91-1.616,2.369-2.835,4.131-3.446c0.811-0.281,1.652-0.424,2.499-0.424
		c1.151,0,2.265,0.258,3.313,0.766c2.203,1.068,3.742,3.11,4.17,5.507c0.039-0.001,0.079-0.002,0.118-0.002
		c2.062,0,3.873,1.463,4.307,3.48c0.062,0.291,0.095,0.588,0.098,0.884c0.103,2.053-1.365,3.873-3.416,4.217
		C20.541,14.853,20.501,14.856,20.46,14.856z"/>
	<path d="M9.062,20.247c-0.281,0-0.558-0.074-0.801-0.214C7.799,19.771,7.507,19.275,7.5,18.74v-3.727
		c0.006-0.542,0.299-1.04,0.765-1.304c0.24-0.138,0.516-0.212,0.796-0.212c0.234,0,0.47,0.053,0.682,0.152l3.49,1.647
		c0.384,0.168,0.697,0.483,0.872,0.883c0.185,0.423,0.194,0.893,0.025,1.323c-0.169,0.43-0.494,0.769-0.917,0.954l-3.468,1.638
		C9.533,20.194,9.297,20.247,9.062,20.247z M9.061,14.997c-0.018,0-0.036,0.005-0.052,0.014L9,18.731
		c0.024,0.01,0.043,0.016,0.063,0.016c0.015,0,0.03-0.003,0.043-0.01l3.487-1.646c0.133-0.058,0.189-0.193,0.138-0.311
		c-0.023-0.053-0.065-0.095-0.118-0.118l-3.508-1.656C9.092,15,9.077,14.997,9.061,14.997z"/>
</g>
</svg>
