<?xml version="1.0" encoding="utf-8"?>
<!-- Generator: Adobe Illustrator 22.1.0, SVG Export Plug-In . SVG Version: 6.00 Build 0)  -->
<svg version="1.1" id="Layer_1" xmlns="http://www.w3.org/2000/svg" xmlns:xlink="http://www.w3.org/1999/xlink" x="0px" y="0px"
	 viewBox="0 0 24 24" style="enable-background:new 0 0 24 24;" xml:space="preserve">
<title>video-game-mario-3</title>
<g>
	<path d="M7.5,14.25c-0.414,0-0.75-0.336-0.75-0.75v-0.75C6.75,12.337,7.086,12,7.5,12s0.75,0.336,0.75,0.75v0.75
		C8.25,13.914,7.913,14.25,7.5,14.25z"/>
	<path d="M16.5,14.25c-0.414,0-0.75-0.336-0.75-0.75v-0.75c0-0.414,0.336-0.75,0.75-0.75s0.75,0.336,0.75,0.75v0.75
		C17.25,13.914,16.913,14.25,16.5,14.25z"/>
	<path d="M9.75,4.5c-0.062,0-0.123-0.008-0.183-0.023C9.373,4.429,9.21,4.308,9.106,4.136C9.003,3.964,8.973,3.763,9.022,3.568
		l0.75-3c0.065-0.261,0.267-0.469,0.527-0.541C10.365,0.009,10.432,0,10.499,0c0.198,0,0.391,0.08,0.531,0.22L12,1.19l0.97-0.97
		C13.109,0.08,13.302,0,13.5,0c0.067,0,0.135,0.009,0.2,0.027c0.26,0.072,0.462,0.28,0.527,0.541l0.75,3
		c0.049,0.194,0.019,0.396-0.084,0.568c-0.103,0.172-0.267,0.293-0.461,0.342C14.372,4.493,14.311,4.5,14.249,4.5
		c-0.345,0-0.644-0.234-0.727-0.568l-0.429-1.715L12.53,2.781C12.388,2.922,12.2,3,12,3c-0.2,0-0.389-0.078-0.53-0.22l-0.563-0.563
		l-0.429,1.715C10.393,4.267,10.094,4.5,9.75,4.5C9.75,4.5,9.75,4.5,9.75,4.5z"/>
	<path d="M15.155,20.2c-1.366,0-2.426-0.217-3.155-0.645c-0.729,0.428-1.788,0.645-3.153,0.645c-0.253,0-0.515-0.007-0.778-0.022
		c-0.37-0.021-1.003-0.27-1.234-0.874c-0.215-0.561-0.023-1.163,0.569-1.79c0.825-1.542,2.513-2.461,4.526-2.461
		c2.032,0,3.856,0.964,4.666,2.46c0.596,0.63,0.79,1.23,0.577,1.785c-0.233,0.607-0.888,0.862-1.246,0.88
		C15.665,20.193,15.404,20.2,15.155,20.2z M8.368,18.691c0.169,0.007,0.336,0.01,0.497,0.01c1.268,0,2.217-0.223,2.605-0.611
		c0.142-0.142,0.33-0.22,0.53-0.22c0.198,0,0.392,0.08,0.531,0.221c0.387,0.387,1.337,0.61,2.607,0.61
		c0.16,0,0.326-0.003,0.496-0.01c-0.044-0.056-0.103-0.123-0.183-0.203c-0.057-0.057-0.104-0.123-0.141-0.195
		c-0.528-1.057-1.855-1.74-3.38-1.74h0c-1.484,0-2.696,0.65-3.24,1.74c-0.037,0.073-0.084,0.138-0.141,0.195
		C8.47,18.568,8.411,18.635,8.368,18.691z"/>
	<path d="M11.985,23.996c-2.293,0-4.525-0.821-6.283-2.311C3.88,20.141,2.7,18.009,2.36,15.658
		c-0.947-0.279-1.609-1.145-1.609-2.157c0-0.622,0.261-1.215,0.709-1.637c-0.506-1.144-0.751-2.396-0.709-3.638
		c0-1.937,2.634-5.341,6.414-7.108c0.1-0.047,0.207-0.071,0.317-0.071c0.29,0,0.557,0.17,0.68,0.432
		C8.337,1.853,8.175,2.301,7.8,2.476c-3.336,1.56-5.55,4.509-5.55,5.775C2.239,8.606,2.254,8.96,2.297,9.31
		C2.825,6.877,7.75,6,12.001,6c4.218,0,9.1,0.864,9.691,3.255c0.047-0.326,0.067-0.656,0.059-0.987c0-2.166-2.863-4.802-5.537-5.91
		c-0.185-0.077-0.329-0.221-0.406-0.406c-0.077-0.185-0.076-0.389,0-0.574c0.116-0.281,0.388-0.463,0.693-0.463
		c0.099,0,0.196,0.019,0.287,0.057c3.624,1.502,6.463,4.699,6.463,7.278c0.029,1.216-0.25,2.43-0.808,3.525
		c0.505,0.424,0.808,1.058,0.808,1.725c0,1.012-0.661,1.878-1.608,2.157c-0.646,4.458-4.323,7.932-8.84,8.305
		C12.532,23.984,12.257,23.996,11.985,23.996z M3.038,14.242c0.387,0,0.716,0.302,0.748,0.688c0.181,2.194,1.206,4.187,2.886,5.61
		c1.509,1.279,3.347,1.955,5.315,1.955c0.229,0,0.463-0.01,0.693-0.029c4.034-0.333,7.203-3.502,7.536-7.536
		c0.032-0.386,0.36-0.688,0.748-0.688c0.027,0,0.059,0.002,0.091,0.006c0.386-0.028,0.696-0.357,0.696-0.748
		c0-0.414-0.336-0.75-0.75-0.75s-0.75-0.336-0.75-0.75v-0.594c-0.456-0.281-2.924-0.906-8.25-0.906c-5.326,0-7.794,0.625-8.25,0.906
		V12c0,0.414-0.336,0.75-0.75,0.75s-0.75,0.336-0.75,0.75c0,0.39,0.309,0.719,0.694,0.748c0.011-0.001,0.023-0.003,0.035-0.004
		C3.002,14.243,3.02,14.242,3.038,14.242z M12.001,9c2.276,0,6.186,0.113,8.25,0.824V9.75c0-0.536-0.851-1.109-2.276-1.531
		C16.41,7.756,14.288,7.5,12.001,7.5c-4.935,0-8.25,1.163-8.25,2.25v0.074C5.815,9.113,9.725,9,12.001,9z"/>
</g>
</svg>
