<?xml version="1.0" encoding="utf-8"?>
<!-- Generator: Adobe Illustrator 22.1.0, SVG Export Plug-In . SVG Version: 6.00 Build 0)  -->
<svg version="1.1" id="Layer_1" xmlns="http://www.w3.org/2000/svg" xmlns:xlink="http://www.w3.org/1999/xlink" x="0px" y="0px"
	 viewBox="0 0 24 24" style="enable-background:new 0 0 24 24;" xml:space="preserve">
<title>video-player-monitor</title>
<g>
	<path d="M3.749,15c-1.241,0-2.25-1.009-2.25-2.25V2.25C1.499,1.009,2.508,0,3.749,0h3c0.414,0,0.75,0.336,0.75,0.75
		S7.163,1.5,6.749,1.5h-3c-0.414,0-0.75,0.336-0.75,0.75v8.25h18V2.25c0-0.414-0.336-0.75-0.75-0.75h-4.5
		c-0.414,0-0.75-0.336-0.75-0.75S15.335,0,15.749,0h4.5c1.241,0,2.25,1.009,2.25,2.25v10.5c0,1.241-1.009,2.25-2.25,2.25H3.749z
		 M2.999,12.75c0,0.414,0.336,0.75,0.75,0.75h16.5c0.414,0,0.75-0.336,0.75-0.75V12h-18V12.75z"/>
	<path d="M3.96,24c-0.827,0-1.5-0.672-1.5-1.499c0-0.124,0.015-0.248,0.045-0.366l1.125-4.499c0.168-0.668,0.766-1.135,1.455-1.136
		h13.83c0.69,0,1.288,0.467,1.455,1.137l1.125,4.499c0.098,0.388,0.038,0.791-0.167,1.134c-0.206,0.344-0.532,0.587-0.921,0.685
		C20.287,23.985,20.163,24,20.039,24H3.96z M3.96,22.5l16.079,0L18.914,18L5.085,18L3.96,22.5z"/>
	<path d="M6.749,21c-0.414,0-0.75-0.336-0.75-0.75s0.336-0.75,0.75-0.75h1.5c0.414,0,0.75,0.336,0.75,0.75S8.663,21,8.249,21H6.749z
		"/>
	<path d="M15.749,21c-0.414,0-0.75-0.336-0.75-0.75s0.336-0.75,0.75-0.75h1.5c0.414,0,0.75,0.336,0.75,0.75S17.663,21,17.249,21
		H15.749z"/>
	<path d="M11.249,21c-0.414,0-0.75-0.336-0.75-0.75s0.336-0.75,0.75-0.75h1.5c0.414,0,0.75,0.336,0.75,0.75S13.163,21,12.749,21
		H11.249z"/>
	<path d="M10.561,8.25c-0.281,0-0.558-0.074-0.801-0.214C9.298,7.774,9.005,7.278,8.999,6.743V3.016
		c0.006-0.543,0.299-1.041,0.766-1.305C10.004,1.573,10.279,1.5,10.56,1.5c0.235,0,0.471,0.053,0.683,0.152l3.49,1.647
		c0.384,0.168,0.697,0.483,0.872,0.883c0.185,0.423,0.194,0.893,0.025,1.323c-0.168,0.43-0.494,0.769-0.917,0.954l-3.468,1.638
		C11.031,8.197,10.795,8.25,10.561,8.25z M10.56,3c-0.018,0-0.036,0.005-0.051,0.014l-0.01,3.72
		c0.024,0.011,0.043,0.016,0.062,0.016c0.015,0,0.03-0.003,0.044-0.01l3.487-1.646c0.133-0.058,0.189-0.193,0.138-0.311
		c-0.023-0.053-0.065-0.095-0.118-0.118L10.603,3.01C10.59,3.003,10.575,3,10.56,3z"/>
</g>
</svg>
