<?xml version="1.0" encoding="utf-8"?>
<!-- Generator: Adobe Illustrator 22.1.0, SVG Export Plug-In . SVG Version: 6.00 Build 0)  -->
<svg version="1.1" id="Layer_1" xmlns="http://www.w3.org/2000/svg" xmlns:xlink="http://www.w3.org/1999/xlink" x="0px" y="0px"
	 viewBox="0 0 24 24" style="enable-background:new 0 0 24 24;" xml:space="preserve">
<title>video-game-mario-enemy</title>
<g>
	<path d="M15.73,22.493c-1.123,0-2.218-0.227-3.257-0.674c-0.962-0.415-1.825-0.999-2.565-1.738
		c-0.054-0.054-0.109-0.11-0.163-0.169c-0.732,0.209-1.485,0.321-2.24,0.334c-4.146,0-7.513-3.365-7.513-7.5s3.365-7.5,7.5-7.5
		c0.289,0,0.588,0.019,0.892,0.056c0.451-2.226,1.927-3.806,3.608-3.806c0.698,0.027,1.352,0.268,1.883,0.686
		c0.566-0.45,1.204-0.686,1.864-0.686c2.068,0,3.75,2.355,3.75,5.25c0,0.039,0,0.078-0.001,0.117
		c0.341,0.173,0.668,0.368,0.978,0.583l1.425-1.901c0.141-0.188,0.366-0.3,0.601-0.3c0.163,0,0.319,0.052,0.449,0.15
		c0.16,0.12,0.264,0.295,0.292,0.494c0.028,0.198-0.022,0.396-0.142,0.556l-1.476,1.968c2.356,2.384,3.05,5.99,1.718,9.083
		c-1.307,3.034-4.291,4.994-7.601,4.994C15.732,22.493,15.73,22.493,15.73,22.493z M11.28,19.312
		c0.532,0.468,1.132,0.847,1.787,1.129c0.85,0.366,1.747,0.552,2.666,0.552c2.71,0,5.153-1.605,6.222-4.088
		c0.326-0.758,0.509-1.557,0.544-2.378c-0.572-0.656-1.388-1.031-2.26-1.031c-0.405,0-0.801,0.081-1.177,0.241
		c-0.094,0.04-0.192,0.06-0.294,0.06c-0.301,0-0.572-0.179-0.69-0.456c-0.079-0.184-0.081-0.388-0.006-0.574
		c0.075-0.186,0.218-0.331,0.402-0.41c0.564-0.24,1.159-0.362,1.768-0.362c0.708,0,1.405,0.169,2.032,0.486
		c-0.339-1.261-1.034-2.404-2.01-3.282c-0.043-0.021-0.083-0.045-0.12-0.073c-0.063-0.047-0.117-0.103-0.162-0.167
		c-0.221-0.178-0.454-0.342-0.697-0.491c-0.335,1.385-1.054,2.493-2.017,3.085c-0.479,0.294-0.992,0.443-1.527,0.443
		c-0.015,0-0.03,0-0.045,0c0.03,0.251,0.046,0.502,0.046,0.75c0,0.414-0.336,0.75-0.75,0.75s-0.75-0.336-0.75-0.75
		c0-2.893-2.722-5.273-5.258-5.837c-0.011,0-0.022-0.001-0.033-0.002C8.888,6.902,8.828,6.889,8.766,6.866
		c-0.424-0.079-0.852-0.12-1.274-0.12c-3.308,0-6,2.692-6,6c0,3.308,2.692,6,6,6c1.935-0.033,3.843-0.888,5.179-2.306
		c-0.118-0.092-0.229-0.19-0.331-0.292c-0.292-0.292-0.292-0.768,0-1.061c0.142-0.142,0.33-0.22,0.53-0.22s0.389,0.078,0.53,0.22
		c0.425,0.425,0.99,0.659,1.591,0.659c0.601,0,1.166-0.234,1.591-0.659c0.142-0.142,0.33-0.22,0.53-0.22s0.389,0.078,0.53,0.22
		s0.22,0.33,0.22,0.53s-0.078,0.389-0.22,0.53c-0.708,0.708-1.649,1.098-2.651,1.099c-0.312,0-0.624-0.04-0.929-0.118
		C13.297,18.032,12.347,18.777,11.28,19.312z M15.298,10.42c0.151,0.049,0.302,0.074,0.448,0.074c0.252,0,0.5-0.074,0.736-0.219
		c0.887-0.545,1.506-1.996,1.506-3.529c0-2.033-1.03-3.75-2.25-3.75c-0.581,0-1.027,0.392-1.299,0.72
		c-0.004,0.005-0.014,0.017-0.019,0.022c-0.184,0.227-0.345,0.492-0.478,0.788c0.097-0.02,0.197-0.03,0.298-0.03
		c0.827,0,1.5,0.673,1.5,1.5s-0.673,1.5-1.5,1.5c-0.26,0-0.507-0.068-0.724-0.188c0.016,0.181,0.04,0.363,0.072,0.543
		C14.359,8.621,14.933,9.483,15.298,10.42z M9.85,5.615c0.745,0.229,1.471,0.561,2.142,0.977c0.024-1.216,0.338-2.368,0.896-3.278
		c-0.267-0.192-0.585-0.303-0.919-0.318C11.025,3.002,10.148,4.106,9.85,5.615z"/>
	<path d="M4.491,11.997c-0.414,0-0.75-0.336-0.75-0.75v-1.5c0-0.414,0.336-0.75,0.75-0.75s0.75,0.336,0.75,0.75v1.5
		C5.241,11.66,4.904,11.997,4.491,11.997z"/>
</g>
</svg>
