<?xml version="1.0" encoding="utf-8"?>
<!-- Generator: Adobe Illustrator 22.1.0, SVG Export Plug-In . SVG Version: 6.00 Build 0)  -->
<svg version="1.1" id="Layer_1" xmlns="http://www.w3.org/2000/svg" xmlns:xlink="http://www.w3.org/1999/xlink" x="0px" y="0px"
	 viewBox="0 0 24 24" style="enable-background:new 0 0 24 24;" xml:space="preserve">
<title>video-player-1</title>
<g>
	<path d="M2.249,24c-1.241,0-2.25-1.009-2.25-2.25V2.25c0-1.241,1.009-2.25,2.25-2.25h19.5c1.241,0,2.25,1.009,2.25,2.25v19.5
		c0,1.241-1.009,2.25-2.25,2.25H2.249z M2.249,1.5c-0.414,0-0.75,0.336-0.75,0.75v19.5c0,0.414,0.336,0.75,0.75,0.75h19.5
		c0.414,0,0.75-0.336,0.75-0.75V2.25c0-0.414-0.336-0.75-0.75-0.75H2.249z"/>
	<path d="M9.859,16.499c-0.616,0-1.168-0.342-1.441-0.892c-0.109-0.22-0.167-0.466-0.168-0.711v-5.79
		c0-0.43,0.168-0.833,0.472-1.137C9.025,7.667,9.428,7.5,9.857,7.5c0.249,0,0.495,0.059,0.716,0.168l5.79,2.896
		c0.383,0.191,0.669,0.521,0.804,0.927c0.136,0.407,0.105,0.842-0.086,1.225c-0.154,0.309-0.41,0.565-0.719,0.719
		c0,0-5.79,2.895-5.79,2.896C10.348,16.443,10.108,16.499,9.859,16.499z M9.857,9c-0.029,0-0.055,0.01-0.075,0.031
		C9.761,9.052,9.75,9.078,9.75,9.107v5.787c0,0.015,0.004,0.032,0.011,0.047c0.021,0.043,0.064,0.059,0.096,0.059
		c0.016,0,0.032-0.004,0.047-0.011l5.787-2.894c0.02-0.01,0.038-0.027,0.047-0.047c0.026-0.052,0.005-0.115-0.047-0.141L9.904,9.011
		C9.89,9.004,9.873,9,9.857,9z"/>
</g>
</svg>
