<?xml version="1.0" encoding="utf-8"?>
<!-- Generator: Adobe Illustrator 22.1.0, SVG Export Plug-In . SVG Version: 6.00 Build 0)  -->
<svg version="1.1" id="Layer_1" xmlns="http://www.w3.org/2000/svg" xmlns:xlink="http://www.w3.org/1999/xlink" x="0px" y="0px"
	 viewBox="0 0 24 24" style="enable-background:new 0 0 24 24;" xml:space="preserve">
<title>view-off</title>
<g>
	<path d="M2.782,21.75c-0.203,0-0.4-0.084-0.541-0.23c-0.139-0.145-0.213-0.334-0.209-0.535c0.004-0.2,0.086-0.387,0.231-0.526
		l18.75-18c0.14-0.135,0.325-0.209,0.519-0.209c0.203,0,0.4,0.084,0.541,0.231c0.139,0.144,0.213,0.334,0.209,0.535
		c-0.004,0.2-0.086,0.387-0.23,0.526l-18.75,18C3.161,21.676,2.976,21.75,2.782,21.75z"/>
	<path d="M11.919,20.25c-1.078,0-2.148-0.162-3.179-0.482c-0.191-0.059-0.348-0.189-0.442-0.367
		c-0.093-0.177-0.112-0.38-0.053-0.572c0.098-0.316,0.386-0.528,0.717-0.528c0.075,0,0.149,0.011,0.221,0.033
		c0.888,0.275,1.814,0.415,2.754,0.415l0.187,0.001c3.866,0,7.775-2.786,10.144-5.393c0.313-0.346,0.312-0.87-0.001-1.218
		c-0.891-0.978-1.887-1.872-2.959-2.655c-0.334-0.244-0.407-0.714-0.164-1.048c0.141-0.193,0.367-0.308,0.606-0.308
		c0.16,0,0.313,0.05,0.442,0.144c1.154,0.842,2.226,1.804,3.187,2.859c0.833,0.922,0.833,2.312,0.002,3.232
		c-2.586,2.846-6.896,5.886-11.238,5.887L11.919,20.25z"/>
	<path d="M3.772,17.011c-0.168,0-0.327-0.054-0.46-0.158c-0.964-0.749-1.868-1.586-2.688-2.487
		c-0.833-0.923-0.833-2.312-0.002-3.233c2.587-2.845,6.898-5.884,11.244-5.884l0.232,0.001c0.841,0,1.68,0.102,2.496,0.304
		c0.194,0.048,0.358,0.169,0.462,0.341c0.104,0.172,0.134,0.373,0.086,0.568c-0.083,0.335-0.382,0.57-0.728,0.57
		c-0.06,0-0.121-0.007-0.18-0.022c-0.699-0.173-1.421-0.261-2.145-0.261l-0.23-0.001c-3.852,0-7.756,2.785-10.126,5.392
		c-0.312,0.346-0.312,0.87,0.002,1.218c0.762,0.837,1.602,1.615,2.497,2.31c0.158,0.123,0.259,0.3,0.284,0.499
		c0.025,0.199-0.029,0.396-0.152,0.553C4.221,16.905,4.005,17.011,3.772,17.011z"/>
	<path d="M8.249,13.5c-0.414,0-0.75-0.336-0.75-0.75c0-2.481,2.019-4.5,4.5-4.5c0.414,0,0.75,0.336,0.75,0.75S12.413,9.75,12,9.75
		c-1.655,0-3.001,1.346-3.001,3C8.999,13.163,8.662,13.5,8.249,13.5z"/>
	<path d="M12,17.25c-0.414,0-0.75-0.336-0.75-0.75s0.336-0.75,0.75-0.75c0.801,0,1.554-0.312,2.121-0.879
		c0.566-0.567,0.878-1.32,0.878-2.122c0-0.414,0.336-0.75,0.75-0.75s0.75,0.336,0.75,0.75c0,1.202-0.468,2.332-1.317,3.182
		C14.332,16.781,13.202,17.25,12,17.25C12,17.25,12,17.25,12,17.25z"/>
</g>
</svg>
