<?xml version="1.0" encoding="utf-8"?>
<!-- Generator: Adobe Illustrator 22.1.0, SVG Export Plug-In . SVG Version: 6.00 Build 0)  -->
<svg version="1.1" id="Layer_1" xmlns="http://www.w3.org/2000/svg" xmlns:xlink="http://www.w3.org/1999/xlink" x="0px" y="0px"
	 viewBox="0 0 24 24" style="enable-background:new 0 0 24 24;" xml:space="preserve">
<title>view</title>
<g>
	<path d="M11.845,19.5c-4.335,0-8.64-3.04-11.223-5.885c-0.832-0.922-0.832-2.312-0.002-3.232c2.585-2.845,6.89-5.883,11.224-5.883
		c0.054,0,0.108,0,0.162,0.001c0.04-0.001,0.093-0.001,0.146-0.001c4.334,0,8.641,3.038,11.226,5.881
		c0.832,0.923,0.833,2.312,0.002,3.233C20.794,16.46,16.48,19.5,12.126,19.5c0,0-0.137-0.001-0.137-0.001L11.845,19.5L11.845,19.5z
		 M12.133,18c3.86,0,7.767-2.786,10.136-5.394c0.312-0.346,0.312-0.871-0.002-1.219c-2.368-2.604-6.268-5.388-10.106-5.388
		c-0.049,0-0.171,0.001-0.174,0.001L11.856,6c-3.852,0-7.755,2.784-10.123,5.39c-0.312,0.347-0.312,0.871,0.002,1.219
		C4.101,15.214,8.004,18,11.861,18c0,0,0.13-0.001,0.132-0.001C11.996,17.999,12.133,18,12.133,18z"/>
	<path d="M11.999,16.5c-2.481,0-4.5-2.019-4.5-4.5c0-2.481,2.019-4.5,4.5-4.5c2.481,0,4.5,2.019,4.5,4.5
		C16.499,14.481,14.48,16.5,11.999,16.5z M12,9c-1.655,0-3.001,1.346-3.001,3c0,1.654,1.346,3,3,3c1.654,0,3-1.346,3-3
		C14.999,10.346,13.653,9,12,9L12,9z"/>
</g>
</svg>
