<?xml version="1.0" encoding="utf-8"?>
<!-- Generator: Adobe Illustrator 22.1.0, SVG Export Plug-In . SVG Version: 6.00 Build 0)  -->
<svg version="1.1" id="Layer_1" xmlns="http://www.w3.org/2000/svg" xmlns:xlink="http://www.w3.org/1999/xlink" x="0px" y="0px"
	 viewBox="0 0 24 24" style="enable-background:new 0 0 24 24;" xml:space="preserve">
<title>wench-double</title>
<g>
	<path d="M5.288,24.001c-0.788,0-1.553-0.174-2.273-0.517c-0.22-0.105-0.376-0.311-0.417-0.55c-0.041-0.24,0.037-0.486,0.209-0.658
		l1.425-1.421c0.144-0.144,0.224-0.336,0.224-0.541c0-0.205-0.08-0.397-0.225-0.542c-0.144-0.144-0.337-0.224-0.542-0.224
		s-0.397,0.08-0.542,0.224l-1.426,1.424c-0.141,0.141-0.329,0.219-0.53,0.219c-0.042,0-0.084-0.003-0.126-0.011
		c-0.24-0.042-0.446-0.197-0.55-0.417c-0.692-1.45-0.692-3.114,0-4.565c0.61-1.278,1.681-2.242,3.015-2.714
		c0.574-0.203,1.171-0.306,1.772-0.306c0.609,0,1.206,0.104,1.78,0.311l6.633-6.632c-0.471-1.319-0.399-2.783,0.206-4.055
		c0.608-1.279,1.677-2.244,3.01-2.718C17.508,0.104,18.107,0,18.711,0c0.787,0,1.552,0.173,2.271,0.516
		c0.22,0.105,0.376,0.31,0.417,0.55c0.041,0.24-0.037,0.486-0.209,0.658l-1.424,1.425c-0.299,0.299-0.299,0.785,0,1.084
		c0.144,0.144,0.337,0.224,0.542,0.224s0.397-0.079,0.542-0.224l1.424-1.427c0.14-0.14,0.333-0.22,0.531-0.22
		c0.043,0,0.085,0.004,0.128,0.011c0.238,0.041,0.444,0.196,0.549,0.416c0.692,1.451,0.692,3.115,0,4.565
		c-0.609,1.278-1.68,2.241-3.015,2.714c-0.574,0.203-1.17,0.306-1.771,0.306c-0.609,0-1.206-0.105-1.781-0.311l-6.631,6.632
		c0.472,1.32,0.4,2.786-0.206,4.06C9.469,22.255,8.4,23.22,7.066,23.693c-0.575,0.204-1.173,0.308-1.776,0.308H5.288z M4.746,22.461
		c0.18,0.026,0.362,0.04,0.544,0.04c0.432,0,0.861-0.074,1.274-0.221c0.957-0.339,1.724-1.031,2.16-1.948
		c0.495-1.039,0.494-2.23-0.001-3.269c-0.136-0.286-0.078-0.629,0.147-0.853l7.34-7.341c0.141-0.142,0.33-0.22,0.53-0.22
		c0.111,0,0.222,0.025,0.323,0.073c0.519,0.248,1.068,0.373,1.634,0.373c0.431,0,0.859-0.074,1.271-0.22
		c0.957-0.339,1.724-1.03,2.162-1.946c0.329-0.69,0.442-1.448,0.332-2.189l-0.549,0.55c-0.428,0.428-0.997,0.663-1.603,0.663
		c-0.606,0-1.175-0.235-1.602-0.663c-0.884-0.883-0.884-2.321,0-3.204l0.547-0.548c-0.179-0.026-0.361-0.04-0.543-0.04
		c-0.433,0-0.863,0.075-1.277,0.222c-0.957,0.34-1.723,1.032-2.159,1.949c-0.493,1.038-0.492,2.228,0.002,3.265
		c0.136,0.286,0.077,0.629-0.147,0.853L7.788,15.13c-0.141,0.142-0.33,0.22-0.53,0.22c-0.111,0-0.223-0.026-0.324-0.074
		c-0.517-0.247-1.067-0.372-1.633-0.372c-0.431,0-0.859,0.074-1.271,0.22c-0.957,0.339-1.724,1.03-2.161,1.946
		c-0.33,0.691-0.442,1.45-0.332,2.191l0.55-0.549c0.427-0.427,0.996-0.663,1.602-0.663c0.606,0,1.175,0.235,1.602,0.663
		c0.428,0.428,0.664,0.997,0.664,1.602c0,0.605-0.235,1.175-0.664,1.603L4.746,22.461z"/>
	<path d="M7.789,10.684c-0.201,0-0.39-0.079-0.532-0.221l-0.176-0.177c-0.573,0.206-1.169,0.31-1.776,0.31c0,0,0,0,0,0
		c-0.603,0-1.2-0.103-1.775-0.307C2.195,9.814,1.125,8.85,0.516,7.572c-0.69-1.447-0.69-3.108-0.002-4.556
		c0.104-0.22,0.31-0.376,0.55-0.417c0.042-0.007,0.085-0.011,0.127-0.011c0.197,0,0.391,0.08,0.53,0.22l1.425,1.424
		c0.145,0.145,0.338,0.225,0.542,0.225c0.205,0,0.397-0.08,0.542-0.224C4.376,4.087,4.456,3.895,4.456,3.69
		c0-0.205-0.08-0.397-0.224-0.542L2.806,1.723c-0.172-0.172-0.25-0.418-0.209-0.658c0.041-0.239,0.197-0.445,0.417-0.55
		C3.735,0.172,4.5-0.002,5.289-0.002c0.603,0,1.201,0.104,1.777,0.308C8.4,0.78,9.469,1.745,10.078,3.023
		c0.606,1.274,0.678,2.739,0.206,4.06l0.098,0.098c0.142,0.141,0.22,0.33,0.22,0.53s-0.078,0.389-0.22,0.53
		c-0.141,0.142-0.33,0.22-0.53,0.22s-0.389-0.078-0.53-0.22L8.869,7.789C8.645,7.565,8.586,7.222,8.723,6.936
		c0.495-1.038,0.495-2.23,0.001-3.268C8.287,2.751,7.52,2.06,6.564,1.72C6.15,1.573,5.722,1.499,5.29,1.499
		c-0.183,0-0.365,0.013-0.546,0.04l0.549,0.549C5.72,2.516,5.956,3.085,5.956,3.69c0,0.605-0.236,1.174-0.664,1.602
		C4.864,5.72,4.295,5.956,3.689,5.956c-0.606,0-1.175-0.236-1.603-0.664L1.539,4.745C1.43,5.483,1.542,6.239,1.87,6.927
		c0.437,0.916,1.204,1.608,2.161,1.947C4.444,9.02,4.872,9.095,5.304,9.095c0.565,0,1.114-0.125,1.631-0.372
		C7.036,8.675,7.147,8.65,7.258,8.65c0.201,0,0.39,0.078,0.532,0.221l0.531,0.534c0.141,0.142,0.219,0.331,0.218,0.531
		s-0.079,0.388-0.221,0.53C8.176,10.606,7.988,10.684,7.789,10.684z"/>
	<path d="M18.711,24c-0.604,0-1.203-0.104-1.78-0.309c-1.333-0.474-2.403-1.439-3.01-2.719c-0.605-1.273-0.676-2.737-0.205-4.056
		l-0.276-0.276c-0.292-0.293-0.292-0.769,0.001-1.061c0.141-0.141,0.33-0.219,0.53-0.219c0.201,0,0.389,0.078,0.531,0.22l0.629,0.63
		c0.224,0.223,0.282,0.566,0.146,0.852c-0.494,1.037-0.495,2.228-0.002,3.266c0.436,0.917,1.203,1.609,2.159,1.949
		c0.414,0.147,0.843,0.222,1.276,0.222c0.182,0,0.364-0.013,0.543-0.04l-0.547-0.548c-0.428-0.428-0.664-0.997-0.664-1.602
		s0.236-1.174,0.664-1.602c0.427-0.427,0.996-0.663,1.602-0.663s1.175,0.235,1.602,0.663l0.549,0.549
		c0.11-0.741-0.002-1.5-0.332-2.191c-0.627-1.314-1.976-2.163-3.436-2.163c-0.567,0-1.115,0.125-1.63,0.37
		c-0.102,0.048-0.213,0.073-0.323,0.073c-0.201,0-0.389-0.078-0.53-0.22l-0.629-0.629c-0.292-0.292-0.292-0.768,0-1.061
		c0.142-0.142,0.33-0.22,0.53-0.22s0.389,0.078,0.53,0.22l0.274,0.274c0.571-0.205,1.167-0.309,1.776-0.309
		c2.036,0,3.916,1.184,4.791,3.017c0.692,1.451,0.692,3.115,0,4.566c-0.105,0.219-0.31,0.375-0.55,0.416
		c-0.042,0.007-0.085,0.011-0.128,0.011c-0.2,0-0.388-0.078-0.53-0.22l-1.424-1.424c-0.144-0.144-0.337-0.224-0.542-0.224
		s-0.397,0.079-0.542,0.224c-0.299,0.299-0.299,0.785,0,1.083l1.424,1.425c0.172,0.172,0.25,0.418,0.209,0.658
		c-0.041,0.24-0.197,0.445-0.417,0.55C20.263,23.826,19.498,24,18.711,24z"/>
</g>
</svg>
