<?xml version="1.0" encoding="utf-8"?>
<!-- Generator: Adobe Illustrator 22.1.0, SVG Export Plug-In . SVG Version: 6.00 Build 0)  -->
<svg version="1.1" id="Layer_1" xmlns="http://www.w3.org/2000/svg" xmlns:xlink="http://www.w3.org/1999/xlink" x="0px" y="0px"
	 viewBox="0 0 24 24" style="enable-background:new 0 0 24 24;" xml:space="preserve">
<title>whale-body</title>
<g>
	<path d="M23.97,14.247V2.652c0.002-0.278-0.074-0.551-0.222-0.794c-0.434-0.703-1.356-0.924-2.037-0.504
		c-1.184,0.67-1.979,1.838-2.188,3.155c-1.502,0.12-2.888,0.876-3.808,2.109c-0.189,0.258-0.289,0.563-0.289,0.886
		C15.429,8.329,16.101,9,16.925,9c0.001,0,0.001,0,0.002,0h1.046c1.036,0,1.5,0.565,1.5,1.125c0,0.282-0.115,0.545-0.325,0.742
		c-0.268,0.251-0.674,0.383-1.175,0.383l-12.028,0c-1.852,0.07-3.597,0.716-5.038,1.863c-0.662,0.511-0.99,1.341-0.856,2.155
		C0.7,19.607,5.003,24,11.973,24c0.414,0,0.75-0.336,0.75-0.75s-0.336-0.75-0.75-0.75c-5.794,0-8.932-3.195-10.032-6h3.282
		c1.939,0,3.211,0.908,4.558,1.869c0.935,0.667,1.898,1.354,3.096,1.74c0.279,0.694,1.066,1.964,3.26,3.062
		c1.112,0.557,2.058,0.746,2.831,0.746c1.62,0,2.482-0.835,2.534-0.887c0.253-0.253,0.292-0.648,0.094-0.946l-0.826-1.238
		C22.664,19.177,23.825,16.828,23.97,14.247z M18.597,17.584c-0.23-0.345-0.695-0.438-1.04-0.208s-0.438,0.695-0.208,1.04
		l2.563,3.845c-0.569,0.208-1.593,0.323-3.104-0.432c-2.31-1.155-2.593-2.438-2.594-2.438c-0.044-0.301-0.266-0.546-0.561-0.619
		c-1.118-0.279-2.033-0.933-3.001-1.624C9.242,16.142,7.643,15,5.223,15H1.532c-0.031-0.268,0.077-0.533,0.3-0.706
		c1.198-0.952,2.64-1.487,4.141-1.544h12c1.97,0,3-1.32,3-2.625s-1.03-2.625-3-2.625l-1.052,0.01
		c0.763-1.021,1.968-1.59,3.254-1.511c0.222,0.009,0.412-0.063,0.562-0.206c0.151-0.144,0.235-0.344,0.232-0.553
		c-0.015-1.066,0.552-2.055,1.5-2.593l0.001,11.558c-0.117,2.071-1.032,3.992-2.536,5.386L18.597,17.584z"/>
	<path d="M2.973,4.5c0.414,0,0.75-0.335,0.75-0.75c0-0.601,0.234-1.166,0.66-1.59c0.425-0.425,0.99-0.659,1.59-0.659h0
		c1.24,0.001,2.249,1.01,2.25,2.25V9c0,0.414,0.336,0.75,0.75,0.75S9.723,9.414,9.723,9V3.75c0-1.241,1.009-2.25,2.25-2.25
		s2.25,1.009,2.25,2.25c0,0.414,0.336,0.75,0.75,0.75s0.75-0.336,0.75-0.75c0-2.068-1.682-3.75-3.75-3.75
		c-1.232,0-2.317,0.605-3.001,1.524C8.288,0.606,7.204,0.002,5.974,0.001c0,0,0,0-0.001,0c-2.067,0-3.75,1.682-3.75,3.749
		C2.223,4.164,2.559,4.5,2.973,4.5z"/>
	<circle cx="12.348" cy="15.375" r="1.125"/>
</g>
</svg>
