<?xml version="1.0" encoding="utf-8"?>
<!-- Generator: Adobe Illustrator 22.1.0, SVG Export Plug-In . SVG Version: 6.00 Build 0)  -->
<svg version="1.1" id="Layer_1" xmlns="http://www.w3.org/2000/svg" xmlns:xlink="http://www.w3.org/1999/xlink" x="0px" y="0px"
	 viewBox="0 0 24 24" style="enable-background:new 0 0 24 24;" xml:space="preserve">
<title>wireless-payment-credit-card-dollar</title>
<g>
	<path d="M2.249,24c-1.241,0-2.25-1.009-2.25-2.25V2.25c0-1.241,1.009-2.25,2.25-2.25h10.5c1.241,0,2.25,1.009,2.25,2.25v9
		c0,0.414-0.336,0.75-0.75,0.75s-0.75-0.336-0.75-0.75v-9c0-0.414-0.336-0.75-0.75-0.75h-10.5c-0.414,0-0.75,0.336-0.75,0.75v16.5
		h5.25c0.414,0,0.75,0.336,0.75,0.75s-0.336,0.75-0.75,0.75h-5.25v1.5c0,0.414,0.336,0.75,0.75,0.75h4.5
		c0.414,0,0.75,0.336,0.75,0.75S7.163,24,6.749,24H2.249z"/>
	<path d="M11.249,24c-1.241,0-2.25-1.009-2.25-2.25v-6c0-1.241,1.009-2.25,2.25-2.25h10.5c1.241,0,2.25,1.009,2.25,2.25v6
		c0,1.241-1.009,2.25-2.25,2.25H11.249z M10.499,21.75c0,0.414,0.336,0.75,0.75,0.75h10.5c0.414,0,0.75-0.336,0.75-0.75V18h-12
		V21.75z M22.499,16.5v-0.75c0-0.414-0.336-0.75-0.75-0.75h-10.5c-0.414,0-0.75,0.336-0.75,0.75v0.75H22.499z"/>
	<path d="M12.749,21c-0.414,0-0.75-0.336-0.75-0.75s0.336-0.75,0.75-0.75h2.25c0.414,0,0.75,0.336,0.75,0.75S15.413,21,14.999,21
		H12.749z"/>
</g>
</svg>
