<svg id="Bold" xmlns="http://www.w3.org/2000/svg" viewBox="0 0 24 24"><title>headphones-human</title><path d="M12.643,11.341a1.689,1.689,0,1,0,1.7,1.689A1.695,1.695,0,0,0,12.643,11.341Z"/><path d="M16.53,2.177a.5.5,0,0,1-.289-.293A2.893,2.893,0,0,0,13.532,0H11.754A2.891,2.891,0,0,0,9,2.013a.5.5,0,0,1-.286.31A8.212,8.212,0,0,0,3.3,9.6a2.009,2.009,0,0,1-.215.832c-.147.29-.347.639-.512.929-.7,1.234-1.5,2.633-1.423,3.75l0,.136a1.226,1.226,0,0,0,.189.743,1.244,1.244,0,0,0,.965.52c.173.007.364.01.551.011a.5.5,0,0,1,.5.5V19a2.5,2.5,0,0,0,2.5,2.5h1.5a.5.5,0,0,1,.5.5v1.5a.5.5,0,0,0,.5.5h10a.5.5,0,0,0,.5-.5V19.791a.5.5,0,0,1,.221-.415c2.509-1.689,3.779-4.314,3.779-7.813A9.94,9.94,0,0,0,16.53,2.177ZM12.643,17a3.985,3.985,0,0,1-4-3.97,3.943,3.943,0,0,1,1.975-3.406.5.5,0,0,0,.247-.432V2.883A.886.886,0,0,1,11.754,2h1.778a.886.886,0,0,1,.889.883V9.192a.5.5,0,0,0,.248.432,3.945,3.945,0,0,1,1.974,3.406A3.985,3.985,0,0,1,12.643,17Z"/></svg>