<svg xmlns="http://www.w3.org/2000/svg" viewBox="0 0 24 24"><defs><style>.a{fill:none;stroke:#000;stroke-linecap:round;stroke-linejoin:round;}</style></defs><title>crypto-currency-bitcoin-imac</title><line class="a" x1="10.504" y1="4.02" x2="10.504" y2="6"/><line class="a" x1="12.504" y1="4.02" x2="12.504" y2="6"/><line class="a" x1="10.504" y1="12.02" x2="10.504" y2="14"/><line class="a" x1="12.504" y1="12.02" x2="12.504" y2="14"/><path class="a" d="M14.5,7.5A1.5,1.5,0,0,1,13,9H9.5V6H13A1.5,1.5,0,0,1,14.5,7.5Z"/><path class="a" d="M14.5,10.5A1.5,1.5,0,0,1,13,12H9.5V9H13A1.5,1.5,0,0,1,14.5,10.5Z"/><rect class="a" x="3.004" y="-0.5" width="18" height="23" rx="1.5" ry="1.5" transform="translate(1.004 23.004) rotate(-90)"/><line class="a" x1="5.004" y1="22" x2="19.004" y2="22"/><line class="a" x1="12.004" y1="20" x2="12.004" y2="22"/><path class="a" d="M12,17.75a.25.25,0,1,1-.25.25.25.25,0,0,1,.25-.25"/><line class="a" x1="0.504" y1="16" x2="23.504" y2="16"/></svg>