<svg id="Light" xmlns="http://www.w3.org/2000/svg" viewBox="0 0 24 24"><defs><style>.cls-1{fill:none;stroke:#000;stroke-linecap:round;stroke-linejoin:round;}</style></defs><title>footwear-heels-ankle</title><path class="cls-1" d="M21.957,16.988c-5.165-3.516-6.65-7.727-6.985-9.274a.493.493,0,0,0-.587-.37C8.911,8.4,5.568,6.154,2.618,1.641a.506.506,0,0,0-.847-.006,7.633,7.633,0,0,0-1,2.278,9.982,9.982,0,0,0,.05,4.824A64.921,64.921,0,0,1,1.855,21.6a1,1,0,0,0,1,.992h.011a1,1,0,0,0,1-1V14.019a1,1,0,0,1,1.8-.554,45.539,45.539,0,0,1,5.549,8.61,1,1,0,0,0,.876.516h8.273a3.1,3.1,0,0,0,3.08-2.411A2.985,2.985,0,0,0,21.957,16.988Z"/><path class="cls-1" d="M.72,8.25a45.977,45.977,0,0,1,4.944,5.215"/><path class="cls-1" d="M2.26,9.682c6.574-5.772,9.5,11.241,16.152,7.711l2.155-1.436"/><path class="cls-1" d="M13.312,9.85a.25.25,0,1,1-.25.25.25.25,0,0,1,.25-.25"/><path class="cls-1" d="M14.562,11.966a.25.25,0,1,1-.25.25.25.25,0,0,1,.25-.25"/><path class="cls-1" d="M16.249,14.279a.25.25,0,1,1-.25.25.25.25,0,0,1,.25-.25"/></svg>