<svg xmlns="http://www.w3.org/2000/svg" viewBox="0 0 24 24"><defs><style>.a{fill:none;stroke:#000;stroke-linecap:round;stroke-linejoin:round;}</style></defs><title>office-work-wireless</title><circle class="a" cx="5" cy="2.97" r="2.5"/><line class="a" x1="12" y1="13.47" x2="23" y2="13.47"/><path class="a" d="M23.5,5.97l-1.761,4.841a1,1,0,0,1-.939.659H16"/><line class="a" x1="16.5" y1="13.47" x2="16.5" y2="23.47"/><line class="a" x1="2" y1="17.97" x2="0.5" y2="23.47"/><polyline class="a" points="0.5 8.47 2 17.97 5 17.97"/><path class="a" d="M12.38,23.47A1.5,1.5,0,0,1,11,22.56L9.4,18.879a1.5,1.5,0,0,0-1.378-.909H5a1.5,1.5,0,0,1-1.5-1.5v-8a1.5,1.5,0,0,1,2.639-.976l1.8,2.1a2.5,2.5,0,0,0,1.9.873H12.5a1.5,1.5,0,0,1,0,3H9.84A5.491,5.491,0,0,1,6.5,12.34v2.63H8.022A4.5,4.5,0,0,1,12.158,17.7l1.6,3.681A1.5,1.5,0,0,1,12.38,23.47Z"/><path class="a" d="M17,6.419a.25.25,0,1,1-.25.25.25.25,0,0,1,.25-.25"/><path class="a" d="M21,1.885a6.36,6.36,0,0,0-8,0"/><path class="a" d="M14.667,4.3a3.711,3.711,0,0,1,4.666,0"/></svg>