<svg xmlns="http://www.w3.org/2000/svg" viewBox="0 0 24 24"><defs><style>.a{fill:none;stroke:#000;stroke-linecap:round;stroke-linejoin:round;}</style></defs><title>pin-monitor</title><path class="a" d="M11.931,20.5a3,3,0,0,0,1.191,2.614l.24.386"/><path class="a" d="M7.638,23.5l.24-.386A3,3,0,0,0,9.069,20.5"/><line class="a" x1="5.9" y1="23.5" x2="15.1" y2="23.5"/><line class="a" x1="0.5" y1="17.5" x2="20.5" y2="17.5"/><path class="a" d="M20.5,13.5v6a1,1,0,0,1-1,1H1.5a1,1,0,0,1-1-1V7.5a1,1,0,0,1,1-1h12"/><path class="a" d="M19.5.5a4,4,0,0,1,4,4c0,1.781-2.6,5.241-3.608,6.514a.5.5,0,0,1-.784,0C18.1,9.74,15.5,6.281,15.5,4.5A4,4,0,0,1,19.5.5Z"/><circle class="a" cx="19.5" cy="4.5" r="1.5"/></svg>