<svg xmlns="http://www.w3.org/2000/svg" viewBox="0 0 24 24"><defs><style>.a{fill:none;stroke:#000;stroke-linecap:round;stroke-miterlimit:10;}</style></defs><title>presentation-board-graph</title><rect class="a" x="0.5" y="0.5" width="23" height="15" rx="1" ry="1"/><line class="a" x1="11.5" y1="15.5" x2="11.5" y2="18.91"/><path class="a" d="M6.5,23.5l4.293-4.293a1,1,0,0,1,1.414,0L16.5,23.5"/><path class="a" d="M.5,8.5H6.17a.5.5,0,0,0,.46-.3L7.517,6.13a.5.5,0,0,1,.926.018l1.67,4.343a.5.5,0,0,0,.906.06l2.073-3.8a.5.5,0,0,1,.863-.026L15.507,9.21a.5.5,0,0,0,.88-.058L18.5,4.5"/></svg>