<?xml version="1.0" encoding="utf-8"?>
<!-- Generator: Adobe Illustrator 22.1.0, SVG Export Plug-In . SVG Version: 6.00 Build 0)  -->
<svg version="1.1" id="Layer_1" xmlns="http://www.w3.org/2000/svg" xmlns:xlink="http://www.w3.org/1999/xlink" x="0px" y="0px"
	 viewBox="0 0 24 24" style="enable-background:new 0 0 24 24;" xml:space="preserve">
<g>
	<title>analytics-graph-bar</title>
	<path d="M0.5,24C0.224,24,0,23.776,0,23.5S0.224,23,0.5,23H1v-4c0-0.552,0.449-1,1-1h2c0.551,0,1,0.448,1,1v4h2v-9
		c0-0.552,0.449-1,1-1h2c0.551,0,1,0.448,1,1v9h2v-7c0-0.552,0.448-1,1-1h2c0.552,0,1,0.448,1,1v7h2V9c0-0.551,0.448-1,1-1h2
		c0.552,0,1,0.449,1,1v14h0.5c0.276,0,0.5,0.224,0.5,0.5S23.776,24,23.5,24H0.5z M22,23V9h-2l0,14H22z M16,23v-7h-2l0,7H16z M10,23
		v-9H8l0,9H10z M4,23v-4H2l0,4H4z"/>
	<path d="M3,13.5c-1.103,0-2-0.897-2-2s0.897-2,2-2c0.42,0,0.827,0.133,1.166,0.378l3.028-2.524C7.067,7.087,7,6.796,7,6.5
		c0-1.103,0.897-2,2-2s2,0.897,2,2c0,0.045-0.002,0.091-0.005,0.137l2.328,0.776C13.691,6.845,14.315,6.5,15,6.5
		c0.306,0,0.606,0.071,0.879,0.206l3.31-3.861C19.065,2.58,19,2.291,19,2c0-1.103,0.897-2,2-2s2,0.897,2,2s-0.897,2-2,2
		c-0.42,0-0.824-0.132-1.163-0.375l-3.199,3.732C16.873,7.691,17,8.09,17,8.5c0,1.103-0.897,2-2,2s-2-0.897-2-2
		c0-0.046,0.002-0.092,0.005-0.139l-2.328-0.776C10.31,8.155,9.686,8.5,9,8.5c-0.42,0-0.826-0.133-1.166-0.378l-3.028,2.524
		C4.934,10.913,5,11.205,5,11.5C5,12.603,4.103,13.5,3,13.5z M3,10.5c-0.551,0-1,0.449-1,1s0.449,1,1,1s1-0.449,1-1
		S3.551,10.5,3,10.5z M15,7.5c-0.552,0-1,0.449-1,1s0.448,1,1,1s1-0.449,1-1S15.552,7.5,15,7.5z M9,5.5c-0.551,0-1,0.449-1,1
		s0.449,1,1,1s1-0.449,1-1S9.551,5.5,9,5.5z M21,1c-0.552,0-1,0.449-1,1s0.448,1,1,1s1-0.449,1-1S21.552,1,21,1z"/>
</g>
</svg>
