<?xml version="1.0" encoding="utf-8"?>
<!-- Generator: Adobe Illustrator 22.1.0, SVG Export Plug-In . SVG Version: 6.00 Build 0)  -->
<svg version="1.1" id="Layer_1" xmlns="http://www.w3.org/2000/svg" xmlns:xlink="http://www.w3.org/1999/xlink" x="0px" y="0px"
	 viewBox="0 0 24 24" style="enable-background:new 0 0 24 24;" xml:space="preserve">
<g>
	<title>baby-trolley</title>
	<path d="M17.5,20.5c-2.786-0.007-5.136-2.098-5.467-4.864c-0.005-0.035-0.008-0.08-0.008-0.125
		c-0.002-0.266,0.101-0.52,0.291-0.711c0.189-0.192,0.442-0.298,0.711-0.3H18v-3.97c0-0.023,0-0.05,0.002-0.076
		c0.037-0.521,0.472-0.926,0.992-0.926c0.022,0,0.044,0.001,0.066,0.002c3.014,0.327,5.212,3.033,4.911,6.034
		c-0.371,2.818-2.784,4.938-5.614,4.938L17.5,20.5z M13.027,15.502c0.27,2.278,2.193,3.992,4.474,3.998l0.83,0
		c2.345,0,4.343-1.742,4.647-4.053c0.244-2.435-1.538-4.639-3.978-4.919c0,0,0,4.472,0,4.472c0,0.276-0.224,0.5-0.5,0.5h-5.469
		C13.031,15.5,13.029,15.5,13.027,15.502z M19,10.523C19,10.523,19,10.523,19,10.523z"/>
	<path d="M14.5,24c-0.827,0-1.5-0.673-1.5-1.5s0.673-1.5,1.5-1.5s1.5,0.673,1.5,1.5S15.327,24,14.5,24z M14.5,22
		c-0.276,0-0.5,0.224-0.5,0.5s0.224,0.5,0.5,0.5s0.5-0.224,0.5-0.5S14.775,22,14.5,22z"/>
	<path d="M21.5,24c-0.827,0-1.5-0.673-1.5-1.5s0.673-1.5,1.5-1.5s1.5,0.673,1.5,1.5S22.327,24,21.5,24z M21.5,22
		c-0.276,0-0.5,0.224-0.5,0.5s0.224,0.5,0.5,0.5s0.5-0.224,0.5-0.5S21.775,22,21.5,22z"/>
	<path d="M10.5,8.5c-0.146,0-0.284-0.064-0.38-0.174C9.656,7.784,9.325,7.149,9.149,6.462C8.396,7.424,7.238,8,6,8
		C4.761,8,3.603,7.423,2.851,6.462C2.674,7.149,2.344,7.785,1.879,8.326C1.784,8.436,1.646,8.5,1.5,8.5
		c-0.12,0-0.235-0.043-0.326-0.121C0.965,8.2,0.941,7.883,1.12,7.674C1.67,7.034,1.983,6.216,2,5.372V4c0-2.206,1.794-4,4-4
		s4,1.794,4,4v1.382c0.017,0.836,0.329,1.652,0.879,2.292c0.18,0.209,0.156,0.525-0.054,0.705C10.735,8.457,10.619,8.5,10.5,8.5z
		 M3.192,5.047C3.626,6.21,4.742,7,6,7s2.374-0.79,2.807-1.953C7.753,4.904,6.773,4.441,6,3.719
		C5.226,4.441,4.246,4.904,3.192,5.047z M6,2.5c0.145,0,0.283,0.063,0.378,0.173C7.042,3.44,7.987,3.938,8.999,4.063
		C9,4.042,9,4.021,9,4c0-1.654-1.346-3-3-3S3,2.346,3,4c0,0.021,0,0.042,0.001,0.063C4.013,3.938,4.957,3.44,5.622,2.673
		C5.717,2.563,5.855,2.5,6,2.5z"/>
	<path d="M4.5,24c-0.238,0-0.444-0.169-0.49-0.402L3.09,19H0.5c-0.155,0-0.303-0.073-0.398-0.197
		c-0.094-0.124-0.126-0.286-0.085-0.436l1.81-6.582c0.248-1.032,0.87-1.933,1.753-2.533c0.006-0.007,0.025-0.025,0.051-0.041
		c0.012-0.008,0.028-0.016,0.044-0.022C4.067,8.934,4.52,8.74,5.001,8.624c0.333-0.08,0.673-0.12,1.011-0.12
		c0.787,0,1.561,0.22,2.239,0.635c0.023,0.014,0.044,0.029,0.066,0.044L8.33,9.192c0.014,0.006,0.028,0.013,0.038,0.019
		C8.392,9.227,8.41,9.243,8.422,9.255c0.887,0.603,1.512,1.505,1.763,2.542l1.797,6.571c0.041,0.149,0.009,0.312-0.085,0.435
		S11.655,19,11.5,19H8.91l-0.92,4.598C7.944,23.831,7.737,24,7.5,24H4.5z M7.09,23l0.92-4.598C8.056,18.169,8.262,18,8.5,18h2.345
		l-1.627-5.95c-0.16-0.664-0.497-1.236-0.985-1.679l-1.809,2.894C6.331,13.412,6.173,13.5,6,13.5s-0.332-0.088-0.424-0.235
		l-1.806-2.89c-0.478,0.441-0.82,1.021-0.974,1.659L1.156,18H3.5c0.238,0,0.444,0.169,0.49,0.402L4.91,23H7.09z M6,12.057
		l1.399-2.239C6.961,9.612,6.484,9.504,6.005,9.504c-0.258,0-0.517,0.031-0.77,0.092C5.016,9.649,4.804,9.723,4.601,9.818L6,12.057z
		"/>
</g>
</svg>
