<?xml version="1.0" encoding="utf-8"?>
<!-- Generator: Adobe Illustrator 22.1.0, SVG Export Plug-In . SVG Version: 6.00 Build 0)  -->
<svg version="1.1" id="Layer_1" xmlns="http://www.w3.org/2000/svg" xmlns:xlink="http://www.w3.org/1999/xlink" x="0px" y="0px"
	 viewBox="0 0 24 24" style="enable-background:new 0 0 24 24;" xml:space="preserve">
<g>
	<title>beach-parasol-water-1</title>
	<path d="M11.51,19.495c-0.153,0-0.295-0.068-0.391-0.188c-0.083-0.104-0.121-0.235-0.107-0.367c0.015-0.133,0.08-0.252,0.185-0.335
		c1.581-1.267,3.544-2.006,5.563-2.103l-2.856-7.207l-3.991,1.584c-0.119,0.047-0.243,0.071-0.369,0.071
		c-0.137,0-0.271-0.028-0.397-0.083l-0.649-0.281l-0.281,0.65c-0.107,0.246-0.302,0.435-0.55,0.533l-1.666,0.657
		c-0.122,0.047-0.243,0.07-0.367,0.07c-0.414,0-0.779-0.248-0.931-0.633l-0.184-0.465c-1.385-3.494,1.199-7.305,6.44-9.535
		L10.771,1.39c-0.102-0.256,0.024-0.547,0.28-0.649c0.06-0.024,0.121-0.035,0.184-0.035c0.206,0,0.389,0.124,0.465,0.316
		l0.188,0.473c1.783-0.653,3.551-0.998,5.13-0.998c0.517,0,1.015,0.037,1.48,0.111c2.273,0.358,3.868,1.54,4.612,3.417l0.185,0.464
		c0.203,0.513-0.049,1.096-0.561,1.299l-1.667,0.661c-0.117,0.048-0.244,0.074-0.374,0.074c-0.132,0-0.26-0.026-0.383-0.076
		l-0.655-0.284l-0.28,0.649c-0.105,0.242-0.305,0.436-0.551,0.533l-3.99,1.584l3,7.569H23.5c0.276,0,0.5,0.224,0.5,0.5
		s-0.224,0.5-0.5,0.5h-5.878c-0.041,0.011-0.082,0.016-0.122,0.016c-0.042,0-0.083-0.006-0.126-0.018
		c-0.049-0.001-0.098-0.001-0.147-0.001c-1.961,0-3.88,0.672-5.405,1.893C11.734,19.456,11.623,19.495,11.51,19.495z M17.011,1.496
		c-1.593,0-3.398,0.382-5.222,1.105c-4.165,1.651-7.74,4.897-6.34,8.429l0.184,0.465L7.3,10.838L7.779,9.73
		c0.052-0.121,0.152-0.218,0.275-0.267C8.113,9.44,8.175,9.428,8.238,9.428c0.069,0,0.136,0.014,0.199,0.042l1.107,0.48l4.431-1.759
		c0.008-0.004,0.016-0.008,0.023-0.011c0.009-0.003,0.018-0.006,0.027-0.009l4.429-1.758l0.48-1.108
		c0.053-0.123,0.151-0.217,0.275-0.266c0.059-0.023,0.121-0.035,0.184-0.035c0.069,0,0.136,0.014,0.199,0.041l1.106,0.48
		l1.666-0.667L22.18,4.393c-0.606-1.53-1.934-2.497-3.838-2.798C17.925,1.529,17.477,1.496,17.011,1.496z"/>
	<path d="M23.47,23.51c-0.769-0.026-1.489-0.408-1.953-1.023c-0.467,0.64-1.208,1.024-2.018,1.024c-0.797,0-1.532-0.375-2-1
		c-0.468,0.625-1.203,1-2,1c-0.81,0-1.551-0.384-2.018-1.024c-0.464,0.615-1.186,0.997-1.965,1.024
		c-0.814-0.027-1.551-0.419-2.016-1.048c-0.463,0.629-1.192,1.022-1.984,1.048c-0.814-0.027-1.551-0.419-2.016-1.048
		c-0.463,0.629-1.192,1.022-1.984,1.048c-0.827-0.027-1.569-0.428-2.034-1.072c-0.197,0.262-0.441,0.485-0.722,0.657
		c-0.078,0.048-0.169,0.074-0.261,0.074c-0.176,0-0.335-0.09-0.427-0.24c-0.07-0.114-0.091-0.248-0.059-0.378
		c0.031-0.13,0.111-0.24,0.225-0.31c0.444-0.272,0.729-0.744,0.762-1.263c0.017-0.261,0.237-0.466,0.501-0.468
		c0.273,0.004,0.489,0.216,0.498,0.483c0.028,0.823,0.694,1.49,1.517,1.518C4.313,22.483,4.972,21.816,5,20.994
		c0.009-0.271,0.229-0.483,0.5-0.483s0.491,0.212,0.5,0.483c0.028,0.823,0.694,1.489,1.517,1.517
		C8.313,22.483,8.972,21.816,9,20.994c0.009-0.271,0.229-0.483,0.5-0.483s0.491,0.212,0.5,0.483
		c0.028,0.823,0.694,1.489,1.517,1.517c0.797-0.028,1.456-0.695,1.484-1.517c0.008-0.263,0.226-0.475,0.496-0.483
		C13.779,20.516,14,20.74,14,21.011c0,0.827,0.673,1.5,1.5,1.5s1.5-0.673,1.5-1.5c0-0.276,0.224-0.5,0.5-0.5s0.5,0.224,0.5,0.5
		c0,0.827,0.673,1.5,1.5,1.5s1.5-0.673,1.5-1.5c0-0.271,0.22-0.495,0.491-0.5c0.28,0,0.499,0.212,0.508,0.484
		c0.028,0.822,0.694,1.489,1.518,1.517c0.134,0.004,0.257,0.061,0.348,0.158c0.091,0.098,0.139,0.225,0.134,0.358
		c-0.009,0.27-0.228,0.483-0.499,0.483C23.493,23.511,23.477,23.51,23.47,23.51z"/>
</g>
</svg>
