<?xml version="1.0" encoding="utf-8"?>
<!-- Generator: Adobe Illustrator 22.1.0, SVG Export Plug-In . SVG Version: 6.00 Build 0)  -->
<svg version="1.1" id="Layer_1" xmlns="http://www.w3.org/2000/svg" xmlns:xlink="http://www.w3.org/1999/xlink" x="0px" y="0px"
	 viewBox="0 0 24 24" style="enable-background:new 0 0 24 24;" xml:space="preserve">
<g>
	<title>biking-person</title>
	<path d="M15.5,6.75c-1.654,0-3-1.346-3-3s1.346-3,3-3s3,1.346,3,3S17.154,6.75,15.5,6.75z M15.5,1.75c-1.103,0-2,0.897-2,2
		s0.897,2,2,2s2-0.897,2-2S16.603,1.75,15.5,1.75z"/>
	<path d="M11.997,21.5c-0.146,0-0.291-0.016-0.433-0.048c-1.075-0.239-1.756-1.309-1.517-2.385c0.418-1.916-0.364-3.864-1.992-4.961
		l-0.662-0.441c-0.918-0.61-1.169-1.854-0.559-2.772c0.047-0.072,0.101-0.142,0.159-0.208l3.501-4.001
		c0.379-0.433,0.928-0.682,1.506-0.682c0.485,0,0.952,0.176,1.316,0.494c0.089,0.078,0.172,0.164,0.245,0.256
		C14.447,7.863,15.768,8.5,17.188,8.5H17.5c1.103,0,2,0.897,2,2s-0.897,2-2,2h-0.3c-1.816,0-3.597-0.576-5.057-1.627l-0.72,0.824
		c2.214,2.105,3.182,5.237,2.53,8.235C13.747,20.854,12.945,21.499,12,21.5H11.997z M11.933,7.002
		c-0.266,0.018-0.51,0.138-0.686,0.339l-3.5,4c-0.028,0.032-0.055,0.067-0.079,0.104c-0.147,0.222-0.2,0.489-0.147,0.751
		c0.053,0.262,0.204,0.488,0.426,0.635l0.665,0.443c1.971,1.329,2.917,3.686,2.411,6.007c-0.12,0.54,0.221,1.075,0.759,1.194
		c0.071,0.016,0.143,0.024,0.214,0.024c0.475,0,0.876-0.323,0.978-0.783c0.614-2.819-0.374-5.73-2.577-7.596
		c-0.102-0.086-0.165-0.212-0.175-0.344c-0.01-0.133,0.035-0.266,0.122-0.366l1.353-1.547c0.095-0.109,0.232-0.171,0.377-0.171
		c0.114,0,0.226,0.039,0.314,0.111c1.352,1.094,3.052,1.697,4.787,1.697H17.5c0.552,0,1-0.449,1-1s-0.448-1-1-1h-0.3
		c-1.739,0-3.345-0.775-4.42-2.126c-0.036-0.045-0.077-0.088-0.121-0.126C12.476,7.088,12.242,7,12.001,7
		C11.979,7,11.956,7.001,11.933,7.002z"/>
	<path d="M4.5,23.25c-2.481,0-4.5-2.019-4.5-4.5s2.019-4.5,4.5-4.5S9,16.269,9,18.75S6.981,23.25,4.5,23.25z M4.5,15.25
		c-1.93,0-3.5,1.57-3.5,3.5s1.57,3.5,3.5,3.5S8,20.68,8,18.75S6.43,15.25,4.5,15.25z"/>
	<path d="M19.5,23.25c-2.481,0-4.5-2.019-4.5-4.5s2.019-4.5,4.5-4.5s4.5,2.019,4.5,4.5S21.981,23.25,19.5,23.25z M19.5,15.25
		c-1.93,0-3.5,1.57-3.5,3.5s1.57,3.5,3.5,3.5s3.5-1.57,3.5-3.5S21.43,15.25,19.5,15.25z"/>
</g>
</svg>
