<?xml version="1.0" encoding="utf-8"?>
<!-- Generator: Adobe Illustrator 22.1.0, SVG Export Plug-In . SVG Version: 6.00 Build 0)  -->
<svg version="1.1" id="Layer_1" xmlns="http://www.w3.org/2000/svg" xmlns:xlink="http://www.w3.org/1999/xlink" x="0px" y="0px"
	 viewBox="0 0 24 24" style="enable-background:new 0 0 24 24;" xml:space="preserve">
<g>
	<title>binocular</title>
	<path d="M18.5,23.036c-3.033,0-5.5-2.467-5.5-5.5v-8.93c-0.331-0.047-0.666-0.07-1-0.07s-0.669,0.024-1,0.07v8.93
		c0,3.033-2.467,5.5-5.5,5.5S0,20.569,0,17.536c0-1.161,0.364-2.275,1.052-3.222l2.988-6.975C4.065,7.28,4.101,7.228,4.146,7.182
		L5.57,5.759L7.032,1.86c0.029-0.078,0.077-0.147,0.139-0.201C7.676,1.219,8.325,0.976,9,0.976s1.324,0.242,1.829,0.683
		C10.938,1.754,11,1.892,11,2.036v4c0,0.276-0.224,0.5-0.5,0.5S10,6.312,10,6.036V2.281C9.708,2.083,9.357,1.976,9,1.976
		c-0.391,0-0.772,0.128-1.079,0.362L6.468,6.211C6.443,6.279,6.404,6.339,6.354,6.389L4.922,7.821L2.813,12.74
		c0.818-0.463,1.732-0.705,2.687-0.705c1.799,0,3.48,0.899,4.5,2.351v-5.56c-0.909,0.289-1.5,0.757-1.5,1.209
		c0,0.276-0.224,0.5-0.5,0.5s-0.5-0.224-0.5-0.5c0-1.425,1.935-2.5,4.5-2.5s4.5,1.075,4.5,2.5c0,0.276-0.224,0.5-0.5,0.5
		s-0.5-0.224-0.5-0.5c0-0.452-0.591-0.92-1.5-1.209v5.56c1.02-1.452,2.701-2.351,4.5-2.351c0.954,0,1.869,0.241,2.687,0.705
		l-2.108-4.919l-1.432-1.432c-0.05-0.05-0.089-0.111-0.114-0.176L16.08,2.401C15.772,2.167,15.391,2.039,15,2.039
		c-0.357,0-0.708,0.108-1,0.305v3.692c0,0.276-0.224,0.5-0.5,0.5S13,6.312,13,6.036V2.099c0-0.144,0.062-0.282,0.171-0.377
		c0.504-0.44,1.154-0.683,1.829-0.683s1.324,0.242,1.829,0.683c0.061,0.053,0.109,0.122,0.139,0.198l1.462,3.837l1.424,1.424
		c0.045,0.045,0.081,0.098,0.106,0.157l2.99,6.977c0.687,0.947,1.05,2.059,1.05,3.219C24,20.569,21.533,23.036,18.5,23.036z
		 M18.5,13.036c-2.481,0-4.5,2.019-4.5,4.5s2.019,4.5,4.5,4.5s4.5-2.019,4.5-4.5S20.981,13.036,18.5,13.036z M5.5,13.036
		c-2.481,0-4.5,2.019-4.5,4.5s2.019,4.5,4.5,4.5s4.5-2.019,4.5-4.5S7.981,13.036,5.5,13.036z"/>
</g>
</svg>
