<?xml version="1.0" encoding="utf-8"?>
<!-- Generator: Adobe Illustrator 22.1.0, SVG Export Plug-In . SVG Version: 6.00 Build 0)  -->
<svg version="1.1" id="Layer_1" xmlns="http://www.w3.org/2000/svg" xmlns:xlink="http://www.w3.org/1999/xlink" x="0px" y="0px"
	 viewBox="0 0 24 24" style="enable-background:new 0 0 24 24;" xml:space="preserve">
<g>
	<title>bomb-grenade</title>
	<path d="M8.709,24c-0.299,0-0.578-0.131-0.769-0.36c-1.055-1.268-1.909-2.571-2.54-3.873c-0.022-0.034-0.039-0.07-0.052-0.107
		C3.581,15.943,3.6,12.134,5.404,8.34c0.012-0.036,0.029-0.07,0.049-0.103c0.624-1.289,1.459-2.589,2.481-3.863
		C8.125,4.136,8.41,4,8.714,4h0.262V2H6.06C4.346,3.324,2.668,5.959,1.77,8.745c-0.805,2.498-1.404,6.281,0.315,10.114
		c0.055,0.122,0.059,0.258,0.011,0.383s-0.141,0.224-0.263,0.278c-0.065,0.029-0.134,0.044-0.204,0.044
		c-0.197,0-0.376-0.116-0.456-0.295C-2.183,11.787,2.201,3.586,5.598,1.097C5.684,1.033,5.786,1,5.893,1h12.139
		c0.659-0.646,1.523-1,2.444-1c1.93,0,3.5,1.57,3.5,3.5s-1.57,3.5-3.5,3.5s-3.5-1.57-3.5-3.5c0-0.521,0.117-1.032,0.341-1.5h-3.341
		v2h0.263c0.304,0,0.587,0.135,0.778,0.37c1.036,1.276,1.882,2.579,2.514,3.871c0.019,0.03,0.033,0.061,0.045,0.093
		c1.827,3.796,1.845,7.608,0.054,11.33c-0.012,0.035-0.028,0.067-0.049,0.099c-0.639,1.304-1.503,2.609-2.571,3.879
		C14.822,23.87,14.542,24,14.246,24H8.709z M6.63,20c0.551,0.995,1.249,2.002,2.079,3l5.537,0c0.83-0.989,1.531-1.996,2.088-3H6.63z
		 M16.841,19c0.752-1.634,1.134-3.284,1.135-4.907c0.002-1.665-0.399-3.378-1.191-5.093H6.182c-1.57,3.4-1.589,6.674-0.058,10
		H16.841z M16.281,8c-0.55-1-1.235-2.008-2.041-3L8.714,5C7.912,6,7.231,7.007,6.686,8H16.281z M20.477,1
		c-1.378,0-2.5,1.121-2.5,2.5s1.122,2.5,2.5,2.5s2.5-1.121,2.5-2.5S21.855,1,20.477,1z M12.977,4V2h-3v2H12.977z"/>
</g>
</svg>
