<?xml version="1.0" encoding="utf-8"?>
<!-- Generator: Adobe Illustrator 22.1.0, SVG Export Plug-In . SVG Version: 6.00 Build 0)  -->
<svg version="1.1" id="Layer_1" xmlns="http://www.w3.org/2000/svg" xmlns:xlink="http://www.w3.org/1999/xlink" x="0px" y="0px"
	 viewBox="0 0 24 24" style="enable-background:new 0 0 24 24;" xml:space="preserve">
<title>building-modern-1</title>
<g>
	<path d="M6,11.434c-0.197,0-0.389,0.058-0.554,0.168l-5,3.333C0.167,15.122,0,15.433,0,15.768V23c0,0.552,0.449,1,1,1h5
		c0.551,0,1-0.448,1-1V12.434C7,11.883,6.551,11.434,6,11.434z M6,23H5v-6c0-0.276-0.224-0.5-0.5-0.5S4,16.724,4,17v6H3v-6
		c0-0.276-0.224-0.5-0.5-0.5S2,16.724,2,17v6H1l0-7.232l5-3.333V23z M6,12.434L6,12.434h0.5H6z"/>
	<path d="M23.961,13.308c-0.025-0.061-0.062-0.116-0.108-0.162l-2.147-2.148c-0.392-0.389-1.025-0.386-1.413,0.002l-2.146,2.145
		c-0.046,0.046-0.083,0.101-0.108,0.162C18.014,13.368,18,13.433,18,13.5V23c0,0.552,0.448,1,1,1h4c0.552,0,1-0.448,1-1v-9.5
		C24,13.433,23.986,13.368,23.961,13.308z M23,14v1h-4v-1H23z M19,17v-1h4v1H19z M23,18v1h-4v-1H23z M19,20h4v1h-4V20z M21,11.708
		L22.293,13h-2.586L21,11.708z M19,23v-1h4v1H19z"/>
	<path d="M16.782,7.112C16.755,7.076,16.74,7.033,16.707,7L13,3.293V0.5C13,0.224,12.776,0,12.5,0S12,0.224,12,0.5v2.793
		L8.292,7.001C8.104,7.19,8,7.441,8,7.707V23c0,0.317,0.158,0.588,0.389,0.771c0.034,0.029,0.066,0.053,0.106,0.071
		C8.645,23.934,8.812,24,9,24h7c0.552,0,1-0.448,1-1V7.707c0-0.143-0.035-0.28-0.092-0.407C16.88,7.228,16.838,7.164,16.782,7.112z
		 M9,22.691l0-6.382l6.382,3.191L9,22.691z M12.5,4.207l2.769,2.769l-5.54,0.001L12.5,4.207z M16,10.683l-5.298-2.706L16,7.976
		V10.683z M15.392,11.495L9,14.691l0-6.46L15.392,11.495z M9.618,15.5L16,12.309v6.382L9.618,15.5z M10.619,23L16,20.309V23H10.619z
		"/>
</g>
</svg>
