<?xml version="1.0" encoding="utf-8"?>
<!-- Generator: Adobe Illustrator 22.1.0, SVG Export Plug-In . SVG Version: 6.00 Build 0)  -->
<svg version="1.1" id="Layer_1" xmlns="http://www.w3.org/2000/svg" xmlns:xlink="http://www.w3.org/1999/xlink" x="0px" y="0px"
	 viewBox="0 0 24 24" style="enable-background:new 0 0 24 24;" xml:space="preserve">
<title>coffee-cold</title>
<path d="M20.5,10h-2.025c-0.201-2.627-1.968-4.818-4.37-5.643l0.62-2.957c0.026-0.131,0.103-0.243,0.214-0.317
	c0.111-0.073,0.25-0.097,0.375-0.072c0.043,0.009,0.084,0.023,0.123,0.042l3.84,1.919c0.248,0.123,0.548,0.024,0.671-0.224
	c0.123-0.247,0.023-0.547-0.224-0.671l-3.842-1.92C15.764,0.1,15.64,0.057,15.515,0.031c-0.391-0.08-0.792-0.003-1.127,0.217
	s-0.563,0.559-0.643,0.949l-0.61,2.909C12.766,4.04,12.388,4,12,4c-3.415,0-6.218,2.649-6.475,6H3.5C3.224,10,3,10.224,3,10.5
	S3.224,11,3.5,11h2.071l1.87,12.152C7.517,23.644,7.932,24,8.429,24h7.142c0.496,0,0.911-0.356,0.988-0.848L18.429,11H20.5
	c0.276,0,0.5-0.224,0.5-0.5S20.776,10,20.5,10z M16.802,15h-4.929l0.839-4h4.705L16.802,15z M6.583,11h5.107l-0.838,4H7.198
	L6.583,11z M17.478,10h-4.556l0.975-4.651C15.846,6.069,17.284,7.853,17.478,10z M12,5c0.318,0,0.626,0.037,0.929,0.089L11.9,10
	H6.522C6.776,7.201,9.136,5,12,5z M15.571,23H8.429l-1.077-7h3.29l-1.131,5.397c-0.057,0.271,0.116,0.535,0.387,0.592
	C9.932,21.997,9.966,22,10,22c0.231,0,0.439-0.162,0.489-0.397L11.664,16h4.984L15.571,23z"/>
</svg>
