<?xml version="1.0" encoding="utf-8"?>
<!-- Generator: Adobe Illustrator 22.1.0, SVG Export Plug-In . SVG Version: 6.00 Build 0)  -->
<svg version="1.1" id="Light" xmlns="http://www.w3.org/2000/svg" xmlns:xlink="http://www.w3.org/1999/xlink" x="0px" y="0px"
	 viewBox="0 0 24 24" style="enable-background:new 0 0 24 24;" xml:space="preserve">
<g>
	<title>coffee-machine</title>
	<path d="M1.5,24C0.673,24,0,23.327,0,22.5v-2C0,19.673,0.673,19,1.5,19H2V7H1.5C0.673,7,0,6.327,0,5.5v-4C0,0.673,0.673,0,1.5,0h21
		C23.327,0,24,0.673,24,1.5v4C24,6.327,23.327,7,22.5,7H22v1.5C22,8.776,21.776,9,21.5,9S21,8.776,21,8.5V7h-3
		c-0.941,0-1.198,0.513-1.553,1.224C16.1,8.919,15.672,9.772,14.5,9.962V11H18c0-0.551,0.448-1,1-1h3.5c0.827,0,1.5,0.673,1.5,1.5
		S23.327,13,22.5,13H19c-0.552,0-1-0.448-1-1h-3.5c0,0.552-0.448,1-1,1h-1v0.5c0,0.276-0.224,0.5-0.5,0.5
		c-0.276,0-0.5-0.224-0.5-0.5V13h-1c-0.551,0-1-0.448-1-1V9.962C8.327,9.772,7.9,8.918,7.553,8.224C7.198,7.513,6.941,7,6,7H3v12
		h6.362C8.507,18.247,8,17.155,8,16v-0.5C8,15.224,8.224,15,8.5,15h8.25c0.965,0,1.75,0.785,1.75,1.75s-0.785,1.75-1.75,1.75
		c-0.276,0-0.5-0.224-0.5-0.5s0.224-0.5,0.5-0.5c0.414,0,0.75-0.336,0.75-0.75S17.164,16,16.75,16H16c0,1.155-0.508,2.247-1.362,3
		H21v-4.5c0-0.276,0.224-0.5,0.5-0.5s0.5,0.224,0.5,0.5V19h0.5c0.827,0,1.5,0.673,1.5,1.5v2c0,0.827-0.673,1.5-1.5,1.5H1.5z M1.5,20
		C1.224,20,1,20.224,1,20.5v2C1,22.776,1.224,23,1.5,23h21c0.276,0,0.5-0.224,0.5-0.5v-2c0-0.276-0.224-0.5-0.5-0.5H1.5z M9,16
		c0,1.654,1.346,3,3,3c1.654,0,3-1.346,3-3H9z M19,12h3.5c0.276,0,0.5-0.224,0.5-0.5S22.776,11,22.5,11H19L19,12z M10.5,12h3v-2h-3
		V12z M1.5,1C1.224,1,1,1.224,1,1.5v4C1,5.776,1.224,6,1.5,6H6c1.559,0,2.052,0.985,2.447,1.776C8.802,8.487,9.059,9,10,9h4
		c0.941,0,1.198-0.513,1.553-1.224C15.949,6.985,16.441,6,18,6h4.5C22.776,6,23,5.776,23,5.5v-4C23,1.224,22.776,1,22.5,1H1.5z"/>
	<path d="M12,7.5c-1.103,0-2-0.897-2-2s0.897-2,2-2s2,0.897,2,2S13.103,7.5,12,7.5z M12,4.5c-0.551,0-1,0.449-1,1s0.449,1,1,1
		c0.552,0,1-0.449,1-1S12.552,4.5,12,4.5z"/>
	<path d="M4.5,5C3.673,5,3,4.327,3,3.5S3.673,2,4.5,2S6,2.673,6,3.5S5.327,5,4.5,5z M4.5,3C4.224,3,4,3.224,4,3.5S4.224,4,4.5,4
		S5,3.776,5,3.5S4.776,3,4.5,3z"/>
	<circle cx="17.75" cy="3.25" r="0.75"/>
	<circle cx="20.25" cy="3.25" r="0.75"/>
</g>
</svg>
