<?xml version="1.0" encoding="utf-8"?>
<!-- Generator: Adobe Illustrator 22.1.0, SVG Export Plug-In . SVG Version: 6.00 Build 0)  -->
<svg version="1.1" id="Layer_1" xmlns="http://www.w3.org/2000/svg" xmlns:xlink="http://www.w3.org/1999/xlink" x="0px" y="0px"
	 viewBox="0 0 24 24" style="enable-background:new 0 0 24 24;" xml:space="preserve">
<g>
	<title>cog</title>
	<path d="M11.5,24c-0.827,0-1.5-0.673-1.5-1.5v-1.844c-0.798-0.189-1.578-0.458-2.323-0.802l-1.339,1.339
		c-0.283,0.283-0.66,0.439-1.061,0.439c-0.401,0-0.778-0.156-1.06-0.439l-1.415-1.414c-0.584-0.585-0.585-1.536,0-2.121l1.34-1.34
		C3.8,15.574,3.532,14.796,3.344,14H1.5C0.673,14,0,13.327,0,12.5v-1C0,10.673,0.673,10,1.5,10h1.848
		c0.188-0.797,0.457-1.574,0.799-2.318l-1.34-1.339c-0.585-0.585-0.585-1.536,0-2.121l1.415-1.415
		c0.283-0.283,0.66-0.439,1.061-0.439S6.06,2.525,6.343,2.807l1.339,1.337C8.425,3.802,9.203,3.534,10,3.346V1.5
		C10,0.673,10.673,0,11.5,0h1C13.327,0,14,0.673,14,1.5v1.848c0.797,0.188,1.574,0.456,2.317,0.799l1.34-1.339
		c0.283-0.283,0.66-0.438,1.061-0.438c0.401,0,0.778,0.156,1.061,0.438l1.415,1.415c0.584,0.585,0.584,1.536,0,2.121l-1.336,1.338
		c0.342,0.743,0.61,1.521,0.799,2.319H22.5c0.827,0,1.5,0.673,1.5,1.5v1c0,0.827-0.673,1.5-1.5,1.5h-1.844
		c-0.189,0.798-0.458,1.577-0.802,2.322l1.339,1.339c0.283,0.283,0.439,0.66,0.439,1.061c0,0.401-0.156,0.778-0.439,1.06
		l-1.414,1.414c-0.283,0.283-0.659,0.439-1.061,0.439s-0.778-0.156-1.061-0.439l-1.341-1.339C15.573,20.2,14.796,20.468,14,20.656
		V22.5c0,0.827-0.673,1.5-1.5,1.5H11.5z M7.574,18.75c0.077,0,0.154,0.018,0.223,0.052c0.887,0.442,1.83,0.765,2.802,0.961
		C10.831,19.811,11,20.017,11,20.254V22.5c0,0.276,0.224,0.5,0.5,0.5h1c0.276,0,0.5-0.224,0.5-0.5v-2.246
		c0-0.237,0.169-0.444,0.401-0.49c0.969-0.195,1.909-0.517,2.796-0.958c0.069-0.034,0.146-0.052,0.223-0.052
		c0.133,0,0.259,0.052,0.353,0.146l1.591,1.589c0.094,0.094,0.22,0.146,0.354,0.146s0.259-0.052,0.354-0.146l1.414-1.414
		c0.195-0.195,0.195-0.512,0-0.707l-1.589-1.59c-0.152-0.152-0.19-0.384-0.094-0.576c0.442-0.886,0.765-1.829,0.961-2.802
		C19.811,13.168,20.017,13,20.254,13H22.5c0.276,0,0.5-0.224,0.5-0.5v-1c0-0.276-0.224-0.5-0.5-0.5h-2.247
		c-0.237,0-0.444-0.169-0.49-0.401c-0.195-0.97-0.517-1.911-0.958-2.798c-0.096-0.192-0.058-0.424,0.094-0.576l1.586-1.588
		c0.195-0.195,0.195-0.512,0-0.707l-1.415-1.415c-0.094-0.094-0.22-0.146-0.354-0.146s-0.259,0.052-0.354,0.146l-1.59,1.589
		c-0.094,0.094-0.22,0.146-0.354,0.146c-0.077,0-0.154-0.018-0.223-0.053c-0.884-0.44-1.825-0.762-2.795-0.957
		C13.169,4.193,13,3.987,13,3.75V1.5C13,1.224,12.776,1,12.5,1h-1C11.224,1,11,1.224,11,1.5v2.248c0,0.237-0.169,0.443-0.402,0.49
		c-0.97,0.195-1.911,0.517-2.797,0.958C7.733,5.23,7.656,5.248,7.579,5.248c-0.133,0-0.259-0.052-0.353-0.147l-1.59-1.587
		c-0.094-0.094-0.22-0.146-0.354-0.146S5.023,3.42,4.928,3.515L3.514,4.93c-0.195,0.195-0.195,0.512,0,0.707l1.59,1.589
		c0.152,0.152,0.19,0.384,0.094,0.576c-0.44,0.886-0.762,1.827-0.958,2.797C4.193,10.831,3.987,11,3.75,11H1.5
		C1.224,11,1,11.224,1,11.5v1C1,12.776,1.224,13,1.5,13h2.246c0.237,0,0.443,0.169,0.49,0.401c0.196,0.97,0.518,1.911,0.958,2.798
		c0.096,0.192,0.058,0.424-0.094,0.576l-1.59,1.59c-0.195,0.195-0.195,0.512,0,0.707l1.415,1.414
		c0.094,0.094,0.22,0.146,0.353,0.146c0.134,0,0.259-0.052,0.354-0.146l1.589-1.589C7.315,18.802,7.44,18.75,7.574,18.75z"/>
	<path d="M12,17c-2.757,0-5-2.243-5-5c0-2.757,2.243-5,5-5c2.757,0,5,2.243,5,5C17,14.757,14.757,17,12,17z M12,8
		c-2.206,0-4,1.794-4,4s1.794,4,4,4s4-1.794,4-4S14.206,8,12,8z"/>
</g>
</svg>
