<?xml version="1.0" encoding="utf-8"?>
<!-- Generator: Adobe Illustrator 22.1.0, SVG Export Plug-In . SVG Version: 6.00 Build 0)  -->
<svg version="1.1" id="Layer_1" xmlns="http://www.w3.org/2000/svg" xmlns:xlink="http://www.w3.org/1999/xlink" x="0px" y="0px"
	 viewBox="0 0 24 24" style="enable-background:new 0 0 24 24;" xml:space="preserve">
<g>
	<title>couple-man-woman</title>
	<path d="M12,11.222c-0.26,0-0.507-0.099-0.694-0.279c-0.001-0.001-4.78-4.959-4.78-4.959c-1.07-1.062-1.334-2.69-0.654-4.045
		c0.427-0.844,1.156-1.47,2.054-1.764c0.359-0.118,0.73-0.177,1.104-0.177c0.556,0,1.092,0.129,1.594,0.383
		c0.33,0.167,0.631,0.384,0.894,0.645L12,1.506l0.482-0.48c0.666-0.661,1.551-1.026,2.491-1.026c0.95,0,1.841,0.37,2.509,1.043
		c0.261,0.263,0.478,0.564,0.645,0.893c0.681,1.357,0.416,2.986-0.66,4.055l-4.747,4.925C12.53,11.114,12.274,11.222,12,11.222z
		 M9.031,0.999c-0.964,0-1.832,0.532-2.266,1.389C6.28,3.355,6.47,4.518,7.238,5.282L12,10.223l4.754-4.933
		c0.775-0.77,0.966-1.935,0.48-2.903c-0.119-0.235-0.275-0.451-0.462-0.639C16.294,1.266,15.655,1,14.974,1
		c-0.675,0-1.309,0.261-1.786,0.735l-0.835,0.831C12.258,2.66,12.133,2.712,12,2.712s-0.258-0.052-0.353-0.145l-0.835-0.831
		c-0.188-0.187-0.404-0.342-0.64-0.462C9.814,1.091,9.43,0.999,9.031,0.999z"/>
	<path d="M5.5,17.999c-1.93,0-3.5-1.57-3.5-3.5c0-0.604,0.159-1.201,0.461-1.73c0.011-0.023,0.023-0.039,0.029-0.049
		c0.629-1.061,1.782-1.721,3.009-1.721c1.743,0,3.233,1.304,3.465,3.033c0.001,0.005,0.005,0.021,0.006,0.042
		C8.991,14.23,9,14.369,9,14.499C9,16.428,7.43,17.999,5.5,17.999z M3.099,13.806C3.033,14.031,3,14.263,3,14.499
		c0,1.378,1.121,2.5,2.5,2.5c1.281,0,2.339-0.968,2.483-2.21c-0.484,0.137-0.977,0.206-1.468,0.206
		C5.269,14.994,4.069,14.575,3.099,13.806z M3.575,12.907c0.814,0.701,1.848,1.084,2.938,1.084c0.472,0,0.935-0.073,1.379-0.218
		c-0.316-1.041-1.289-1.775-2.392-1.775C4.754,11.999,4.049,12.334,3.575,12.907z"/>
	<path d="M22.142,18.143c-0.176,0-0.335-0.09-0.427-0.24c-0.254-0.416-0.436-0.872-0.541-1.347c-0.523,0.793-1.38,1.327-2.354,1.424
		c-0.108,0.011-0.216,0.016-0.322,0.016c-1.082,0-2.086-0.564-2.671-1.442c-0.105,0.475-0.287,0.931-0.542,1.348
		c-0.091,0.148-0.254,0.24-0.427,0.24l0,0c-0.092,0-0.182-0.025-0.26-0.073C14.484,18,14.404,17.89,14.372,17.76
		c-0.031-0.13-0.01-0.264,0.059-0.378c0.349-0.573,0.522-1.232,0.5-1.904l0-0.909c0-1.968,1.601-3.569,3.569-3.569
		s3.569,1.601,3.569,3.569v0.892c-0.023,0.686,0.15,1.347,0.5,1.921c0.07,0.114,0.091,0.248,0.059,0.378
		c-0.031,0.13-0.112,0.24-0.226,0.309C22.325,18.117,22.235,18.143,22.142,18.143z M16.399,15.466c0.29,0.9,1.135,1.531,2.097,1.531
		c0.074,0,0.149-0.004,0.224-0.011c0.871-0.087,1.612-0.698,1.88-1.519c-0.79-0.171-1.508-0.541-2.101-1.081
		C17.907,14.926,17.19,15.295,16.399,15.466z M18.5,12.001c-1.405,0-2.551,1.134-2.569,2.535c0.854-0.121,1.625-0.538,2.19-1.193
		c0.093-0.107,0.231-0.169,0.378-0.169s0.285,0.062,0.378,0.169c0.566,0.655,1.336,1.072,2.191,1.193
		C21.051,13.135,19.905,12.001,18.5,12.001z"/>
	<path d="M0.5,23.999c-0.276,0-0.5-0.224-0.5-0.5c0-3.033,2.467-5.5,5.5-5.5s5.5,2.467,5.5,5.5c0,0.276-0.224,0.5-0.5,0.5H0.5z
		 M9.973,22.999c-0.25-2.263-2.166-4-4.473-4s-4.223,1.737-4.473,4H9.973z"/>
	<path d="M13.5,23.999c-0.276,0-0.5-0.224-0.5-0.5c0-3.033,2.467-5.5,5.5-5.5s5.5,2.467,5.5,5.5c0,0.276-0.224,0.5-0.5,0.5H13.5z
		 M22.972,22.999c-0.25-2.263-2.166-4-4.472-4s-4.223,1.737-4.472,4H22.972z"/>
</g>
</svg>
