<?xml version="1.0" encoding="utf-8"?>
<!-- Generator: Adobe Illustrator 22.1.0, SVG Export Plug-In . SVG Version: 6.00 Build 0)  -->
<svg version="1.1" id="Layer_1" xmlns="http://www.w3.org/2000/svg" xmlns:xlink="http://www.w3.org/1999/xlink" x="0px" y="0px"
	 viewBox="0 0 24 24" style="enable-background:new 0 0 24 24;" xml:space="preserve">
<g>
	<title>coupon-cut</title>
	<path d="M10.5,18c-0.276,0-0.5-0.224-0.5-0.5s0.224-0.5,0.5-0.5H11c0.276,0,0.5,0.224,0.5,0.5S11.276,18,11,18H10.5z"/>
	<path d="M13.011,18c-0.134,0-0.259-0.052-0.353-0.147c-0.094-0.094-0.146-0.22-0.146-0.354c0-0.275,0.225-0.499,0.5-0.499
		l1.001,0.002c0.134,0,0.259,0.052,0.353,0.147c0.094,0.094,0.146,0.22,0.146,0.354c0,0.275-0.225,0.499-0.5,0.499
		C14.012,18.002,13.011,18,13.011,18z"/>
	<path d="M16.511,18c-0.134,0-0.259-0.052-0.353-0.147c-0.094-0.094-0.146-0.22-0.146-0.354c0-0.275,0.225-0.499,0.5-0.499
		l1.001,0.002c0.134,0,0.259,0.052,0.353,0.147c0.094,0.094,0.146,0.22,0.146,0.354c0,0.275-0.225,0.499-0.5,0.499
		C17.512,18.002,16.511,18,16.511,18z"/>
	<path d="M20.011,18c-0.134,0-0.259-0.052-0.353-0.147c-0.094-0.094-0.146-0.22-0.146-0.354c0-0.275,0.222-0.499,0.494-0.499
		l1.007,0.002c0.134,0,0.259,0.052,0.353,0.147c0.094,0.094,0.146,0.22,0.146,0.354c0,0.275-0.225,0.499-0.5,0.499
		C21.012,18.002,20.011,18,20.011,18z"/>
	<path d="M23,18c-0.276,0-0.5-0.224-0.5-0.5S22.725,17,23,17h0.5c0.276,0,0.5,0.224,0.5,0.5S23.776,18,23.5,18H23z"/>
	<path d="M3.5,22.5C1.57,22.5,0,20.93,0,19s1.57-3.5,3.5-3.5c1.049,0,2.031,0.472,2.69,1.263c0.266-1.611,0.814-3.241,1.6-4.758
		c-0.78-1.509-1.312-3.116-1.583-4.788C5.549,8.021,4.561,8.5,3.5,8.5C1.57,8.5,0,6.93,0,5s1.57-3.5,3.5-3.5
		c1.922,0,3.49,1.561,3.5,3.482C7,4.986,7,4.99,7,4.994c0.051,2.073,0.518,4.075,1.387,5.953c1.199-1.953,2.74-3.564,4.477-4.678
		c1.845-1.183,3.825-1.783,5.884-1.783c1.631,0,3.3,0.387,4.961,1.15C23.892,5.718,24.006,5.903,24,6.104
		c-0.006,0.201-0.131,0.378-0.318,0.451L9.745,11.995l7.934,3.038c0.125,0.048,0.224,0.141,0.278,0.263s0.058,0.258,0.01,0.382
		C17.894,15.871,17.706,16,17.5,16c-0.061,0-0.121-0.011-0.178-0.033l-7.8-2.986c0.516,0.773,1.104,1.501,1.755,2.17
		c0.192,0.197,0.188,0.514-0.009,0.707C11.174,15.95,11.05,16,10.919,16c-0.136,0-0.263-0.054-0.358-0.151
		c-0.823-0.845-1.553-1.784-2.176-2.795C7.478,14.995,7,17.042,7,19C7,20.93,5.43,22.5,3.5,22.5z M3.5,16.5
		C2.122,16.5,1,17.622,1,19s1.121,2.5,2.5,2.5S6,20.378,6,19S4.879,16.5,3.5,16.5z M18.751,5.488c-1.869,0-3.668,0.546-5.346,1.622
		c-1.471,0.943-2.799,2.281-3.871,3.894l12.612-4.923C21.004,5.688,19.865,5.488,18.751,5.488z M3.5,2.5C2.122,2.5,1,3.621,1,5
		s1.121,2.5,2.5,2.5S6,6.379,6,5S4.879,2.5,3.5,2.5z"/>
</g>
</svg>
