<?xml version="1.0" encoding="utf-8"?>
<!-- Generator: Adobe Illustrator 22.1.0, SVG Export Plug-In . SVG Version: 6.00 Build 0)  -->
<svg version="1.1" id="Layer_1" xmlns="http://www.w3.org/2000/svg" xmlns:xlink="http://www.w3.org/1999/xlink" x="0px" y="0px"
	 viewBox="0 0 24 24" style="enable-background:new 0 0 24 24;" xml:space="preserve">
<g>
	<title>crypto-currency-bitcoin-imac</title>
	<path d="M12.504,14.5c-0.276,0-0.5-0.224-0.5-0.5v-1.5h-1V14c0,0.276-0.224,0.5-0.5,0.5s-0.5-0.224-0.5-0.5v-1.5H9.5
		C9.224,12.5,9,12.276,9,12V6c0-0.276,0.224-0.5,0.5-0.5h0.504V4.02c0-0.276,0.224-0.5,0.5-0.5s0.5,0.224,0.5,0.5V5.5h1V4.02
		c0-0.276,0.224-0.5,0.5-0.5c0.276,0,0.5,0.224,0.5,0.5V5.5C14.105,5.502,15,6.398,15,7.5c0,0.575-0.255,1.123-0.682,1.5
		C14.745,9.377,15,9.925,15,10.5c0,1.102-0.895,1.998-1.996,2V14C13.004,14.276,12.78,14.5,12.504,14.5z M13,11.5
		c0.552,0,1-0.449,1-1s-0.448-1-1-1h-3v2H13z M13,8.5c0.552,0,1-0.449,1-1s-0.448-1-1-1h-3v2H13z"/>
	<path d="M5.004,22.5c-0.276,0-0.5-0.224-0.5-0.5s0.224-0.5,0.5-0.5h6.5v-1h-9.5c-1.103,0-2-0.897-2-2v-15c0-1.103,0.897-2,2-2h20
		c1.103,0,2,0.897,2,2v15c0,1.103-0.897,2-2,2h-9.5v1h6.5c0.276,0,0.5,0.224,0.5,0.5s-0.224,0.5-0.5,0.5H5.004z M1.004,18.5
		c0,0.552,0.449,1,1,1h20c0.552,0,1-0.448,1-1v-2h-22V18.5z M23.004,15.5v-12c0-0.551-0.448-1-1-1h-20c-0.551,0-1,0.449-1,1v12
		H23.004z"/>
	<path d="M12,18.75c-0.414,0-0.75-0.336-0.75-0.75s0.336-0.75,0.75-0.75c0.414,0,0.75,0.336,0.75,0.75S12.414,18.75,12,18.75z"/>
</g>
</svg>
