<?xml version="1.0" encoding="utf-8"?>
<!-- Generator: Adobe Illustrator 22.1.0, SVG Export Plug-In . SVG Version: 6.00 Build 0)  -->
<svg version="1.1" id="Layer_1" xmlns="http://www.w3.org/2000/svg" xmlns:xlink="http://www.w3.org/1999/xlink" x="0px" y="0px"
	 viewBox="0 0 24 24" style="enable-background:new 0 0 24 24;" xml:space="preserve">
<g>
	<title>dating-smartphone-man</title>
	<path d="M7.002,22.248c-0.414,0-0.75-0.336-0.75-0.75s0.336-0.75,0.75-0.75c0.409,0,0.743,0.329,0.75,0.737
		c0,0.004,0,0.022,0,0.027C7.744,21.919,7.41,22.248,7.002,22.248C7.002,22.248,7.002,22.248,7.002,22.248z"/>
	<path d="M2.501,23.998c-1.379,0-2.5-1.122-2.5-2.5v-19c0-1.379,1.121-2.5,2.5-2.5h7.5c0.276,0,0.5,0.224,0.5,0.5
		s-0.224,0.5-0.5,0.5h-7.5c-0.827,0-1.5,0.673-1.5,1.5v16.5h0.529c0.255-2.823,2.613-5,5.471-5s5.216,2.177,5.471,5h0.529v-8
		c0-0.276,0.224-0.5,0.5-0.5s0.5,0.224,0.5,0.5v10.5c0,1.378-1.121,2.5-2.5,2.5H2.501z M1.001,21.498c0,0.827,0.673,1.5,1.5,1.5h9
		c0.827,0,1.5-0.673,1.5-1.5v-1.5h-12V21.498z M11.474,18.998c-0.25-2.263-2.166-4-4.473-4s-4.223,1.737-4.473,4H11.474z"/>
	<path d="M17.501,11.275c-0.26,0-0.505-0.099-0.692-0.278c0,0-0.027-0.026-0.031-0.031l-4.752-4.957
		c-1.069-1.068-1.333-2.702-0.653-4.062c0.422-0.843,1.146-1.47,2.039-1.768c0.363-0.121,0.739-0.183,1.118-0.183
		c0.548,0,1.078,0.126,1.574,0.374c0.34,0.17,0.648,0.392,0.916,0.66l0.481,0.481l0.482-0.482c0.666-0.666,1.551-1.033,2.493-1.033
		s1.827,0.367,2.493,1.033c0.268,0.268,0.49,0.576,0.66,0.915c0.68,1.36,0.414,2.995-0.661,4.07l-4.746,4.95
		C18.036,11.163,17.773,11.275,17.501,11.275z M14.529,0.998c-0.271,0-0.54,0.044-0.801,0.131c-0.64,0.213-1.159,0.663-1.461,1.266
		c-0.487,0.974-0.297,2.145,0.473,2.915l4.76,4.966l4.753-4.958c0.776-0.776,0.968-1.949,0.481-2.922
		c-0.122-0.243-0.281-0.464-0.473-0.656c-0.477-0.477-1.112-0.74-1.786-0.74s-1.309,0.263-1.786,0.74l-0.835,0.835
		c-0.094,0.094-0.22,0.146-0.354,0.146s-0.259-0.052-0.354-0.146l-0.835-0.835C16.12,1.546,15.9,1.387,15.657,1.266
		C15.301,1.088,14.921,0.998,14.529,0.998z"/>
	<path d="M7.001,13.498c-1.93,0-3.5-1.57-3.5-3.5c0-0.608,0.161-1.209,0.467-1.74c0,0,0.017-0.03,0.023-0.038
		c0.628-1.061,1.782-1.722,3.01-1.722c1.744,0,3.234,1.304,3.465,3.033c0.001,0.005,0.005,0.02,0.006,0.042
		c0.019,0.158,0.028,0.293,0.028,0.424C10.501,11.928,8.931,13.498,7.001,13.498z M4.6,9.306C4.534,9.531,4.501,9.763,4.501,9.998
		c0,1.379,1.121,2.5,2.5,2.5c1.281,0,2.339-0.968,2.483-2.21c-0.484,0.137-0.976,0.206-1.468,0.206
		C6.77,10.494,5.57,10.075,4.6,9.306z M5.076,8.407C5.89,9.108,6.924,9.491,8.014,9.491c0.472,0,0.935-0.073,1.38-0.218
		C9.078,8.233,8.104,7.498,7.001,7.498C6.255,7.498,5.55,7.834,5.076,8.407z"/>
</g>
</svg>
