<?xml version="1.0" encoding="utf-8"?>
<!-- Generator: Adobe Illustrator 22.1.0, SVG Export Plug-In . SVG Version: 6.00 Build 0)  -->
<svg version="1.1" id="Layer_1" xmlns="http://www.w3.org/2000/svg" xmlns:xlink="http://www.w3.org/1999/xlink" x="0px" y="0px"
	 viewBox="0 0 24 24" style="enable-background:new 0 0 24 24;" xml:space="preserve">
<g>
	<title>dating-rose</title>
	<path d="M12,24.031c-0.276,0-0.5-0.224-0.5-0.5v-1.029c-2.823-0.254-5-2.613-5-5.471c0-0.276,0.224-0.5,0.5-0.5
		c1.8,0,3.48,0.899,4.5,2.351v-3.37c-3.945-0.258-7-3.499-7-7.481v-4c0-0.007,0-0.014,0.001-0.021
		c0.01-0.728,0.711-1.347,2.143-1.892c0.057-0.022,0.117-0.033,0.178-0.033c0.206,0,0.394,0.13,0.468,0.322
		C7.388,2.665,7.258,2.954,7,3.052C5.711,3.544,5.481,3.937,5.502,4.047C5.597,4.565,7.913,5.531,12,5.531
		c4.288,0,6.5-1.051,6.5-1.5c0-0.953-0.576-1.719-1.711-2.278c-1.014-0.499-2.426-0.786-3.872-0.786c-2.2,0-3.417,0.629-3.417,1.064
		c0,0.147,0.05,0.261,0.161,0.37c0.431,0.424,1.566,0.64,3.373,0.64c0.228,0,0.433-0.003,0.6-0.006
		C13.78,3.033,13.902,3.031,14,3.031c0.276,0,0.5,0.224,0.5,0.5s-0.224,0.5-0.5,0.5c-0.094,0-0.21,0.002-0.344,0.004
		c-0.207,0.003-0.44,0.007-0.691,0.007c-1.315,0-3.161-0.096-4.006-0.928C8.655,2.814,8.5,2.45,8.5,2.031
		c0-1.523,2.379-2.064,4.417-2.064c1.594,0,3.167,0.324,4.313,0.888c1.485,0.731,2.27,1.829,2.27,3.175v4
		c0,3.983-3.055,7.224-7,7.481v3.37c1.02-1.453,2.7-2.352,4.5-2.352c0.276,0,0.5,0.224,0.5,0.5c0,2.858-2.177,5.216-5,5.471v1.029
		C12.5,23.807,12.276,24.031,12,24.031z M16.469,17.562c-2.068,0.242-3.696,1.87-3.938,3.938
		C14.599,21.258,16.227,19.63,16.469,17.562z M7.531,17.562c0.242,2.068,1.87,3.696,3.938,3.938
		C11.227,19.432,9.599,17.804,7.531,17.562z M5.5,8.031c0,3.584,2.916,6.5,6.5,6.5s6.5-2.916,6.5-6.5V5.364
		C17,6.219,14.142,6.531,12,6.531c-2.147,0-5.007-0.311-6.5-1.162V8.031z"/>
</g>
</svg>
