<?xml version="1.0" encoding="utf-8"?>
<!-- Generator: Adobe Illustrator 22.1.0, SVG Export Plug-In . SVG Version: 6.00 Build 0)  -->
<svg version="1.1" id="Layer_1" xmlns="http://www.w3.org/2000/svg" xmlns:xlink="http://www.w3.org/1999/xlink" x="0px" y="0px"
	 viewBox="0 0 24 24" style="enable-background:new 0 0 24 24;" xml:space="preserve">
<g>
	<title>design-tool-pen-station</title>
	<path d="M6,24c-1.379,0-2.5-1.122-2.5-2.5V11c0-0.451,0.301-0.834,0.712-0.958L3.053,7.724C3.042,7.701,3.033,7.677,3.027,7.653
		c-0.004-0.01-0.007-0.02-0.01-0.03c-0.005-0.014-0.008-0.029-0.01-0.042l-0.5-2.999C2.475,4.391,2.558,4.196,2.719,4.087
		C2.802,4.03,2.9,4,3,4C3.091,4,3.18,4.025,3.257,4.071l2.5,1.5c0.042,0.025,0.08,0.057,0.116,0.099
		C5.882,5.678,5.89,5.687,5.897,5.696c0.008,0.01,0.015,0.021,0.022,0.033c0.007,0.009,0.013,0.018,0.019,0.029L8.294,10H8.5V1
		c0-0.551,0.449-1,1-1h3c0.552,0,1,0.449,1,1v9h0.206l2.257-4.054c-0.598-0.609-0.76-1.533-0.386-2.316
		c0.112-0.27,0.316-0.527,0.532-0.8c0.528-0.666,0.909-1.147,0.354-1.992c-0.114-0.173-0.11-0.393,0.009-0.562
		c0.093-0.132,0.246-0.212,0.409-0.212c0.039,0,0.078,0.005,0.116,0.014c1.449,0.35,2.473,1.371,2.811,2.801
		c0.3,1.269-0.048,2.626-0.845,3.3c-0.279,0.235-0.601,0.382-0.961,0.436l-1.287,3.408C17.163,10.122,17.5,10.522,17.5,11v1H18
		c1.93,0,3.5,1.57,3.5,3.5S19.93,19,18,19h-0.5v2.5c0,1.378-1.122,2.5-2.5,2.5H6z M4.5,21.5C4.5,22.327,5.173,23,6,23h9
		c0.827,0,1.5-0.673,1.5-1.5V11l-12,0L4.5,21.5z M18,18c1.378,0,2.5-1.122,2.5-2.5S19.379,13,18,13h-0.5v5H18z M15.654,10
		l1.312-3.473c-0.051-0.016-0.102-0.034-0.153-0.053L14.851,10H15.654z M12.5,10V9H12c-0.276,0-0.5-0.224-0.5-0.5S11.724,8,12,8h0.5
		V7H11c-0.276,0-0.5-0.224-0.5-0.5S10.724,6,11,6h1.5V5H12c-0.276,0-0.5-0.224-0.5-0.5S11.724,4,12,4h0.5V3H11
		c-0.276,0-0.5-0.224-0.5-0.5S10.724,2,11,2h1.5V1h-3l0,9H12.5z M7.15,10L5.341,6.744L4.134,7.65L5.309,10H7.15z M3.858,6.607
		l0.747-0.56l-0.934-0.56L3.858,6.607z M16.939,5.438c0.011,0.007,0.022,0.015,0.034,0.021c0.035,0.017,0.07,0.031,0.105,0.044
		c0.228,0.096,0.429,0.141,0.613,0.141c0.236,0,0.447-0.077,0.627-0.229c0.513-0.434,0.731-1.404,0.518-2.306
		c-0.164-0.693-0.55-1.261-1.107-1.639c0.056,0.856-0.468,1.516-0.835,1.98c-0.172,0.217-0.334,0.422-0.404,0.588
		c-0.227,0.476-0.089,1.02,0.322,1.319c0.013,0.005,0.027,0.011,0.042,0.019c0.031,0.017,0.052,0.036,0.066,0.049L16.939,5.438z"/>
</g>
</svg>
