<?xml version="1.0" encoding="utf-8"?>
<!-- Generator: Adobe Illustrator 22.1.0, SVG Export Plug-In . SVG Version: 6.00 Build 0)  -->
<svg version="1.1" id="Layer_1" xmlns="http://www.w3.org/2000/svg" xmlns:xlink="http://www.w3.org/1999/xlink" x="0px" y="0px"
	 viewBox="0 0 24 24" style="enable-background:new 0 0 24 24;" xml:space="preserve">
<g>
	<title>design-tool-quill-2</title>
	<path d="M0.499,24c-0.077,0-0.154-0.018-0.223-0.052c-0.12-0.06-0.209-0.163-0.251-0.289s-0.033-0.262,0.027-0.382l6.357-12.714
		C9.409,4.163,15.922,0.015,22.999,0C23.551,0,24,0.449,24,1c0.004,0.503-0.317,0.948-0.799,1.104
		c-2.854,1.056-5.325,3.068-6.948,5.662C16.161,7.912,16.002,8,15.829,8h-2.122l1.251,1.251c0.154,0.154,0.191,0.388,0.091,0.582
		c-0.271,0.529-0.507,1.04-0.72,1.561c-1.845,4.508-6.159,7.478-11.018,7.6l-2.365,4.729C0.862,23.894,0.69,24,0.499,24z M23,1
		c-6.692,0.015-12.851,3.939-15.691,9.998L3.824,17.97c1.987-0.143,3.881-0.802,5.518-1.92l-1.196-1.196
		c-0.195-0.195-0.195-0.512,0-0.707C8.241,14.052,8.366,14,8.5,14s0.259,0.052,0.354,0.146l1.296,1.296
		c0.469-0.387,0.909-0.815,1.311-1.275l-1.314-1.314C10.052,12.759,10,12.634,10,12.5s0.052-0.259,0.146-0.354S10.366,12,10.5,12
		s0.259,0.052,0.354,0.146l1.234,1.234c0.53-0.731,0.973-1.525,1.316-2.365c0.181-0.442,0.376-0.873,0.592-1.312l-1.145-1.145
		c-0.173-0.175-0.267-0.406-0.266-0.65c0.002-0.245,0.098-0.474,0.272-0.645C13.029,7.094,13.257,7,13.499,7h2.056
		c1.74-2.665,4.334-4.737,7.318-5.841C22.955,1.132,23,1.074,23,1.004L23,1z"/>
</g>
</svg>
