<?xml version="1.0" encoding="utf-8"?>
<!-- Generator: Adobe Illustrator 22.1.0, SVG Export Plug-In . SVG Version: 6.00 Build 0)  -->
<svg version="1.1" id="Light" xmlns="http://www.w3.org/2000/svg" xmlns:xlink="http://www.w3.org/1999/xlink" x="0px" y="0px"
	 viewBox="0 0 24 24" style="enable-background:new 0 0 24 24;" xml:space="preserve">
<g>
	<title>diet-waist-1</title>
	<path d="M20.5,24c-0.033,0-0.067-0.003-0.1-0.01c-0.133-0.028-0.245-0.104-0.318-0.216c-0.073-0.112-0.099-0.245-0.072-0.376
		l0.831-4c0.199-1.559,0.214-3.023,0.041-4.34c-2.759,0.531-7.502,4.433-8.383,5.173V23.5c0,0.276-0.224,0.5-0.5,0.5
		c-0.276,0-0.5-0.224-0.5-0.5v-3.269c-0.881-0.741-5.624-4.643-8.384-5.173c-0.173,1.321-0.156,2.792,0.048,4.378l0.825,3.962
		c0.027,0.131,0.002,0.264-0.071,0.376s-0.186,0.188-0.316,0.216C3.566,23.997,3.533,24,3.5,24c-0.236,0-0.441-0.167-0.489-0.398
		l-0.831-4c-0.24-1.845-0.232-3.553,0.021-5.097c0-0.006,0-0.011,0-0.016c0.001-0.052,0.011-0.103,0.028-0.152
		c0.297-1.68,0.892-3.182,1.769-4.467c1.351-1.931,1.885-4.365,1.466-6.68L4.926,0.602C4.898,0.471,4.924,0.337,4.997,0.226
		C5.07,0.114,5.183,0.038,5.313,0.01C5.346,0.004,5.381,0,5.415,0c0.235,0,0.441,0.167,0.489,0.398l0.54,2.6
		C6.912,5.584,6.32,8.293,4.82,10.438C4.093,11.502,3.594,12.671,3.301,14h17.398c-0.294-1.331-0.793-2.501-1.521-3.567
		c-1.497-2.141-2.09-4.847-1.624-7.422l0.542-2.613C18.144,0.167,18.349,0,18.584,0c0.034,0,0.069,0.004,0.102,0.01
		c0.131,0.027,0.243,0.104,0.316,0.215c0.073,0.112,0.099,0.245,0.072,0.376l-0.54,2.6C18.118,5.506,18.652,7.937,20,9.864
		c1.74,2.548,2.337,5.72,1.827,9.699l-0.837,4.038C20.941,23.833,20.736,24,20.5,24z M5.74,15c2.513,1.292,5.216,3.469,6.26,4.344
		c1.044-0.875,3.746-3.052,6.26-4.344H5.74z"/>
	<path d="M3,8.5c-0.099,0-0.195-0.029-0.277-0.084C2.612,8.342,2.536,8.229,2.51,8.098c-0.026-0.131,0-0.264,0.074-0.375L3.066,7
		H0.5C0.224,7,0,6.776,0,6.5S0.224,6,0.5,6h2.566L2.584,5.277C2.51,5.166,2.484,5.033,2.51,4.902
		c0.026-0.131,0.102-0.244,0.213-0.318C2.804,4.529,2.901,4.5,3,4.5c0.167,0,0.323,0.083,0.416,0.223l1,1.5
		c0.009,0.014,0.026,0.046,0.032,0.062C4.452,6.291,4.46,6.308,4.467,6.326c0.042,0.113,0.042,0.236,0,0.348
		c-0.004,0.01-0.019,0.042-0.024,0.052c0,0.002-0.01,0.026-0.028,0.053l-1,1.499C3.323,8.417,3.167,8.5,3,8.5z"/>
	<path d="M21,8.5c-0.168,0-0.323-0.083-0.416-0.223l-1-1.5c-0.009-0.014-0.025-0.046-0.032-0.061
		c-0.003-0.005-0.011-0.022-0.018-0.04c-0.021-0.055-0.031-0.108-0.033-0.159c0-0.006,0-0.029,0-0.036
		c0.002-0.052,0.013-0.103,0.032-0.154c0.008-0.021,0.016-0.038,0.025-0.055c0.002-0.008,0.012-0.028,0.025-0.047l1.001-1.501
		C20.677,4.583,20.832,4.5,21,4.5c0.099,0,0.195,0.029,0.278,0.084c0.111,0.074,0.187,0.187,0.213,0.318
		c0.026,0.131,0,0.264-0.074,0.376L20.934,6H23.5C23.776,6,24,6.224,24,6.5S23.776,7,23.5,7h-2.566l0.482,0.723
		c0.074,0.111,0.101,0.245,0.074,0.375c-0.026,0.131-0.102,0.244-0.213,0.318C21.195,8.471,21.099,8.5,21,8.5z"/>
	<circle cx="12" cy="10.5" r="0.75"/>
</g>
</svg>
