<?xml version="1.0" encoding="utf-8"?>
<!-- Generator: Adobe Illustrator 22.1.0, SVG Export Plug-In . SVG Version: 6.00 Build 0)  -->
<svg version="1.1" id="Layer_1" xmlns="http://www.w3.org/2000/svg" xmlns:xlink="http://www.w3.org/1999/xlink" x="0px" y="0px"
	 viewBox="0 0 24 24" style="enable-background:new 0 0 24 24;" xml:space="preserve">
<g>
	<title>e-learning-monitor</title>
	<path d="M7,22.5c-0.276,0-0.5-0.224-0.5-0.5s0.224-0.5,0.5-0.5h3v-2H1.5C0.673,19.5,0,18.827,0,18V3c0-0.827,0.673-1.5,1.5-1.5h21
		C23.327,1.5,24,2.173,24,3v15c0,0.827-0.673,1.5-1.5,1.5H14v2h3c0.276,0,0.5,0.224,0.5,0.5s-0.224,0.5-0.5,0.5H7z M13,21.5v-2h-2v2
		H13z M1.5,2.5C1.224,2.5,1,2.724,1,3v15c0,0.276,0.224,0.5,0.5,0.5h21c0.276,0,0.5-0.224,0.5-0.5V3c0-0.276-0.224-0.5-0.5-0.5H1.5z
		"/>
	<path d="M4.361,16.5c-0.094,0-0.182-0.017-0.268-0.049c-0.386-0.148-0.58-0.582-0.433-0.968L5,11.909V8.5
		c0-0.058,0.011-0.115,0.034-0.175C5.037,8.316,5.05,8.287,5.054,8.279c0.02-0.039,0.043-0.074,0.072-0.107
		c0.006-0.007,0.029-0.032,0.035-0.038c0.044-0.041,0.09-0.072,0.142-0.094l6.606-2.831c0.187-0.08,0.386-0.121,0.591-0.121
		s0.404,0.041,0.591,0.121l5.534,2.371c0.238,0.101,0.425,0.288,0.527,0.527c0.105,0.246,0.107,0.518,0.008,0.766
		c-0.1,0.248-0.29,0.442-0.536,0.546L17,10.116v3.075c0,0.381-0.211,0.723-0.552,0.894l-3.278,1.638
		c-0.207,0.103-0.438,0.157-0.671,0.157s-0.464-0.054-0.67-0.157l-3.277-1.638C8.212,13.915,8,13.572,8,13.191v-3.076L6,9.258v2.651
		l1.341,3.578c0.032,0.085,0.049,0.176,0.048,0.27C7.387,16.166,7.051,16.5,6.64,16.5H4.361z M6.278,15.5L5.5,13.424L4.722,15.5
		L6.278,15.5z M9,13.191l3.277,1.638c0.068,0.034,0.146,0.052,0.223,0.052s0.155-0.018,0.223-0.052L16,13.191l0-2.647l-2.909,1.246
		c-0.187,0.08-0.385,0.121-0.591,0.121c-0.205,0-0.404-0.041-0.591-0.121L9,10.544V13.191z M12.303,10.872
		c0.062,0.026,0.128,0.04,0.197,0.04c0.069,0,0.135-0.014,0.198-0.04L18.231,8.5l-5.534-2.372c-0.062-0.026-0.129-0.04-0.197-0.04
		s-0.135,0.014-0.197,0.04L6.769,8.5L12.303,10.872z"/>
</g>
</svg>
