<?xml version="1.0" encoding="utf-8"?>
<!-- Generator: Adobe Illustrator 22.1.0, SVG Export Plug-In . SVG Version: 6.00 Build 0)  -->
<svg version="1.1" id="Layer_1" xmlns="http://www.w3.org/2000/svg" xmlns:xlink="http://www.w3.org/1999/xlink" x="0px" y="0px"
	 viewBox="0 0 24 24" style="enable-background:new 0 0 24 24;" xml:space="preserve">
<g>
	<title>email-action-receive</title>
	<path d="M12,24c-0.063,0-0.125-0.012-0.184-0.036c-0.015-0.005-0.03-0.012-0.043-0.02l-10.979-4.99
		C0.615,18.875,0.5,18.696,0.5,18.5v-10c0-0.051,0.009-0.103,0.027-0.158c0.002-0.006,0.011-0.029,0.013-0.035
		c0.022-0.052,0.049-0.096,0.081-0.134C0.627,8.166,0.634,8.159,0.64,8.153C0.661,8.13,0.694,8.102,0.73,8.079
		c0.008-0.005,0.021-0.012,0.033-0.018c0.01-0.006,0.021-0.012,0.031-0.017l4.999-2.272C5.859,5.743,5.928,5.728,6,5.728
		c0.196,0,0.375,0.115,0.456,0.293c0.114,0.251,0.002,0.548-0.248,0.662L2.208,8.5L12,12.951L21.792,8.5l-3.999-1.817
		c-0.251-0.114-0.362-0.411-0.248-0.662C17.626,5.843,17.804,5.728,18,5.728c0.071,0,0.141,0.015,0.206,0.044l5.001,2.272
		c0.01,0.004,0.02,0.01,0.03,0.016c0.008,0.003,0.021,0.01,0.033,0.018c0.035,0.023,0.068,0.05,0.096,0.08
		c0.007,0.008,0.015,0.017,0.021,0.026c0.031,0.038,0.052,0.076,0.071,0.119c0.002,0.005,0.011,0.028,0.013,0.034
		C23.491,8.398,23.5,8.449,23.5,8.5v10c0,0.196-0.115,0.374-0.293,0.455l-11,5c-0.007,0.003-0.015,0.007-0.023,0.009
		C12.124,23.988,12.062,24,12,24z M12.5,22.724l10-4.545V9.277l-10,4.545V22.724z M11.5,22.724v-8.902l-10-4.545v8.902L11.5,22.724z
		"/>
	<path d="M12,9c-0.066,0-0.13-0.013-0.191-0.038c-0.062-0.026-0.116-0.062-0.162-0.108l-4-4C7.552,4.759,7.5,4.634,7.5,4.5
		s0.052-0.259,0.146-0.354S7.866,4,8,4s0.259,0.052,0.354,0.146L11.5,7.293V0.5C11.5,0.224,11.724,0,12,0c0.276,0,0.5,0.224,0.5,0.5
		v6.793l3.146-3.146C15.741,4.052,15.866,4,16,4s0.259,0.052,0.354,0.146S16.5,4.366,16.5,4.5s-0.052,0.259-0.146,0.354l-4,4
		c-0.046,0.046-0.101,0.083-0.162,0.108C12.13,8.987,12.066,9,12,9z"/>
</g>
</svg>
