<?xml version="1.0" encoding="utf-8"?>
<!-- Generator: Adobe Illustrator 22.1.0, SVG Export Plug-In . SVG Version: 6.00 Build 0)  -->
<svg version="1.1" id="Layer_1" xmlns="http://www.w3.org/2000/svg" xmlns:xlink="http://www.w3.org/1999/xlink" x="0px" y="0px"
	 viewBox="0 0 24 24" style="enable-background:new 0 0 24 24;" xml:space="preserve">
<g>
	<title>filter-picture</title>
	<path d="M1.5,24C0.673,24,0,23.327,0,22.5v-17C0,4.673,0.673,4,1.5,4H3V1.5C3,0.673,3.673,0,4.5,0h18C23.327,0,24,0.673,24,1.5v18
		c0,0.827-0.673,1.5-1.5,1.5H20v1.5c0,0.827-0.673,1.5-1.5,1.5H1.5z M1.5,5C1.224,5,1,5.224,1,5.5v17C1,22.776,1.224,23,1.5,23h17
		c0.276,0,0.5-0.224,0.5-0.5V21H4.5C3.673,21,3,20.327,3,19.5V5H1.5z M4,19.5C4,19.776,4.224,20,4.5,20h18
		c0.276,0,0.5-0.224,0.5-0.5V17H4V19.5z M23,16V1.5C23,1.224,22.776,1,22.5,1h-18C4.224,1,4,1.224,4,1.5V16h4.217l2.492-4.153
		c0.058-0.097,0.131-0.182,0.218-0.254c0.179-0.149,0.406-0.231,0.639-0.231c0.298,0,0.579,0.131,0.769,0.36l1.62,1.944l3.087-4.629
		c0.116-0.175,0.282-0.307,0.479-0.381c0.114-0.043,0.232-0.065,0.353-0.065c0.414,0,0.79,0.26,0.936,0.646L21.347,16H23z
		 M20.278,16l-2.404-6.411l-3.459,5.188c-0.087,0.13-0.232,0.213-0.389,0.222c-0.001,0-0.001,0-0.002,0
		c-0.174,0-0.314-0.065-0.409-0.179l-2.05-2.459L9.383,16H20.278z"/>
	<path d="M10,8C8.897,8,8,7.103,8,6s0.897-2,2-2s2,0.897,2,2S11.103,8,10,8z M10,5C9.449,5,9,5.449,9,6s0.449,1,1,1s1-0.449,1-1
		S10.551,5,10,5z"/>
</g>
</svg>
