<?xml version="1.0" encoding="utf-8"?>
<!-- Generator: Adobe Illustrator 22.1.0, SVG Export Plug-In . SVG Version: 6.00 Build 0)  -->
<svg version="1.1" id="Light" xmlns="http://www.w3.org/2000/svg" xmlns:xlink="http://www.w3.org/1999/xlink" x="0px" y="0px"
	 viewBox="0 0 24 24" style="enable-background:new 0 0 24 24;" xml:space="preserve">
<g>
	<title>footwear-heels-ankle</title>
	<path d="M2.867,23.093c-0.827,0-1.504-0.668-1.511-1.488c0.083-4.281-0.263-8.577-1.026-12.777C-0.094,7.205-0.11,5.46,0.285,3.798
		c0.222-0.87,0.581-1.689,1.067-2.435C1.432,1.243,1.531,1.146,1.649,1.07c0.162-0.105,0.35-0.16,0.543-0.16
		c0.344,0,0.661,0.172,0.847,0.461c2.63,4.023,5.25,5.74,8.761,5.74c0,0,0,0,0.001,0c0.769,0,1.607-0.087,2.49-0.257
		c0.062-0.014,0.133-0.022,0.203-0.022c0.456,0,0.863,0.324,0.966,0.77c1.052,4.857,5.824,8.322,6.77,8.967
		c1.306,0.725,1.999,2.22,1.706,3.708c-0.372,1.634-1.849,2.815-3.513,2.815l-8.33,0c-0.547,0-1.049-0.296-1.313-0.774
		c-1.506-3.041-3.349-5.903-5.484-8.517c-0.009-0.009-0.017-0.018-0.024-0.028c-0.106-0.132-0.238-0.202-0.382-0.208
		c0,0,0,0-0.001,0c-0.289,0-0.51,0.21-0.521,0.477l0,7.551C4.367,22.42,3.694,23.093,2.867,23.093z M1.483,9.647
		c0.656,3.959,0.949,7.979,0.872,11.963c0.002,0.263,0.226,0.482,0.5,0.482c0.282,0,0.511-0.224,0.511-0.5V14.02
		c0.018-0.418,0.191-0.792,0.487-1.062c0.142-0.13,0.306-0.229,0.487-0.294C3.436,11.618,2.479,10.607,1.483,9.647z M2.994,9.735
		c1.046,1.06,2.046,2.173,2.975,3.314c0.027,0.028,0.064,0.072,0.098,0.117c2.177,2.663,4.062,5.589,5.597,8.688
		c0.078,0.14,0.248,0.238,0.427,0.238l8.312,0c1.213,0,2.288-0.85,2.555-2.022c0.208-1.054-0.291-2.119-1.241-2.643
		c-0.008-0.004-0.035-0.021-0.042-0.026c-0.383-0.261-0.755-0.532-1.132-0.826L18.69,17.81c-0.72,0.384-1.42,0.572-2.101,0.572
		c-2.541,0-4.497-2.543-6.388-5.002c-1.595-2.075-3.244-4.219-5.013-4.392C5.11,8.981,5.031,8.977,4.952,8.977
		C4.319,8.977,3.676,9.225,2.994,9.735z M4.949,7.977c0.112,0,0.225,0.005,0.338,0.017c2.2,0.215,3.903,2.43,5.707,4.775
		c1.824,2.372,3.547,4.613,5.6,4.613c0.519,0,1.033-0.139,1.574-0.424l1.567-1.045c-3.985-3.435-5.024-7.05-5.25-8.092
		c-0.926,0.193-1.815,0.284-2.641,0.284c-3.871,0-6.845-1.909-9.643-6.189C1.763,2.564,1.449,3.28,1.256,4.038
		C0.952,5.315,0.92,6.677,1.164,7.979c0.373,0.339,0.747,0.69,1.114,1.046C3.181,8.32,4.056,7.977,4.949,7.977z"/>
	<circle cx="13.313" cy="10.101" r="0.75"/>
	<path d="M14.563,12.967c-0.414,0-0.75-0.336-0.75-0.75c0-0.414,0.336-0.75,0.75-0.75s0.75,0.336,0.75,0.75
		C15.313,12.63,14.976,12.967,14.563,12.967z"/>
	<circle cx="16.25" cy="14.53" r="0.75"/>
</g>
</svg>
