<?xml version="1.0" encoding="utf-8"?>
<!-- Generator: Adobe Illustrator 22.1.0, SVG Export Plug-In . SVG Version: 6.00 Build 0)  -->
<svg version="1.1" id="Layer_1" xmlns="http://www.w3.org/2000/svg" xmlns:xlink="http://www.w3.org/1999/xlink" x="0px" y="0px"
	 viewBox="0 0 24 24" style="enable-background:new 0 0 24 24;" xml:space="preserve">
<g>
	<title>golf-hole</title>
	<path d="M10,24c-4.276,0-7.5-1.29-7.5-3c0-1.652,2.929-2.896,7-2.993V0.5C9.5,0.224,9.724,0,10,0s0.5,0.224,0.5,0.5V1h10
		c0.268,0,0.518,0.104,0.707,0.292c0.189,0.189,0.294,0.44,0.294,0.707c0,0.265-0.107,0.523-0.294,0.71L18.413,5.5l2.793,2.792
		c0.39,0.389,0.391,1.024,0.001,1.414C21.019,9.896,20.768,10,20.5,10h-10v8.007c4.071,0.097,7,1.341,7,2.993
		C17.5,22.71,14.276,24,10,24z M9.5,19.008c-3.172,0.093-6,1.021-6,1.992c0,1.028,3.159,2,6.5,2c3.341,0,6.5-0.972,6.5-2
		c0-0.971-2.828-1.9-6-1.992V20.5c0,0.276-0.224,0.5-0.5,0.5s-0.5-0.224-0.5-0.5V19.008z M20.5,9l-3.148-3.146
		c-0.094-0.094-0.146-0.22-0.146-0.354c0-0.134,0.052-0.259,0.146-0.354L20.5,2L10.5,2v7H20.5z"/>
</g>
</svg>
