<?xml version="1.0" encoding="utf-8"?>
<!-- Generator: Adobe Illustrator 22.1.0, SVG Export Plug-In . SVG Version: 6.00 Build 0)  -->
<svg version="1.1" id="Layer_1" xmlns="http://www.w3.org/2000/svg" xmlns:xlink="http://www.w3.org/1999/xlink" x="0px" y="0px"
	 viewBox="0 0 24 24" style="enable-background:new 0 0 24 24;" xml:space="preserve">
<g>
	<title>hammer-1</title>
	<path d="M2.505,22.845c-0.669,0-1.299-0.261-1.772-0.734c-0.473-0.473-0.734-1.103-0.734-1.772s0.261-1.299,0.734-1.772
		l9.682-9.682c0.007-0.009,0.014-0.017,0.021-0.024l1.34-1.339c0.141-0.141,0.434-0.434-0.631-1.501
		c-0.929-0.932-2.218-1.467-3.536-1.467c-0.075,0-0.15,0.002-0.225,0.005L7.344,4.56c-0.32,0-0.613-0.146-0.804-0.401
		C6.38,3.945,6.313,3.682,6.351,3.417c0.038-0.265,0.177-0.498,0.391-0.658c1.379-1.062,3.028-1.625,4.766-1.625
		c1.957,0,3.833,0.73,5.281,2.057c0.007,0.007,0.014,0.014,0.021,0.022c0.235,0.194,0.76,0.719,2.288,2.252
		c0.421,0.423,0.552,1.055,0.336,1.611c-0.156,0.383-0.066,0.813,0.226,1.098c0.188,0.183,0.436,0.283,0.698,0.283
		c0.272,0,0.527-0.107,0.716-0.301c0.194-0.193,0.447-0.297,0.714-0.297c0.268,0,0.519,0.104,0.707,0.294l1.06,1.064
		c0.284,0.286,0.441,0.665,0.44,1.066c0,0.401-0.157,0.778-0.442,1.06l-3.545,3.545c-0.004,0.005-0.024,0.023-0.034,0.031
		c-0.26,0.26-0.629,0.411-1.024,0.411c-0.405,0-0.784-0.158-1.069-0.444l-1.058-1.058c-0.196-0.196-0.299-0.448-0.299-0.715
		s0.105-0.518,0.295-0.707c0.189-0.189,0.293-0.441,0.293-0.709c0-0.268-0.104-0.521-0.294-0.71c-0.19-0.19-0.442-0.294-0.71-0.294
		c-0.269,0-0.521,0.104-0.71,0.294l-1.395,1.395c-0.006,0.007-0.011,0.014-0.017,0.02l-9.71,9.71
		C3.803,22.585,3.174,22.845,2.505,22.845z M1.44,19.274c-0.284,0.284-0.441,0.663-0.441,1.065c0,0.402,0.157,0.781,0.441,1.065
		s0.663,0.441,1.065,0.441s0.781-0.157,1.065-0.441l9.351-9.351l-2.13-2.13L1.44,19.274z M18.59,14.18
		c0.095,0.096,0.222,0.148,0.356,0.148c0.133,0,0.258-0.051,0.352-0.145l3.55-3.55c0.197-0.195,0.198-0.513,0.004-0.708
		l-1.065-1.068c0,0-4.258,4.256-4.258,4.256c-0.006,0.006-0.012,0.011-0.019,0.017L18.59,14.18z M13.626,11.345l1.065-1.065
		c0.378-0.378,0.881-0.586,1.417-0.586c0.536,0,1.04,0.208,1.418,0.587c0.254,0.254,0.431,0.564,0.521,0.903l1.794-1.794
		c-0.329-0.086-0.631-0.256-0.88-0.499c-0.585-0.57-0.764-1.427-0.457-2.184c0.071-0.182,0.026-0.393-0.115-0.536
		c-1.744-1.749-2.136-2.122-2.223-2.199c-0.018-0.012-0.035-0.026-0.052-0.042c-1.264-1.157-2.899-1.794-4.605-1.794
		c-1.516,0-2.955,0.491-4.162,1.421c0.004,0,0.181-0.002,0.269-0.002c1.578,0,3.122,0.642,4.237,1.761
		c0.438,0.439,1.771,1.774,0.63,2.915l-0.986,0.986L13.626,11.345z"/>
</g>
</svg>
