<?xml version="1.0" encoding="utf-8"?>
<!-- Generator: Adobe Illustrator 22.1.0, SVG Export Plug-In . SVG Version: 6.00 Build 0)  -->
<svg version="1.1" id="Layer_1" xmlns="http://www.w3.org/2000/svg" xmlns:xlink="http://www.w3.org/1999/xlink" x="0px" y="0px"
	 viewBox="0 0 24 24" style="enable-background:new 0 0 24 24;" xml:space="preserve">
<g>
	<title>insurance-card</title>
	<path d="M2.5,20.5C1.121,20.5,0,19.378,0,18V6c0-1.379,1.121-2.5,2.5-2.5h19C22.878,3.5,24,4.621,24,6v12
		c0,1.378-1.122,2.5-2.5,2.5H2.5z M1,18c0,0.827,0.673,1.5,1.5,1.5h19c0.827,0,1.5-0.673,1.5-1.5V8.5H1V18z M23,7.5V6
		c0-0.827-0.673-1.5-1.5-1.5h-19C1.673,4.5,1,5.173,1,6v1.5H23z"/>
	<path d="M13.5,12.5c-0.276,0-0.5-0.224-0.5-0.5c0-0.276,0.224-0.5,0.5-0.5h8c0.276,0,0.5,0.224,0.5,0.5c0,0.276-0.224,0.5-0.5,0.5
		H13.5z"/>
	<path d="M13.5,15.5c-0.276,0-0.5-0.224-0.5-0.5s0.224-0.5,0.5-0.5h3c0.276,0,0.5,0.224,0.5,0.5s-0.224,0.5-0.5,0.5H13.5z"/>
	<path d="M5.75,17.5C5.336,17.5,5,17.164,5,16.75V15.5H3.75C3.336,15.5,3,15.164,3,14.75v-1.5c0-0.414,0.336-0.75,0.75-0.75H5v-1.25
		c0-0.414,0.336-0.75,0.75-0.75h1.5C7.664,10.5,8,10.836,8,11.25v1.25h1.25c0.414,0,0.75,0.336,0.75,0.75v1.5
		c0,0.414-0.336,0.75-0.75,0.75H8v1.25c0,0.414-0.336,0.75-0.75,0.75H5.75z M7,16.5V15c0-0.276,0.224-0.5,0.5-0.5H9v-1l-1.5,0
		C7.224,13.5,7,13.276,7,13v-1.5H6V13c0,0.276-0.224,0.5-0.5,0.5H4v1h1.5C5.776,14.5,6,14.724,6,15v1.5H7z"/>
</g>
</svg>
