<?xml version="1.0" encoding="utf-8"?>
<!-- Generator: Adobe Illustrator 22.1.0, SVG Export Plug-In . SVG Version: 6.00 Build 0)  -->
<svg version="1.1" id="Layer_1" xmlns="http://www.w3.org/2000/svg" xmlns:xlink="http://www.w3.org/1999/xlink" x="0px" y="0px"
	 viewBox="0 0 24 24" style="enable-background:new 0 0 24 24;" xml:space="preserve">
<g>
	<title>lab-flask-experiment</title>
	<path d="M6.344,23c-0.518,0-1.013-0.156-1.435-0.451c-1.13-0.79-1.406-2.352-0.616-3.481l4.71-7.708V4h-0.5
		c-0.827,0-1.5-0.673-1.5-1.5S7.674,1,8.502,1h7c0.827,0,1.5,0.673,1.5,1.5S16.329,4,15.501,4h-0.5v7.359l4.727,7.734
		c0.282,0.401,0.435,0.893,0.434,1.411c-0.001,0.667-0.262,1.295-0.735,1.766C18.956,22.741,18.329,23,17.663,23H6.344z
		 M5.128,19.615c-0.487,0.698-0.325,1.641,0.353,2.115C5.734,21.906,6.032,22,6.341,22h11.318c0.403,0,0.779-0.156,1.062-0.438
		c0.283-0.283,0.44-0.659,0.441-1.06c0.001-0.31-0.093-0.608-0.271-0.862L16.666,16H7.337L5.128,19.615z M16.055,15l-1.98-3.239
		c-0.048-0.079-0.073-0.169-0.073-0.261V10h-1.5c-0.276,0-0.5-0.224-0.5-0.5s0.224-0.5,0.5-0.5h1.5V8h-2.5
		c-0.276,0-0.5-0.224-0.5-0.5s0.224-0.5,0.5-0.5h2.5V6h-1.5c-0.276,0-0.5-0.224-0.5-0.5s0.224-0.5,0.5-0.5h1.5V4h-4v7.5
		c0,0.092-0.025,0.182-0.073,0.261L7.948,15H16.055z M8.502,2c-0.276,0-0.5,0.224-0.5,0.5S8.226,3,8.502,3h7
		c0.276,0,0.5-0.224,0.5-0.5S15.777,2,15.501,2H8.502z"/>
	<path d="M9.502,21c-1.103,0-2-0.897-2-2s0.897-2,2-2s2,0.897,2,2S10.604,21,9.502,21z M9.502,18c-0.551,0-1,0.448-1,1s0.449,1,1,1
		s1-0.448,1-1S10.053,18,9.502,18z"/>
	<circle cx="15.501" cy="20.5" r="0.75"/>
	<circle cx="13.501" cy="17.5" r="0.75"/>
</g>
</svg>
