<?xml version="1.0" encoding="utf-8"?>
<!-- Generator: Adobe Illustrator 22.1.0, SVG Export Plug-In . SVG Version: 6.00 Build 0)  -->
<svg version="1.1" id="Layer_1" xmlns="http://www.w3.org/2000/svg" xmlns:xlink="http://www.w3.org/1999/xlink" x="0px" y="0px"
	 viewBox="0 0 24 24" style="enable-background:new 0 0 24 24;" xml:space="preserve">
<g>
	<title>landmark-japan-shrine</title>
	<path d="M16.499,23.683c-0.552,0-1-0.448-1-1v-11h-7v11c0,0.552-0.449,1-1,1H5.561c-0.552,0-1-0.446-1.003-0.993
		c0-0.042,0.002-0.083,0.007-0.125l1.283-10.882H3.999c-0.276,0-0.5-0.224-0.5-0.5s0.224-0.5,0.5-0.5h1.966l0.471-4H3.359
		c-0.432,0-0.812-0.276-0.948-0.684L0.956,1.636C0.872,1.383,0.89,1.112,1.009,0.873C1.128,0.634,1.333,0.456,1.586,0.37
		c0.103-0.034,0.209-0.052,0.318-0.052c0.165,0,0.328,0.041,0.473,0.118c2.868,1.47,6.086,2.249,9.302,2.249
		c0.104,0,0.209-0.001,0.313-0.002c0.116,0.002,0.223,0.003,0.331,0.003c3.218,0,6.436-0.777,9.307-2.248
		c0.139-0.074,0.3-0.115,0.462-0.115c0.098,0,0.196,0.015,0.292,0.043c0.256,0.077,0.466,0.25,0.592,0.485
		c0.13,0.243,0.154,0.531,0.067,0.791l-1.454,4.357c-0.135,0.408-0.516,0.683-0.948,0.684h-3.078l0.471,4h1.966
		c0.276,0,0.5,0.224,0.5,0.5s-0.224,0.5-0.5,0.5h-1.848l1.283,10.882c0.005,0.04,0.007,0.081,0.007,0.121
		c-0.004,0.55-0.452,0.997-1,0.997H16.499z M16.499,22.683h1.938l-1.883-16h-0.055V22.683z M5.557,22.682l1.941,0v-16H7.443
		L5.557,22.682z M15.499,10.683v-4h-3v4H15.499z M11.499,10.683v-4h-3v4H11.499z M3.359,5.682l17.28,0l1.454-4.358
		c-3.017,1.544-6.407,2.36-9.807,2.36c-0.098,0-0.196-0.001-0.294-0.002c-0.094,0.001-0.195,0.002-0.296,0.002
		c-3.386,0-6.768-0.817-9.782-2.362L1.905,1.319L3.359,5.682z"/>
</g>
</svg>
