<?xml version="1.0" encoding="utf-8"?>
<!-- Generator: Adobe Illustrator 22.1.0, SVG Export Plug-In . SVG Version: 6.00 Build 0)  -->
<svg version="1.1" id="Layer_1" xmlns="http://www.w3.org/2000/svg" xmlns:xlink="http://www.w3.org/1999/xlink" x="0px" y="0px"
	 viewBox="0 0 24 24" style="enable-background:new 0 0 24 24;" xml:space="preserve">
<g>
	<title>lighter</title>
	<path d="M10.5,24C9.121,24,8,22.878,8,21.5V14H6.5C4.019,14,2,11.981,2,9.5v-5C2,2.019,4.019,0,6.5,0h2C8.776,0,9,0.224,9,0.5V13h3
		v-2.5c0-0.276,0.224-0.5,0.5-0.5h0.825c-0.833-0.744-1.327-1.817-1.327-2.948c-0.023-1.456,0.829-2.776,2.171-3.359
		c0.013-0.006,0.048-0.021,0.085-0.032c0.071-0.023,0.147-0.035,0.224-0.035c0.119,0,0.238,0.029,0.344,0.084
		c0.178,0.092,0.309,0.247,0.37,0.438c0.038,0.093,0.088,0.186,0.148,0.277c0.219-0.833,0.073-1.724-0.415-2.453
		c-0.14-0.204-0.168-0.466-0.074-0.7c0.076-0.187,0.219-0.332,0.403-0.41c0.093-0.04,0.192-0.06,0.292-0.06
		c0.096,0,0.19,0.018,0.281,0.054c2.454,1.094,4.049,3.521,4.079,6.189c0,1.135-0.495,2.209-1.328,2.954H19.5
		c0.276,0,0.5,0.224,0.5,0.5V13h1.5c0.276,0,0.5,0.224,0.5,0.5v8c0,1.378-1.122,2.5-2.5,2.5H10.5z M9,21.5
		c0,0.827,0.673,1.5,1.5,1.5h9c0.827,0,1.5-0.673,1.5-1.5V14H9V21.5z M19,13v-2h-2.93l-0.033,0.002
		c-0.028,0.002-0.056,0.004-0.085,0.004s-0.057-0.002-0.085-0.004L15.826,11L13,11v2H19z M6.5,1C4.57,1,3,2.57,3,4.5v5
		C3,11.43,4.57,13,6.5,13H8V1H6.5z M14.361,4.727c-0.851,0.45-1.379,1.336-1.363,2.317c0,1.601,1.25,2.898,2.845,2.956l0.227,0
		c1.586-0.058,2.836-1.353,2.836-2.948c-0.023-2.004-1.084-3.851-2.76-4.897c0.439,1.091,0.385,2.332-0.18,3.396
		c-0.067,0.126-0.185,0.218-0.324,0.251c-0.038,0.009-0.078,0.014-0.117,0.014c-0.102,0-0.2-0.031-0.285-0.089
		C14.868,5.468,14.568,5.126,14.361,4.727z"/>
</g>
</svg>
