<?xml version="1.0" encoding="utf-8"?>
<!-- Generator: Adobe Illustrator 22.1.0, SVG Export Plug-In . SVG Version: 6.00 Build 0)  -->
<svg version="1.1" id="Layer_1" xmlns="http://www.w3.org/2000/svg" xmlns:xlink="http://www.w3.org/1999/xlink" x="0px" y="0px"
	 viewBox="0 0 24 24" style="enable-background:new 0 0 24 24;" xml:space="preserve">
<g>
	<title>love-boat</title>
	<path d="M16.875,8.827c-0.41,0-0.782-0.257-0.928-0.64c-0.627-1.612-1.228-3.793-0.524-5.021c0.323-0.719,1.062-1.197,1.872-1.197
		c0.26,0,0.516,0.049,0.76,0.145c0.514,0.202,0.919,0.593,1.14,1.099c0.062,0.142,0.107,0.287,0.136,0.436
		c0.205-0.065,0.42-0.099,0.636-0.099c0.441,0,0.863,0.137,1.218,0.397c0.447,0.326,0.74,0.806,0.825,1.353
		c0.084,0.541-0.045,1.084-0.365,1.528c-0.712,1.197-2.909,1.744-4.625,1.989C16.972,8.823,16.924,8.827,16.875,8.827L16.875,8.827z
		 M17.296,2.969c-0.421,0-0.804,0.25-0.976,0.637c-0.006,0.015-0.015,0.032-0.025,0.049c-0.385,0.658-0.16,2.256,0.585,4.173
		c2.032-0.292,3.536-0.88,3.919-1.536c0.009-0.016,0.018-0.028,0.026-0.04c0.17-0.233,0.239-0.516,0.194-0.798
		c-0.044-0.282-0.195-0.531-0.426-0.699c-0.183-0.134-0.401-0.205-0.629-0.205c-0.32,0-0.62,0.14-0.823,0.384
		c-0.095,0.114-0.235,0.18-0.384,0.18c-0.089,0-0.177-0.024-0.255-0.07c-0.212-0.126-0.301-0.384-0.21-0.613
		c0.104-0.266,0.099-0.556-0.015-0.818c-0.114-0.262-0.323-0.464-0.589-0.568C17.562,2.994,17.43,2.969,17.296,2.969z"/>
	<path d="M12.007,6.72c-1.723,0-3.936-0.228-4.819-1.312C6.439,4.645,6.415,3.4,7.147,2.59c0.371-0.41,0.879-0.651,1.431-0.678
		C8.613,1.91,8.649,1.909,8.685,1.909c0.109,0,0.218,0.009,0.326,0.026c0.005-0.144,0.026-0.288,0.061-0.43
		C9.206,0.968,9.54,0.515,10.015,0.23c0.323-0.194,0.69-0.296,1.062-0.296c0.169,0,0.339,0.021,0.505,0.062
		c0.525,0.131,0.971,0.456,1.256,0.915c0.864,1.12,0.586,3.354,0.199,5.034c-0.101,0.455-0.5,0.774-0.969,0.774L12.032,6.72
		C12.031,6.72,12.008,6.72,12.007,6.72z M8.629,2.91C8.343,2.924,8.08,3.049,7.889,3.261c-0.381,0.421-0.366,1.067,0.034,1.47
		C7.936,4.744,7.947,4.757,7.958,4.77c0.476,0.595,2.01,0.949,4.104,0.949c0.362-1.566,0.545-3.497-0.025-4.209
		c-0.015-0.019-0.027-0.037-0.039-0.056c-0.147-0.244-0.38-0.417-0.658-0.487c-0.086-0.022-0.174-0.032-0.262-0.032
		c-0.192,0-0.382,0.053-0.549,0.153c-0.245,0.147-0.418,0.381-0.487,0.658c-0.069,0.277-0.026,0.565,0.121,0.811
		c0.126,0.211,0.079,0.487-0.111,0.644C9.962,3.274,9.849,3.314,9.734,3.314c-0.124,0-0.243-0.046-0.335-0.129
		C9.202,3.007,8.948,2.909,8.683,2.909C8.665,2.909,8.647,2.909,8.629,2.91z"/>
	<path d="M23.5,23.999c-0.276,0-0.5-0.224-0.5-0.5v-1.5H1v1.5c0,0.276-0.224,0.5-0.5,0.5S0,23.775,0,23.499v-12
		c0-0.276,0.224-0.5,0.5-0.5s0.5,0.224,0.5,0.5v6.5h8v-5c0-0.552,0.449-1,1-1h5.5c3.422,0,6.223,2.616,6.48,6H23v-1
		c0-0.276,0.224-0.5,0.5-0.5s0.5,0.224,0.5,0.5v6.5C24,23.775,23.776,23.999,23.5,23.999z M23,20.999v-2H1v2H23z M20.978,17.999
		c-0.253-2.824-2.611-5-5.478-5H10l0,5H20.978z"/>
	<path d="M4.5,16.999c-1.379,0-2.5-1.122-2.5-2.5s1.121-2.5,2.5-2.5s2.5,1.122,2.5,2.5S5.879,16.999,4.5,16.999z M4.5,12.999
		c-0.827,0-1.5,0.673-1.5,1.5s0.673,1.5,1.5,1.5s1.5-0.673,1.5-1.5S5.327,12.999,4.5,12.999z"/>
	<path d="M8,11.499c-1.103,0-2-0.897-2-2s0.897-2,2-2s2,0.897,2,2S9.103,11.499,8,11.499z M8,8.499c-0.551,0-1,0.449-1,1
		s0.449,1,1,1s1-0.449,1-1S8.551,8.499,8,8.499z"/>
</g>
</svg>
