<?xml version="1.0" encoding="utf-8"?>
<!-- Generator: Adobe Illustrator 22.1.0, SVG Export Plug-In . SVG Version: 6.00 Build 0)  -->
<svg version="1.1" id="Layer_1" xmlns="http://www.w3.org/2000/svg" xmlns:xlink="http://www.w3.org/1999/xlink" x="0px" y="0px"
	 viewBox="0 0 24 24" style="enable-background:new 0 0 24 24;" xml:space="preserve">
<g>
	<title>maps-pin</title>
	<path d="M12.092,7.996c-1.328,0-2.408-1.08-2.408-2.408c0-1.326,1.079-2.407,2.406-2.408c1.329,0,2.41,1.08,2.411,2.408
		C14.5,6.916,13.42,7.996,12.092,7.996z M12.09,4.18c-0.776,0.001-1.406,0.632-1.406,1.408c0,0.776,0.632,1.408,1.408,1.408
		c0.776,0,1.408-0.632,1.408-1.408C13.499,4.812,12.867,4.18,12.09,4.18l0-0.25L12.09,4.18z"/>
	<path d="M3.111,24c-0.829,0-1.501-0.669-1.505-1.492c0-0.056,0.003-0.111,0.008-0.165l1.79-17.001C3.484,4.577,4.126,4,4.895,4
		h1.841c0.702-2.365,2.875-4.001,5.352-4.001S16.74,1.635,17.441,4H19.1c0.77,0,1.411,0.578,1.491,1.343l1.79,17
		c0.042,0.398-0.073,0.789-0.326,1.1s-0.61,0.507-1.008,0.549C20.994,23.998,20.939,24,20.884,24H3.111z M20.884,23
		c0.02,0,0.039-0.001,0.058-0.003c0.133-0.014,0.252-0.079,0.336-0.183c0.084-0.104,0.123-0.234,0.109-0.367L20.918,18h-3.596
		l0.324,5H20.884z M16.644,23l-0.324-5H7.857l-0.324,5H16.644z M2.608,22.447c-0.002,0.018-0.003,0.037-0.003,0.056
		C2.607,22.777,2.831,23,3.105,23h3.426l0.324-5H3.076L2.608,22.447z M20.813,17l-0.632-6H16.87l0.389,6H20.813z M16.256,17
		l-0.389-6h-0.564c-0.879,1.328-1.805,2.536-2.435,3.324c-0.165,0.208-0.403,0.34-0.668,0.37c-0.04,0.004-0.078,0.007-0.115,0.007
		c-0.227,0-0.442-0.075-0.621-0.217c-0.06-0.048-0.114-0.102-0.161-0.161C10.677,13.535,9.755,12.327,8.879,11H8.311l-0.389,6
		H16.256z M6.92,17l0.389-6H3.813l-0.632,6H6.92z M8.437,8.319c1.125,2.128,2.926,4.472,3.65,5.382
		c0.724-0.906,2.524-3.238,3.651-5.366c0.018-0.051,0.042-0.098,0.073-0.138c0.576-1.114,0.868-1.991,0.868-2.609
		c0-2.53-2.059-4.589-4.589-4.589c-2.53,0-4.589,2.059-4.589,4.589c0,0.627,0.306,1.528,0.909,2.678
		C8.415,8.276,8.426,8.294,8.437,8.319z M20.076,10l-0.479-4.553C19.57,5.193,19.356,5,19.1,5h-1.458
		c0.024,0.208,0.036,0.402,0.036,0.588c0,0.766-0.324,1.786-0.962,3.033L16.805,10H20.076z M7.374,10l0.09-1.385
		C6.824,7.367,6.5,6.349,6.5,5.588C6.5,5.402,6.511,5.208,6.536,5H4.896C4.639,5,4.425,5.193,4.398,5.448L3.919,10H7.374z"/>
</g>
</svg>
