<?xml version="1.0" encoding="utf-8"?>
<!-- Generator: Adobe Illustrator 22.1.0, SVG Export Plug-In . SVG Version: 6.00 Build 0)  -->
<svg version="1.1" id="Layer_1" xmlns="http://www.w3.org/2000/svg" xmlns:xlink="http://www.w3.org/1999/xlink" x="0px" y="0px"
	 viewBox="0 0 24 24" style="enable-background:new 0 0 24 24;" xml:space="preserve">
<g>
	<title>medical-personnel-doctor</title>
	<path d="M7.5,9.5c-2.619,0-4.75-2.131-4.75-4.75S4.881,0,7.5,0s4.75,2.131,4.75,4.75S10.119,9.5,7.5,9.5z M3.996,3.426
		C3.833,3.852,3.75,4.296,3.75,4.75c0,2.068,1.682,3.75,3.75,3.75c2.023,0,3.678-1.611,3.748-3.618
		C10.496,5.126,9.715,5.25,8.922,5.25C7.129,5.25,5.356,4.589,3.996,3.426z M4.487,2.524C5.688,3.623,7.29,4.25,8.916,4.25
		c0.764,0,1.51-0.131,2.225-0.389C10.734,2.191,9.235,1,7.5,1C6.306,1,5.195,1.566,4.487,2.524z"/>
	<path d="M12.5,24c-0.827,0-1.5-0.673-1.5-1.5v-7c0-0.827,0.673-1.5,1.5-1.5H15v-0.5c0-0.827,0.673-1.5,1.5-1.5h2
		c0.827,0,1.5,0.673,1.5,1.5V14h2.5c0.827,0,1.5,0.673,1.5,1.5v7c0,0.827-0.673,1.5-1.5,1.5H12.5z M12.5,15
		c-0.276,0-0.5,0.224-0.5,0.5v7c0,0.276,0.224,0.5,0.5,0.5h10c0.276,0,0.5-0.224,0.5-0.5v-7c0-0.276-0.224-0.5-0.5-0.5H12.5z M19,14
		v-0.5c0-0.276-0.224-0.5-0.5-0.5h-2c-0.276,0-0.5,0.224-0.5,0.5V14H19z"/>
	<path d="M16.75,22C16.336,22,16,21.664,16,21.25V20.5h-0.75c-0.414,0-0.75-0.336-0.75-0.75v-1.5c0-0.414,0.336-0.75,0.75-0.75H16
		v-0.75c0-0.414,0.336-0.75,0.75-0.75h1.5c0.414,0,0.75,0.336,0.75,0.75v0.75h0.75c0.414,0,0.75,0.336,0.75,0.75v1.5
		c0,0.414-0.336,0.75-0.75,0.75H19v0.75c0,0.414-0.336,0.75-0.75,0.75H16.75z M18,21v-1c0-0.276,0.224-0.5,0.5-0.5h1v-1l-1,0
		c-0.276,0-0.5-0.224-0.5-0.5v-1h-1v1c0,0.276-0.224,0.5-0.5,0.5h-1v1h1c0.276,0,0.5,0.224,0.5,0.5v1H18z"/>
	<path d="M0.5,19C0.224,19,0,18.776,0,18.5v-1c0-1.315,0.347-2.612,1.005-3.751c0.769-1.332,1.906-2.38,3.289-3.03
		c0.416-0.195,0.839-0.35,1.265-0.464c0.641-0.172,1.298-0.259,1.953-0.259c1.304,0,2.596,0.349,3.738,1.008
		c0.016,0.009,0.036,0.025,0.052,0.039c0.021,0.016,0.049,0.039,0.076,0.07c0.02,0.023,0.035,0.046,0.05,0.072
		c0.013,0.022,0.03,0.052,0.043,0.092c0.011,0.031,0.016,0.062,0.019,0.083c0.004,0.017,0.01,0.043,0.01,0.076v1.13
		c0.059,0.014,0.114,0.031,0.168,0.05c0.126,0.045,0.227,0.136,0.284,0.257c0.057,0.121,0.064,0.257,0.019,0.382
		c-0.071,0.198-0.26,0.332-0.472,0.332l0,0c-0.057,0-0.112-0.01-0.166-0.028c-0.108-0.038-0.221-0.058-0.335-0.058
		c-0.55,0-0.998,0.448-0.998,1v2c0,0.276-0.224,0.5-0.5,0.5S9,16.776,9,16.5v-2c0-0.913,0.631-1.709,1.5-1.934v-0.831
		c-0.789-0.412-1.628-0.654-2.5-0.72V18h1.5c0.276,0,0.5,0.224,0.5,0.5S9.776,19,9.5,19H0.5z M7,18v-6.982
		c-0.401,0.031-0.798,0.099-1.182,0.203C5.542,11.295,5.268,11.388,5,11.499v2.587c0.59,0.209,1,0.774,1,1.414
		C6,16.327,5.327,17,4.5,17S3,16.327,3,15.5c0-0.64,0.41-1.205,1-1.414v-2.067c-0.873,0.557-1.604,1.321-2.129,2.23
		C1.301,15.236,1,16.36,1,17.5V18H7z M4.5,15C4.224,15,4,15.224,4,15.5S4.224,16,4.5,16S5,15.776,5,15.5S4.776,15,4.5,15z"/>
</g>
</svg>
