<?xml version="1.0" encoding="utf-8"?>
<!-- Generator: Adobe Illustrator 22.1.0, SVG Export Plug-In . SVG Version: 6.00 Build 0)  -->
<svg version="1.1" id="Layer_1" xmlns="http://www.w3.org/2000/svg" xmlns:xlink="http://www.w3.org/1999/xlink" x="0px" y="0px"
	 viewBox="0 0 24 24" style="enable-background:new 0 0 24 24;" xml:space="preserve">
<g>
	<title>megaphone-1</title>
	<path d="M23.5,22c-0.276,0-0.5-0.224-0.5-0.5v-0.629l-10.007-3.046c-0.057,0.97-0.46,1.877-1.152,2.575
		c-0.752,0.759-1.755,1.179-2.823,1.184c-2.214,0-4.008-1.786-4.018-3.981v-2.21l-4-1.218V14.5C1,14.776,0.776,15,0.5,15
		S0,14.776,0,14.5v-5C0,9.224,0.224,9,0.5,9S1,9.224,1,9.5v0.325L23,3.13V2.5C23,2.224,23.224,2,23.5,2S24,2.224,24,2.5v19
		C24,21.776,23.776,22,23.5,22z M6,17.6c0.008,1.645,1.353,2.984,3,2.984c0.815-0.004,1.567-0.319,2.131-0.888
		c0.564-0.569,0.873-1.324,0.869-2.125v-0.048l-6-1.826V17.6z M23,19.825V4.175L1,10.87v2.259L23,19.825z"/>
</g>
</svg>
