<?xml version="1.0" encoding="utf-8"?>
<!-- Generator: Adobe Illustrator 22.1.0, SVG Export Plug-In . SVG Version: 6.00 Build 0)  -->
<svg version="1.1" id="Light" xmlns="http://www.w3.org/2000/svg" xmlns:xlink="http://www.w3.org/1999/xlink" x="0px" y="0px"
	 viewBox="0 0 24 24" style="enable-background:new 0 0 24 24;" xml:space="preserve">
<g>
	<title>monkey</title>
	<path d="M12.437,21.007c-0.149,0-0.297-0.002-0.447-0.007c-0.133,0.005-0.282,0.007-0.431,0.007c-1.535,0-3.048-0.257-4.505-0.765
		c0.007,0.045,0.014,0.09,0.022,0.132c0.025,0.131-0.003,0.264-0.079,0.375c-0.075,0.11-0.189,0.185-0.321,0.209
		c-0.031,0.006-0.062,0.009-0.092,0.009c-0.24,0-0.447-0.171-0.491-0.408c-0.065-0.347-0.097-0.702-0.095-1.057
		c0.085-1.939,0.507-3.806,1.255-5.567C5.292,13.582,3.998,11.844,3.998,9.5c0-2.481,2.019-4.5,4.5-4.5h7c2.481,0,4.5,2.019,4.5,4.5
		c0,2.344-1.294,4.082-3.256,4.435c0.748,1.76,1.17,3.624,1.255,5.543c0,0.01,0,0.024-0.001,0.034
		c0.001,0.354-0.031,0.708-0.094,1.047c-0.044,0.236-0.25,0.407-0.491,0.407c-0.03,0-0.061-0.003-0.093-0.009
		c-0.131-0.024-0.245-0.099-0.321-0.209s-0.103-0.243-0.078-0.375c0.008-0.043,0.015-0.087,0.022-0.132
		C15.486,20.75,13.972,21.007,12.437,21.007z M12.028,20.001c0.126,0.004,0.265,0.006,0.404,0.006c1.555,0,3.083-0.283,4.544-0.841
		c-0.128-1.9-0.608-3.733-1.429-5.451c-0.075-0.156-0.064-0.336,0.029-0.482C15.667,13.087,15.825,13,15.998,13
		c1.493,0,3-1.082,3-3.5c0-1.93-1.57-3.5-3.5-3.5h-7c-1.93,0-3.5,1.57-3.5,3.5c0,2.418,1.507,3.5,3,3.5
		c0.173,0,0.331,0.087,0.423,0.234c0.092,0.146,0.103,0.326,0.028,0.482c-0.819,1.715-1.3,3.548-1.428,5.45
		c1.461,0.558,2.99,0.841,4.546,0.841c0.138,0,0.276-0.002,0.415-0.007c0.002,0,0.021,0,0.024,0C12.013,20,12.02,20,12.028,20.001z"
		/>
	<circle cx="8.248" cy="9.5" r="0.75"/>
	<circle cx="15.748" cy="9.5" r="0.75"/>
	<path d="M10.998,15.5c-0.134,0-0.259-0.052-0.354-0.146l-1-1C9.55,14.259,9.498,14.134,9.498,14s0.052-0.259,0.146-0.354
		S9.864,13.5,9.998,13.5s0.259,0.052,0.354,0.146l1,1c0.094,0.094,0.146,0.22,0.146,0.354s-0.052,0.259-0.146,0.354
		S11.132,15.5,10.998,15.5z"/>
	<path d="M12.998,15.5c-0.134,0-0.259-0.052-0.354-0.146s-0.146-0.22-0.146-0.354s0.052-0.259,0.146-0.354l1-1
		c0.094-0.094,0.22-0.146,0.354-0.146s0.259,0.052,0.354,0.146s0.146,0.22,0.146,0.354s-0.052,0.259-0.146,0.354l-1,1
		C13.257,15.448,13.132,15.5,12.998,15.5z"/>
	<path d="M11.998,24C5.267,24,2.087,20.91,2,14.28c-1.258-0.834-2.022-2.272-2.002-3.787C-0.12,9.071,0.681,7.741,2.004,7.155
		C2.159,2.407,5.521,0,11.998,0c6.478,0,9.839,2.407,9.994,7.155c1.323,0.588,2.123,1.927,2.004,3.386
		c0.021,1.477-0.742,2.906-2,3.74C21.909,20.91,18.729,24,11.998,24z M11.998,1c-5.972,0-9,2.187-9,6.5
		c0,0.217-0.139,0.408-0.346,0.476c-1.066,0.346-1.747,1.367-1.656,2.484c-0.015,1.299,0.655,2.481,1.75,3.106
		C2.902,13.655,2.998,13.821,2.998,14c0,6.224,2.776,9,9,9c6.224,0,9-2.776,9-9c0-0.179,0.097-0.345,0.252-0.434
		c1.094-0.626,1.764-1.798,1.748-3.059c0.092-1.154-0.589-2.185-1.654-2.531c-0.207-0.067-0.346-0.258-0.346-0.476
		C20.998,3.187,17.97,1,11.998,1z"/>
</g>
</svg>
