<?xml version="1.0" encoding="utf-8"?>
<!-- Generator: Adobe Illustrator 22.1.0, SVG Export Plug-In . SVG Version: 6.00 Build 0)  -->
<svg version="1.1" id="Layer_1" xmlns="http://www.w3.org/2000/svg" xmlns:xlink="http://www.w3.org/1999/xlink" x="0px" y="0px"
	 viewBox="0 0 24 24" style="enable-background:new 0 0 24 24;" xml:space="preserve">
<g>
	<title>nautic-sports-sailing-person</title>
	<path d="M3.999,9.992c-1.654,0-3-1.346-3-3s1.346-3,3-3s3,1.346,3,3S5.653,9.992,3.999,9.992z M3.999,4.992c-1.103,0-2,0.897-2,2
		s0.897,2,2,2s2-0.897,2-2S5.102,4.992,3.999,4.992z"/>
	<path d="M16.532,20.009c-0.422,0-0.801-0.267-0.942-0.664L9.565,1.336c-0.041-0.118-0.059-0.243-0.053-0.37
		C9.524,0.699,9.64,0.453,9.838,0.273c0.185-0.168,0.425-0.26,0.677-0.26l0.042,0.001c3.934,0.248,7.253,2.397,9.871,6.388
		c0.168,0.256,0.337,0.529,0.532,0.859c0.001,0.002,0.004,0.007,0.004,0.007c0.553,0.936,1.063,1.953,1.517,3.022
		c0.746,1.76,1.174,3.253,1.364,3.987c0.016,0.07,0.025,0.13,0.028,0.189c0.013,0.268-0.078,0.525-0.257,0.723
		c-0.179,0.198-0.424,0.314-0.691,0.328c-2.428,0.101-4.575,1.624-5.471,3.878c-0.118,0.268-0.325,0.461-0.586,0.555
		C16.759,19.989,16.646,20.009,16.532,20.009z M16.534,19.018c1.032-2.615,3.525-4.381,6.343-4.499
		c-0.174-0.656-0.55-1.973-1.187-3.527h-7.841L16.534,19.018z M21.257,9.992c-0.317-0.691-0.662-1.362-1.029-2h-7.382l0.669,2
		H21.257z M19.618,6.992c-0.009-0.014-0.018-0.027-0.027-0.041c-2.434-3.71-5.488-5.708-9.079-5.937l1.999,5.978H19.618z"/>
	<path d="M10.11,20.724c-0.134,0-0.26-0.052-0.354-0.147c-0.365-0.366-0.89-0.585-1.404-0.585H6c-0.823,0-1.552-0.494-1.857-1.258
		l-2-5c-0.198-0.496-0.19-1.039,0.021-1.53c0.211-0.491,0.6-0.871,1.096-1.069C3.496,11.041,3.745,10.993,4,10.993h2.549
		c0.466-0.001,0.921-0.165,1.281-0.464l1.887-1.572c0.365-0.276,0.783-0.417,1.218-0.417c0.094,0,0.19,0.007,0.284,0.02
		c0.529,0.075,0.997,0.352,1.318,0.779c0.618,0.823,0.515,1.97-0.24,2.669l-1.906,1.594c-0.974,0.81-2.185,1.292-3.444,1.377
		l0.405,1.013H8.34c1.592,0,3.133,0.64,4.244,1.757l1.392,1.585c0.182,0.207,0.161,0.524-0.046,0.706
		c-0.091,0.08-0.208,0.124-0.33,0.124c-0.144,0-0.281-0.062-0.376-0.17l-1.37-1.562c-0.907-0.911-2.186-1.439-3.498-1.439H7.013
		c-0.206,0-0.388-0.124-0.464-0.314l-0.8-2c-0.062-0.154-0.043-0.328,0.05-0.466c0.093-0.137,0.248-0.219,0.414-0.219h0.336
		c1.167,0,2.304-0.412,3.201-1.158l1.886-1.576c0.362-0.336,0.41-0.907,0.101-1.318c-0.16-0.213-0.394-0.352-0.659-0.389
		c-0.047-0.007-0.095-0.01-0.142-0.01c-0.217,0-0.425,0.069-0.599,0.201l-1.868,1.557c-0.538,0.447-1.22,0.694-1.919,0.695H4
		c-0.128,0-0.252,0.024-0.371,0.071c-0.248,0.099-0.442,0.289-0.548,0.534c-0.106,0.246-0.109,0.518-0.01,0.765l2,5
		C5.224,18.745,5.589,18.992,6,18.992h2.341c0.797,0,1.568,0.321,2.124,0.879c0.194,0.195,0.194,0.512-0.002,0.707
		C10.369,20.672,10.244,20.724,10.11,20.724z"/>
	<path d="M1.186,23.993c-0.263,0-0.527-0.028-0.784-0.082c-0.27-0.058-0.442-0.324-0.385-0.593c0.049-0.229,0.255-0.396,0.49-0.396
		c0.034,0,0.068,0.003,0.102,0.01c0.187,0.04,0.377,0.06,0.567,0.06c0,0,0,0,0,0c1.865,0,3.378-1.88,3.393-1.899
		c0.095-0.12,0.239-0.191,0.387-0.191c0.006,0,0.028,0.001,0.035,0.001c0.151,0.006,0.3,0.089,0.388,0.223
		c0.719,1.086,1.924,1.771,3.225,1.833c1.362-0.071,2.647-0.749,3.502-1.861c0.095-0.123,0.243-0.195,0.396-0.195
		c0.008,0,0.037,0.001,0.044,0.002c0.17,0.015,0.319,0.115,0.399,0.267c0.563,1.08,1.668,1.764,2.885,1.786
		c1.294-0.031,2.49-0.712,3.188-1.822c0.092-0.146,0.25-0.234,0.423-0.234c0.173,0,0.332,0.088,0.424,0.234
		c0.011,0.017,1.178,1.815,2.963,1.815c0.188,0,0.381-0.02,0.571-0.06c0.033-0.007,0.068-0.011,0.103-0.011
		c0.235,0,0.44,0.167,0.488,0.398c0.027,0.13,0.002,0.264-0.071,0.376c-0.073,0.112-0.186,0.188-0.316,0.216
		c-0.266,0.056-0.534,0.084-0.797,0.084c0,0,0,0,0,0c-1.619,0-2.788-1.061-3.357-1.718c-0.904,1.065-2.204,1.688-3.616,1.722
		c-1.354-0.025-2.597-0.662-3.394-1.721c-1.01,1.026-2.389,1.649-3.833,1.722c-1.445-0.066-2.762-0.708-3.677-1.773
		C4.26,22.856,2.882,23.993,1.186,23.993z"/>
</g>
</svg>
