<?xml version="1.0" encoding="utf-8"?>
<!-- Generator: Adobe Illustrator 22.1.0, SVG Export Plug-In . SVG Version: 6.00 Build 0)  -->
<svg version="1.1" id="Layer_1" xmlns="http://www.w3.org/2000/svg" xmlns:xlink="http://www.w3.org/1999/xlink" x="0px" y="0px"
	 viewBox="0 0 24 24" style="enable-background:new 0 0 24 24;" xml:space="preserve">
<g>
	<title>office-work-wireless</title>
	<path d="M5,5.971c-1.654,0-3-1.346-3-3s1.346-3,3-3s3,1.346,3,3S6.655,5.971,5,5.971z M5,0.971c-1.103,0-2,0.897-2,2s0.897,2,2,2
		s2-0.897,2-2S6.103,0.971,5,0.971z"/>
	<path d="M16.5,23.971c-0.276,0-0.5-0.224-0.5-0.5v-9.5h-4c-0.012,0-0.025-0.001-0.039-0.003l-2.121,0
		c-0.997,0-1.968-0.245-2.84-0.713v1.216h1.022c2.004,0,3.808,1.191,4.595,3.033l1.599,3.678c0.434,1.017-0.039,2.195-1.053,2.628
		c-0.249,0.106-0.513,0.16-0.783,0.161c-0.803,0-1.525-0.476-1.84-1.213l-1.599-3.678c-0.159-0.37-0.52-0.608-0.92-0.608h-5.64
		l-1.399,5.131c-0.059,0.217-0.258,0.369-0.482,0.369c-0.045,0-0.09-0.006-0.132-0.018c-0.265-0.073-0.422-0.348-0.35-0.614
		l1.472-5.396L0.007,8.549c-0.021-0.132,0.011-0.264,0.089-0.372c0.079-0.108,0.195-0.179,0.327-0.2
		C0.449,7.973,0.475,7.971,0.5,7.971c0.244,0,0.456,0.182,0.494,0.422l1.433,9.078h0.841C3.094,17.17,3,16.828,3,16.471v-8
		c0-1.103,0.897-2,2-2c0.585,0,1.138,0.255,1.519,0.698l1.8,2.1c0.38,0.444,0.934,0.698,1.518,0.698H12.5c1.103,0,2,0.897,2,2
		c0,0.358-0.094,0.702-0.27,1.003H23c0.276,0,0.5,0.224,0.5,0.5s-0.224,0.5-0.5,0.5h-6v9.5C17,23.746,16.776,23.971,16.5,23.971z
		 M5,7.471c-0.551,0-1,0.449-1,1v8c0,0.552,0.449,1,1,1h3.022c0.801,0,1.522,0.476,1.838,1.212l1.599,3.678
		c0.159,0.371,0.52,0.609,0.921,0.609c0.136,0,0.268-0.027,0.392-0.08c0.507-0.217,0.744-0.805,0.527-1.312L11.7,17.9
		c-0.631-1.476-2.075-2.429-3.678-2.429H6.5c-0.276,0-0.5-0.224-0.5-0.5v-2.63c0-0.191,0.107-0.363,0.278-0.448
		C6.347,11.858,6.424,11.84,6.5,11.84c0.109,0,0.217,0.036,0.303,0.103c0.865,0.661,1.941,1.025,3.03,1.025H12.5
		c0.552,0,1-0.449,1-1s-0.448-1-1-1H9.839c-0.879,0-1.709-0.382-2.28-1.048l-1.8-2.1C5.569,7.598,5.293,7.471,5,7.471z"/>
	<path d="M16,11.971c-0.276,0-0.5-0.224-0.5-0.5s0.224-0.5,0.5-0.5h4.8c0.209,0,0.397-0.133,0.469-0.329L23.031,5.8
		c0.071-0.197,0.26-0.329,0.47-0.329c0.058,0,0.115,0.01,0.17,0.03c0.126,0.046,0.227,0.138,0.283,0.259
		c0.056,0.121,0.062,0.257,0.016,0.382l-1.761,4.841c-0.214,0.59-0.78,0.987-1.408,0.988H16z"/>
	<circle cx="17" cy="6.67" r="0.75"/>
	<path d="M21,2.386c-0.114,0-0.225-0.04-0.314-0.111C19.653,1.439,18.345,0.979,17,0.979s-2.653,0.46-3.686,1.295
		C13.226,2.346,13.114,2.386,13,2.386c-0.152,0-0.293-0.068-0.389-0.186c-0.084-0.104-0.122-0.234-0.108-0.367
		c0.014-0.133,0.079-0.252,0.183-0.336C13.895,0.519,15.427-0.02,17-0.02s3.105,0.539,4.314,1.517
		c0.104,0.084,0.169,0.203,0.183,0.336c0.014,0.133-0.025,0.263-0.109,0.367C21.294,2.318,21.152,2.386,21,2.386z"/>
	<path d="M19.333,4.801c-0.114,0-0.225-0.039-0.314-0.111C18.454,4.232,17.737,3.981,17,3.981s-1.453,0.252-2.019,0.709
		c-0.089,0.072-0.201,0.111-0.314,0.111c-0.152,0-0.293-0.068-0.389-0.186c-0.084-0.104-0.123-0.234-0.109-0.367
		c0.014-0.133,0.079-0.252,0.183-0.336c0.742-0.6,1.682-0.93,2.647-0.93s1.905,0.33,2.647,0.93c0.104,0.084,0.169,0.203,0.183,0.336
		c0.014,0.133-0.025,0.263-0.109,0.367C19.627,4.733,19.485,4.801,19.333,4.801z"/>
</g>
</svg>
