<?xml version="1.0" encoding="utf-8"?>
<!-- Generator: Adobe Illustrator 22.1.0, SVG Export Plug-In . SVG Version: 6.00 Build 0)  -->
<svg version="1.1" id="Layer_1" xmlns="http://www.w3.org/2000/svg" xmlns:xlink="http://www.w3.org/1999/xlink" x="0px" y="0px"
	 viewBox="0 0 24 24" style="enable-background:new 0 0 24 24;" xml:space="preserve">
<g>
	<title>optimization-timer-1</title>
	<path d="M19.988,20c-0.276,0-0.5-0.224-0.5-0.5s0.224-0.5,0.5-0.5H21.5c0.827,0,1.5-0.673,1.5-1.5V6H1v11.5
		C1,18.327,1.673,19,2.5,19h1.406c0.276,0,0.5,0.224,0.5,0.5S4.182,20,3.906,20H2.5C1.121,20,0,18.878,0,17.5v-15
		C0,1.121,1.121,0,2.5,0h19C22.878,0,24,1.121,24,2.5v15c0,1.378-1.122,2.5-2.5,2.5H19.988z M23,5V2.5C23,1.673,22.327,1,21.5,1h-19
		C1.673,1,1,1.673,1,2.5V5H23z"/>
	<circle cx="4" cy="3" r="0.75"/>
	<circle cx="7" cy="3" r="0.75"/>
	<circle cx="10" cy="3" r="0.75"/>
	<path d="M12,24c-3.584,0-6.5-2.916-6.5-6.5c0-1.796,0.746-3.508,2.056-4.737l-0.909-0.909C6.552,11.759,6.5,11.634,6.5,11.5
		s0.052-0.259,0.146-0.354S6.866,11,7,11s0.259,0.052,0.354,0.146l0.986,0.986c0.941-0.644,2.025-1.025,3.161-1.112V9h-1
		C10.224,9,10,8.776,10,8.5S10.224,8,10.5,8h3C13.776,8,14,8.224,14,8.5S13.776,9,13.5,9h-1v2.021
		c1.136,0.087,2.22,0.468,3.16,1.112l0.986-0.986C16.741,11.052,16.866,11,17,11s0.259,0.052,0.354,0.146S17.5,11.366,17.5,11.5
		s-0.052,0.259-0.146,0.354l-0.909,0.909c1.31,1.229,2.056,2.941,2.056,4.737C18.5,21.084,15.584,24,12,24z M12,12
		c-3.033,0-5.5,2.467-5.5,5.5S8.967,23,12,23s5.5-2.467,5.5-5.5S15.033,12,12,12z"/>
	<path d="M12.53,17.47c-0.134,0-0.259-0.052-0.354-0.146c-0.195-0.195-0.195-0.512,0-0.707l1.591-1.591
		c0.094-0.094,0.22-0.146,0.354-0.146s0.259,0.052,0.354,0.146s0.146,0.22,0.146,0.354s-0.052,0.259-0.146,0.354l-1.591,1.591
		C12.789,17.418,12.664,17.47,12.53,17.47z"/>
	<path d="M12,18.25c-0.2,0-0.389-0.078-0.53-0.219c-0.289-0.293-0.29-0.768-0.003-1.059c0.002-0.002,0.004-0.004,0.006-0.006
		c0.141-0.139,0.328-0.216,0.526-0.216c0.201,0,0.39,0.079,0.531,0.221c0.141,0.141,0.219,0.329,0.219,0.53
		c0,0.2-0.078,0.389-0.221,0.53C12.388,18.172,12.2,18.25,12,18.25z"/>
</g>
</svg>
