<?xml version="1.0" encoding="utf-8"?>
<!-- Generator: Adobe Illustrator 22.1.0, SVG Export Plug-In . SVG Version: 6.00 Build 0)  -->
<svg version="1.1" id="Layer_1" xmlns="http://www.w3.org/2000/svg" xmlns:xlink="http://www.w3.org/1999/xlink" x="0px" y="0px"
	 viewBox="0 0 24 24" style="enable-background:new 0 0 24 24;" xml:space="preserve">
<g>
	<title>outdoors-tree-valley</title>
	<path d="M15.45,23.269c-0.117,0-0.231-0.042-0.321-0.117c-2.971-2.5-6.758-3.876-10.664-3.876c-1.297,0-2.592,0.154-3.847,0.456
		c-0.037,0.009-0.078,0.014-0.118,0.014c-0.231,0-0.431-0.157-0.485-0.383c-0.031-0.13-0.01-0.264,0.06-0.378
		c0.07-0.114,0.18-0.194,0.31-0.225c1.328-0.32,2.699-0.483,4.075-0.483c0.512,0,1.03,0.023,1.542,0.068V15.27H1.442
		c-0.386,0-0.748-0.151-1.02-0.424c-0.551-0.552-0.559-1.453-0.021-2.015l1.22-1.557c-0.186-0.069-0.358-0.177-0.503-0.318
		c-0.276-0.269-0.431-0.629-0.436-1.014c-0.005-0.385,0.14-0.75,0.409-1.026l1.842-2.221c-0.199-0.081-0.379-0.206-0.526-0.37
		C1.874,5.735,1.922,4.821,2.512,4.289l2.895-3.082C5.43,1.183,5.452,1.161,5.474,1.14c0.277-0.261,0.644-0.406,1.03-0.406
		l0.04,0.001c0.401,0.012,0.773,0.179,1.048,0.471l2.909,3.079C10.518,4.3,10.534,4.315,10.55,4.33
		c0.279,0.265,0.438,0.623,0.448,1.008c0.01,0.385-0.131,0.751-0.396,1.03c-0.147,0.155-0.325,0.274-0.52,0.35l1.781,2.209
		c0.542,0.56,0.539,1.462-0.01,2.018c-0.145,0.146-0.317,0.258-0.504,0.331l1.254,1.56c0.248,0.251,0.394,0.607,0.396,0.985
		c0.003,0.797-0.642,1.447-1.438,1.45H7v3.192c3.249,0.472,6.278,1.827,8.772,3.925c0.102,0.086,0.165,0.207,0.177,0.34
		c0.011,0.133-0.03,0.263-0.115,0.365C15.737,23.204,15.598,23.269,15.45,23.269z M2.8,10.08c0.121,0,0.238,0.044,0.329,0.124
		c0.2,0.175,0.228,0.476,0.065,0.685L1.171,13.47c-0.013,0.016-0.025,0.03-0.039,0.044c-0.174,0.174-0.174,0.454-0.002,0.627
		c0.082,0.082,0.196,0.129,0.312,0.13h10.115c0.243-0.001,0.441-0.201,0.44-0.446c0-0.118-0.047-0.229-0.13-0.312
		c-0.013-0.012-0.026-0.027-0.038-0.043l-2.054-2.556c-0.166-0.206-0.142-0.507,0.055-0.684c0.093-0.083,0.211-0.129,0.335-0.129
		c0.133,0,0.257,0.051,0.352,0.144c0.083,0.082,0.194,0.128,0.311,0.128c0.119,0,0.231-0.047,0.314-0.131
		c0.171-0.173,0.17-0.454-0.004-0.626c-0.013-0.012-0.025-0.026-0.037-0.041L8.519,6.372C8.354,6.168,8.376,5.868,8.569,5.69
		c0.093-0.085,0.213-0.133,0.339-0.133c0.129,0,0.251,0.049,0.344,0.138c0.084,0.079,0.185,0.122,0.292,0.122
		c0.142-0.004,0.252-0.052,0.333-0.138c0.081-0.086,0.124-0.198,0.121-0.316C9.995,5.245,9.947,5.136,9.861,5.054L9.84,5.036
		C9.824,5.022,9.808,5.008,9.794,4.993l-2.93-3.101c-0.092-0.098-0.216-0.153-0.35-0.157c0,0,0,0-0.001,0
		c-0.142,0-0.264,0.048-0.357,0.136L6.134,1.894L3.211,5.003C3.004,5.191,2.983,5.472,3.149,5.656
		c0.083,0.093,0.203,0.146,0.329,0.146c0.109,0,0.215-0.04,0.296-0.113C3.866,5.606,3.985,5.56,4.109,5.56
		c0.13,0,0.253,0.05,0.347,0.14c0.188,0.18,0.205,0.479,0.038,0.68l-2.66,3.205C1.727,9.696,1.68,9.807,1.682,9.928
		c0.002,0.118,0.049,0.229,0.134,0.311c0.086,0.084,0.181,0.126,0.283,0.126c0.004,0,0.028-0.001,0.032-0.001
		c0.118-0.002,0.229-0.049,0.311-0.134C2.537,10.134,2.664,10.08,2.8,10.08z"/>
	<path d="M11.571,18.537c-0.175,0-0.333-0.088-0.425-0.237c-0.145-0.233-0.073-0.542,0.161-0.688
		c2.009-1.248,4.318-2.027,6.693-2.26v-2.084l-3.285,0.003c-0.041,0-0.08-0.005-0.118-0.014c-0.233-0.055-0.452-0.171-0.631-0.334
		c-0.281-0.257-0.445-0.608-0.461-0.988c-0.017-0.374,0.112-0.733,0.362-1.012l1.546-2.073c-0.354-0.185-0.637-0.542-0.74-0.956
		c-0.123-0.496,0.019-0.984,0.39-1.341l2.236-3.011c0.086-0.115,0.186-0.216,0.299-0.302c0.263-0.199,0.575-0.304,0.903-0.304
		c0.069,0,0.138,0.005,0.208,0.014c0.397,0.055,0.748,0.261,0.99,0.58l2.283,3.009c0.375,0.357,0.52,0.845,0.399,1.342
		c-0.102,0.421-0.391,0.783-0.753,0.967l1.507,2.075c0.139,0.157,0.243,0.345,0.302,0.546c0.221,0.756-0.213,1.551-0.969,1.772
		c-0.046,0.013-0.093,0.02-0.14,0.02L19,13.268v2.019c0.176-0.006,0.352-0.009,0.527-0.009c1.394,0,2.776,0.186,4.106,0.552
		c0.129,0.035,0.236,0.119,0.302,0.235c0.066,0.116,0.083,0.251,0.047,0.38c-0.059,0.216-0.258,0.367-0.482,0.367l0,0
		c-0.045,0-0.089-0.006-0.132-0.018c-1.251-0.344-2.545-0.519-3.848-0.519c-2.725,0-5.382,0.756-7.684,2.187
		C11.755,18.511,11.664,18.537,11.571,18.537z M16.514,7.711c0.116,0,0.229,0.04,0.318,0.114c0.207,0.17,0.243,0.471,0.083,0.685
		l-2.268,3.038c-0.011,0.015-0.022,0.027-0.032,0.039c-0.076,0.083-0.116,0.191-0.111,0.304c0.005,0.113,0.054,0.218,0.137,0.294
		c0.041,0.038,0.09,0.067,0.143,0.086l7.458-0.008c0.194-0.086,0.296-0.304,0.236-0.511c-0.019-0.064-0.052-0.123-0.097-0.171
		c-0.013-0.014-0.025-0.029-0.037-0.044l-2.202-3.033c-0.155-0.214-0.116-0.513,0.088-0.68c0.09-0.073,0.202-0.113,0.317-0.113
		c0.139,0,0.273,0.059,0.368,0.161c0.066,0.071,0.126,0.108,0.18,0.108c0.013,0,0.026-0.002,0.04-0.005
		c0.12-0.031,0.238-0.172,0.276-0.328c0.037-0.151-0.008-0.285-0.132-0.396c-0.025-0.023-0.046-0.046-0.065-0.07l-2.31-3.044
		c-0.081-0.107-0.198-0.176-0.33-0.194c-0.024-0.004-0.048-0.005-0.072-0.005c-0.108,0-0.211,0.035-0.299,0.102
		c-0.038,0.029-0.072,0.062-0.1,0.101l-2.262,3.047c-0.02,0.027-0.042,0.051-0.066,0.073c-0.124,0.111-0.167,0.244-0.129,0.396
		c0.044,0.178,0.177,0.302,0.278,0.328c0.013,0.003,0.026,0.005,0.038,0.005c0.055,0,0.117-0.037,0.184-0.111
		C16.238,7.771,16.373,7.711,16.514,7.711z"/>
</g>
</svg>
