<?xml version="1.0" encoding="utf-8"?>
<!-- Generator: Adobe Illustrator 22.1.0, SVG Export Plug-In . SVG Version: 6.00 Build 0)  -->
<svg version="1.1" id="Layer_1" xmlns="http://www.w3.org/2000/svg" xmlns:xlink="http://www.w3.org/1999/xlink" x="0px" y="0px"
	 viewBox="0 0 24 24" style="enable-background:new 0 0 24 24;" xml:space="preserve">
<g>
	<title>people-woman-glasses-1</title>
	<path d="M23,24c-0.276,0-0.5-0.224-0.5-0.5v-3.106c0.003-0.461-0.212-0.903-0.575-1.183c-0.551-0.42-1.504-1.033-2.913-1.566
		c0,0-0.026-0.009-0.032-0.012c-0.54-0.203-1.116-0.381-1.712-0.531c-0.493,2.846-2.276,5.35-4.812,6.736
		c-0.147,0.074-0.303,0.112-0.458,0.112c-0.153,0-0.305-0.036-0.441-0.105c-2.546-1.392-4.332-3.896-4.825-6.741
		c-0.602,0.151-1.181,0.331-1.725,0.536C5,17.643,4.981,17.65,4.974,17.652c-1.39,0.525-2.347,1.14-2.901,1.561
		c-0.361,0.278-0.576,0.719-0.573,1.178V23.5C1.5,23.776,1.276,24,1,24s-0.5-0.224-0.5-0.5v-3.106
		c-0.005-0.766,0.355-1.505,0.965-1.975c0.621-0.472,1.366-0.913,2.177-1.29l-0.765-0.382c-0.074-0.037-0.144-0.083-0.207-0.137
		c-0.202-0.173-0.325-0.416-0.345-0.682s0.064-0.525,0.237-0.727C3.812,13.744,4.5,11.885,4.5,9.966V7.5
		C4.498,6.019,4.957,4.532,5.795,3.296C5.602,2.893,5.5,2.448,5.5,2c0-2,1.952-2,3-2c0.895,0,2.349,0,2.835,1.133
		c0.135-0.056,0.276-0.094,0.423-0.114c0.081-0.011,0.163-0.017,0.245-0.017c0.228,0,0.453,0.045,0.662,0.132
		C13.151,0,14.604,0,15.5,0c1.048,0,3,0,3,2c0,0.448-0.102,0.893-0.295,1.295c0.839,1.236,1.297,2.723,1.295,4.206v2.465
		c-0.001,1.919,0.686,3.778,1.934,5.235c0.053,0.062,0.1,0.131,0.137,0.205c0.119,0.239,0.139,0.51,0.054,0.764
		s-0.263,0.459-0.501,0.578l-0.762,0.381c0.811,0.377,1.553,0.817,2.171,1.289c0.611,0.471,0.972,1.211,0.967,1.98V23.5
		C23.5,23.776,23.276,24,23,24z M7.71,16.887c0.428,2.559,2.019,4.812,4.293,6.062c2.264-1.243,3.859-3.499,4.288-6.064
		C14.963,16.63,13.521,16.5,12,16.5C10.481,16.5,9.039,16.63,7.71,16.887z M6.427,4.166C5.825,5.171,5.498,6.343,5.5,7.499v2.467
		c0,2.158-0.774,4.248-2.18,5.886l1.55,0.774c0.686-0.247,1.421-0.456,2.187-0.624C7.063,16.001,7.067,16,7.072,15.999
		C8.591,15.668,10.249,15.5,12,15.5c2.66,0,5.059,0.378,7.134,1.125l1.542-0.772c-1.405-1.639-2.177-3.729-2.176-5.887V7.5
		c0.002-1.157-0.325-2.329-0.926-3.335C17.018,4.699,16.278,5,15.5,5c-1.59,0-2.885-1.221-2.99-2.797
		c-0.019-0.018-0.038-0.034-0.056-0.049c-0.132-0.099-0.288-0.152-0.451-0.152c-0.035,0-0.071,0.002-0.106,0.007
		c-0.153,0.021-0.292,0.089-0.406,0.197C11.383,3.781,10.088,5,8.5,5C7.722,5,6.983,4.699,6.427,4.166z M15.5,1
		c-1.698,0-2,0.262-2,1c0,1.103,0.897,2,2,2s2-0.897,2-2C17.5,1.262,17.198,1,15.5,1z M8.5,1c-1.698,0-2,0.262-2,1
		c0,1.103,0.897,2,2,2s2-0.897,2-2C10.5,1.262,10.198,1,8.5,1z"/>
	<path d="M12,11.996c-0.648,0-1.287-0.212-1.8-0.597c-0.107-0.08-0.176-0.197-0.195-0.329C9.986,10.938,10.02,10.807,10.1,10.7
		c0.094-0.125,0.244-0.2,0.4-0.2c0.109,0,0.213,0.035,0.3,0.1c0.341,0.256,0.768,0.397,1.2,0.397c0.432,0,0.859-0.141,1.2-0.397
		c0.086-0.065,0.19-0.1,0.3-0.1c0.156,0,0.306,0.075,0.4,0.2c0.08,0.107,0.114,0.238,0.095,0.371
		c-0.019,0.132-0.088,0.249-0.195,0.329C13.287,11.785,12.648,11.996,12,11.996z"/>
	<circle cx="14" cy="8.5" r="0.75"/>
	<circle cx="10" cy="8.5" r="0.75"/>
	<path d="M12,15c-3.033,0-5.5-2.467-5.5-5.5V6.975c0-0.141,0.06-0.277,0.165-0.371c0.092-0.083,0.211-0.129,0.336-0.129
		c0.008,0,0.041,0.002,0.049,0.002C7.195,6.492,7.342,6.5,7.476,6.5c1.737,0,3.326-0.996,4.074-2.536
		c0.081-0.167,0.253-0.27,0.45-0.27s0.369,0.104,0.45,0.27C13.197,5.505,14.786,6.5,16.499,6.5c0.156,0,0.305-0.008,0.45-0.022
		c0.008-0.001,0.041-0.003,0.05-0.003c0.125,0,0.244,0.046,0.336,0.129C17.44,6.698,17.5,6.834,17.5,6.975V9.5
		C17.5,12.533,15.033,15,12,15z M7.5,9.5c0,2.481,2.019,4.5,4.5,4.5c2.481,0,4.5-2.019,4.5-4.5v-2l-0.007,0
		c-1.779,0-3.468-0.887-4.493-2.338C10.975,6.613,9.286,7.5,7.501,7.5c0,0-0.001,0-0.001,0V9.5z"/>
</g>
</svg>
