<?xml version="1.0" encoding="utf-8"?>
<!-- Generator: Adobe Illustrator 22.1.0, SVG Export Plug-In . SVG Version: 6.00 Build 0)  -->
<svg version="1.1" id="Layer_1" xmlns="http://www.w3.org/2000/svg" xmlns:xlink="http://www.w3.org/1999/xlink" x="0px" y="0px"
	 viewBox="0 0 24 24" style="enable-background:new 0 0 24 24;" xml:space="preserve">
<g>
	<title>people-man-graduate</title>
	<path d="M12,13.997c-0.648,0-1.287-0.212-1.8-0.597c-0.107-0.08-0.176-0.197-0.195-0.329C9.986,12.939,10.02,12.807,10.1,12.7
		c0.094-0.125,0.243-0.2,0.4-0.2c0.109,0,0.212,0.034,0.3,0.1c0.342,0.256,0.768,0.397,1.2,0.397c0.432,0,0.859-0.141,1.2-0.397
		c0.087-0.065,0.191-0.1,0.3-0.1c0.157,0,0.306,0.075,0.4,0.2c0.08,0.106,0.114,0.238,0.095,0.37
		c-0.019,0.132-0.088,0.25-0.195,0.33C13.287,13.785,12.648,13.997,12,13.997z"/>
	<path d="M23,24c-0.276,0-0.5-0.224-0.5-0.5v-1.106c0.003-0.461-0.212-0.903-0.575-1.183c-0.834-0.636-2.305-1.511-4.604-2.095
		l-4.631,4.415c-0.188,0.178-0.433,0.277-0.69,0.277c-0.258,0-0.503-0.098-0.69-0.277l-4.63-4.414
		c-2.295,0.584-3.77,1.459-4.607,2.096c-0.361,0.278-0.576,0.719-0.573,1.178V23.5C1.5,23.776,1.276,24,1,24s-0.5-0.224-0.5-0.5
		v-1.106c-0.005-0.766,0.355-1.505,0.965-1.975C2.899,19.328,6.174,17.5,12,17.5c5.839,0,9.105,1.828,10.533,2.917
		c0.611,0.471,0.972,1.21,0.967,1.98V23.5C23.5,23.776,23.276,24,23,24z M12,22.807l4.142-3.949C14.853,18.621,13.463,18.5,12,18.5
		c-1.462,0-2.852,0.121-4.141,0.359L12,22.807z"/>
	<circle cx="14" cy="10.5" r="0.75"/>
	<circle cx="10" cy="10.5" r="0.75"/>
	<path d="M12,17c-3.584,0-6.5-2.916-6.5-6.5V4.534l-3-0.682V8.37c0.722,1.266,1.067,2.701,1,4.154C3.487,12.791,3.268,13,3,13H1
		c-0.268,0-0.487-0.209-0.5-0.477c-0.068-1.453,0.278-2.887,1-4.154V3.395C1.396,3.228,1.362,3.03,1.405,2.837
		c0.063-0.283,0.287-0.506,0.569-0.569l9.692-2.206c0.109-0.025,0.22-0.037,0.333-0.037c0.112,0,0.224,0.012,0.332,0.037
		l9.706,2.206c0.194,0.043,0.36,0.16,0.468,0.329c0.107,0.169,0.142,0.37,0.099,0.565c-0.062,0.282-0.286,0.506-0.568,0.569
		L18.5,4.536V10.5C18.5,14.084,15.584,17,12,17z M6.5,10.5c0,3.033,2.467,5.5,5.5,5.5s5.5-2.467,5.5-5.5V8.273
		C16.612,8.592,14.907,9,12,9C9.093,9,7.388,8.592,6.5,8.273V10.5z M2.506,12C2.485,11.181,2.313,10.368,2,9.613
		C1.687,10.369,1.515,11.181,1.494,12H2.506z M6.5,7.195C7.068,7.448,8.691,8,12,8c3.308,0,4.931-0.553,5.5-0.806V4.764
		l-5.162,1.174c-0.109,0.025-0.221,0.037-0.333,0.037c-0.112,0-0.223-0.012-0.332-0.037L6.5,4.762V7.195z M11.894,4.963
		c0.036,0.008,0.073,0.012,0.111,0.012c0.038,0,0.075-0.004,0.112-0.012L20.744,3l-8.633-1.963C12.075,1.03,12.038,1.026,12,1.026
		c-0.038,0-0.076,0.004-0.112,0.012L3.265,3L11.894,4.963z"/>
</g>
</svg>
