<?xml version="1.0" encoding="utf-8"?>
<!-- Generator: Adobe Illustrator 22.1.0, SVG Export Plug-In . SVG Version: 6.00 Build 0)  -->
<svg version="1.1" id="Layer_1" xmlns="http://www.w3.org/2000/svg" xmlns:xlink="http://www.w3.org/1999/xlink" x="0px" y="0px"
	 viewBox="0 0 24 24" style="enable-background:new 0 0 24 24;" xml:space="preserve">
<g>
	<title>pin-monitor</title>
	<path d="M5.9,24c-0.276,0-0.5-0.224-0.5-0.5S5.624,23,5.9,23h1.46l0.093-0.15c0.032-0.052,0.074-0.098,0.124-0.135
		C8.133,22.298,8.481,21.683,8.556,21H1.5C0.673,21,0,20.327,0,19.5v-12C0,6.673,0.673,6,1.5,6h12C13.776,6,14,6.224,14,6.5
		S13.776,7,13.5,7h-12C1.224,7,1,7.224,1,7.5V17h19v-3.5c0-0.276,0.224-0.5,0.5-0.5s0.5,0.224,0.5,0.5v6c0,0.827-0.673,1.5-1.5,1.5
		h-7.056c0.076,0.683,0.424,1.297,0.979,1.714c0.05,0.037,0.091,0.083,0.124,0.135L13.64,23h1.46c0.276,0,0.5,0.224,0.5,0.5
		S15.376,24,15.1,24H5.9z M12.275,23c-0.482-0.558-0.776-1.255-0.835-2H9.56c-0.059,0.745-0.353,1.442-0.835,2H12.275z M1,19.5
		C1,19.776,1.224,20,1.5,20h18c0.276,0,0.5-0.224,0.5-0.5V18H1V19.5z"/>
	<path d="M19.499,11.704c-0.227,0-0.441-0.075-0.619-0.216c-0.059-0.047-0.114-0.101-0.162-0.161C17.329,9.571,15,6.351,15,4.5
		C15,2.019,17.019,0,19.5,0S24,2.019,24,4.5c0,1.854-2.328,5.072-3.716,6.824c-0.166,0.21-0.404,0.342-0.669,0.373
		C19.576,11.702,19.537,11.704,19.499,11.704z M19.5,1C17.57,1,16,2.57,16,4.5c0,1.312,1.808,4.065,3.5,6.204
		C21.192,8.566,23,5.814,23,4.5C23,2.57,21.43,1,19.5,1z"/>
	<path d="M19.5,6.5c-1.103,0-2-0.897-2-2s0.897-2,2-2s2,0.897,2,2S20.603,6.5,19.5,6.5z M19.5,3.5c-0.552,0-1,0.449-1,1s0.448,1,1,1
		s1-0.449,1-1S20.052,3.5,19.5,3.5z"/>
</g>
</svg>
