<?xml version="1.0" encoding="utf-8"?>
<!-- Generator: Adobe Illustrator 22.1.0, SVG Export Plug-In . SVG Version: 6.00 Build 0)  -->
<svg version="1.1" id="Layer_1" xmlns="http://www.w3.org/2000/svg" xmlns:xlink="http://www.w3.org/1999/xlink" x="0px" y="0px"
	 viewBox="0 0 24 24" style="enable-background:new 0 0 24 24;" xml:space="preserve">
<g>
	<title>presentation-board-graph</title>
	<path d="M16.5,24c-0.134,0-0.259-0.052-0.354-0.146l-4.293-4.293c-0.094-0.094-0.22-0.146-0.354-0.146
		c-0.134,0-0.259,0.052-0.353,0.146l-4.293,4.293C6.759,23.948,6.634,24,6.5,24s-0.259-0.052-0.354-0.146
		c-0.195-0.195-0.195-0.512,0-0.707l4.293-4.293c0.159-0.159,0.35-0.279,0.561-0.353V16H1.5C0.673,16,0,15.327,0,14.5v-13
		C0,0.673,0.673,0,1.5,0h21C23.327,0,24,0.673,24,1.5v13c0,0.827-0.673,1.5-1.5,1.5H12v2.501c0.211,0.074,0.402,0.194,0.561,0.353
		l4.293,4.293c0.195,0.195,0.195,0.512,0,0.707C16.759,23.948,16.634,24,16.5,24z M1,14.5C1,14.776,1.224,15,1.5,15h21
		c0.276,0,0.5-0.224,0.5-0.5v-13C23,1.224,22.776,1,22.5,1h-21C1.224,1,1,1.224,1,1.5V8h5.17l0.887-2.067
		c0.158-0.368,0.519-0.605,0.92-0.605c0.136,0,0.269,0.027,0.394,0.081c0.246,0.106,0.442,0.31,0.538,0.559l1.67,4.343l2.073-3.8
		c0.127-0.234,0.339-0.405,0.595-0.48c0.093-0.027,0.188-0.041,0.284-0.041c0.165,0,0.33,0.042,0.477,0.122
		c0.15,0.082,0.278,0.202,0.369,0.348l1.552,2.486l2.114-4.652C18.125,4.115,18.304,4,18.5,4c0.072,0,0.141,0.015,0.207,0.045
		c0.251,0.114,0.363,0.411,0.249,0.662l-2.113,4.652c-0.081,0.18-0.213,0.331-0.381,0.436c-0.159,0.099-0.342,0.152-0.528,0.152
		c-0.076,0-0.153-0.009-0.229-0.026c-0.26-0.06-0.48-0.219-0.622-0.446L13.531,6.99l-2.073,3.801
		c-0.114,0.208-0.298,0.37-0.52,0.455c-0.116,0.044-0.236,0.067-0.359,0.067c-0.14,0-0.277-0.029-0.407-0.087
		c-0.244-0.109-0.431-0.306-0.527-0.555l-1.67-4.342l-0.887,2.07C6.929,8.764,6.569,9,6.172,9H1V14.5z"/>
</g>
</svg>
