<?xml version="1.0" encoding="utf-8"?>
<!-- Generator: Adobe Illustrator 22.1.0, SVG Export Plug-In . SVG Version: 6.00 Build 0)  -->
<svg version="1.1" id="Layer_1" xmlns="http://www.w3.org/2000/svg" xmlns:xlink="http://www.w3.org/1999/xlink" x="0px" y="0px"
	 viewBox="0 0 24 24" style="enable-background:new 0 0 24 24;" xml:space="preserve">
<g>
	<title>print-text</title>
	<path d="M7.5,20C7.224,20,7,19.776,7,19.5S7.224,19,7.5,19h9c0.276,0,0.5,0.224,0.5,0.5S16.776,20,16.5,20H7.5z"/>
	<path d="M7.5,17C7.224,17,7,16.776,7,16.5S7.224,16,7.5,16h9c0.276,0,0.5,0.224,0.5,0.5S16.776,17,16.5,17H7.5z"/>
	<path d="M6.5,24C5.673,24,5,23.327,5,22.5V17H2.5c-1.375-0.004-2.496-1.125-2.5-2.499V8.5C0.004,7.125,1.125,6.004,2.499,6H21.5
		c1.375,0.004,2.497,1.125,2.5,2.499V14.5c-0.004,1.375-1.125,2.496-2.499,2.5H19v5.5c0,0.827-0.673,1.5-1.5,1.5H6.5z M6,22.5
		C6,22.776,6.224,23,6.5,23h11c0.276,0,0.5-0.224,0.5-0.5V14H6V22.5z M21.5,16c0.824-0.002,1.498-0.676,1.5-1.501V8.5
		c-0.002-0.825-0.676-1.498-1.501-1.5H2.5C1.675,7.002,1.002,7.676,1,8.501V14.5c0.003,0.824,0.676,1.498,1.501,1.5H5v-2.5
		C5,13.224,5.224,13,5.5,13h13c0.276,0,0.5,0.224,0.5,0.5V16H21.5z"/>
	<path d="M14.5,5C14.224,5,14,4.776,14,4.5V1H6v3.5C6,4.776,5.776,5,5.5,5S5,4.776,5,4.5v-4C5,0.224,5.224,0,5.5,0h9.586
		c0.401,0,0.777,0.156,1.061,0.439l2.414,2.414C18.844,3.137,19,3.513,19,3.914V4.5C19,4.776,18.776,5,18.5,5H14.5z M18,4V3.914
		c0-0.133-0.052-0.259-0.146-0.353l-2.414-2.414C15.346,1.053,15.218,1,15.086,1H15v3H18z"/>
	<path d="M3.5,11C2.673,11,2,10.327,2,9.5S2.673,8,3.5,8S5,8.673,5,9.5S4.327,11,3.5,11z M3.5,9C3.224,9,3,9.224,3,9.5
		S3.224,10,3.5,10S4,9.776,4,9.5S3.776,9,3.5,9z"/>
</g>
</svg>
