<?xml version="1.0" encoding="utf-8"?>
<!-- Generator: Adobe Illustrator 22.1.0, SVG Export Plug-In . SVG Version: 6.00 Build 0)  -->
<svg version="1.1" id="Layer_1" xmlns="http://www.w3.org/2000/svg" xmlns:xlink="http://www.w3.org/1999/xlink" x="0px" y="0px"
	 viewBox="0 0 24 24" style="enable-background:new 0 0 24 24;" xml:space="preserve">
<g>
	<title>programming-flag</title>
	<path d="M0.5,24C0.224,24,0,23.776,0,23.5v-23C0,0.224,0.224,0,0.5,0S1,0.224,1,0.5v1.783L3.577,1.49
		C4.56,1.188,5.58,1.035,6.608,1.035c1.915,0,3.788,0.531,5.417,1.536c1.469,0.904,3.162,1.382,4.895,1.381
		c0.866,0,1.725-0.12,2.554-0.357l2.422-0.692c0.145-0.042,0.294-0.063,0.445-0.064c0.914,0,1.654,0.736,1.658,1.642v13.162
		c0,0.733-0.492,1.385-1.197,1.586l-3.054,0.873c-0.919,0.262-1.871,0.396-2.83,0.396c-1.918,0-3.792-0.529-5.418-1.531
		c-1.471-0.905-3.161-1.383-4.889-1.383c-0.93,0-1.852,0.139-2.741,0.412L1,18.88v4.62C1,23.776,0.776,24,0.5,24z M6.612,16.585
		c1.913,0,3.785,0.529,5.413,1.531c1.469,0.904,3.162,1.382,4.894,1.382c0.866,0,1.726-0.12,2.556-0.357l3.054-0.873
		C22.806,18.189,23,17.933,23,17.644V4.484c-0.002-0.355-0.293-0.644-0.65-0.644c-0.062,0-0.122,0.009-0.178,0.025l-2.422,0.692
		c-0.918,0.262-1.87,0.395-2.829,0.395c-1.919,0-3.793-0.529-5.42-1.53c-1.472-0.907-3.164-1.387-4.893-1.387
		c-0.928,0-1.849,0.138-2.737,0.411L1,3.329v14.505l2.577-0.793C4.562,16.739,5.583,16.585,6.612,16.585z"/>
	<path d="M15.5,14c-0.134,0-0.259-0.052-0.354-0.146S15,13.634,15,13.5s0.052-0.259,0.146-0.354l2.646-2.646l-2.646-2.646
		C15.052,7.759,15,7.634,15,7.5s0.052-0.259,0.146-0.354S15.366,7,15.5,7s0.259,0.052,0.354,0.146l3,3
		C18.948,10.241,19,10.366,19,10.5s-0.052,0.259-0.146,0.354l-3,3C15.759,13.948,15.634,14,15.5,14z"/>
	<path d="M8.5,14c-0.134,0-0.259-0.052-0.354-0.146l-3-3C5.052,10.759,5,10.634,5,10.5s0.052-0.259,0.146-0.354l3-3
		C8.241,7.052,8.366,7,8.5,7s0.259,0.052,0.354,0.146S9,7.366,9,7.5S8.948,7.759,8.854,7.854L6.207,10.5l2.646,2.646
		C8.948,13.241,9,13.366,9,13.5s-0.052,0.259-0.146,0.354S8.634,14,8.5,14z"/>
	<path d="M11,14c-0.054,0-0.107-0.009-0.158-0.026c-0.126-0.042-0.229-0.131-0.289-0.25s-0.069-0.255-0.027-0.382l2-6
		C12.594,7.137,12.784,7,12.999,7c0.054,0,0.108,0.009,0.159,0.026c0.261,0.087,0.403,0.371,0.316,0.632l-2,6
		C11.406,13.863,11.216,14,11,14z"/>
</g>
</svg>
