<?xml version="1.0" encoding="utf-8"?>
<!-- Generator: Adobe Illustrator 22.1.0, SVG Export Plug-In . SVG Version: 6.00 Build 0)  -->
<svg version="1.1" id="Light" xmlns="http://www.w3.org/2000/svg" xmlns:xlink="http://www.w3.org/1999/xlink" x="0px" y="0px"
	 viewBox="0 0 24 24" style="enable-background:new 0 0 24 24;" xml:space="preserve">
<g>
	<title>rat</title>
	<path d="M11.973,22.249c-1.264-0.008-3.314-0.864-4.916-2.715c-0.242,0.295-0.446,0.61-0.608,0.938
		C6.363,20.643,6.192,20.75,6,20.75c-0.077,0-0.152-0.017-0.221-0.052c-0.247-0.122-0.349-0.423-0.227-0.67
		c0.229-0.463,0.525-0.901,0.881-1.304c-0.446-0.648-0.82-1.368-1.115-2.145c-0.432,0.14-0.756,0.315-0.964,0.524
		C4.259,17.198,4.134,17.25,4,17.25s-0.259-0.052-0.354-0.146c-0.195-0.195-0.195-0.512,0-0.707
		c0.316-0.316,0.772-0.573,1.359-0.765C4.67,14.445,4.5,13.14,4.5,11.75c0.001-0.341,0.03-0.682,0.083-1.018
		c-2.145-0.191-3.87-1.894-4.066-4.069C0.436,5.759,0.626,4.864,1.068,4.074C1.09,4.015,1.122,3.962,1.164,3.916
		c0.125-0.205,0.249-0.38,0.378-0.534c0.769-0.921,1.85-1.488,3.045-1.596c0.135-0.012,0.271-0.018,0.405-0.018
		c2.093,0,3.883,1.428,4.365,3.437C10.206,4.903,11.094,4.75,12,4.75c0.905,0,1.792,0.152,2.64,0.453
		c0.469-2.014,2.256-3.449,4.359-3.453c2.482,0,4.501,2.019,4.501,4.5c0,2.316-1.807,4.268-4.084,4.481
		c0.054,0.337,0.082,0.678,0.084,1.017c0,1.392-0.17,2.697-0.506,3.884c0.587,0.192,1.043,0.449,1.359,0.765
		c0.195,0.195,0.195,0.512,0,0.707c-0.094,0.094-0.22,0.146-0.354,0.146s-0.259-0.052-0.354-0.146
		c-0.208-0.208-0.532-0.384-0.964-0.524c-0.295,0.777-0.669,1.497-1.115,2.145c0.355,0.402,0.651,0.84,0.881,1.304
		c0.059,0.12,0.068,0.255,0.025,0.382c-0.043,0.126-0.132,0.229-0.252,0.288C18.153,20.732,18.077,20.75,18,20.75
		c-0.191,0-0.363-0.106-0.448-0.278c-0.162-0.328-0.366-0.642-0.608-0.938c-1.602,1.852-3.653,2.707-4.926,2.715
		c-0.001,0-0.017,0-0.018,0C11.996,22.25,11.977,22.25,11.973,22.249z M12,19.75c-0.167,0-1,0.024-1,0.5
		c0.032,0.518,0.461,0.951,1,0.999c0.536-0.048,0.965-0.484,1.001-1.023C12.996,19.774,12.166,19.75,12,19.75z M12,18.75
		c1.215,0,2,0.589,2,1.5c0,0.004,0,0.022-0.001,0.026c-0.008,0.138-0.031,0.275-0.065,0.408c0.646-0.331,1.506-0.903,2.31-1.855
		c-0.303-0.252-0.627-0.464-0.965-0.631c-0.12-0.059-0.209-0.162-0.252-0.288c-0.043-0.126-0.034-0.262,0.025-0.382
		c0.086-0.172,0.257-0.278,0.448-0.278c0.076,0,0.153,0.018,0.221,0.052c0.393,0.194,0.768,0.437,1.119,0.724
		c0.334-0.51,0.623-1.071,0.859-1.671c-0.656-0.101-1.194-0.104-1.2-0.104c-0.275,0-0.5-0.224-0.5-0.5s0.224-0.5,0.5-0.5
		c0.031,0,0.715,0.002,1.524,0.144c0.316-1.109,0.476-2.333,0.476-3.644c-0.002-0.469-0.064-0.938-0.184-1.393
		c-0.039-0.149-0.007-0.311,0.087-0.433c0.067-0.087,0.196-0.19,0.429-0.19c0.047,0,0.094,0.004,0.141,0.011l0.03,0.005
		c1.926,0,3.496-1.57,3.496-3.5c0-0.556-0.134-1.108-0.389-1.602c-0.593-0.236-1.156-0.355-1.675-0.355
		c-0.597,0-1.134,0.155-1.596,0.46C18.026,5.289,17.5,6.269,17.5,7.25c0,0.276-0.224,0.5-0.5,0.5s-0.5-0.224-0.5-0.5
		c0-1.308,0.702-2.616,1.788-3.332c0.631-0.416,1.353-0.626,2.146-0.626c0.152,0,0.307,0.008,0.463,0.024
		C20.336,2.95,19.677,2.75,19,2.75c-1.822,0.004-3.313,1.376-3.467,3.192c-0.014,0.161-0.105,0.307-0.244,0.389
		C15.212,6.376,15.124,6.4,15.035,6.4c-0.071,0-0.14-0.015-0.205-0.044C13.935,5.954,12.983,5.751,12,5.751s-1.935,0.204-2.83,0.605
		C9.106,6.385,9.036,6.4,8.965,6.4c-0.089,0-0.176-0.024-0.253-0.069C8.574,6.25,8.482,6.106,8.467,5.945
		C8.306,4.163,6.781,2.768,4.994,2.768c-0.105,0-0.211,0.005-0.318,0.014c-0.558,0.05-1.089,0.234-1.555,0.531
		C3.27,3.299,3.417,3.292,3.561,3.292c0.794,0,1.518,0.211,2.149,0.628C6.797,4.636,7.5,5.944,7.5,7.25c0,0.276-0.224,0.5-0.5,0.5
		s-0.5-0.224-0.5-0.5c0-0.979-0.526-1.959-1.341-2.496C4.696,4.448,4.157,4.293,3.559,4.293c-0.516,0-1.075,0.118-1.663,0.35
		c-0.311,0.592-0.443,1.258-0.382,1.93C1.677,8.384,3.172,9.75,4.99,9.75h0c0.019,0,0.035-0.003,0.051-0.005
		C5.086,9.738,5.131,9.733,5.178,9.73c0.001,0,0.001,0,0.002,0c0.174,0,0.315,0.068,0.41,0.185c0.099,0.123,0.135,0.288,0.094,0.442
		c-0.12,0.455-0.182,0.924-0.183,1.395c0,1.309,0.16,2.533,0.476,3.642C6.785,15.252,7.469,15.25,7.5,15.25
		c0.276,0,0.5,0.224,0.5,0.5c0,0.276-0.224,0.5-0.5,0.5c-0.006,0-0.543,0.003-1.2,0.104c0.237,0.601,0.525,1.161,0.859,1.671
		c0.351-0.287,0.727-0.53,1.119-0.724C8.347,17.268,8.424,17.25,8.5,17.25c0.191,0,0.363,0.106,0.448,0.278
		c0.122,0.247,0.021,0.548-0.226,0.67c-0.338,0.167-0.662,0.379-0.965,0.631c0.804,0.952,1.663,1.524,2.309,1.855
		c-0.035-0.132-0.057-0.267-0.065-0.404c-0.001-0.484,0.198-0.875,0.573-1.145C10.924,18.883,11.417,18.75,12,18.75z"/>
	<circle cx="8.75" cy="13" r="0.75"/>
	<circle cx="15.25" cy="13" r="0.75"/>
</g>
</svg>
