<?xml version="1.0" encoding="utf-8"?>
<!-- Generator: Adobe Illustrator 22.1.0, SVG Export Plug-In . SVG Version: 6.00 Build 0)  -->
<svg version="1.1" id="Light" xmlns="http://www.w3.org/2000/svg" xmlns:xlink="http://www.w3.org/1999/xlink" x="0px" y="0px"
	 viewBox="0 0 24 24" style="enable-background:new 0 0 24 24;" xml:space="preserve">
<title>rooster</title>
<g>
	<path d="M12.961,11.305c-0.07-0.253-0.262-0.445-0.516-0.516c-0.06-0.025-0.126-0.039-0.195-0.039s-0.135,0.014-0.195,0.039
		c-0.253,0.07-0.445,0.262-0.516,0.516c-0.025,0.06-0.039,0.126-0.039,0.195s0.014,0.135,0.039,0.195
		c0.07,0.253,0.262,0.445,0.516,0.516c0.06,0.025,0.126,0.039,0.195,0.039s0.135-0.014,0.195-0.039
		c0.253-0.07,0.445-0.262,0.516-0.516C12.986,11.635,13,11.569,13,11.5S12.986,11.365,12.961,11.305z"/>
	<path d="M21.073,15.118l-5.723-4.842c-0.29-0.792-0.727-1.51-1.282-2.124l1.438-4.19c0.447-1.303-0.249-2.728-1.553-3.176
		c-0.63-0.218-1.309-0.175-1.909,0.118c-0.22,0.107-0.42,0.244-0.596,0.406C11.024,0.53,10.198,0,9.25,0S7.476,0.53,7.052,1.31
		C6.876,1.148,6.676,1.011,6.456,0.904c-0.6-0.293-1.278-0.334-1.91-0.118c-1.304,0.448-2,1.874-1.552,3.176l1.438,4.191
		C3.39,9.306,2.75,10.828,2.75,12.5V22c0,1.103,0.897,2,2,2c0.597,0,1.133-0.263,1.5-0.679C6.617,23.737,7.153,24,7.75,24
		s1.133-0.263,1.5-0.679C9.617,23.737,10.153,24,10.75,24s1.133-0.263,1.5-0.679C12.617,23.737,13.153,24,13.75,24
		c1.103,0,2-0.897,2-2v-2h1c0.858,0,1.282-0.395,1.487-0.727c0.555-0.898,0.122-2.381-0.226-3.273h2.739
		c0.21,0,0.397-0.131,0.47-0.328S21.233,15.254,21.073,15.118z M4.871,1.731C5.652,1.462,6.508,1.88,6.777,2.663
		c0.079,0.231,0.315,0.37,0.555,0.331C7.573,2.953,7.75,2.744,7.75,2.5c0-0.827,0.673-1.5,1.5-1.5s1.5,0.673,1.5,1.5
		c0,0.244,0.177,0.453,0.417,0.493c0.244,0.041,0.476-0.099,0.555-0.331c0.13-0.379,0.4-0.685,0.76-0.86
		c0.36-0.177,0.767-0.202,1.145-0.071C14.41,2,14.829,2.855,14.561,3.638l-1.292,3.764C12.162,6.527,10.767,6,9.25,6
		C7.733,6,6.339,6.527,5.232,7.401L3.939,3.637C3.671,2.855,4.089,2,4.871,1.731z M14.75,22c0,0.552-0.448,1-1,1s-1-0.448-1-1
		c0-0.276-0.224-0.5-0.5-0.5s-0.5,0.224-0.5,0.5c0,0.552-0.449,1-1,1s-1-0.448-1-1c0-0.276-0.224-0.5-0.5-0.5s-0.5,0.224-0.5,0.5
		c0,0.552-0.449,1-1,1s-1-0.448-1-1c0-0.276-0.224-0.5-0.5-0.5s-0.5,0.224-0.5,0.5c0,0.552-0.449,1-1,1s-1-0.448-1-1v-9.5
		c0-3.033,2.467-5.5,5.5-5.5s5.5,2.467,5.5,5.5V22z M17.387,18.748C17.344,18.817,17.23,19,16.75,19h-1v-3h1.18
		C17.34,16.921,17.706,18.231,17.387,18.748z M15.75,15v-2.5c0-0.203-0.012-0.402-0.03-0.6l3.665,3.1H15.75z"/>
</g>
</svg>
