<?xml version="1.0" encoding="utf-8"?>
<!-- Generator: Adobe Illustrator 22.1.0, SVG Export Plug-In . SVG Version: 6.00 Build 0)  -->
<svg version="1.1" id="Layer_1" xmlns="http://www.w3.org/2000/svg" xmlns:xlink="http://www.w3.org/1999/xlink" x="0px" y="0px"
	 viewBox="0 0 24 24" style="enable-background:new 0 0 24 24;" xml:space="preserve">
<g>
	<title>science-dna</title>
	<path d="M6.868,23.631c-0.059,0-0.116-0.01-0.171-0.03c-0.258-0.093-0.393-0.38-0.299-0.64c0.089-0.248,0.168-0.509,0.233-0.779
		l-4.818-4.818c-0.262,0.063-0.517,0.139-0.76,0.227c-0.055,0.02-0.111,0.029-0.169,0.029c-0.21,0-0.399-0.133-0.471-0.331
		c-0.093-0.259,0.042-0.546,0.301-0.639c0.918-0.33,1.882-0.497,2.864-0.497c0.367,0,0.737,0.024,1.099,0.072
		c0.132,0.017,0.25,0.085,0.331,0.191s0.116,0.237,0.099,0.37c-0.032,0.248-0.246,0.435-0.496,0.435
		c-0.022,0-0.043-0.001-0.065-0.004c-0.311-0.041-0.631-0.062-0.95-0.062c-0.185,0-0.372,0.007-0.559,0.021l3.784,3.784
		c0.085-1.181-0.113-2.368-0.582-3.463c-1.339-3.235-0.604-6.92,1.87-9.391c1.642-1.634,3.818-2.534,6.125-2.534
		c0.317,0,0.638,0.017,0.955,0.052c0.274,0.03,0.473,0.277,0.443,0.551c-0.028,0.254-0.241,0.446-0.498,0.446
		c-0.017,0-0.035-0.001-0.052-0.003c-0.276-0.03-0.555-0.045-0.832-0.045c-0.193,0-0.388,0.007-0.583,0.022l3.729,3.729
		c0.081-1.171-0.11-2.351-0.561-3.441c-0.843-1.968-0.907-4.165-0.179-6.184c0.071-0.198,0.26-0.33,0.47-0.33
		c0.057,0,0.114,0.01,0.168,0.029c0.26,0.094,0.395,0.381,0.302,0.64c-0.088,0.246-0.166,0.505-0.23,0.771l4.815,4.814
		c0.266-0.063,0.52-0.138,0.758-0.224c0.054-0.02,0.111-0.029,0.169-0.029c0.211,0,0.4,0.133,0.47,0.332
		c0.045,0.125,0.038,0.261-0.019,0.382c-0.057,0.121-0.158,0.212-0.283,0.257c-0.914,0.327-1.875,0.492-2.854,0.492
		c-0.29,0-0.582-0.015-0.866-0.045c-0.274-0.029-0.474-0.275-0.446-0.549c0.027-0.256,0.239-0.449,0.493-0.449
		c0.02,0,0.04,0.001,0.06,0.004c0.24,0.025,0.491,0.038,0.742,0.038c0.182,0,0.366-0.007,0.551-0.02l-3.782-3.781
		c-0.085,1.181,0.113,2.368,0.582,3.463c1.339,3.236,0.605,6.922-1.869,9.393c-1.643,1.634-3.823,2.534-6.139,2.534
		c-0.217,0-0.436-0.008-0.652-0.024c-0.133-0.01-0.255-0.071-0.342-0.173c-0.087-0.101-0.13-0.23-0.12-0.364
		C8.658,17.603,8.876,17.4,9.134,17.4c0.007,0,0.036,0.001,0.043,0.002c0.188,0.014,0.381,0.021,0.571,0.021
		c0.195,0,0.39-0.007,0.585-0.022l-3.733-3.733c-0.081,1.171,0.11,2.351,0.561,3.441c0.844,1.971,0.907,4.171,0.176,6.192
		C7.267,23.499,7.078,23.631,6.868,23.631z M11.554,17.207c0.714-0.171,1.393-0.441,2.026-0.803l-5.99-5.989
		c-0.362,0.63-0.63,1.31-0.8,2.027L11.554,17.207z M14.429,15.839c0.268-0.204,0.521-0.425,0.755-0.658
		c0.231-0.231,0.453-0.485,0.66-0.755L9.573,8.156C9.304,8.362,9.05,8.583,8.817,8.815c-0.232,0.231-0.453,0.484-0.66,0.753
		L14.429,15.839z M16.412,13.58c0.362-0.63,0.63-1.311,0.8-2.028l-4.767-4.767c-0.712,0.171-1.392,0.441-2.025,0.804L16.412,13.58z"
		/>
</g>
</svg>
