<?xml version="1.0" encoding="utf-8"?>
<!-- Generator: Adobe Illustrator 22.1.0, SVG Export Plug-In . SVG Version: 6.00 Build 0)  -->
<svg version="1.1" id="Layer_1" xmlns="http://www.w3.org/2000/svg" xmlns:xlink="http://www.w3.org/1999/xlink" x="0px" y="0px"
	 viewBox="0 0 24 24" style="enable-background:new 0 0 24 24;" xml:space="preserve">
<g>
	<title>shipment-upload</title>
	<path d="M12.5,23.916c-0.049,0-0.098-0.007-0.146-0.022c-0.165-0.014-0.311-0.048-0.447-0.104L0.923,19.213
		C0.362,18.979,0,18.436,0,17.829V6.151c0-0.597,0.353-1.136,0.9-1.375l10.5-4.565C11.59,0.128,11.792,0.086,12,0.086
		s0.41,0.042,0.6,0.125l10.499,4.565C23.647,5.014,24,5.554,24,6.151v11.7c0,0.587-0.345,1.124-0.879,1.366L13.107,23.77
		c-0.131,0.06-0.276,0.098-0.443,0.117C12.61,23.906,12.555,23.916,12.5,23.916z M1,17.829c0,0.202,0.121,0.384,0.308,0.462
		L12,22.744V10.828L7,8.745v2.841c0,0.276-0.224,0.5-0.5,0.5S6,11.862,6,11.586V8.328L1,6.245V17.829z M13,22.72l9.707-4.413
		C22.885,18.226,23,18.047,23,17.851V6.272l-10,4.545V22.72z M12.491,9.95l9.779-4.444l-4.791-2.083L7.668,7.94L12.491,9.95z
		 M6.412,7.417l9.837-4.529l-4.049-1.76C12.137,1.1,12.069,1.086,12,1.086s-0.137,0.014-0.2,0.042L1.776,5.485L6.412,7.417z"/>
	<path d="M16.5,19.495c-0.276,0-0.5-0.224-0.5-0.5v-2.293l-0.646,0.646c-0.094,0.094-0.22,0.146-0.354,0.146
		s-0.259-0.052-0.354-0.146s-0.146-0.22-0.146-0.354s0.052-0.259,0.146-0.354l1.5-1.5c0.045-0.046,0.101-0.083,0.163-0.109
		c0.06-0.025,0.125-0.038,0.191-0.038s0.131,0.013,0.191,0.038c0.062,0.025,0.117,0.062,0.163,0.109l1.249,1.249
		c0.094,0.094,0.146,0.22,0.146,0.354s-0.052,0.259-0.146,0.354s-0.22,0.146-0.354,0.146s-0.259-0.052-0.354-0.146L17,16.702v2.293
		C17,19.27,16.776,19.495,16.5,19.495z"/>
	<path d="M20.5,17.495c-0.276,0-0.5-0.224-0.5-0.5v-2.293l-0.646,0.646c-0.094,0.094-0.22,0.146-0.354,0.146
		s-0.259-0.052-0.354-0.146s-0.146-0.22-0.146-0.354s0.052-0.259,0.146-0.354l1.5-1.5c0.045-0.046,0.101-0.083,0.163-0.109
		c0.06-0.025,0.125-0.038,0.191-0.038s0.131,0.013,0.191,0.038c0.062,0.025,0.117,0.062,0.163,0.109l1.249,1.249
		c0.094,0.094,0.146,0.22,0.146,0.354s-0.052,0.259-0.146,0.354s-0.22,0.146-0.354,0.146s-0.259-0.052-0.354-0.146L21,14.702v2.293
		C21,17.27,20.776,17.495,20.5,17.495z"/>
</g>
</svg>
