<?xml version="1.0" encoding="utf-8"?>
<!-- Generator: Adobe Illustrator 22.1.0, SVG Export Plug-In . SVG Version: 6.00 Build 0)  -->
<svg version="1.1" id="Layer_1" xmlns="http://www.w3.org/2000/svg" xmlns:xlink="http://www.w3.org/1999/xlink" x="0px" y="0px"
	 viewBox="0 0 24 24" style="enable-background:new 0 0 24 24;" xml:space="preserve">
<g>
	<title>shopping-bag-tag-1</title>
	<path d="M2.377,24c-0.827,0-1.5-0.673-1.5-1.5v-13c0-0.827,0.673-1.5,1.5-1.5h17c0.827,0,1.5,0.673,1.5,1.5v13
		c0,0.827-0.673,1.5-1.5,1.5H2.377z M2.377,9c-0.276,0-0.5,0.224-0.5,0.5v13c0,0.276,0.224,0.5,0.5,0.5h17
		c0.276,0,0.5-0.224,0.5-0.5v-13c0-0.276-0.224-0.5-0.5-0.5H2.377z"/>
	<path d="M15.377,7c-0.276,0-0.5-0.224-0.5-0.5V5c0-2.206-1.794-4-4-4c-2.206,0-4,1.794-4,4v1.5c0,0.276-0.224,0.5-0.5,0.5
		s-0.5-0.224-0.5-0.5V5c0-2.757,2.243-5,5-5s5,2.243,5,5v1.5C15.877,6.776,15.652,7,15.377,7z"/>
	<path d="M17.377,7c-0.276,0-0.5-0.224-0.5-0.5V4.793c0-0.395,0.16-0.781,0.439-1.061l2.537-2.536
		c0.283-0.283,0.659-0.439,1.06-0.439c0.401,0,0.778,0.156,1.061,0.439l0.708,0.708c0.584,0.585,0.584,1.536,0,2.121l-2.535,2.535
		C19.863,6.844,19.486,7,19.086,7H17.377z M19.086,6c0.132,0,0.26-0.053,0.354-0.146l2.535-2.535c0.195-0.195,0.195-0.512,0-0.707
		l-0.708-0.708c-0.094-0.094-0.219-0.146-0.353-0.146s-0.259,0.052-0.354,0.146L18.023,4.44c-0.093,0.093-0.146,0.222-0.146,0.353V6
		H19.086z"/>
</g>
</svg>
