<?xml version="1.0" encoding="utf-8"?>
<!-- Generator: Adobe Illustrator 22.1.0, SVG Export Plug-In . SVG Version: 6.00 Build 0)  -->
<svg version="1.1" id="Layer_1" xmlns="http://www.w3.org/2000/svg" xmlns:xlink="http://www.w3.org/1999/xlink" x="0px" y="0px"
	 viewBox="0 0 24 24" style="enable-background:new 0 0 24 24;" xml:space="preserve">
<g>
	<title>shop-cashier-woman</title>
	<path d="M23,23.5c-0.276,0-0.5-0.224-0.5-0.5v-3c0-0.827-0.673-1.5-1.5-1.5H3c-0.827,0-1.5,0.673-1.5,1.5v3
		c0,0.276-0.224,0.5-0.5,0.5S0.5,23.276,0.5,23v-3c0-1.378,1.121-2.5,2.5-2.5h18c1.378,0,2.5,1.122,2.5,2.5v3
		C23.5,23.276,23.276,23.5,23,23.5z"/>
	<path d="M12.005,10.101c-0.067,0-0.134-0.002-0.202-0.005c-1.627-0.075-3.009-1.032-3.671-2.424C8.011,8.44,7.739,9.183,7.327,9.86
		C7.237,10.008,7.073,10.1,6.9,10.1c-0.092,0-0.182-0.025-0.26-0.073C6.526,9.958,6.446,9.848,6.414,9.718
		C6.383,9.588,6.404,9.454,6.473,9.34C6.983,8.503,7.234,7.543,7.2,6.563l0-1.263c0-2.647,2.153-4.8,4.8-4.8s4.8,2.153,4.8,4.8
		v1.246c-0.034,0.994,0.218,1.957,0.727,2.794c0.069,0.114,0.09,0.248,0.059,0.378c-0.031,0.13-0.112,0.24-0.226,0.309
		c-0.078,0.048-0.168,0.073-0.26,0.073c-0.176,0-0.336-0.09-0.427-0.24c-0.413-0.678-0.684-1.423-0.805-2.196
		c-0.236,0.494-0.566,0.942-0.977,1.317C14.099,9.703,13.074,10.101,12.005,10.101z M8.767,6.411
		c0.273,1.501,1.534,2.615,3.082,2.687c0.052,0.002,0.103,0.004,0.155,0.004c0.82,0,1.606-0.305,2.214-0.859
		c0.53-0.483,0.885-1.126,1.015-1.831C14.017,6.197,12.885,5.62,12,4.764C11.115,5.621,9.983,6.197,8.767,6.411z M12,1.5
		c-2.095,0-3.8,1.705-3.8,3.8v0.18c1.318-0.129,2.553-0.765,3.422-1.77C11.714,3.603,11.852,3.541,12,3.541s0.286,0.062,0.378,0.169
		c0.868,1.005,2.104,1.641,3.422,1.77V5.3C15.8,3.205,14.095,1.5,12,1.5z"/>
	<path d="M12,16.502c-0.144,0-0.282-0.062-0.376-0.171l-3.252-3.716c-1.247,0.837-2.166,2.083-2.599,3.529
		C5.71,16.354,5.513,16.5,5.294,16.5c-0.048,0-0.096-0.007-0.143-0.021c-0.129-0.039-0.234-0.124-0.297-0.242
		s-0.077-0.253-0.039-0.381c0.541-1.806,1.726-3.329,3.34-4.29c0.043-0.033,0.086-0.057,0.131-0.074
		c0.5-0.284,1.025-0.51,1.563-0.671c0.699-0.209,1.42-0.315,2.144-0.315c1.292,0,2.573,0.339,3.706,0.982
		c0.064,0.021,0.121,0.053,0.168,0.095c0.002,0.002,0.004,0.003,0.006,0.005c1.602,0.966,2.778,2.479,3.313,4.267
		c0.079,0.264-0.072,0.543-0.335,0.623c-0.048,0.014-0.095,0.021-0.143,0.021c-0.223,0-0.416-0.143-0.479-0.356
		c-0.432-1.441-1.352-2.686-2.601-3.525l-3.25,3.713C12.282,16.44,12.144,16.502,12,16.502z M12,15.243l2.736-3.127
		c-0.859-0.399-1.8-0.609-2.741-0.609c-0.627,0-1.253,0.092-1.859,0.274c-0.297,0.089-0.591,0.2-0.875,0.332L12,15.243z"/>
</g>
</svg>
