<?xml version="1.0" encoding="utf-8"?>
<!-- Generator: Adobe Illustrator 22.1.0, SVG Export Plug-In . SVG Version: 6.00 Build 0)  -->
<svg version="1.1" id="Layer_1" xmlns="http://www.w3.org/2000/svg" xmlns:xlink="http://www.w3.org/1999/xlink" x="0px" y="0px"
	 viewBox="0 0 24 24" style="enable-background:new 0 0 24 24;" xml:space="preserve">
<g>
	<title>shop-cashier-man</title>
	<path d="M23,23.5c-0.276,0-0.5-0.224-0.5-0.5v-3c0-0.827-0.673-1.5-1.5-1.5H3c-0.827,0-1.5,0.673-1.5,1.5v3
		c0,0.276-0.224,0.5-0.5,0.5S0.5,23.276,0.5,23v-3c0-1.378,1.121-2.5,2.5-2.5h18c1.378,0,2.5,1.122,2.5,2.5v3
		C23.5,23.276,23.276,23.5,23,23.5z"/>
	<path d="M12,10c-2.619,0-4.75-2.131-4.75-4.75S9.381,0.5,12,0.5s4.75,2.131,4.75,4.75S14.619,10,12,10z M8.496,3.926
		C8.333,4.352,8.25,4.796,8.25,5.25C8.25,7.318,9.932,9,12,9c2.023,0,3.678-1.611,3.748-3.618c-0.752,0.244-1.533,0.368-2.326,0.368
		C11.629,5.75,9.856,5.089,8.496,3.926z M8.987,3.024c1.201,1.099,2.803,1.726,4.429,1.726c0.763,0,1.51-0.131,2.225-0.389
		C15.234,2.691,13.735,1.5,12,1.5C10.806,1.5,9.695,2.066,8.987,3.024z"/>
	<path d="M12.004,17.292c-0.268,0-0.52-0.104-0.708-0.293l-0.951-0.951c-0.243-0.244-0.343-0.589-0.269-0.925l0.781-3.513
		c-0.246,0.044-0.487,0.101-0.72,0.171c-2.103,0.629-3.734,2.26-4.363,4.363C5.71,16.354,5.513,16.5,5.294,16.5
		c-0.048,0-0.096-0.007-0.143-0.021c-0.265-0.079-0.415-0.358-0.336-0.623c0.726-2.426,2.608-4.308,5.034-5.034
		c0.5-0.15,1.018-0.247,1.542-0.29c0.036-0.008,0.072-0.012,0.109-0.012c0.015,0,0.03,0.001,0.045,0.002
		c0.156-0.01,0.312-0.014,0.466-0.014c0.154,0,0.307,0.005,0.46,0.015c0.01-0.001,0.02-0.001,0.03-0.001
		c0.037,0,0.073,0.004,0.109,0.012c3.056,0.254,5.696,2.39,6.574,5.322c0.079,0.264-0.072,0.543-0.335,0.623
		c-0.048,0.014-0.095,0.021-0.143,0.021c-0.223,0-0.416-0.143-0.479-0.356c-0.704-2.353-2.677-4.099-5.082-4.532l0.787,3.511
		c0.075,0.335-0.025,0.681-0.267,0.924l-0.948,0.947C12.522,17.189,12.271,17.292,12.004,17.292z M11.052,15.34l0.952,0.953
		c0.003-0.003,0.953-0.952,0.953-0.952l-0.859-3.832c-0.038-0.001-0.168-0.001-0.195,0L11.052,15.34z"/>
</g>
</svg>
