<?xml version="1.0" encoding="utf-8"?>
<!-- Generator: Adobe Illustrator 22.1.0, SVG Export Plug-In . SVG Version: 6.00 Build 0)  -->
<svg version="1.1" id="Layer_1" xmlns="http://www.w3.org/2000/svg" xmlns:xlink="http://www.w3.org/1999/xlink" x="0px" y="0px"
	 viewBox="0 0 24 24" style="enable-background:new 0 0 24 24;" xml:space="preserve">
<g>
	<title>shopping-bag-heart</title>
	<path d="M3.9,24c-1.93,0-3.5-1.57-3.501-3.499c0-0.146,0.009-0.292,0.027-0.436L2.004,7.438c0.002-0.013,0.005-0.029,0.009-0.043
		c0.008-0.036,0.02-0.072,0.036-0.106c0-0.001,0.001-0.001,0.001-0.002c0.005-0.014,0.012-0.028,0.02-0.042l1.21-2.016
		C3.55,4.78,4.042,4.5,4.566,4.5H6c0.276,0,0.5,0.224,0.5,0.5S6.276,5.5,6,5.5H4.566c-0.174,0-0.338,0.093-0.428,0.243L3.384,7H7.5
		V4.5C7.5,2.019,9.519,0,12,0s4.5,2.019,4.5,4.5V7h4.117l-0.755-1.257c-0.09-0.15-0.254-0.243-0.428-0.243H18
		c-0.276,0-0.5-0.224-0.5-0.5s0.224-0.5,0.5-0.5h1.434c0.524,0,1.017,0.28,1.286,0.729l1.209,2.014
		c0.006,0.011,0.013,0.024,0.018,0.036c0.003,0.007,0.006,0.014,0.008,0.02c0.012,0.025,0.024,0.06,0.032,0.097
		c0.004,0.015,0.008,0.031,0.009,0.045l1.578,12.625c0.116,0.928-0.136,1.845-0.71,2.583c-0.574,0.738-1.401,1.208-2.329,1.324
		C20.393,23.991,20.246,24,20.1,24H3.9z M1.418,20.19c-0.013,0.103-0.019,0.208-0.019,0.311C1.4,21.879,2.521,23,3.899,23H20.1
		c0.105,0,0.21-0.007,0.311-0.019c0.663-0.083,1.254-0.419,1.664-0.946s0.59-1.182,0.507-1.845L21.059,8H2.942L1.418,20.19z M15.5,7
		V4.5C15.5,2.57,13.93,1,12,1c-1.93,0-3.5,1.57-3.5,3.5V7H15.5z"/>
	<path d="M11.937,19.5c-0.135,0-0.267-0.056-0.361-0.154L8.167,15.79c-0.761-0.762-0.95-1.928-0.464-2.899
		c0.301-0.601,0.818-1.049,1.456-1.262c0.259-0.086,0.528-0.13,0.798-0.13c0.391,0,0.77,0.09,1.124,0.267
		c0.242,0.121,0.462,0.28,0.654,0.471l0.203,0.203l0.203-0.203c0.475-0.475,1.107-0.737,1.78-0.737s1.305,0.262,1.78,0.737
		c0.191,0.191,0.35,0.411,0.471,0.654c0.485,0.971,0.296,2.139-0.472,2.906l-3.402,3.549C12.204,19.444,12.073,19.5,11.937,19.5z
		 M9.956,12.5c-0.163,0-0.325,0.026-0.481,0.079c-0.385,0.128-0.696,0.398-0.877,0.76c-0.293,0.585-0.178,1.289,0.284,1.752
		l3.056,3.187l3.048-3.179c0.468-0.469,0.584-1.174,0.292-1.759c-0.073-0.146-0.168-0.278-0.284-0.394
		c-0.286-0.286-0.667-0.444-1.073-0.444c-0.405,0-0.786,0.158-1.073,0.444l-0.557,0.557c-0.094,0.094-0.22,0.146-0.353,0.146
		s-0.259-0.052-0.354-0.146l-0.557-0.557c-0.115-0.115-0.248-0.211-0.394-0.284C10.419,12.554,10.191,12.5,9.956,12.5z"/>
</g>
</svg>
