<?xml version="1.0" encoding="utf-8"?>
<!-- Generator: Adobe Illustrator 22.1.0, SVG Export Plug-In . SVG Version: 6.00 Build 0)  -->
<svg version="1.1" id="Layer_1" xmlns="http://www.w3.org/2000/svg" xmlns:xlink="http://www.w3.org/1999/xlink" x="0px" y="0px"
	 viewBox="0 0 24 24" style="enable-background:new 0 0 24 24;" xml:space="preserve">
<g>
	<title>shopping-cart-download</title>
	<path d="M16,24c-1.103,0-2-0.897-2-2s0.897-2,2-2s2,0.897,2,2S17.103,24,16,24z M16,21c-0.552,0-1,0.448-1,1s0.448,1,1,1
		s1-0.448,1-1S16.552,21,16,21z"/>
	<path d="M5,24c-1.103,0-2-0.897-2-2s0.897-2,2-2s2,0.897,2,2S6.103,24,5,24z M5,21c-0.551,0-1,0.448-1,1s0.449,1,1,1s1-0.448,1-1
		S5.551,21,5,21z"/>
	<path d="M0.5,19C0.224,19,0,18.776,0,18.5S0.224,18,0.5,18h18.624c0.25,0,0.463-0.187,0.496-0.434l1.768-13.264
		C21.487,3.56,22.126,3,22.875,3H23.5C23.776,3,24,3.224,24,3.5S23.776,4,23.5,4h-0.624c-0.25,0-0.463,0.187-0.496,0.434
		l-1.768,13.264C20.513,18.44,19.874,19,19.125,19H0.5z"/>
	<path d="M9.5,15c-0.066,0-0.13-0.013-0.192-0.039c-0.061-0.025-0.116-0.062-0.163-0.109L4.146,9.854C4.052,9.759,4,9.634,4,9.5
		s0.052-0.259,0.146-0.354S4.366,9,4.5,9s0.259,0.052,0.354,0.146L9,13.293V0.5C9,0.224,9.224,0,9.5,0S10,0.224,10,0.5v12.793
		l4.146-4.146C14.241,9.052,14.366,9,14.5,9s0.259,0.052,0.354,0.146S15,9.366,15,9.5s-0.052,0.259-0.146,0.354l-5,5
		c-0.046,0.046-0.101,0.083-0.163,0.109C9.63,14.987,9.566,15,9.5,15z"/>
</g>
</svg>
