<?xml version="1.0" encoding="utf-8"?>
<!-- Generator: Adobe Illustrator 22.1.0, SVG Export Plug-In . SVG Version: 6.00 Build 0)  -->
<svg version="1.1" id="Layer_1" xmlns="http://www.w3.org/2000/svg" xmlns:xlink="http://www.w3.org/1999/xlink" x="0px" y="0px"
	 viewBox="0 0 24 24" style="enable-background:new 0 0 24 24;" xml:space="preserve">
<g>
	<title>show-hat-magician-1</title>
	<path d="M18.5,24c-0.276,0-0.5-0.224-0.5-0.5v-5.607C16.815,18.592,14.635,19,12,19s-4.815-0.408-6-1.107V23.5
		C6,23.775,5.776,24,5.5,24S5,23.775,5,23.5v-8.307c-3.181-0.829-5-2.17-5-3.693c0-1.194,1.072-2.257,3.101-3.075
		c0.06-0.024,0.123-0.036,0.187-0.036c0.205,0,0.387,0.123,0.464,0.313C3.855,8.958,3.731,9.25,3.475,9.353
		C1.902,9.986,1,10.769,1,11.5C1,13.155,5.518,15,12,15s11-1.844,11-3.5C23,9.844,18.483,8,12,8c-1.067,0-2.108,0.05-3.094,0.149
		C8.89,8.15,8.872,8.151,8.855,8.151c-0.257,0-0.47-0.193-0.496-0.45c-0.027-0.275,0.174-0.52,0.448-0.548C9.826,7.051,10.9,7,12,7
		c6.841,0,12,1.935,12,4.5c0,1.523-1.819,2.864-5,3.693V23.5C19,23.775,18.776,24,18.5,24z M6,16.5c0,0.538,2.005,1.5,6,1.5
		c3.995,0,6-0.962,6-1.5v-1.073C16.198,15.802,14.132,16,12,16s-4.198-0.198-6-0.573V16.5z"/>
	<path d="M12,14c-5.153,0-7.5-1.296-7.5-2.5S6.847,9,12,9c5.153,0,7.5,1.296,7.5,2.5S17.153,14,12,14z M12,10
		c-4.544,0-6.5,1.138-6.5,1.5S7.456,13,12,13s6.5-1.138,6.5-1.5S16.545,10,12,10z"/>
	<path d="M1.5,3C1.225,3,1,2.776,1,2.5V2H0.5C0.225,2,0,1.776,0,1.5S0.225,1,0.5,1H1V0.5C1,0.224,1.225,0,1.5,0S2,0.224,2,0.5V1h0.5
		C2.776,1,3,1.224,3,1.5S2.776,2,2.5,2H2v0.5C2,2.776,1.776,3,1.5,3z"/>
	<path d="M20.5,7.5C20.225,7.5,20,7.276,20,7V6.5h-0.5C19.225,6.5,19,6.276,19,6s0.224-0.5,0.5-0.5H20V5c0-0.276,0.224-0.5,0.5-0.5
		S21,4.724,21,5v0.5h0.5C21.776,5.5,22,5.724,22,6s-0.224,0.5-0.5,0.5H21V7C21,7.276,20.776,7.5,20.5,7.5z"/>
	<path d="M11.5,4C11.225,4,11,3.776,11,3.5V3h-0.5C10.225,3,10,2.776,10,2.5S10.225,2,10.5,2H11V1.5C11,1.224,11.225,1,11.5,1
		S12,1.224,12,1.5V2h0.5C12.776,2,13,2.224,13,2.5S12.776,3,12.5,3H12v0.5C12,3.776,11.776,4,11.5,4z"/>
	<path d="M6,9C5.81,9,5.638,8.894,5.553,8.723L4.628,6.872L2.777,5.947C2.606,5.862,2.5,5.69,2.5,5.5s0.106-0.362,0.276-0.447
		l1.851-0.925l0.925-1.851C5.635,2.113,5.806,2.011,6,2.011s0.365,0.102,0.447,0.265l0.925,1.851l1.851,0.925
		C9.394,5.138,9.5,5.309,9.5,5.5S9.394,5.862,9.224,5.947L7.373,6.872L6.448,8.723C6.362,8.894,6.191,9,6,9z M5.224,6.053
		C5.32,6.101,5.4,6.18,5.448,6.276L6,7.382l0.553-1.106C6.601,6.18,6.681,6.101,6.777,6.053L7.882,5.5L6.777,4.947
		C6.681,4.899,6.601,4.82,6.553,4.723L6,3.618L5.448,4.723C5.4,4.82,5.32,4.899,5.224,4.947L4.118,5.5L5.224,6.053z"/>
	<path d="M12,6c-0.199,0-0.379-0.118-0.459-0.301c-0.11-0.253,0.006-0.548,0.259-0.658l11.5-5C23.364,0.014,23.432,0,23.5,0
		c0.199,0,0.379,0.118,0.458,0.3c0.053,0.123,0.056,0.259,0.007,0.383c-0.049,0.124-0.144,0.222-0.266,0.275l-11.5,5
		C12.137,5.986,12.069,6,12,6z"/>
</g>
</svg>
