<?xml version="1.0" encoding="utf-8"?>
<!-- Generator: Adobe Illustrator 22.1.0, SVG Export Plug-In . SVG Version: 6.00 Build 0)  -->
<svg version="1.1" id="Light" xmlns="http://www.w3.org/2000/svg" xmlns:xlink="http://www.w3.org/1999/xlink" x="0px" y="0px"
	 viewBox="0 0 24 24" style="enable-background:new 0 0 24 24;" xml:space="preserve">
<g>
	<title>skunk</title>
	<path d="M17.524,24.005c-0.276,0-0.5-0.224-0.5-0.5v-2.063c-0.792,0.239-1.701,0.359-2.71,0.359c-0.208,0-0.423-0.005-0.645-0.015
		c-0.275-0.013-0.489-0.248-0.476-0.523c0.013-0.268,0.229-0.477,0.492-0.477c0.007,0,0.031,0.001,0.038,0.001
		c0.198,0.009,0.395,0.014,0.586,0.014c4.478,0,5.186-2.577,5.297-3.367c0.034-0.24,0.234-0.421,0.476-0.43
		c1.263-0.049,2.941-1.409,2.941-2c0-0.612-1.743-2-3-2c-0.683,0-1.186,0.223-1.496,0.662c-0.521,0.739-0.412,1.928-0.359,2.086
		c0.089,0.25-0.029,0.528-0.267,0.633c-0.644,0.283-1.361,0.427-2.131,0.427c-1.844,0-3.417-0.829-3.483-0.865
		c-0.156-0.083-0.258-0.245-0.264-0.422c-0.036-0.967,0.327-1.921,0.997-2.618c0.003-0.004,0.016-0.017,0.019-0.02
		c0.082-0.084,0.17-0.18,0.255-0.279l0.055-0.065c0.073-0.085,0.144-0.172,0.212-0.26l0.036-0.047
		c0.083-0.109,0.16-0.216,0.234-0.325c0.08-0.118,0.156-0.239,0.229-0.362c0.299-0.615,0.462-1.328,0.463-2.044
		c0-3.032-2.916-5.499-6.5-5.499c-2.317,0-4.477,1.058-5.636,2.761c-0.932,1.369-1.114,2.991-0.513,4.571
		c0.054,0.1,0.107,0.193,0.159,0.281c0.163-3.274,2.421-5.614,5.491-5.614c1.288,0,2.252,0.39,2.865,1.16
		c1.474,1.848,0.639,5.509-0.245,9.384c-0.338,1.483-0.615,2.724-0.821,3.949c0.229,0.178,0.643,0.442,1.092,0.442
		c0.066,0,0.132-0.006,0.195-0.018c0.549-0.102,1.038-0.646,1.454-1.615c0.078-0.184,0.259-0.303,0.459-0.303
		c0.069,0,0.135,0.014,0.198,0.041c0.121,0.052,0.216,0.149,0.266,0.273c0.05,0.124,0.048,0.26-0.005,0.383
		c-0.556,1.297-1.294,2.039-2.194,2.205c-0.124,0.023-0.252,0.034-0.378,0.034c-0.481,0-0.913-0.163-1.251-0.352
		c-0.091,0.723-0.136,1.353-0.136,1.916c0,0.276-0.224,0.5-0.5,0.5s-0.5-0.224-0.5-0.5c0-0.811,0.085-1.745,0.261-2.856
		c0,0,0-0.003,0-0.004c0.229-1.448,0.577-2.973,0.884-4.318c0.829-3.634,1.612-7.066,0.438-8.538
		c-0.42-0.527-1.102-0.783-2.084-0.783c-2.607,0-4.5,2.103-4.5,5c-0.003,0.288-0.144,0.556-0.376,0.719
		c-0.15,0.105-0.326,0.161-0.508,0.161c-0.288,0-0.559-0.14-0.725-0.375c-0.147-0.216-0.281-0.437-0.413-0.68
		c-0.01-0.014-0.024-0.035-0.035-0.064c-1.623-3.042-1.073-6.896,1.344-9.362c1.515-1.546,3.544-2.398,5.715-2.398
		c2.108,0,4.096,0.81,5.598,2.282c1.526,1.495,2.379,3.496,2.401,5.633c0.018,1.8-0.547,3.504-1.636,4.928l-0.02,0.027
		c-0.085,0.111-0.174,0.22-0.266,0.327l-0.048,0.057c-0.102,0.116-0.205,0.23-0.314,0.341c-0.409,0.426-0.664,0.998-0.711,1.59
		c0.472,0.205,1.564,0.615,2.757,0.615c0.484,0,0.939-0.068,1.354-0.201c-0.045-0.486-0.061-1.584,0.541-2.473
		c0.506-0.748,1.294-1.128,2.342-1.128c1.543,0,4,1.638,4,3c0,1.309-2.078,2.684-3.499,2.952c-0.202,0.856-0.789,2.232-2.501,3.092
		v2.458C18.024,23.781,17.8,24.005,17.524,24.005z M8.024,3.005c3.106,0,5.802,1.637,6.933,4.014
		c-0.213-1.522-0.917-2.923-2.033-4.016C11.61,1.716,9.871,1.007,8.026,1.007c-1.899,0-3.675,0.745-5.001,2.098
		C1.98,4.171,1.319,5.529,1.108,6.984c0.13-0.267,0.281-0.527,0.453-0.78C2.905,4.231,5.381,3.005,8.024,3.005z"/>
	<circle cx="20.524" cy="14.505" r="0.75"/>
</g>
</svg>
