<?xml version="1.0" encoding="utf-8"?>
<!-- Generator: Adobe Illustrator 22.1.0, SVG Export Plug-In . SVG Version: 6.00 Build 0)  -->
<svg version="1.1" id="Layer_1" xmlns="http://www.w3.org/2000/svg" xmlns:xlink="http://www.w3.org/1999/xlink" x="0px" y="0px"
	 viewBox="0 0 24 24" style="enable-background:new 0 0 24 24;" xml:space="preserve">
<g>
	<title>target-center-2</title>
	<path d="M17.502,23.998c-0.134,0-0.259-0.052-0.354-0.146l-2.15-2.151c-1.655,1.483-3.775,2.297-5.996,2.297
		c-2.221,0-4.341-0.814-5.996-2.297l-2.15,2.15c-0.094,0.094-0.22,0.146-0.354,0.146s-0.259-0.052-0.354-0.146
		s-0.146-0.22-0.146-0.354s0.052-0.259,0.146-0.354l2.15-2.15c-1.483-1.655-2.297-3.775-2.297-5.996c0-4.963,4.037-9,9-9
		c2.221,0,4.341,0.814,5.996,2.297l0.91-0.91l-0.333-3.656c-0.013-0.149,0.04-0.294,0.145-0.399l3.182-3.182
		c0.094-0.094,0.22-0.146,0.354-0.146c0.039,0,0.077,0.005,0.115,0.013c0.17,0.04,0.304,0.163,0.36,0.328l0.982,2.945l2.945,0.982
		c0.165,0.055,0.288,0.19,0.328,0.359c0.04,0.17-0.01,0.345-0.133,0.469L20.67,8.281c-0.093,0.093-0.222,0.146-0.354,0.146
		c-0.007,0-0.036-0.001-0.043-0.002l-3.658-0.333l-0.91,0.91c1.483,1.655,2.297,3.775,2.297,5.996s-0.814,4.341-2.296,5.996
		l2.15,2.151c0.195,0.195,0.195,0.512,0,0.707C17.761,23.946,17.636,23.998,17.502,23.998z M9.002,6.998c-4.411,0-8,3.589-8,8
		c0,4.411,3.589,8,8,8c4.411,0,8-3.589,8-8c0-1.955-0.71-3.823-2.005-5.288l-2.129,2.129c0.733,0.894,1.134,2.007,1.134,3.159
		c0,2.757-2.243,5-5,5s-5-2.243-5-5c0-2.757,2.243-5,5-5c1.152,0,2.265,0.401,3.159,1.134l2.129-2.129
		C12.825,7.708,10.957,6.998,9.002,6.998z M9.002,10.998c-2.206,0-4,1.794-4,4s1.794,4,4,4s4-1.794,4-4
		c0-0.887-0.298-1.747-0.845-2.448l-2.802,2.802c-0.094,0.094-0.22,0.146-0.354,0.146s-0.259-0.052-0.354-0.146
		s-0.146-0.22-0.146-0.354s0.052-0.259,0.146-0.354l2.802-2.802C10.749,11.296,9.889,10.998,9.002,10.998z M20.128,7.408
		l2.444-2.444l-2.415-0.805c-0.148-0.049-0.266-0.168-0.316-0.316l-0.805-2.415l-2.445,2.444l0.236,2.593l1.82-1.82
		c0.094-0.094,0.22-0.146,0.354-0.146s0.259,0.052,0.354,0.146c0.195,0.195,0.195,0.512,0,0.707l-1.82,1.82L20.128,7.408z"/>
</g>
</svg>
