<?xml version="1.0" encoding="utf-8"?>
<!-- Generator: Adobe Illustrator 22.1.0, SVG Export Plug-In . SVG Version: 6.00 Build 0)  -->
<svg version="1.1" id="Layer_1" xmlns="http://www.w3.org/2000/svg" xmlns:xlink="http://www.w3.org/1999/xlink" x="0px" y="0px"
	 viewBox="0 0 24 24" style="enable-background:new 0 0 24 24;" xml:space="preserve">
<g>
	<title>video-game-gamasutra</title>
	<path d="M14,20.5c-0.552,0-1-0.448-1-1v-1c0-0.552,0.448-1,1-1h3v-1H7v1h3c0.551,0,1,0.448,1,1v1c0,0.552-0.449,1-1,1H7
		c-0.551,0-1-0.448-1-1v-1H5c-0.551,0-1-0.448-1-1v-3H3v3c0,0.552-0.449,1-1,1H1c-0.551,0-1-0.448-1-1v-5c0-0.551,0.449-1,1-1h1v-1
		c0-0.551,0.449-1,1-1h1v-1c0-0.551,0.449-1,1-1h1v-1H5c-0.551,0-1-0.449-1-1v-1c0-0.551,0.449-1,1-1h1c0.551,0,1,0.449,1,1v1h1
		c0.551,0,1,0.449,1,1v1h6v-1c0-0.551,0.448-1,1-1h1v-1c0-0.551,0.448-1,1-1h1c0.552,0,1,0.449,1,1v1c0,0.551-0.448,1-1,1h-1v1h1
		c0.552,0,1,0.449,1,1v1h1c0.552,0,1,0.449,1,1v1h1c0.552,0,1,0.449,1,1v5c0,0.552-0.448,1-1,1h-1c-0.552,0-1-0.448-1-1v-3h-1v3
		c0,0.552-0.448,1-1,1h-1v1c0,0.552-0.448,1-1,1H14z M14,19.5h3v-1h-3L14,19.5z M7,19.5h3v-1H7V19.5z M21,13.5c0.552,0,1,0.448,1,1
		v3h1v-5h-1c-0.552,0-1-0.449-1-1v-1h-1c-0.552,0-1-0.449-1-1v-1h-1c-0.552,0-1-0.449-1-1v-1h-1v1c0,0.551-0.448,1-1,1H9
		c-0.551,0-1-0.449-1-1v-1H7v1c0,0.551-0.449,1-1,1H5v1c0,0.551-0.449,1-1,1H3v1c0,0.551-0.449,1-1,1H1v5h1v-3c0-0.552,0.449-1,1-1
		h1c0.551,0,1,0.448,1,1v3h1v-1c0-0.552,0.449-1,1-1h10c0.552,0,1,0.448,1,1v1h1v-3c0-0.552,0.448-1,1-1H21z M19,5.5v-1h-1l0,1H19z
		 M5,5.5h1v-1H5L5,5.5z"/>
	<path d="M7,12.5c-0.551,0-1-0.449-1-1v-1c0-0.551,0.449-1,1-1h1c0.551,0,1,0.449,1,1v1c0,0.551-0.449,1-1,1H7z M7,11.5h1v-1H7
		L7,11.5z"/>
	<path d="M16,12.5c-0.552,0-1-0.449-1-1v-1c0-0.551,0.448-1,1-1h1c0.552,0,1,0.449,1,1v1c0,0.551-0.448,1-1,1H16z M16,11.5h1v-1h-1
		L16,11.5z"/>
</g>
</svg>
