<?xml version="1.0" encoding="utf-8"?>
<!-- Generator: Adobe Illustrator 22.1.0, SVG Export Plug-In . SVG Version: 6.00 Build 0)  -->
<svg version="1.1" id="Layer_1" xmlns="http://www.w3.org/2000/svg" xmlns:xlink="http://www.w3.org/1999/xlink" x="0px" y="0px"
	 viewBox="0 0 24 24" style="enable-background:new 0 0 24 24;" xml:space="preserve">
<g>
	<title>video-game-mario-enemy</title>
	<path d="M10.201,24c-0.6,0-1.141-0.356-1.377-0.908c-1.477-3.429-2.02-3.653-2.595-3.89c-0.581-0.239-1.238-0.51-2.363-2.458
		l-3.043-4.237c-0.321-0.45-0.216-1.076,0.232-1.396c0.171-0.122,0.371-0.186,0.579-0.186c0.094,0,0.187,0.013,0.278,0.039
		c1.357,0.356,2.761,0.537,4.165,0.537c0.096,0,0.192-0.001,0.288-0.003c0.001,0,0.027,0,0.029,0c2.286,0,4.521-0.41,6.647-1.22
		c-0.697-0.941-1.11-2.084-1.17-3.254c-0.009-1.747,0.96-3.359,2.483-4.161V2.5c0-1.379,1.122-2.5,2.5-2.5s2.5,1.121,2.5,2.5v1
		c1.864,0.012,3.514,1.335,3.928,3.156c0.225,1.05,0.029,2.12-0.552,3.017c-0.581,0.897-1.476,1.514-2.521,1.738
		c-0.275,0.059-0.556,0.089-0.837,0.089c-0.35,0-0.697-0.027-1.037-0.081c-0.065,0.85-0.221,1.693-0.464,2.51l1.418,0.709
		c0.394,0.15,0.739,0.484,0.926,0.906c0.189,0.428,0.2,0.904,0.031,1.339s-0.497,0.78-0.925,0.969
		c-0.225,0.099-0.463,0.15-0.706,0.15c-0.216,0-0.429-0.04-0.633-0.119c-0.089-0.035-0.176-0.077-0.258-0.125l-1.124-0.589
		c-0.827,1.233-2.023,2.211-3.396,2.774L12.817,20.5h1.041c1.103,0,2,0.897,2,2c0,1.24-1.088,1.5-2,1.5H10.201z M4.705,16.204
		c0.981,1.694,1.45,1.887,1.904,2.074c0.769,0.316,1.495,0.615,3.133,4.419C9.821,22.881,10.001,23,10.201,23h3.657
		c1,0,1-0.277,1-0.5c0-0.552-0.448-1-1-1h-2c-0.187,0-0.357-0.103-0.443-0.269c-0.086-0.166-0.074-0.364,0.034-0.517l1.024-1.465
		c0.057-0.082,0.136-0.144,0.23-0.18c1.378-0.532,2.546-1.529,3.288-2.807c0.09-0.154,0.256-0.249,0.433-0.249
		c0.08,0,0.16,0.02,0.231,0.057l1.558,0.816c0.055,0.032,0.094,0.051,0.133,0.066c0.088,0.034,0.179,0.051,0.271,0.051
		c0.104,0,0.206-0.022,0.303-0.064c0.183-0.081,0.324-0.228,0.396-0.415c0.073-0.187,0.068-0.39-0.013-0.574
		c-0.081-0.183-0.228-0.324-0.415-0.396l-1.843-0.919c-0.222-0.111-0.329-0.371-0.251-0.606c0.31-0.92,0.497-1.875,0.557-2.843
		c-0.048-0.015-0.096-0.031-0.144-0.048c-0.126-0.044-0.228-0.134-0.286-0.254s-0.066-0.256-0.023-0.382
		c0.07-0.201,0.26-0.336,0.473-0.336c0.056,0,0.111,0.009,0.164,0.028c0.591,0.205,1.208,0.308,1.833,0.308
		c0.217,0,0.428-0.022,0.635-0.067c0.391-0.084,0.753-0.24,1.073-0.461c-0.187,0.021-0.367,0.031-0.54,0.031
		c-1.022,0-1.869-0.329-2.518-0.979c-0.195-0.195-0.195-0.512,0-0.707c0.095-0.094,0.22-0.146,0.354-0.146
		c0.134,0,0.259,0.052,0.354,0.147c0.453,0.453,1.062,0.683,1.812,0.683c0.476,0,1.004-0.091,1.572-0.271
		c0.265-0.585,0.334-1.225,0.199-1.858C21.993,5.499,20.741,4.5,19.328,4.5l-0.474,0c-0.276,0-0.5-0.224-0.5-0.5V2.5
		c0-0.827-0.673-1.5-1.5-1.5s-1.5,0.673-1.5,1.5v0.679c0,0.198-0.117,0.378-0.299,0.458c-1.334,0.585-2.192,1.904-2.185,3.361
		c0.061,1.165,0.544,2.286,1.36,3.145c0.113,0.119,0.16,0.286,0.126,0.447c-0.033,0.16-0.143,0.294-0.295,0.358
		c-0.124,0.052-0.249,0.101-0.374,0.149c0.151,0.468,0.21,0.966,0.172,1.453c-0.155,1.936-1.796,3.453-3.737,3.453
		c-0.1,0-0.2-0.004-0.301-0.012c-0.999-0.08-1.907-0.544-2.556-1.306C6.741,14.07,6.431,13.302,6.379,12.5c-0.002,0-0.003,0-0.005,0
		c-0.099,0.002-0.201,0.003-0.303,0.003c-1.485,0-2.974-0.193-4.424-0.573l-0.012-0.003L4.705,16.204z M7.38,12.469
		c0.105,1.329,1.171,2.417,2.52,2.525c0.076,0.006,0.151,0.009,0.225,0.009c1.421,0,2.623-1.112,2.736-2.532
		c0.027-0.338-0.014-0.688-0.118-1.025C11.024,12.031,9.222,12.374,7.38,12.469z"/>
	<path d="M16.854,6c-0.276,0-0.5-0.224-0.5-0.5V4c0-0.276,0.224-0.5,0.5-0.5s0.5,0.224,0.5,0.5v1.5C17.354,5.776,17.129,6,16.854,6z
		"/>
</g>
</svg>
