<?xml version="1.0" encoding="utf-8"?>
<!-- Generator: Adobe Illustrator 22.1.0, SVG Export Plug-In . SVG Version: 6.00 Build 0)  -->
<svg version="1.1" id="Layer_1" xmlns="http://www.w3.org/2000/svg" xmlns:xlink="http://www.w3.org/1999/xlink" x="0px" y="0px"
	 viewBox="0 0 24 24" style="enable-background:new 0 0 24 24;" xml:space="preserve">
<g>
	<title>video-game-mario-3</title>
	<path d="M9,6C8.923,6,8.845,5.982,8.776,5.947c-0.119-0.06-0.208-0.162-0.251-0.289S8.493,5.396,8.553,5.276l1.5-3
		c0.078-0.156,0.229-0.259,0.402-0.274C10.463,2.001,10.493,2,10.5,2c0.157,0,0.306,0.075,0.4,0.2L12,3.667L13.1,2.2
		C13.195,2.073,13.342,2,13.501,2c0.007,0,0.034,0.001,0.041,0.002c0.177,0.016,0.327,0.119,0.405,0.275l1.5,3
		c0.06,0.12,0.069,0.255,0.027,0.382s-0.131,0.229-0.251,0.289C15.155,5.982,15.077,6,15,6c-0.19,0-0.362-0.106-0.447-0.276
		l-1.138-2.277L12.4,4.8c-0.091,0.122-0.241,0.194-0.4,0.194S11.691,4.922,11.6,4.8l-1.014-1.353L9.447,5.724
		C9.362,5.894,9.19,6,9,6L9,6z"/>
	<path d="M12,24c-4.191,0-7.849-2.932-8.776-7H3c-1.654,0-3-1.346-3-3s1.346-3,3-3v-0.273C1.727,9.586,0.999,7.961,1,6.25
		C1,2.804,3.804,0,7.25,0h9.5C20.196,0,23,2.804,23,6.25c-0.002,1.71-0.729,3.335-2,4.476V11c1.654,0,3,1.346,3,3s-1.346,3-3,3
		h-0.224C19.849,21.068,16.191,24,12,24z M4,15c0,4.411,3.589,8,8,8c4.411,0,8-3.589,8-8v-4H4V15z M21,16c1.103,0,2-0.897,2-2
		s-0.897-2-2-2v3c0,0.329-0.019,0.665-0.057,1H21z M3,12c-1.103,0-2,0.897-2,2s0.897,2,2,2h0.057C3.019,15.665,3,15.329,3,15V12z
		 M19.948,10c-0.235-1.141-1.261-2-2.448-2h-11c-1.187,0-2.213,0.859-2.448,2H19.948z M7.25,1C4.355,1,2,3.355,2,6.25
		C1.999,7.437,2.409,8.561,3.161,9.459C3.608,8.009,4.944,7,6.5,7h11c1.556,0,2.891,1.008,3.338,2.457
		C21.589,8.558,21.999,7.435,22,6.25C22,3.355,19.645,1,16.75,1H7.25z"/>
	<path d="M8.5,14.5C8.224,14.5,8,14.276,8,14v-1c0-0.276,0.224-0.5,0.5-0.5S9,12.724,9,13v1C9,14.276,8.776,14.5,8.5,14.5z"/>
	<path d="M15.5,14.5c-0.276,0-0.5-0.224-0.5-0.5v-1c0-0.276,0.224-0.5,0.5-0.5S16,12.724,16,13v1C16,14.276,15.776,14.5,15.5,14.5z"
		/>
	<path d="M10.665,20.76c-0.796,0-1.528-0.464-1.865-1.183l-0.197-0.355c-0.064,0.033-0.131,0.062-0.198,0.087
		C8.2,19.385,7.987,19.423,7.77,19.423c-0.767,0-1.461-0.483-1.726-1.201l-0.512-1.365c-0.055-0.146-0.039-0.306,0.042-0.438
		c0.081-0.132,0.217-0.218,0.372-0.235l3.167-0.342c0.054-0.008,0.115-0.012,0.175-0.012c0.573,0,1.089,0.365,1.282,0.908
		c0.186,0.701,0.744,1.185,1.43,1.259c0.677-0.071,1.245-0.558,1.418-1.218c0.203-0.575,0.725-0.947,1.305-0.947
		c0.057,0,0.115,0.004,0.173,0.011l3.157,0.341c0.155,0.017,0.291,0.102,0.372,0.235c0.082,0.132,0.097,0.292,0.042,0.437
		l-0.513,1.368c-0.103,0.277-0.273,0.529-0.494,0.727c-0.338,0.304-0.774,0.471-1.228,0.471c0,0,0,0,0,0
		c-0.032,0-0.065-0.001-0.098-0.002c-0.26-0.014-0.51-0.081-0.738-0.197l-0.212,0.384c-0.16,0.344-0.445,0.655-0.794,0.863
		c-0.318,0.189-0.68,0.289-1.049,0.289c-0.494,0-0.97-0.177-1.341-0.494c-0.14,0.12-0.295,0.22-0.464,0.299
		C11.261,20.694,10.968,20.76,10.665,20.76z M12,19c0.175,0,0.34,0.094,0.429,0.244c0.145,0.243,0.375,0.415,0.648,0.484
		c0.087,0.022,0.175,0.033,0.262,0.033c0.188,0,0.374-0.052,0.538-0.15c0.182-0.108,0.326-0.267,0.416-0.459l0.505-0.915
		c0.079-0.141,0.221-0.237,0.381-0.255c0.017-0.002,0.038-0.003,0.06-0.003c0.14,0,0.274,0.061,0.369,0.166
		c0.149,0.166,0.355,0.264,0.578,0.276l0.044,0.001c0.211,0,0.405-0.074,0.561-0.215c0.101-0.091,0.179-0.206,0.226-0.333
		l0.288-0.766l-2.524-0.272c-0.031-0.004-0.048-0.005-0.064-0.005c-0.154,0-0.292,0.098-0.344,0.243
		c-0.274,1.052-1.214,1.833-2.333,1.924C12.033,18.999,12.006,19,12,19c-0.013,0-0.026,0-0.038-0.001
		c-1.119-0.092-2.06-0.881-2.345-1.964c-0.04-0.108-0.182-0.202-0.331-0.202c-0.016,0-0.033,0.001-0.05,0.003L6.695,17.11
		l0.286,0.764c0.122,0.33,0.438,0.55,0.788,0.55c0.099,0,0.196-0.017,0.289-0.052c0.127-0.047,0.242-0.125,0.333-0.226
		c0.095-0.106,0.23-0.166,0.37-0.166c0.021,0,0.042,0.001,0.063,0.004c0.156,0.017,0.299,0.113,0.377,0.254l0.49,0.885
		c0.185,0.393,0.565,0.637,0.976,0.637c0.154,0,0.304-0.033,0.445-0.1c0.192-0.09,0.35-0.234,0.459-0.416
		C11.66,19.094,11.825,19,12,19z"/>
</g>
</svg>
