<?xml version="1.0" encoding="utf-8"?>
<!-- Generator: Adobe Illustrator 22.1.0, SVG Export Plug-In . SVG Version: 6.00 Build 0)  -->
<svg version="1.1" id="Layer_1" xmlns="http://www.w3.org/2000/svg" xmlns:xlink="http://www.w3.org/1999/xlink" x="0px" y="0px"
	 viewBox="0 0 24 24" style="enable-background:new 0 0 24 24;" xml:space="preserve">
<g>
	<title>warehouse-cart-packages</title>
	<path d="M5.5,16.25c-0.827,0-1.5-0.673-1.5-1.5V7.14L0.758,6.33C0.312,6.219,0,5.82,0,5.36V4.75c0-0.827,0.673-1.5,1.5-1.5H4
		c0.551,0,1,0.449,1,1v10.5c0,0.276,0.224,0.5,0.5,0.5H7v-5.5c0-0.827,0.673-1.5,1.5-1.5h5c0.691,0,1.275,0.47,1.448,1.108
		C15.123,9.287,15.309,9.25,15.5,9.25h6c0.827,0,1.5,0.673,1.5,1.5v4.5h0.5c0.276,0,0.5,0.224,0.5,0.5s-0.224,0.5-0.5,0.5H5.5z
		 M22,15.25v-4.5c0-0.276-0.224-0.5-0.5-0.5h-6c-0.276,0-0.5,0.224-0.5,0.5v4.5H22z M14,15.25v-5.5c0-0.276-0.224-0.5-0.5-0.5h-5
		C8.224,9.25,8,9.474,8,9.75v5.5H14z M1.5,4.25C1.224,4.25,1,4.474,1,4.75v0.61l3,0.75V4.25H1.5z"/>
	<path d="M6,20.75c-1.103,0-2-0.897-2-2s0.897-2,2-2s2,0.897,2,2S7.103,20.75,6,20.75z M6,17.75c-0.551,0-1,0.448-1,1s0.449,1,1,1
		s1-0.448,1-1S6.551,17.75,6,17.75z"/>
	<path d="M22,20.75c-1.103,0-2-0.897-2-2s0.897-2,2-2s2,0.897,2,2S23.103,20.75,22,20.75z M22,17.75c-0.552,0-1,0.448-1,1
		s0.448,1,1,1s1-0.448,1-1S22.552,17.75,22,17.75z"/>
	<path d="M11.5,14.25c-0.276,0-0.5-0.224-0.5-0.5s0.224-0.5,0.5-0.5h1c0.276,0,0.5,0.224,0.5,0.5s-0.224,0.5-0.5,0.5H11.5z"/>
	<path d="M19.5,14.25c-0.276,0-0.5-0.224-0.5-0.5s0.224-0.5,0.5-0.5h1c0.276,0,0.5,0.224,0.5,0.5s-0.224,0.5-0.5,0.5H19.5z"/>
	<path d="M18.5,8.25c-0.276,0-0.5-0.224-0.5-0.5v-3c0-0.276-0.224-0.5-0.5-0.5h-5c-0.276,0-0.5,0.224-0.5,0.5v2
		c0,0.276-0.224,0.5-0.5,0.5S11,7.026,11,6.75v-2c0-0.827,0.673-1.5,1.5-1.5h5c0.827,0,1.5,0.673,1.5,1.5v3
		C19,8.026,18.776,8.25,18.5,8.25z"/>
</g>
</svg>
