<?xml version="1.0" encoding="utf-8"?>
<!-- Generator: Adobe Illustrator 22.1.0, SVG Export Plug-In . SVG Version: 6.00 Build 0)  -->
<svg version="1.1" id="Layer_1" xmlns="http://www.w3.org/2000/svg" xmlns:xlink="http://www.w3.org/1999/xlink" x="0px" y="0px"
	 viewBox="0 0 24 24" style="enable-background:new 0 0 24 24;" xml:space="preserve">
<g>
	<title>warehouse-storage-3</title>
	<path d="M5.5,23.724c-0.551,0-1-0.448-1-1v-6c0-0.552,0.449-1,1-1h2v-6c0-0.551,0.449-1,1-1h6c0.552,0,1,0.449,1,1v6h3
		c0.552,0,1,0.448,1,1v6c0,0.552-0.448,1-1,1H5.5z M18.5,22.724v-6h-1v2c0,0.552-0.448,1-1,1h-2c-0.552,0-1-0.448-1-1v-2h-1v6H18.5z
		 M5.5,22.724h6v-6h-1v2c0,0.552-0.449,1-1,1h-2c-0.551,0-1-0.448-1-1v-2l-1,0L5.5,22.724z M14.5,18.724h2v-2h-2V18.724z
		 M7.5,18.724h2v-2h-2V18.724z M14.5,15.724v-6h-1v2c0,0.551-0.448,1-1,1h-2c-0.551,0-1-0.449-1-1v-2h-1l0,6H14.5z M10.5,11.724h2
		v-2h-2V11.724z"/>
	<path d="M22,19.724c-0.276,0-0.5-0.224-0.5-0.5v-12.5h-19v12.5c0,0.276-0.224,0.5-0.5,0.5s-0.5-0.224-0.5-0.5v-12.5
		c-0.551,0-1-0.449-1-1V4.599C0.496,4.163,0.787,3.767,1.208,3.638l10.334-3.293c0.148-0.047,0.301-0.071,0.455-0.071
		c0.154,0,0.307,0.024,0.455,0.071l10.357,3.289c0.415,0.138,0.691,0.52,0.691,0.952v1.138c0,0.551-0.448,1-1,1v12.5
		C22.5,19.5,22.276,19.724,22,19.724z M11.997,1.274c-0.051,0-0.102,0.008-0.151,0.024L1.506,4.593L1.5,5.724h21V4.585L12.149,1.298
		C12.099,1.282,12.048,1.274,11.997,1.274z"/>
</g>
</svg>
