<?xml version="1.0" encoding="utf-8"?>
<!-- Generator: Adobe Illustrator 22.1.0, SVG Export Plug-In . SVG Version: 6.00 Build 0)  -->
<svg version="1.1" id="Layer_1" xmlns="http://www.w3.org/2000/svg" xmlns:xlink="http://www.w3.org/1999/xlink" x="0px" y="0px"
	 viewBox="0 0 24 24" style="enable-background:new 0 0 24 24;" xml:space="preserve">
<g>
	<title>wench-double</title>
	<path d="M4.501,24.006c-0.639,0-1.261-0.135-1.851-0.401c-0.15-0.067-0.257-0.204-0.286-0.366
		c-0.029-0.162,0.022-0.327,0.138-0.443l2-2v-1.293H3.209l-2,2C1.115,21.597,0.99,21.65,0.857,21.65
		c-0.031,0-0.062-0.003-0.093-0.009c-0.159-0.029-0.296-0.136-0.363-0.285c-0.532-1.177-0.532-2.528,0-3.705
		c0.495-1.095,1.387-1.932,2.511-2.357C3.425,15.099,3.96,15,4.503,15c0.521,0,1.033,0.091,1.526,0.269l3.266-3.266L6.028,8.737
		c-0.49,0.177-1.004,0.267-1.527,0.267c-0.643,0-1.267-0.134-1.852-0.399c-1.094-0.494-1.93-1.386-2.355-2.512
		S-0.094,3.745,0.4,2.652c0.067-0.149,0.204-0.256,0.366-0.286c0.03-0.005,0.06-0.008,0.09-0.008c0.134,0,0.259,0.052,0.354,0.147
		l1.999,1.999h1.293V3.211l-2-2C2.386,1.095,2.334,0.93,2.364,0.768C2.393,0.606,2.5,0.469,2.65,0.402
		c0.586-0.265,1.209-0.399,1.852-0.399c0.643,0,1.267,0.134,1.852,0.399c2.157,0.974,3.18,3.422,2.381,5.628l3.266,3.266
		l3.266-3.266C14.874,4.935,14.92,3.713,15.4,2.65c0.726-1.608,2.339-2.647,4.107-2.647c0.639,0,1.26,0.134,1.846,0.399
		c0.149,0.067,0.256,0.204,0.286,0.366c0.03,0.161-0.022,0.327-0.139,0.443l-1.999,1.999v1.293h1.293l2-2
		c0.093-0.093,0.222-0.146,0.354-0.146c0.03,0,0.06,0.003,0.09,0.008c0.161,0.029,0.298,0.136,0.366,0.286
		c0.531,1.177,0.531,2.527,0,3.705c-0.495,1.095-1.386,1.932-2.511,2.357c-0.514,0.194-1.049,0.292-1.592,0.292
		c-0.521,0-1.033-0.09-1.526-0.269l-3.266,3.266l3.267,3.266c0.49-0.177,1.004-0.267,1.527-0.267c0.644,0,1.267,0.134,1.852,0.399
		c1.095,0.495,1.932,1.386,2.357,2.511c0.425,1.124,0.386,2.347-0.109,3.442c-0.067,0.15-0.204,0.257-0.366,0.286
		c-0.028,0.005-0.059,0.008-0.091,0.008c-0.131,0-0.259-0.053-0.353-0.147l-2-2h-1.293v1.293l2,2
		c0.116,0.116,0.168,0.282,0.138,0.444c-0.029,0.161-0.136,0.298-0.286,0.365c-0.585,0.265-1.209,0.399-1.853,0.399
		s-1.267-0.134-1.853-0.399c-1.095-0.495-1.932-1.386-2.357-2.511c-0.381-1.009-0.388-2.11-0.023-3.117l-3.266-3.266l-3.266,3.267
		c0.394,1.094,0.348,2.317-0.132,3.38c-0.495,1.095-1.387,1.932-2.511,2.357C5.579,23.908,5.043,24.006,4.501,24.006z M3.782,22.93
		c0.237,0.051,0.477,0.076,0.719,0.076c0.422,0,0.838-0.077,1.238-0.228c0.875-0.33,1.568-0.982,1.953-1.833
		c0.414-0.916,0.414-1.966,0-2.881c-0.085-0.189-0.044-0.414,0.102-0.56l9.708-9.708c0.095-0.094,0.22-0.146,0.354-0.146
		c0.072,0,0.141,0.015,0.206,0.044C18.517,7.9,19,8.004,19.497,8.004c1.376,0,2.63-0.808,3.196-2.059
		C23,5.262,23.081,4.509,22.928,3.784l-1.573,1.573c-0.094,0.094-0.22,0.146-0.354,0.146h-2c-0.276,0-0.5-0.224-0.5-0.5v-2
		c0-0.134,0.052-0.259,0.146-0.354l1.573-1.573c-0.235-0.049-0.474-0.074-0.714-0.074c-1.376,0-2.63,0.808-3.195,2.059
		c-0.414,0.916-0.414,1.966,0,2.882c0.085,0.188,0.044,0.413-0.102,0.559l-9.708,9.708c-0.094,0.094-0.22,0.146-0.353,0.146
		c-0.071,0-0.141-0.015-0.206-0.044c-0.459-0.207-0.943-0.312-1.439-0.312c-0.422,0-0.838,0.077-1.238,0.228
		c-0.875,0.33-1.568,0.982-1.953,1.833c-0.308,0.683-0.389,1.436-0.236,2.16l1.573-1.573c0.094-0.094,0.22-0.146,0.354-0.146h2
		c0.276,0,0.5,0.224,0.5,0.5v2c0,0.134-0.052,0.259-0.146,0.354L3.782,22.93z M16.209,17.504c0.146,0.146,0.187,0.371,0.102,0.56
		c-0.385,0.852-0.415,1.802-0.084,2.677s0.982,1.568,1.833,1.953c0.456,0.206,0.941,0.31,1.441,0.31
		c0.243,0,0.483-0.025,0.719-0.075l-1.572-1.572c-0.094-0.094-0.146-0.22-0.146-0.354v-2c0-0.276,0.224-0.5,0.5-0.5h2
		c0.134,0,0.259,0.052,0.354,0.146l1.574,1.574c0.139-0.651,0.088-1.32-0.153-1.958c-0.33-0.875-0.982-1.568-1.833-1.953
		c-0.456-0.206-0.94-0.31-1.441-0.31s-0.985,0.104-1.441,0.31c-0.065,0.03-0.134,0.044-0.206,0.044
		c-0.134,0-0.259-0.052-0.354-0.146l-3.501-3.501l-1.293,1.293L16.209,17.504z M6.148,7.649c0.133,0,0.259,0.052,0.353,0.147
		l3.5,3.5l1.293-1.293l-3.5-3.5C7.648,6.357,7.607,6.132,7.692,5.944c0.794-1.759,0.01-3.836-1.749-4.63
		c-0.456-0.206-0.941-0.31-1.441-0.31c-0.243,0-0.484,0.025-0.719,0.075L5.355,2.65C5.45,2.744,5.502,2.87,5.502,3.003v2
		c0,0.276-0.224,0.5-0.5,0.5h-2c-0.134,0-0.259-0.052-0.354-0.146L1.075,3.784c-0.34,1.593,0.464,3.223,1.985,3.91
		c0.456,0.206,0.941,0.31,1.441,0.31c0.5,0,0.985-0.104,1.441-0.31C6.007,7.664,6.076,7.649,6.148,7.649z"/>
</g>
</svg>
