<?xml version="1.0" encoding="utf-8"?>
<!-- Generator: Adobe Illustrator 22.1.0, SVG Export Plug-In . SVG Version: 6.00 Build 0)  -->
<svg version="1.1" xmlns="http://www.w3.org/2000/svg" xmlns:xlink="http://www.w3.org/1999/xlink" x="0px" y="0px"
	 viewBox="0 0 24 24" style="enable-background:new 0 0 24 24;" xml:space="preserve">
<g id="Light">
	<title>whale-body</title>
</g>
<g id="Layer_1">
	<g>
		<path d="M2.5,24C1.121,24,0,22.878,0,21.5v-19C0,1.121,1.121,0,2.5,0h10C13.878,0,15,1.121,15,2.5v9c0,0.276-0.224,0.5-0.5,0.5
			S14,11.776,14,11.5V5H1v14h6.5C7.776,19,8,19.224,8,19.5S7.776,20,7.5,20H1v1.5C1,22.327,1.673,23,2.5,23h5
			C7.776,23,8,23.224,8,23.5S7.776,24,7.5,24H2.5z M14,4V2.5C14,1.673,13.327,1,12.5,1h-10C1.673,1,1,1.673,1,2.5V4H14z"/>
		<path d="M5.5,3C5.224,3,5,2.776,5,2.5S5.224,2,5.5,2h4C9.776,2,10,2.224,10,2.5S9.776,3,9.5,3H5.5z"/>
		<path d="M11.5,19c-0.276,0-0.5-0.224-0.5-0.5s0.224-0.5,0.5-0.5h4c0.276,0,0.5,0.224,0.5,0.5S15.776,19,15.5,19H11.5z"/>
		<path d="M19.5,19c-0.276,0-0.5-0.224-0.5-0.5s0.224-0.5,0.5-0.5h2c0.276,0,0.5,0.224,0.5,0.5S21.776,19,21.5,19H19.5z"/>
		<path d="M11.5,21c-0.276,0-0.5-0.224-0.5-0.5s0.224-0.5,0.5-0.5h2c0.276,0,0.5,0.224,0.5,0.5S13.776,21,13.5,21H11.5z"/>
		<path d="M11.5,24C10.121,24,9,22.878,9,21.5v-6c0-1.378,1.121-2.5,2.5-2.5h10c1.378,0,2.5,1.122,2.5,2.5v6
			c0,1.378-1.122,2.5-2.5,2.5H11.5z M10,21.5c0,0.827,0.673,1.5,1.5,1.5h10c0.827,0,1.5-0.673,1.5-1.5V17H10V21.5z M23,16v-0.5
			c0-0.827-0.673-1.5-1.5-1.5h-10c-0.827,0-1.5,0.673-1.5,1.5V16H23z"/>
		<path d="M7.5,15.418c-0.276,0-0.5-0.224-0.5-0.5v-0.497c-0.806-0.222-1.391-0.97-1.391-1.821c0-0.276,0.224-0.5,0.5-0.5
			s0.5,0.224,0.5,0.5c0,0.491,0.4,0.891,0.891,0.891s0.891-0.4,0.891-0.891c0-0.491-0.4-0.891-0.891-0.891
			c-1.043,0-1.891-0.848-1.891-1.891c0-0.851,0.585-1.599,1.391-1.822V7.5C7,7.224,7.224,7,7.5,7S8,7.224,8,7.5v0.496
			c0.806,0.223,1.391,0.971,1.391,1.822c0,0.276-0.224,0.5-0.5,0.5s-0.5-0.224-0.5-0.5c0-0.485-0.392-0.882-0.876-0.891
			c-0.005,0-0.025,0-0.031,0C7.001,8.935,6.609,9.332,6.609,9.818c0,0.491,0.4,0.891,0.891,0.891c1.043,0,1.891,0.848,1.891,1.891
			c0,0.851-0.585,1.599-1.391,1.821v0.497C8,15.194,7.776,15.418,7.5,15.418z"/>
	</g>
</g>
</svg>
