<svg id="Regular" xmlns="http://www.w3.org/2000/svg" viewBox="0 0 24 24"><defs><style>.cls-1{fill:none;stroke:currentColor;stroke-linecap:round;stroke-linejoin:round;stroke-width:1.5px;}</style></defs><title>monkey-2</title><path class="cls-1" d="M5.25,7.456a6.75,6.75,0,0,1,13.5,0"/><path class="cls-1" d="M9.375,7.875a.375.375,0,0,1,.375.375"/><path class="cls-1" d="M9,8.25a.375.375,0,0,1,.375-.375"/><path class="cls-1" d="M9.375,8.625A.375.375,0,0,1,9,8.25"/><path class="cls-1" d="M9.75,8.25a.375.375,0,0,1-.375.375"/><path class="cls-1" d="M14.625,7.875A.375.375,0,0,1,15,8.25"/><path class="cls-1" d="M14.25,8.25a.375.375,0,0,1,.375-.375"/><path class="cls-1" d="M14.625,8.625a.375.375,0,0,1-.375-.375"/><path class="cls-1" d="M15,8.25a.375.375,0,0,1-.375.375"/><path class="cls-1" d="M16.141,14.479a1.933,1.933,0,0,0,.026-.229,2.26,2.26,0,0,0-2.5-2.084A2.64,2.64,0,0,0,12,12.75a2.64,2.64,0,0,0-1.667-.584,2.26,2.26,0,0,0-2.5,2.084,1.933,1.933,0,0,0,.026.229A5.928,5.928,0,0,0,4.5,19.5c0,2.692,3.358,3.75,7.5,3.75s7.5-1.058,7.5-3.75A5.928,5.928,0,0,0,16.141,14.479Z"/><path class="cls-1" d="M4.849,17.733A13.256,13.256,0,0,0,12,19.5a13.243,13.243,0,0,0,7.151-1.767"/><path class="cls-1" d="M5.383,6.123a3,3,0,1,0-.133,5.086"/><path class="cls-1" d="M18.617,6.123a3,3,0,1,1,.133,5.086"/></svg>